G04 #@! TF.GenerationSoftware,KiCad,Pcbnew,(6.0.6-0)*
G04 #@! TF.CreationDate,2023-01-05T22:25:42-05:00*
G04 #@! TF.ProjectId,10DIN2VGA VGA Board,31304449-4e32-4564-9741-205647412042,1*
G04 #@! TF.SameCoordinates,Original*
G04 #@! TF.FileFunction,Legend,Top*
G04 #@! TF.FilePolarity,Positive*
%FSLAX46Y46*%
G04 Gerber Fmt 4.6, Leading zero omitted, Abs format (unit mm)*
G04 Created by KiCad (PCBNEW (6.0.6-0)) date 2023-01-05 22:25:42*
%MOMM*%
%LPD*%
G01*
G04 APERTURE LIST*
G04 Aperture macros list*
%AMRoundRect*
0 Rectangle with rounded corners*
0 $1 Rounding radius*
0 $2 $3 $4 $5 $6 $7 $8 $9 X,Y pos of 4 corners*
0 Add a 4 corners polygon primitive as box body*
4,1,4,$2,$3,$4,$5,$6,$7,$8,$9,$2,$3,0*
0 Add four circle primitives for the rounded corners*
1,1,$1+$1,$2,$3*
1,1,$1+$1,$4,$5*
1,1,$1+$1,$6,$7*
1,1,$1+$1,$8,$9*
0 Add four rect primitives between the rounded corners*
20,1,$1+$1,$2,$3,$4,$5,0*
20,1,$1+$1,$4,$5,$6,$7,0*
20,1,$1+$1,$6,$7,$8,$9,0*
20,1,$1+$1,$8,$9,$2,$3,0*%
%AMFreePoly0*
4,1,37,0.535921,0.785921,0.550800,0.750000,0.550800,-0.750000,0.535921,-0.785921,0.500000,-0.800800,0.000000,-0.800800,-0.012526,-0.795612,-0.080872,-0.794359,-0.095090,-0.792057,-0.230405,-0.749782,-0.243405,-0.743581,-0.361415,-0.665026,-0.372153,-0.655426,-0.463373,-0.546907,-0.470984,-0.534678,-0.528079,-0.404919,-0.531952,-0.391047,-0.549535,-0.256587,-0.548147,-0.256405,-0.550800,-0.250000,
-0.550800,0.250000,-0.550314,0.251174,-0.550158,0.263925,-0.528347,0.404002,-0.524136,0.417775,-0.463888,0.546100,-0.455980,0.558139,-0.362136,0.664397,-0.351168,0.673732,-0.231273,0.749380,-0.218125,0.755261,-0.081818,0.794218,-0.067547,0.796173,-0.011991,0.795833,0.000000,0.800800,0.500000,0.800800,0.535921,0.785921,0.535921,0.785921,$1*%
%AMFreePoly1*
4,1,37,0.012350,0.795685,0.074215,0.795307,0.088460,0.793178,0.224281,0.752559,0.237356,0.746518,0.356318,0.669411,0.367173,0.659942,0.459711,0.552545,0.467470,0.540411,0.526147,0.411359,0.530190,0.397535,0.550287,0.257202,0.550800,0.250000,0.550800,-0.250000,0.550796,-0.250620,0.550647,-0.262836,0.549947,-0.270644,0.526427,-0.410445,0.522048,-0.424167,0.460236,-0.551746,
0.452182,-0.563686,0.357047,-0.668790,0.345965,-0.677991,0.225155,-0.752168,0.211936,-0.757888,0.075163,-0.795177,0.060870,-0.796957,0.011464,-0.796051,0.000000,-0.800800,-0.500000,-0.800800,-0.535921,-0.785921,-0.550800,-0.750000,-0.550800,0.750000,-0.535921,0.785921,-0.500000,0.800800,0.000000,0.800800,0.012350,0.795685,0.012350,0.795685,$1*%
G04 Aperture macros list end*
%ADD10C,0.120000*%
%ADD11C,0.127000*%
%ADD12C,0.100000*%
%ADD13RoundRect,0.431800X-1.119000X-0.381000X1.119000X-0.381000X1.119000X0.381000X-1.119000X0.381000X0*%
%ADD14FreePoly0,90.000000*%
%ADD15FreePoly1,90.000000*%
%ADD16RoundRect,0.050800X0.850000X-0.850000X0.850000X0.850000X-0.850000X0.850000X-0.850000X-0.850000X0*%
%ADD17C,1.801600*%
%ADD18C,4.167600*%
G04 APERTURE END LIST*
D10*
X149160000Y-115006666D02*
X149160000Y-115240000D01*
X149526666Y-115240000D02*
X148826666Y-115240000D01*
X148826666Y-114906666D01*
X149526666Y-114540000D02*
X149493333Y-114606666D01*
X149460000Y-114640000D01*
X149393333Y-114673333D01*
X149193333Y-114673333D01*
X149126666Y-114640000D01*
X149093333Y-114606666D01*
X149060000Y-114540000D01*
X149060000Y-114440000D01*
X149093333Y-114373333D01*
X149126666Y-114340000D01*
X149193333Y-114306666D01*
X149393333Y-114306666D01*
X149460000Y-114340000D01*
X149493333Y-114373333D01*
X149526666Y-114440000D01*
X149526666Y-114540000D01*
X149526666Y-114006666D02*
X149060000Y-114006666D01*
X149193333Y-114006666D02*
X149126666Y-113973333D01*
X149093333Y-113940000D01*
X149060000Y-113873333D01*
X149060000Y-113806666D01*
X149326666Y-113073333D02*
X149326666Y-112740000D01*
X149526666Y-113140000D02*
X148826666Y-112906666D01*
X149526666Y-112673333D01*
X149526666Y-112140000D02*
X148826666Y-112140000D01*
X149493333Y-112140000D02*
X149526666Y-112206666D01*
X149526666Y-112340000D01*
X149493333Y-112406666D01*
X149460000Y-112440000D01*
X149393333Y-112473333D01*
X149193333Y-112473333D01*
X149126666Y-112440000D01*
X149093333Y-112406666D01*
X149060000Y-112340000D01*
X149060000Y-112206666D01*
X149093333Y-112140000D01*
X149526666Y-111506666D02*
X149160000Y-111506666D01*
X149093333Y-111540000D01*
X149060000Y-111606666D01*
X149060000Y-111740000D01*
X149093333Y-111806666D01*
X149493333Y-111506666D02*
X149526666Y-111573333D01*
X149526666Y-111740000D01*
X149493333Y-111806666D01*
X149426666Y-111840000D01*
X149360000Y-111840000D01*
X149293333Y-111806666D01*
X149260000Y-111740000D01*
X149260000Y-111573333D01*
X149226666Y-111506666D01*
X149060000Y-111173333D02*
X149760000Y-111173333D01*
X149093333Y-111173333D02*
X149060000Y-111106666D01*
X149060000Y-110973333D01*
X149093333Y-110906666D01*
X149126666Y-110873333D01*
X149193333Y-110840000D01*
X149393333Y-110840000D01*
X149460000Y-110873333D01*
X149493333Y-110906666D01*
X149526666Y-110973333D01*
X149526666Y-111106666D01*
X149493333Y-111173333D01*
X149060000Y-110640000D02*
X149060000Y-110373333D01*
X148826666Y-110540000D02*
X149426666Y-110540000D01*
X149493333Y-110506666D01*
X149526666Y-110440000D01*
X149526666Y-110373333D01*
X149493333Y-109873333D02*
X149526666Y-109940000D01*
X149526666Y-110073333D01*
X149493333Y-110140000D01*
X149426666Y-110173333D01*
X149160000Y-110173333D01*
X149093333Y-110140000D01*
X149060000Y-110073333D01*
X149060000Y-109940000D01*
X149093333Y-109873333D01*
X149160000Y-109840000D01*
X149226666Y-109840000D01*
X149293333Y-110173333D01*
X149526666Y-109540000D02*
X149060000Y-109540000D01*
X149193333Y-109540000D02*
X149126666Y-109506666D01*
X149093333Y-109473333D01*
X149060000Y-109406666D01*
X149060000Y-109340000D01*
D11*
X142606285Y-95981304D02*
X142170857Y-95981304D01*
X142388571Y-95981304D02*
X142388571Y-95219304D01*
X142316000Y-95328161D01*
X142243428Y-95400732D01*
X142170857Y-95437018D01*
X143078000Y-95219304D02*
X143150571Y-95219304D01*
X143223142Y-95255590D01*
X143259428Y-95291875D01*
X143295714Y-95364447D01*
X143332000Y-95509590D01*
X143332000Y-95691018D01*
X143295714Y-95836161D01*
X143259428Y-95908732D01*
X143223142Y-95945018D01*
X143150571Y-95981304D01*
X143078000Y-95981304D01*
X143005428Y-95945018D01*
X142969142Y-95908732D01*
X142932857Y-95836161D01*
X142896571Y-95691018D01*
X142896571Y-95509590D01*
X142932857Y-95364447D01*
X142969142Y-95291875D01*
X143005428Y-95255590D01*
X143078000Y-95219304D01*
X143658571Y-95981304D02*
X143658571Y-95219304D01*
X143840000Y-95219304D01*
X143948857Y-95255590D01*
X144021428Y-95328161D01*
X144057714Y-95400732D01*
X144094000Y-95545875D01*
X144094000Y-95654732D01*
X144057714Y-95799875D01*
X144021428Y-95872447D01*
X143948857Y-95945018D01*
X143840000Y-95981304D01*
X143658571Y-95981304D01*
X144420571Y-95981304D02*
X144420571Y-95219304D01*
X144783428Y-95981304D02*
X144783428Y-95219304D01*
X145218857Y-95981304D01*
X145218857Y-95219304D01*
X145545428Y-95291875D02*
X145581714Y-95255590D01*
X145654285Y-95219304D01*
X145835714Y-95219304D01*
X145908285Y-95255590D01*
X145944571Y-95291875D01*
X145980857Y-95364447D01*
X145980857Y-95437018D01*
X145944571Y-95545875D01*
X145509142Y-95981304D01*
X145980857Y-95981304D01*
X146198571Y-95219304D02*
X146452571Y-95981304D01*
X146706571Y-95219304D01*
X147359714Y-95255590D02*
X147287142Y-95219304D01*
X147178285Y-95219304D01*
X147069428Y-95255590D01*
X146996857Y-95328161D01*
X146960571Y-95400732D01*
X146924285Y-95545875D01*
X146924285Y-95654732D01*
X146960571Y-95799875D01*
X146996857Y-95872447D01*
X147069428Y-95945018D01*
X147178285Y-95981304D01*
X147250857Y-95981304D01*
X147359714Y-95945018D01*
X147396000Y-95908732D01*
X147396000Y-95654732D01*
X147250857Y-95654732D01*
X147686285Y-95763590D02*
X148049142Y-95763590D01*
X147613714Y-95981304D02*
X147867714Y-95219304D01*
X148121714Y-95981304D01*
X142207142Y-96446124D02*
X142461142Y-97208124D01*
X142715142Y-96446124D01*
X143368285Y-96482410D02*
X143295714Y-96446124D01*
X143186857Y-96446124D01*
X143078000Y-96482410D01*
X143005428Y-96554981D01*
X142969142Y-96627552D01*
X142932857Y-96772695D01*
X142932857Y-96881552D01*
X142969142Y-97026695D01*
X143005428Y-97099267D01*
X143078000Y-97171838D01*
X143186857Y-97208124D01*
X143259428Y-97208124D01*
X143368285Y-97171838D01*
X143404571Y-97135552D01*
X143404571Y-96881552D01*
X143259428Y-96881552D01*
X143694857Y-96990410D02*
X144057714Y-96990410D01*
X143622285Y-97208124D02*
X143876285Y-96446124D01*
X144130285Y-97208124D01*
X145218857Y-96808981D02*
X145327714Y-96845267D01*
X145364000Y-96881552D01*
X145400285Y-96954124D01*
X145400285Y-97062981D01*
X145364000Y-97135552D01*
X145327714Y-97171838D01*
X145255142Y-97208124D01*
X144964857Y-97208124D01*
X144964857Y-96446124D01*
X145218857Y-96446124D01*
X145291428Y-96482410D01*
X145327714Y-96518695D01*
X145364000Y-96591267D01*
X145364000Y-96663838D01*
X145327714Y-96736410D01*
X145291428Y-96772695D01*
X145218857Y-96808981D01*
X144964857Y-96808981D01*
X145835714Y-97208124D02*
X145763142Y-97171838D01*
X145726857Y-97135552D01*
X145690571Y-97062981D01*
X145690571Y-96845267D01*
X145726857Y-96772695D01*
X145763142Y-96736410D01*
X145835714Y-96700124D01*
X145944571Y-96700124D01*
X146017142Y-96736410D01*
X146053428Y-96772695D01*
X146089714Y-96845267D01*
X146089714Y-97062981D01*
X146053428Y-97135552D01*
X146017142Y-97171838D01*
X145944571Y-97208124D01*
X145835714Y-97208124D01*
X146742857Y-97208124D02*
X146742857Y-96808981D01*
X146706571Y-96736410D01*
X146634000Y-96700124D01*
X146488857Y-96700124D01*
X146416285Y-96736410D01*
X146742857Y-97171838D02*
X146670285Y-97208124D01*
X146488857Y-97208124D01*
X146416285Y-97171838D01*
X146380000Y-97099267D01*
X146380000Y-97026695D01*
X146416285Y-96954124D01*
X146488857Y-96917838D01*
X146670285Y-96917838D01*
X146742857Y-96881552D01*
X147105714Y-97208124D02*
X147105714Y-96700124D01*
X147105714Y-96845267D02*
X147142000Y-96772695D01*
X147178285Y-96736410D01*
X147250857Y-96700124D01*
X147323428Y-96700124D01*
X147904000Y-97208124D02*
X147904000Y-96446124D01*
X147904000Y-97171838D02*
X147831428Y-97208124D01*
X147686285Y-97208124D01*
X147613714Y-97171838D01*
X147577428Y-97135552D01*
X147541142Y-97062981D01*
X147541142Y-96845267D01*
X147577428Y-96772695D01*
X147613714Y-96736410D01*
X147686285Y-96700124D01*
X147831428Y-96700124D01*
X147904000Y-96736410D01*
D12*
X142312380Y-97916190D02*
X142312380Y-98273333D01*
X142288571Y-98344761D01*
X142240952Y-98392380D01*
X142169523Y-98416190D01*
X142121904Y-98416190D01*
X142740952Y-98392380D02*
X142693333Y-98416190D01*
X142598095Y-98416190D01*
X142550476Y-98392380D01*
X142526666Y-98344761D01*
X142526666Y-98154285D01*
X142550476Y-98106666D01*
X142598095Y-98082857D01*
X142693333Y-98082857D01*
X142740952Y-98106666D01*
X142764761Y-98154285D01*
X142764761Y-98201904D01*
X142526666Y-98249523D01*
X142907619Y-98082857D02*
X143098095Y-98082857D01*
X142979047Y-98416190D02*
X142979047Y-97987619D01*
X143002857Y-97940000D01*
X143050476Y-97916190D01*
X143098095Y-97916190D01*
X143193333Y-98082857D02*
X143383809Y-98082857D01*
X143264761Y-98416190D02*
X143264761Y-97987619D01*
X143288571Y-97940000D01*
X143336190Y-97916190D01*
X143383809Y-97916190D01*
X144217142Y-98368571D02*
X144193333Y-98392380D01*
X144121904Y-98416190D01*
X144074285Y-98416190D01*
X144002857Y-98392380D01*
X143955238Y-98344761D01*
X143931428Y-98297142D01*
X143907619Y-98201904D01*
X143907619Y-98130476D01*
X143931428Y-98035238D01*
X143955238Y-97987619D01*
X144002857Y-97940000D01*
X144074285Y-97916190D01*
X144121904Y-97916190D01*
X144193333Y-97940000D01*
X144217142Y-97963809D01*
X144431428Y-98416190D02*
X144431428Y-97916190D01*
X144645714Y-98416190D02*
X144645714Y-98154285D01*
X144621904Y-98106666D01*
X144574285Y-98082857D01*
X144502857Y-98082857D01*
X144455238Y-98106666D01*
X144431428Y-98130476D01*
X145074285Y-98392380D02*
X145026666Y-98416190D01*
X144931428Y-98416190D01*
X144883809Y-98392380D01*
X144860000Y-98344761D01*
X144860000Y-98154285D01*
X144883809Y-98106666D01*
X144931428Y-98082857D01*
X145026666Y-98082857D01*
X145074285Y-98106666D01*
X145098095Y-98154285D01*
X145098095Y-98201904D01*
X144860000Y-98249523D01*
X145312380Y-98082857D02*
X145312380Y-98416190D01*
X145312380Y-98130476D02*
X145336190Y-98106666D01*
X145383809Y-98082857D01*
X145455238Y-98082857D01*
X145502857Y-98106666D01*
X145526666Y-98154285D01*
X145526666Y-98416190D01*
X145788571Y-98392380D02*
X145788571Y-98416190D01*
X145764761Y-98463809D01*
X145740952Y-98487619D01*
X146360000Y-97963809D02*
X146383809Y-97940000D01*
X146431428Y-97916190D01*
X146550476Y-97916190D01*
X146598095Y-97940000D01*
X146621904Y-97963809D01*
X146645714Y-98011428D01*
X146645714Y-98059047D01*
X146621904Y-98130476D01*
X146336190Y-98416190D01*
X146645714Y-98416190D01*
X146955238Y-97916190D02*
X147002857Y-97916190D01*
X147050476Y-97940000D01*
X147074285Y-97963809D01*
X147098095Y-98011428D01*
X147121904Y-98106666D01*
X147121904Y-98225714D01*
X147098095Y-98320952D01*
X147074285Y-98368571D01*
X147050476Y-98392380D01*
X147002857Y-98416190D01*
X146955238Y-98416190D01*
X146907619Y-98392380D01*
X146883809Y-98368571D01*
X146860000Y-98320952D01*
X146836190Y-98225714D01*
X146836190Y-98106666D01*
X146860000Y-98011428D01*
X146883809Y-97963809D01*
X146907619Y-97940000D01*
X146955238Y-97916190D01*
X147312380Y-97963809D02*
X147336190Y-97940000D01*
X147383809Y-97916190D01*
X147502857Y-97916190D01*
X147550476Y-97940000D01*
X147574285Y-97963809D01*
X147598095Y-98011428D01*
X147598095Y-98059047D01*
X147574285Y-98130476D01*
X147288571Y-98416190D01*
X147598095Y-98416190D01*
X147764761Y-97916190D02*
X148074285Y-97916190D01*
X147907619Y-98106666D01*
X147979047Y-98106666D01*
X148026666Y-98130476D01*
X148050476Y-98154285D01*
X148074285Y-98201904D01*
X148074285Y-98320952D01*
X148050476Y-98368571D01*
X148026666Y-98392380D01*
X147979047Y-98416190D01*
X147836190Y-98416190D01*
X147788571Y-98392380D01*
X147764761Y-98368571D01*
D11*
X140662857Y-90932714D02*
X141098285Y-90932714D01*
X140880571Y-91694714D02*
X140880571Y-90932714D01*
X141461142Y-91694714D02*
X141388571Y-91658428D01*
X141352285Y-91622142D01*
X141316000Y-91549571D01*
X141316000Y-91331857D01*
X141352285Y-91259285D01*
X141388571Y-91223000D01*
X141461142Y-91186714D01*
X141570000Y-91186714D01*
X141642571Y-91223000D01*
X141678857Y-91259285D01*
X141715142Y-91331857D01*
X141715142Y-91549571D01*
X141678857Y-91622142D01*
X141642571Y-91658428D01*
X141570000Y-91694714D01*
X141461142Y-91694714D01*
X142041714Y-91186714D02*
X142041714Y-91948714D01*
X142041714Y-91223000D02*
X142114285Y-91186714D01*
X142259428Y-91186714D01*
X142332000Y-91223000D01*
X142368285Y-91259285D01*
X142404571Y-91331857D01*
X142404571Y-91549571D01*
X142368285Y-91622142D01*
X142332000Y-91658428D01*
X142259428Y-91694714D01*
X142114285Y-91694714D01*
X142041714Y-91658428D01*
X141083857Y-119314714D02*
X140721000Y-119314714D01*
X140721000Y-118552714D01*
X141628142Y-119278428D02*
X141555571Y-119314714D01*
X141410428Y-119314714D01*
X141337857Y-119278428D01*
X141301571Y-119205857D01*
X141301571Y-118915571D01*
X141337857Y-118843000D01*
X141410428Y-118806714D01*
X141555571Y-118806714D01*
X141628142Y-118843000D01*
X141664428Y-118915571D01*
X141664428Y-118988142D01*
X141301571Y-119060714D01*
X141882142Y-118806714D02*
X142172428Y-118806714D01*
X141991000Y-119314714D02*
X141991000Y-118661571D01*
X142027285Y-118589000D01*
X142099857Y-118552714D01*
X142172428Y-118552714D01*
X142317571Y-118806714D02*
X142607857Y-118806714D01*
X142426428Y-118552714D02*
X142426428Y-119205857D01*
X142462714Y-119278428D01*
X142535285Y-119314714D01*
X142607857Y-119314714D01*
D10*
X148520000Y-111610000D02*
X148520000Y-113010000D01*
X147820000Y-113710000D02*
X147220000Y-113710000D01*
X147220000Y-110910000D02*
X147820000Y-110910000D01*
X146520000Y-113010000D02*
X146520000Y-111610000D01*
X146520000Y-113010000D02*
G75*
G03*
X147220000Y-113710000I699999J-1D01*
G01*
X148520000Y-111610000D02*
G75*
G03*
X147820000Y-110910000I-700000J0D01*
G01*
X147220000Y-110910000D02*
G75*
G03*
X146520000Y-111610000I0J-700000D01*
G01*
X147820000Y-113710000D02*
G75*
G03*
X148520000Y-113010000I1J699999D01*
G01*
%LPC*%
D13*
X139450000Y-111955000D03*
X139450000Y-114495000D03*
X139450000Y-109415000D03*
X139450000Y-106875000D03*
X139450000Y-104335000D03*
X139450000Y-101795000D03*
D14*
X147520000Y-112960000D03*
D15*
X147520000Y-111660000D03*
D16*
X143170000Y-109305000D03*
D17*
X143170000Y-107015000D03*
X143170000Y-104725000D03*
X143170000Y-102435000D03*
X143170000Y-100145000D03*
X145150000Y-110450000D03*
X145150000Y-108160000D03*
X145150000Y-105870000D03*
X145150000Y-103580000D03*
X145150000Y-101290000D03*
X147130000Y-109305000D03*
X147130000Y-107015000D03*
X147130000Y-104725000D03*
X147130000Y-102435000D03*
X147130000Y-100145000D03*
D18*
X145150000Y-92230000D03*
X145150000Y-117220000D03*
M02*
