G04 #@! TF.GenerationSoftware,KiCad,Pcbnew,(6.0.6-0)*
G04 #@! TF.CreationDate,2023-01-05T22:25:42-05:00*
G04 #@! TF.ProjectId,10DIN2VGA VGA Board,31304449-4e32-4564-9741-205647412042,1*
G04 #@! TF.SameCoordinates,Original*
G04 #@! TF.FileFunction,Copper,L2,Bot*
G04 #@! TF.FilePolarity,Positive*
%FSLAX46Y46*%
G04 Gerber Fmt 4.6, Leading zero omitted, Abs format (unit mm)*
G04 Created by KiCad (PCBNEW (6.0.6-0)) date 2023-01-05 22:25:42*
%MOMM*%
%LPD*%
G01*
G04 APERTURE LIST*
G04 Aperture macros list*
%AMRoundRect*
0 Rectangle with rounded corners*
0 $1 Rounding radius*
0 $2 $3 $4 $5 $6 $7 $8 $9 X,Y pos of 4 corners*
0 Add a 4 corners polygon primitive as box body*
4,1,4,$2,$3,$4,$5,$6,$7,$8,$9,$2,$3,0*
0 Add four circle primitives for the rounded corners*
1,1,$1+$1,$2,$3*
1,1,$1+$1,$4,$5*
1,1,$1+$1,$6,$7*
1,1,$1+$1,$8,$9*
0 Add four rect primitives between the rounded corners*
20,1,$1+$1,$2,$3,$4,$5,0*
20,1,$1+$1,$4,$5,$6,$7,0*
20,1,$1+$1,$6,$7,$8,$9,0*
20,1,$1+$1,$8,$9,$2,$3,0*%
G04 Aperture macros list end*
G04 #@! TA.AperFunction,SMDPad,CuDef*
%ADD10RoundRect,0.381000X-1.119000X-0.381000X1.119000X-0.381000X1.119000X0.381000X-1.119000X0.381000X0*%
G04 #@! TD*
G04 #@! TA.AperFunction,ComponentPad*
%ADD11R,1.700000X1.700000*%
G04 #@! TD*
G04 #@! TA.AperFunction,ComponentPad*
%ADD12C,1.700000*%
G04 #@! TD*
G04 #@! TA.AperFunction,ComponentPad*
%ADD13C,4.066000*%
G04 #@! TD*
G04 #@! TA.AperFunction,ViaPad*
%ADD14C,0.700000*%
G04 #@! TD*
G04 #@! TA.AperFunction,Conductor*
%ADD15C,0.250000*%
G04 #@! TD*
G04 APERTURE END LIST*
D10*
X139450000Y-113230000D03*
X139450000Y-103070000D03*
X139450000Y-110690000D03*
X139450000Y-105610000D03*
X139450000Y-108150000D03*
D11*
X143170000Y-109305000D03*
D12*
X143170000Y-107015000D03*
X143170000Y-104725000D03*
X143170000Y-102435000D03*
X143170000Y-100145000D03*
X145150000Y-110450000D03*
X145150000Y-108160000D03*
X145150000Y-105870000D03*
X145150000Y-103580000D03*
X145150000Y-101290000D03*
X147130000Y-109305000D03*
X147130000Y-107015000D03*
X147130000Y-104725000D03*
X147130000Y-102435000D03*
X147130000Y-100145000D03*
D13*
X145150000Y-92230000D03*
X145150000Y-117220000D03*
D14*
X142310000Y-111950000D03*
D15*
X147130000Y-104720000D02*
X149440000Y-107030000D01*
X141140001Y-114200000D02*
X140170001Y-113230000D01*
X149440000Y-107030000D02*
X149440000Y-112821721D01*
X149440000Y-112821721D02*
X148061721Y-114200000D01*
X148061721Y-114200000D02*
X141140001Y-114200000D01*
X140170001Y-113230000D02*
X139450000Y-113230000D01*
X148600000Y-108480000D02*
X147130000Y-107010000D01*
X148600000Y-110110000D02*
X148600000Y-108480000D01*
X142310000Y-111950000D02*
X146760000Y-111950000D01*
X146760000Y-111950000D02*
X148600000Y-110110000D01*
X142080000Y-103580000D02*
X145150000Y-103580000D01*
X141570000Y-103070000D02*
X142080000Y-103580000D01*
X139450000Y-103070000D02*
X141570000Y-103070000D01*
X139000000Y-103070000D02*
X139510000Y-103580000D01*
X145150000Y-110450000D02*
X144910000Y-110690000D01*
X144910000Y-110690000D02*
X139450000Y-110690000D01*
X141660000Y-105610000D02*
X141920000Y-105870000D01*
X141920000Y-105870000D02*
X145150000Y-105870000D01*
X141660000Y-105610000D02*
X139450000Y-105610000D01*
X145150000Y-108160000D02*
X139460000Y-108160000D01*
X139460000Y-108160000D02*
X139450000Y-108150000D01*
G04 #@! TA.AperFunction,Conductor*
G36*
X148190742Y-90272308D02*
G01*
X148200614Y-90274522D01*
X148209277Y-90272512D01*
X148218178Y-90272479D01*
X148218178Y-90272600D01*
X148226237Y-90271922D01*
X148437989Y-90284690D01*
X148448269Y-90285991D01*
X148513861Y-90298716D01*
X148676358Y-90330241D01*
X148686389Y-90332881D01*
X148786884Y-90366521D01*
X148906710Y-90406632D01*
X148916299Y-90410559D01*
X148990032Y-90446578D01*
X149125064Y-90512543D01*
X149134065Y-90517698D01*
X149327658Y-90646149D01*
X149335906Y-90652439D01*
X149511009Y-90805154D01*
X149518359Y-90812467D01*
X149654099Y-90966552D01*
X149671943Y-90986807D01*
X149678273Y-90995023D01*
X149807688Y-91187977D01*
X149812888Y-91196953D01*
X149915906Y-91405199D01*
X149919882Y-91414768D01*
X149994734Y-91634736D01*
X149997421Y-91644746D01*
X150042806Y-91872615D01*
X150044158Y-91882885D01*
X150057946Y-92094057D01*
X150057299Y-92102065D01*
X150057495Y-92102065D01*
X150057475Y-92110960D01*
X150055477Y-92119631D01*
X150057437Y-92128311D01*
X150057665Y-92129322D01*
X150059605Y-92146720D01*
X150059501Y-119890500D01*
X150041018Y-119941280D01*
X149994219Y-119968300D01*
X149980501Y-119969500D01*
X140239500Y-119969500D01*
X140188720Y-119951018D01*
X140161700Y-119904218D01*
X140160500Y-119890500D01*
X140160500Y-119003422D01*
X143725626Y-119003422D01*
X143727022Y-119008633D01*
X143755270Y-119033406D01*
X143759368Y-119036551D01*
X144003898Y-119199941D01*
X144008370Y-119202523D01*
X144272136Y-119332597D01*
X144276915Y-119334577D01*
X144555388Y-119429106D01*
X144560394Y-119430447D01*
X144848832Y-119487821D01*
X144853949Y-119488495D01*
X145147422Y-119507730D01*
X145152578Y-119507730D01*
X145446051Y-119488495D01*
X145451168Y-119487821D01*
X145739606Y-119430447D01*
X145744612Y-119429106D01*
X146023085Y-119334577D01*
X146027864Y-119332597D01*
X146291630Y-119202523D01*
X146296102Y-119199941D01*
X146540632Y-119036551D01*
X146544730Y-119033406D01*
X146568952Y-119012164D01*
X146574414Y-119002207D01*
X146573361Y-118996915D01*
X145159851Y-117583404D01*
X145149557Y-117578604D01*
X145143263Y-117580290D01*
X143730426Y-118993128D01*
X143725626Y-119003422D01*
X140160500Y-119003422D01*
X140160500Y-117222578D01*
X142862270Y-117222578D01*
X142881505Y-117516051D01*
X142882179Y-117521168D01*
X142939553Y-117809606D01*
X142940894Y-117814612D01*
X143035423Y-118093085D01*
X143037403Y-118097864D01*
X143167477Y-118361629D01*
X143170059Y-118366102D01*
X143333449Y-118610632D01*
X143336594Y-118614730D01*
X143357836Y-118638952D01*
X143367793Y-118644414D01*
X143373085Y-118643361D01*
X144786596Y-117229851D01*
X144790983Y-117220443D01*
X145508604Y-117220443D01*
X145510290Y-117226737D01*
X146923128Y-118639574D01*
X146933422Y-118644374D01*
X146938633Y-118642978D01*
X146963406Y-118614730D01*
X146966551Y-118610632D01*
X147129941Y-118366102D01*
X147132523Y-118361629D01*
X147262597Y-118097864D01*
X147264577Y-118093085D01*
X147359106Y-117814612D01*
X147360447Y-117809606D01*
X147417821Y-117521168D01*
X147418495Y-117516051D01*
X147437730Y-117222578D01*
X147437730Y-117217422D01*
X147418495Y-116923949D01*
X147417821Y-116918832D01*
X147360447Y-116630394D01*
X147359106Y-116625388D01*
X147264577Y-116346915D01*
X147262597Y-116342136D01*
X147132523Y-116078371D01*
X147129941Y-116073898D01*
X146966551Y-115829368D01*
X146963406Y-115825270D01*
X146942164Y-115801048D01*
X146932207Y-115795586D01*
X146926915Y-115796639D01*
X145513404Y-117210149D01*
X145508604Y-117220443D01*
X144790983Y-117220443D01*
X144791396Y-117219557D01*
X144789710Y-117213263D01*
X143376872Y-115800426D01*
X143366578Y-115795626D01*
X143361367Y-115797022D01*
X143336594Y-115825270D01*
X143333449Y-115829368D01*
X143170059Y-116073898D01*
X143167477Y-116078371D01*
X143037403Y-116342136D01*
X143035423Y-116346915D01*
X142940894Y-116625388D01*
X142939553Y-116630394D01*
X142882179Y-116918832D01*
X142881505Y-116923949D01*
X142862270Y-117217422D01*
X142862270Y-117222578D01*
X140160500Y-117222578D01*
X140160500Y-116225198D01*
X140160904Y-116218785D01*
X140164000Y-116210718D01*
X140161024Y-116184997D01*
X140160500Y-116175917D01*
X140160500Y-116170446D01*
X140159363Y-116165816D01*
X140159293Y-116165238D01*
X140157737Y-116156585D01*
X140156035Y-116141876D01*
X140156035Y-116141875D01*
X140154936Y-116132380D01*
X140149735Y-116124728D01*
X140149359Y-116123504D01*
X140148699Y-116122401D01*
X140146492Y-116113416D01*
X140130385Y-116095146D01*
X140124306Y-116087309D01*
X140115985Y-116075065D01*
X140115983Y-116075063D01*
X140110609Y-116067156D01*
X140102454Y-116062784D01*
X140101554Y-116061874D01*
X140100461Y-116061204D01*
X140094341Y-116054262D01*
X140085415Y-116050836D01*
X140085414Y-116050835D01*
X140071601Y-116045533D01*
X140062580Y-116041402D01*
X140047509Y-116033321D01*
X140047506Y-116033320D01*
X140041109Y-116029890D01*
X140038022Y-116029500D01*
X140035198Y-116029500D01*
X140028785Y-116029096D01*
X140020718Y-116026000D01*
X139995853Y-116028877D01*
X139994997Y-116028976D01*
X139985917Y-116029500D01*
X138049500Y-116029500D01*
X137998720Y-116011018D01*
X137971700Y-115964218D01*
X137970500Y-115950500D01*
X137970500Y-115437793D01*
X143725586Y-115437793D01*
X143726639Y-115443085D01*
X145140149Y-116856596D01*
X145150443Y-116861396D01*
X145156737Y-116859710D01*
X146569574Y-115446872D01*
X146574374Y-115436578D01*
X146572978Y-115431367D01*
X146544730Y-115406594D01*
X146540632Y-115403449D01*
X146296102Y-115240059D01*
X146291630Y-115237477D01*
X146027864Y-115107403D01*
X146023085Y-115105423D01*
X145744612Y-115010894D01*
X145739606Y-115009553D01*
X145451168Y-114952179D01*
X145446051Y-114951505D01*
X145152578Y-114932270D01*
X145147422Y-114932270D01*
X144853949Y-114951505D01*
X144848832Y-114952179D01*
X144560394Y-115009553D01*
X144555388Y-115010894D01*
X144276915Y-115105423D01*
X144272136Y-115107403D01*
X144008371Y-115237477D01*
X144003898Y-115240059D01*
X143759368Y-115403449D01*
X143755270Y-115406594D01*
X143731048Y-115427836D01*
X143725586Y-115437793D01*
X137970500Y-115437793D01*
X137970500Y-114166948D01*
X137988982Y-114116168D01*
X138035782Y-114089148D01*
X138078581Y-114093496D01*
X138195901Y-114139946D01*
X138195911Y-114139948D01*
X138200620Y-114141813D01*
X138205650Y-114142422D01*
X138205651Y-114142422D01*
X138219642Y-114144115D01*
X138288931Y-114152500D01*
X139449756Y-114152500D01*
X140611068Y-114152499D01*
X140642192Y-114148733D01*
X140694825Y-114160982D01*
X140707543Y-114171300D01*
X140901719Y-114365476D01*
X140904823Y-114369071D01*
X140906827Y-114373171D01*
X140912174Y-114378131D01*
X140941496Y-114405331D01*
X140943631Y-114407388D01*
X140956897Y-114420654D01*
X140959903Y-114422716D01*
X140961460Y-114424010D01*
X140964695Y-114426851D01*
X140984801Y-114445502D01*
X140991577Y-114448205D01*
X140991578Y-114448206D01*
X140996518Y-114450177D01*
X141011927Y-114458405D01*
X141016311Y-114461412D01*
X141022329Y-114465540D01*
X141029425Y-114467224D01*
X141029427Y-114467225D01*
X141048024Y-114471638D01*
X141059055Y-114475127D01*
X141072423Y-114480460D01*
X141083587Y-114484914D01*
X141089564Y-114485500D01*
X141097193Y-114485500D01*
X141115435Y-114487635D01*
X141125813Y-114490098D01*
X141133043Y-114489114D01*
X141133044Y-114489114D01*
X141154292Y-114486222D01*
X141164946Y-114485500D01*
X148010247Y-114485500D01*
X148014976Y-114485847D01*
X148019292Y-114487329D01*
X148066520Y-114485556D01*
X148069483Y-114485500D01*
X148088273Y-114485500D01*
X148091850Y-114484834D01*
X148093893Y-114484645D01*
X148098190Y-114484367D01*
X148118284Y-114483613D01*
X148118286Y-114483613D01*
X148125574Y-114483339D01*
X148137163Y-114478360D01*
X148153876Y-114473283D01*
X148159105Y-114472309D01*
X148159109Y-114472308D01*
X148166280Y-114470972D01*
X148188766Y-114457112D01*
X148199031Y-114451780D01*
X148213643Y-114445502D01*
X148223295Y-114441355D01*
X148227936Y-114437543D01*
X148233327Y-114432152D01*
X148247735Y-114420763D01*
X148250607Y-114418993D01*
X148250610Y-114418990D01*
X148256819Y-114415163D01*
X148274221Y-114392278D01*
X148281244Y-114384235D01*
X149605476Y-113060003D01*
X149609071Y-113056899D01*
X149613171Y-113054895D01*
X149645331Y-113020226D01*
X149647388Y-113018091D01*
X149660654Y-113004825D01*
X149662716Y-113001819D01*
X149664010Y-113000262D01*
X149666852Y-112997026D01*
X149680540Y-112982270D01*
X149685502Y-112976921D01*
X149690175Y-112965208D01*
X149698404Y-112949796D01*
X149705541Y-112939393D01*
X149711639Y-112913694D01*
X149715129Y-112902659D01*
X149724914Y-112878135D01*
X149725500Y-112872158D01*
X149725500Y-112864528D01*
X149727635Y-112846287D01*
X149728413Y-112843008D01*
X149730098Y-112835909D01*
X149726222Y-112807430D01*
X149725500Y-112796776D01*
X149725500Y-107081473D01*
X149725847Y-107076744D01*
X149727329Y-107072428D01*
X149725556Y-107025200D01*
X149725500Y-107022237D01*
X149725500Y-107003448D01*
X149724834Y-106999871D01*
X149724645Y-106997828D01*
X149724367Y-106993531D01*
X149723613Y-106973437D01*
X149723613Y-106973435D01*
X149723339Y-106966147D01*
X149718360Y-106954558D01*
X149713283Y-106937845D01*
X149712309Y-106932616D01*
X149712308Y-106932612D01*
X149710972Y-106925441D01*
X149697112Y-106902955D01*
X149691780Y-106892690D01*
X149688420Y-106884869D01*
X149681355Y-106868426D01*
X149677543Y-106863785D01*
X149672152Y-106858394D01*
X149660763Y-106843986D01*
X149658993Y-106841114D01*
X149658990Y-106841111D01*
X149655163Y-106834902D01*
X149632642Y-106817777D01*
X149632278Y-106817500D01*
X149624235Y-106810477D01*
X148547006Y-105733248D01*
X148534998Y-105717820D01*
X148530865Y-105710882D01*
X148530863Y-105710880D01*
X148528882Y-105707554D01*
X148513457Y-105690443D01*
X148413001Y-105579012D01*
X148406854Y-105571271D01*
X148399951Y-105561361D01*
X148331094Y-105462514D01*
X148325172Y-105452516D01*
X148277888Y-105357349D01*
X148273425Y-105346365D01*
X148244135Y-105255212D01*
X148241717Y-105245693D01*
X148240418Y-105238808D01*
X148223181Y-105147464D01*
X148222302Y-105141600D01*
X148222275Y-105141356D01*
X148209598Y-105027916D01*
X148209457Y-105026539D01*
X148203767Y-104965633D01*
X148197399Y-104897481D01*
X148197121Y-104894751D01*
X148197081Y-104894388D01*
X148196754Y-104891633D01*
X148178823Y-104750660D01*
X148178440Y-104748013D01*
X148178050Y-104745326D01*
X148177995Y-104744946D01*
X148177861Y-104744123D01*
X148176786Y-104738202D01*
X148145822Y-104583680D01*
X148144134Y-104576165D01*
X148143872Y-104575114D01*
X148141856Y-104567757D01*
X148126904Y-104517724D01*
X148093443Y-104405761D01*
X148092764Y-104403489D01*
X148091820Y-104401318D01*
X148091816Y-104401308D01*
X148080760Y-104375891D01*
X148077575Y-104367214D01*
X148069890Y-104341761D01*
X148069890Y-104341760D01*
X148068774Y-104338065D01*
X148055125Y-104312394D01*
X148001381Y-104211318D01*
X147975739Y-104163092D01*
X147968919Y-104154729D01*
X147852930Y-104012514D01*
X147850490Y-104009522D01*
X147838415Y-103999532D01*
X147700773Y-103885665D01*
X147700772Y-103885664D01*
X147697798Y-103883204D01*
X147679979Y-103873569D01*
X147614948Y-103838407D01*
X147523479Y-103788950D01*
X147334172Y-103730350D01*
X147137089Y-103709636D01*
X147133243Y-103709986D01*
X147133242Y-103709986D01*
X147085597Y-103714322D01*
X146939735Y-103727596D01*
X146936028Y-103728687D01*
X146753338Y-103782456D01*
X146753335Y-103782457D01*
X146749629Y-103783548D01*
X146746202Y-103785340D01*
X146746201Y-103785340D01*
X146742284Y-103787388D01*
X146574010Y-103875359D01*
X146571003Y-103877777D01*
X146571001Y-103877778D01*
X146563285Y-103883982D01*
X146419570Y-103999532D01*
X146408677Y-104012514D01*
X146313766Y-104125625D01*
X146292189Y-104151339D01*
X146290327Y-104154727D01*
X146290325Y-104154729D01*
X146208099Y-104304298D01*
X146196720Y-104324996D01*
X146136800Y-104513889D01*
X146114710Y-104710823D01*
X146118095Y-104751134D01*
X146130155Y-104894751D01*
X146131292Y-104908297D01*
X146185915Y-105098790D01*
X146276498Y-105275045D01*
X146399590Y-105430348D01*
X146550504Y-105558786D01*
X146553878Y-105560672D01*
X146553880Y-105560673D01*
X146631462Y-105604032D01*
X146723490Y-105655465D01*
X146727152Y-105656655D01*
X146727157Y-105656657D01*
X146786082Y-105675802D01*
X146798040Y-105680806D01*
X146816618Y-105690443D01*
X146820353Y-105691525D01*
X146820352Y-105691525D01*
X146964330Y-105733248D01*
X146980883Y-105738045D01*
X146981360Y-105738171D01*
X146981370Y-105738174D01*
X146987907Y-105739904D01*
X146987924Y-105739908D01*
X146988331Y-105740016D01*
X146988716Y-105740108D01*
X146988758Y-105740119D01*
X146988934Y-105740161D01*
X146988958Y-105740167D01*
X146989377Y-105740267D01*
X146996748Y-105741860D01*
X146997196Y-105741946D01*
X146997210Y-105741949D01*
X147051743Y-105752433D01*
X147151242Y-105771562D01*
X147151508Y-105771608D01*
X147151528Y-105771612D01*
X147156692Y-105772511D01*
X147156718Y-105772515D01*
X147156975Y-105772560D01*
X147157789Y-105772687D01*
X147158169Y-105772739D01*
X147158173Y-105772740D01*
X147163238Y-105773439D01*
X147163288Y-105773445D01*
X147163575Y-105773485D01*
X147263165Y-105785441D01*
X147304345Y-105790385D01*
X147304367Y-105790388D01*
X147304529Y-105790407D01*
X147305458Y-105790512D01*
X147306811Y-105790665D01*
X147306831Y-105790667D01*
X147306857Y-105790670D01*
X147307090Y-105790695D01*
X147307121Y-105790698D01*
X147307134Y-105790699D01*
X147307207Y-105790707D01*
X147308981Y-105790878D01*
X147310012Y-105790978D01*
X147310053Y-105790982D01*
X147310201Y-105790996D01*
X147439082Y-105802256D01*
X147440506Y-105802394D01*
X147531187Y-105812078D01*
X147553725Y-105814485D01*
X147559696Y-105815354D01*
X147657427Y-105833420D01*
X147667043Y-105835830D01*
X147757661Y-105864694D01*
X147768736Y-105869170D01*
X147863368Y-105916021D01*
X147873432Y-105921968D01*
X147981707Y-105997292D01*
X147989480Y-106003459D01*
X148114879Y-106116474D01*
X148114886Y-106116479D01*
X148117572Y-106118900D01*
X148120654Y-106120790D01*
X148120659Y-106120794D01*
X148129192Y-106126027D01*
X148143752Y-106137510D01*
X149131361Y-107125119D01*
X149154199Y-107174095D01*
X149154500Y-107180980D01*
X149154500Y-112670741D01*
X149136018Y-112721521D01*
X149131361Y-112726602D01*
X147966602Y-113891361D01*
X147917626Y-113914199D01*
X147910741Y-113914500D01*
X141290981Y-113914500D01*
X141240201Y-113896018D01*
X141235120Y-113891361D01*
X141125415Y-113781656D01*
X141102577Y-113732680D01*
X141102848Y-113716305D01*
X141110214Y-113655433D01*
X141110214Y-113655432D01*
X141110500Y-113653069D01*
X141110499Y-112806932D01*
X141099813Y-112718620D01*
X141045198Y-112580676D01*
X140955498Y-112462502D01*
X140837324Y-112372802D01*
X140773185Y-112347408D01*
X140704092Y-112320052D01*
X140704088Y-112320051D01*
X140699380Y-112318187D01*
X140694350Y-112317578D01*
X140694349Y-112317578D01*
X140663829Y-112313885D01*
X140611069Y-112307500D01*
X139450244Y-112307500D01*
X138288932Y-112307501D01*
X138274144Y-112309290D01*
X138205658Y-112317577D01*
X138205655Y-112317578D01*
X138200620Y-112318187D01*
X138195905Y-112320054D01*
X138195896Y-112320056D01*
X138078581Y-112366504D01*
X138024563Y-112368013D01*
X137982213Y-112334447D01*
X137970500Y-112293052D01*
X137970500Y-111943699D01*
X141794288Y-111943699D01*
X141813249Y-112088695D01*
X141872143Y-112222542D01*
X141875765Y-112226851D01*
X141920715Y-112280325D01*
X141966236Y-112334479D01*
X142087964Y-112415508D01*
X142227541Y-112459116D01*
X142277056Y-112460023D01*
X142368120Y-112461692D01*
X142368121Y-112461692D01*
X142373747Y-112461795D01*
X142514829Y-112423332D01*
X142524306Y-112417513D01*
X142538431Y-112411300D01*
X142538269Y-112410890D01*
X142541882Y-112409462D01*
X142545612Y-112408397D01*
X142569094Y-112396336D01*
X142597829Y-112381576D01*
X142597900Y-112381539D01*
X142597970Y-112381503D01*
X142600886Y-112379968D01*
X142601257Y-112379768D01*
X142601397Y-112379691D01*
X142603923Y-112378297D01*
X142603986Y-112378261D01*
X142604154Y-112378169D01*
X142655614Y-112349085D01*
X142658505Y-112347412D01*
X142703613Y-112320703D01*
X142704143Y-112320393D01*
X142741581Y-112298679D01*
X142744647Y-112296990D01*
X142773845Y-112281742D01*
X142779375Y-112279122D01*
X142803996Y-112268602D01*
X142811299Y-112265898D01*
X142836850Y-112257853D01*
X142844703Y-112255820D01*
X142877461Y-112249115D01*
X142884737Y-112247976D01*
X142894916Y-112246867D01*
X142930124Y-112243032D01*
X142936175Y-112242607D01*
X142978097Y-112241278D01*
X142993915Y-112240776D01*
X143008976Y-112237406D01*
X143026226Y-112235500D01*
X146708526Y-112235500D01*
X146713255Y-112235847D01*
X146717571Y-112237329D01*
X146764799Y-112235556D01*
X146767762Y-112235500D01*
X146786552Y-112235500D01*
X146790129Y-112234834D01*
X146792172Y-112234645D01*
X146796469Y-112234367D01*
X146816563Y-112233613D01*
X146816565Y-112233613D01*
X146823853Y-112233339D01*
X146835442Y-112228360D01*
X146852155Y-112223283D01*
X146857384Y-112222309D01*
X146857388Y-112222308D01*
X146864559Y-112220972D01*
X146887045Y-112207112D01*
X146897310Y-112201780D01*
X146899094Y-112201014D01*
X146921574Y-112191355D01*
X146926215Y-112187543D01*
X146931606Y-112182152D01*
X146946014Y-112170763D01*
X146948886Y-112168993D01*
X146948889Y-112168990D01*
X146955098Y-112165163D01*
X146972500Y-112142278D01*
X146979523Y-112134235D01*
X148765476Y-110348282D01*
X148769071Y-110345178D01*
X148773171Y-110343174D01*
X148805331Y-110308505D01*
X148807388Y-110306370D01*
X148820654Y-110293104D01*
X148822716Y-110290098D01*
X148824010Y-110288541D01*
X148826852Y-110285305D01*
X148840540Y-110270549D01*
X148845502Y-110265200D01*
X148850175Y-110253487D01*
X148858404Y-110238075D01*
X148865541Y-110227672D01*
X148871639Y-110201973D01*
X148875129Y-110190938D01*
X148884914Y-110166414D01*
X148885500Y-110160437D01*
X148885500Y-110152807D01*
X148887635Y-110134566D01*
X148888413Y-110131287D01*
X148890098Y-110124188D01*
X148886222Y-110095709D01*
X148885500Y-110085055D01*
X148885500Y-108531474D01*
X148885847Y-108526745D01*
X148887329Y-108522429D01*
X148885556Y-108475201D01*
X148885500Y-108472238D01*
X148885500Y-108453448D01*
X148884834Y-108449871D01*
X148884645Y-108447828D01*
X148884367Y-108443531D01*
X148883613Y-108423437D01*
X148883613Y-108423435D01*
X148883339Y-108416147D01*
X148878360Y-108404558D01*
X148873283Y-108387845D01*
X148872309Y-108382616D01*
X148872308Y-108382612D01*
X148870972Y-108375441D01*
X148857112Y-108352955D01*
X148851780Y-108342690D01*
X148843555Y-108323547D01*
X148841355Y-108318426D01*
X148837543Y-108313785D01*
X148832152Y-108308394D01*
X148820763Y-108293986D01*
X148818993Y-108291114D01*
X148818990Y-108291111D01*
X148815163Y-108284902D01*
X148792279Y-108267500D01*
X148784235Y-108260477D01*
X148547006Y-108023248D01*
X148534998Y-108007820D01*
X148530865Y-108000882D01*
X148530863Y-108000880D01*
X148528882Y-107997554D01*
X148513457Y-107980443D01*
X148413001Y-107869012D01*
X148406854Y-107861271D01*
X148403195Y-107856018D01*
X148331094Y-107752514D01*
X148325172Y-107742516D01*
X148277888Y-107647349D01*
X148273425Y-107636365D01*
X148244135Y-107545212D01*
X148241717Y-107535693D01*
X148240418Y-107528808D01*
X148223181Y-107437464D01*
X148222302Y-107431600D01*
X148222275Y-107431356D01*
X148209598Y-107317916D01*
X148209457Y-107316539D01*
X148207240Y-107292802D01*
X148197399Y-107187481D01*
X148197121Y-107184751D01*
X148197081Y-107184388D01*
X148196754Y-107181633D01*
X148178823Y-107040660D01*
X148177995Y-107034946D01*
X148177861Y-107034123D01*
X148176786Y-107028202D01*
X148145822Y-106873680D01*
X148144134Y-106866165D01*
X148143872Y-106865114D01*
X148143131Y-106862408D01*
X148141982Y-106858217D01*
X148141856Y-106857757D01*
X148137741Y-106843986D01*
X148093443Y-106695761D01*
X148092764Y-106693489D01*
X148091820Y-106691318D01*
X148091816Y-106691308D01*
X148080760Y-106665891D01*
X148077575Y-106657214D01*
X148069890Y-106631761D01*
X148069890Y-106631760D01*
X148068774Y-106628065D01*
X148055125Y-106602394D01*
X148001381Y-106501318D01*
X147975739Y-106453092D01*
X147968919Y-106444729D01*
X147852930Y-106302514D01*
X147850490Y-106299522D01*
X147838415Y-106289532D01*
X147700773Y-106175665D01*
X147700772Y-106175664D01*
X147697798Y-106173204D01*
X147679979Y-106163569D01*
X147620511Y-106131415D01*
X147523479Y-106078950D01*
X147334172Y-106020350D01*
X147137089Y-105999636D01*
X147133243Y-105999986D01*
X147133242Y-105999986D01*
X147095080Y-106003459D01*
X146939735Y-106017596D01*
X146936028Y-106018687D01*
X146753338Y-106072456D01*
X146753335Y-106072457D01*
X146749629Y-106073548D01*
X146746202Y-106075340D01*
X146746201Y-106075340D01*
X146742284Y-106077388D01*
X146574010Y-106165359D01*
X146571003Y-106167777D01*
X146571001Y-106167778D01*
X146563285Y-106173982D01*
X146419570Y-106289532D01*
X146408677Y-106302514D01*
X146313766Y-106415625D01*
X146292189Y-106441339D01*
X146290327Y-106444727D01*
X146290325Y-106444729D01*
X146208099Y-106594298D01*
X146196720Y-106614996D01*
X146136800Y-106803889D01*
X146114710Y-107000823D01*
X146118095Y-107041134D01*
X146130155Y-107184751D01*
X146131292Y-107198297D01*
X146185915Y-107388790D01*
X146276498Y-107565045D01*
X146399590Y-107720348D01*
X146550504Y-107848786D01*
X146553878Y-107850672D01*
X146553880Y-107850673D01*
X146631462Y-107894032D01*
X146723490Y-107945465D01*
X146727152Y-107946655D01*
X146727157Y-107946657D01*
X146786082Y-107965802D01*
X146798040Y-107970806D01*
X146816618Y-107980443D01*
X146820353Y-107981525D01*
X146820352Y-107981525D01*
X146964330Y-108023248D01*
X146980883Y-108028045D01*
X146981360Y-108028171D01*
X146981370Y-108028174D01*
X146987907Y-108029904D01*
X146987924Y-108029908D01*
X146988331Y-108030016D01*
X146988716Y-108030108D01*
X146988758Y-108030119D01*
X146988934Y-108030161D01*
X146988958Y-108030167D01*
X146989377Y-108030267D01*
X146996748Y-108031860D01*
X146997196Y-108031946D01*
X146997210Y-108031949D01*
X147051743Y-108042433D01*
X147151242Y-108061562D01*
X147151508Y-108061608D01*
X147151528Y-108061612D01*
X147156692Y-108062511D01*
X147156718Y-108062515D01*
X147156975Y-108062560D01*
X147157789Y-108062687D01*
X147158169Y-108062739D01*
X147158173Y-108062740D01*
X147163238Y-108063439D01*
X147163288Y-108063445D01*
X147163575Y-108063485D01*
X147263165Y-108075441D01*
X147304345Y-108080385D01*
X147304367Y-108080388D01*
X147304529Y-108080407D01*
X147305458Y-108080512D01*
X147306811Y-108080665D01*
X147306831Y-108080667D01*
X147306857Y-108080670D01*
X147307090Y-108080695D01*
X147307121Y-108080698D01*
X147307134Y-108080699D01*
X147307207Y-108080707D01*
X147308981Y-108080878D01*
X147310012Y-108080978D01*
X147310053Y-108080982D01*
X147310201Y-108080996D01*
X147439082Y-108092256D01*
X147440506Y-108092394D01*
X147531187Y-108102078D01*
X147553725Y-108104485D01*
X147559696Y-108105354D01*
X147657427Y-108123420D01*
X147667043Y-108125830D01*
X147757661Y-108154694D01*
X147768736Y-108159170D01*
X147863368Y-108206021D01*
X147873432Y-108211968D01*
X147981707Y-108287292D01*
X147989480Y-108293459D01*
X148114879Y-108406474D01*
X148114886Y-108406479D01*
X148117572Y-108408900D01*
X148120654Y-108410790D01*
X148120659Y-108410794D01*
X148129192Y-108416027D01*
X148143752Y-108427510D01*
X148291361Y-108575119D01*
X148314199Y-108624095D01*
X148314500Y-108630980D01*
X148314500Y-109959020D01*
X148296018Y-110009800D01*
X148291361Y-110014881D01*
X146664881Y-111641361D01*
X146615905Y-111664199D01*
X146609020Y-111664500D01*
X143025699Y-111664500D01*
X143007839Y-111662455D01*
X142997696Y-111660101D01*
X142997695Y-111660101D01*
X142993917Y-111659224D01*
X142977782Y-111658712D01*
X142936174Y-111657392D01*
X142930124Y-111656967D01*
X142894916Y-111653132D01*
X142884737Y-111652023D01*
X142877461Y-111650884D01*
X142844703Y-111644179D01*
X142836850Y-111642146D01*
X142811299Y-111634101D01*
X142803996Y-111631398D01*
X142779360Y-111620871D01*
X142773849Y-111618259D01*
X142744610Y-111602990D01*
X142741580Y-111601322D01*
X142704244Y-111579667D01*
X142703793Y-111579403D01*
X142658505Y-111552587D01*
X142655614Y-111550914D01*
X142652543Y-111549178D01*
X142604366Y-111521950D01*
X142604154Y-111521830D01*
X142603986Y-111521738D01*
X142603923Y-111521702D01*
X142601397Y-111520308D01*
X142601359Y-111520287D01*
X142601257Y-111520231D01*
X142600886Y-111520031D01*
X142597968Y-111518495D01*
X142545610Y-111491602D01*
X142543517Y-111490812D01*
X142541448Y-111489894D01*
X142541496Y-111489785D01*
X142536216Y-111487117D01*
X142536161Y-111487236D01*
X142531061Y-111484879D01*
X142526332Y-111481814D01*
X142427662Y-111452305D01*
X142391621Y-111441526D01*
X142391619Y-111441526D01*
X142386233Y-111439915D01*
X142313711Y-111439472D01*
X142245630Y-111439056D01*
X142245628Y-111439056D01*
X142240005Y-111439022D01*
X142099404Y-111479206D01*
X142034855Y-111519933D01*
X141983232Y-111552505D01*
X141975732Y-111557237D01*
X141972011Y-111561450D01*
X141972010Y-111561451D01*
X141882658Y-111662622D01*
X141878932Y-111666841D01*
X141816786Y-111799209D01*
X141794288Y-111943699D01*
X137970500Y-111943699D01*
X137970500Y-111626948D01*
X137988982Y-111576168D01*
X138035782Y-111549148D01*
X138078581Y-111553496D01*
X138195901Y-111599946D01*
X138195911Y-111599948D01*
X138200620Y-111601813D01*
X138205650Y-111602422D01*
X138205651Y-111602422D01*
X138236171Y-111606115D01*
X138288931Y-111612500D01*
X139449756Y-111612500D01*
X140611068Y-111612499D01*
X140625856Y-111610710D01*
X140694342Y-111602423D01*
X140694345Y-111602422D01*
X140699380Y-111601813D01*
X140837324Y-111547198D01*
X140955498Y-111457498D01*
X141045198Y-111339324D01*
X141068232Y-111281147D01*
X141097948Y-111206092D01*
X141097949Y-111206088D01*
X141099813Y-111201380D01*
X141110500Y-111113069D01*
X141110500Y-111054500D01*
X141128982Y-111003720D01*
X141175782Y-110976700D01*
X141189500Y-110975500D01*
X143452315Y-110975500D01*
X143471286Y-110977812D01*
X143478385Y-110979568D01*
X143483523Y-110980839D01*
X143487395Y-110981018D01*
X143487396Y-110981018D01*
X143535115Y-110983222D01*
X143677837Y-110989815D01*
X143686212Y-110990651D01*
X143840117Y-111014373D01*
X143849170Y-111016318D01*
X143974372Y-111050997D01*
X143982656Y-111053793D01*
X144092622Y-111097836D01*
X144098491Y-111100470D01*
X144128500Y-111115430D01*
X144205942Y-111154038D01*
X144208295Y-111155261D01*
X144321531Y-111216611D01*
X144322867Y-111217327D01*
X144323067Y-111217433D01*
X144324568Y-111218219D01*
X144446602Y-111281306D01*
X144451383Y-111283680D01*
X144451597Y-111283782D01*
X144451599Y-111283783D01*
X144451820Y-111283889D01*
X144451881Y-111283917D01*
X144452071Y-111284008D01*
X144452295Y-111284110D01*
X144452333Y-111284128D01*
X144455065Y-111285375D01*
X144457024Y-111286270D01*
X144592731Y-111345570D01*
X144593126Y-111345732D01*
X144593150Y-111345742D01*
X144595168Y-111346569D01*
X144599831Y-111348479D01*
X144600223Y-111348629D01*
X144600248Y-111348639D01*
X144600339Y-111348674D01*
X144600855Y-111348871D01*
X144601330Y-111349040D01*
X144601338Y-111349043D01*
X144607828Y-111351353D01*
X144607852Y-111351361D01*
X144608242Y-111351500D01*
X144766407Y-111403602D01*
X144774596Y-111406067D01*
X144775199Y-111406232D01*
X144775251Y-111406246D01*
X144775263Y-111406249D01*
X144775757Y-111406384D01*
X144776221Y-111406498D01*
X144776248Y-111406505D01*
X144783548Y-111408298D01*
X144783988Y-111408406D01*
X144837787Y-111420173D01*
X144919366Y-111438016D01*
X144926889Y-111440055D01*
X144928091Y-111440445D01*
X144931960Y-111441702D01*
X144935789Y-111442159D01*
X144935790Y-111442159D01*
X144937542Y-111442368D01*
X144945057Y-111443635D01*
X144965553Y-111448117D01*
X144967921Y-111448343D01*
X144967927Y-111448344D01*
X144993203Y-111450756D01*
X145005046Y-111451887D01*
X145009554Y-111451774D01*
X145020874Y-111452305D01*
X145085247Y-111459981D01*
X145124892Y-111464708D01*
X145124894Y-111464708D01*
X145128735Y-111465166D01*
X145326320Y-111449963D01*
X145517190Y-111396671D01*
X145640620Y-111334322D01*
X145690619Y-111309066D01*
X145690621Y-111309065D01*
X145694073Y-111307321D01*
X145809124Y-111217433D01*
X145847190Y-111187693D01*
X145847192Y-111187691D01*
X145850232Y-111185316D01*
X145912594Y-111113069D01*
X145977196Y-111038228D01*
X145977200Y-111038223D01*
X145979720Y-111035303D01*
X145981626Y-111031947D01*
X145981630Y-111031942D01*
X146075695Y-110866356D01*
X146077604Y-110862996D01*
X146078824Y-110859329D01*
X146138935Y-110678630D01*
X146138936Y-110678625D01*
X146140156Y-110674958D01*
X146164993Y-110478351D01*
X146165389Y-110450000D01*
X146150005Y-110293104D01*
X146146428Y-110256621D01*
X146146428Y-110256620D01*
X146146051Y-110252777D01*
X146130713Y-110201973D01*
X146117413Y-110157921D01*
X146088774Y-110063065D01*
X146086963Y-110059660D01*
X146086961Y-110059654D01*
X145997551Y-109891500D01*
X145995739Y-109888092D01*
X145968787Y-109855045D01*
X145897620Y-109767787D01*
X145870490Y-109734522D01*
X145858415Y-109724532D01*
X145720773Y-109610665D01*
X145720772Y-109610664D01*
X145717798Y-109608204D01*
X145699979Y-109598569D01*
X145573085Y-109529958D01*
X145543479Y-109513950D01*
X145354172Y-109455350D01*
X145157089Y-109434636D01*
X145153243Y-109434986D01*
X145153242Y-109434986D01*
X145105487Y-109439332D01*
X144959735Y-109452596D01*
X144956028Y-109453687D01*
X144773338Y-109507456D01*
X144773335Y-109507457D01*
X144769629Y-109508548D01*
X144594010Y-109600359D01*
X144591002Y-109602777D01*
X144590995Y-109602782D01*
X144476250Y-109695039D01*
X144470084Y-109699525D01*
X144457422Y-109707832D01*
X144450814Y-109714329D01*
X144447134Y-109717947D01*
X144443846Y-109720872D01*
X144442580Y-109722112D01*
X144439570Y-109724532D01*
X144437088Y-109727491D01*
X144436202Y-109728358D01*
X144432789Y-109732051D01*
X144411430Y-109753052D01*
X144369328Y-109794447D01*
X144345305Y-109818066D01*
X144341108Y-109822344D01*
X144340915Y-109822548D01*
X144340888Y-109822576D01*
X144340836Y-109822632D01*
X144340565Y-109822918D01*
X144336750Y-109827092D01*
X144331707Y-109832802D01*
X144318710Y-109847516D01*
X144271241Y-109873340D01*
X144218278Y-109862609D01*
X144184603Y-109820345D01*
X144180500Y-109795217D01*
X144180500Y-109290823D01*
X146114710Y-109290823D01*
X146131292Y-109488297D01*
X146185915Y-109678790D01*
X146276498Y-109855045D01*
X146399590Y-110010348D01*
X146550504Y-110138786D01*
X146553878Y-110140672D01*
X146553880Y-110140673D01*
X146592615Y-110162321D01*
X146723490Y-110235465D01*
X146727152Y-110236655D01*
X146727157Y-110236657D01*
X146831976Y-110270714D01*
X146911960Y-110296702D01*
X146915797Y-110297160D01*
X146915799Y-110297160D01*
X147104892Y-110319708D01*
X147104895Y-110319708D01*
X147108735Y-110320166D01*
X147306320Y-110304963D01*
X147497190Y-110251671D01*
X147631833Y-110183658D01*
X147670619Y-110164066D01*
X147670621Y-110164065D01*
X147674073Y-110162321D01*
X147830232Y-110040316D01*
X147900405Y-109959020D01*
X147957196Y-109893228D01*
X147957200Y-109893223D01*
X147959720Y-109890303D01*
X147961626Y-109886947D01*
X147961630Y-109886942D01*
X148051124Y-109729402D01*
X148057604Y-109717996D01*
X148060985Y-109707832D01*
X148118935Y-109533630D01*
X148118936Y-109533625D01*
X148120156Y-109529958D01*
X148122323Y-109512809D01*
X148132147Y-109435040D01*
X148144993Y-109333351D01*
X148145389Y-109305000D01*
X148126051Y-109107777D01*
X148116578Y-109076399D01*
X148069891Y-108921765D01*
X148068774Y-108918065D01*
X148066963Y-108914660D01*
X148066961Y-108914654D01*
X147977551Y-108746500D01*
X147975739Y-108743092D01*
X147968919Y-108734729D01*
X147852930Y-108592514D01*
X147850490Y-108589522D01*
X147838415Y-108579532D01*
X147700773Y-108465665D01*
X147700772Y-108465664D01*
X147697798Y-108463204D01*
X147679979Y-108453569D01*
X147631783Y-108427510D01*
X147523479Y-108368950D01*
X147334172Y-108310350D01*
X147137089Y-108289636D01*
X147133243Y-108289986D01*
X147133242Y-108289986D01*
X147095080Y-108293459D01*
X146939735Y-108307596D01*
X146936028Y-108308687D01*
X146753338Y-108362456D01*
X146753335Y-108362457D01*
X146749629Y-108363548D01*
X146746202Y-108365340D01*
X146746201Y-108365340D01*
X146735784Y-108370786D01*
X146574010Y-108455359D01*
X146571003Y-108457777D01*
X146571001Y-108457778D01*
X146549330Y-108475202D01*
X146419570Y-108579532D01*
X146292189Y-108731339D01*
X146290327Y-108734727D01*
X146290325Y-108734729D01*
X146208099Y-108884298D01*
X146196720Y-108904996D01*
X146136800Y-109093889D01*
X146114710Y-109290823D01*
X144180500Y-109290823D01*
X144180500Y-108881355D01*
X144198982Y-108830575D01*
X144245782Y-108803555D01*
X144299000Y-108812939D01*
X144308012Y-108819005D01*
X144386662Y-108880199D01*
X144386738Y-108880257D01*
X144387013Y-108880471D01*
X144387334Y-108880712D01*
X144387339Y-108880716D01*
X144388190Y-108881355D01*
X144391485Y-108883831D01*
X144392129Y-108884298D01*
X144397096Y-108887762D01*
X144528146Y-108975663D01*
X144534554Y-108979751D01*
X144534901Y-108979961D01*
X144534931Y-108979980D01*
X144535013Y-108980029D01*
X144535473Y-108980308D01*
X144542067Y-108984100D01*
X144542433Y-108984300D01*
X144542459Y-108984314D01*
X144588090Y-109009178D01*
X144692778Y-109066223D01*
X144708532Y-109072499D01*
X144713527Y-109074489D01*
X144722824Y-109078916D01*
X144743490Y-109090465D01*
X144747152Y-109091655D01*
X144747157Y-109091657D01*
X144869241Y-109131324D01*
X144931960Y-109151702D01*
X144935797Y-109152160D01*
X144935799Y-109152160D01*
X145124892Y-109174708D01*
X145124895Y-109174708D01*
X145128735Y-109175166D01*
X145326320Y-109159963D01*
X145517190Y-109106671D01*
X145611858Y-109058851D01*
X145690619Y-109019066D01*
X145690621Y-109019065D01*
X145694073Y-109017321D01*
X145816379Y-108921765D01*
X145847190Y-108897693D01*
X145847192Y-108897691D01*
X145850232Y-108895316D01*
X145921338Y-108812939D01*
X145977196Y-108748228D01*
X145977200Y-108748223D01*
X145979720Y-108745303D01*
X145981626Y-108741947D01*
X145981630Y-108741942D01*
X146075695Y-108576356D01*
X146077604Y-108572996D01*
X146091417Y-108531474D01*
X146138935Y-108388630D01*
X146138936Y-108388625D01*
X146140156Y-108384958D01*
X146142323Y-108367809D01*
X146152147Y-108290040D01*
X146164993Y-108188351D01*
X146165389Y-108160000D01*
X146146051Y-107962777D01*
X146088774Y-107773065D01*
X146086963Y-107769660D01*
X146086961Y-107769654D01*
X145997551Y-107601500D01*
X145995739Y-107598092D01*
X145968787Y-107565045D01*
X145872930Y-107447514D01*
X145870490Y-107444522D01*
X145864454Y-107439528D01*
X145720773Y-107320665D01*
X145720772Y-107320664D01*
X145717798Y-107318204D01*
X145543479Y-107223950D01*
X145354172Y-107165350D01*
X145157089Y-107144636D01*
X145153243Y-107144986D01*
X145153242Y-107144986D01*
X145105487Y-107149332D01*
X144959735Y-107162596D01*
X144956028Y-107163687D01*
X144773338Y-107217456D01*
X144773335Y-107217457D01*
X144769629Y-107218548D01*
X144722552Y-107243159D01*
X144709502Y-107248556D01*
X144692778Y-107253776D01*
X144542067Y-107335898D01*
X144535473Y-107339691D01*
X144535082Y-107339928D01*
X144534931Y-107340019D01*
X144534901Y-107340038D01*
X144534554Y-107340248D01*
X144528146Y-107344336D01*
X144397096Y-107432237D01*
X144392129Y-107435701D01*
X144391485Y-107436168D01*
X144387013Y-107439528D01*
X144274682Y-107526927D01*
X144272605Y-107528570D01*
X144272309Y-107528808D01*
X144272267Y-107528842D01*
X144272229Y-107528873D01*
X144270196Y-107530536D01*
X144186300Y-107600303D01*
X144170513Y-107613431D01*
X144169374Y-107614360D01*
X144166382Y-107616753D01*
X144164996Y-107617862D01*
X144113797Y-107635150D01*
X144063464Y-107615484D01*
X144037547Y-107568065D01*
X144046957Y-107517151D01*
X144089613Y-107442063D01*
X144097604Y-107427996D01*
X144098824Y-107424329D01*
X144158935Y-107243630D01*
X144158936Y-107243625D01*
X144160156Y-107239958D01*
X144162323Y-107222809D01*
X144172147Y-107145040D01*
X144184993Y-107043351D01*
X144185389Y-107015000D01*
X144166051Y-106817777D01*
X144156578Y-106786399D01*
X144128645Y-106693883D01*
X144108774Y-106628065D01*
X144106962Y-106624657D01*
X144106961Y-106624654D01*
X144046921Y-106511736D01*
X144039400Y-106458223D01*
X144068037Y-106412395D01*
X144119431Y-106395696D01*
X144166029Y-106412963D01*
X144169356Y-106415625D01*
X144170491Y-106416550D01*
X144238970Y-106473496D01*
X144270166Y-106499438D01*
X144270196Y-106499463D01*
X144272229Y-106501126D01*
X144272267Y-106501157D01*
X144272309Y-106501191D01*
X144272605Y-106501429D01*
X144274682Y-106503072D01*
X144387013Y-106590471D01*
X144391485Y-106593831D01*
X144392129Y-106594298D01*
X144397096Y-106597762D01*
X144528146Y-106685663D01*
X144534554Y-106689751D01*
X144534901Y-106689961D01*
X144534931Y-106689980D01*
X144535014Y-106690030D01*
X144535473Y-106690308D01*
X144542067Y-106694100D01*
X144542433Y-106694300D01*
X144542459Y-106694314D01*
X144545115Y-106695761D01*
X144692778Y-106776223D01*
X144713527Y-106784489D01*
X144722824Y-106788916D01*
X144743490Y-106800465D01*
X144747152Y-106801655D01*
X144747157Y-106801657D01*
X144835886Y-106830486D01*
X144931960Y-106861702D01*
X144935797Y-106862160D01*
X144935799Y-106862160D01*
X145124892Y-106884708D01*
X145124895Y-106884708D01*
X145128735Y-106885166D01*
X145326320Y-106869963D01*
X145341965Y-106865595D01*
X145467710Y-106830486D01*
X145517190Y-106816671D01*
X145611858Y-106768851D01*
X145690619Y-106729066D01*
X145690621Y-106729065D01*
X145694073Y-106727321D01*
X145833126Y-106618681D01*
X145847190Y-106607693D01*
X145847192Y-106607691D01*
X145850232Y-106605316D01*
X145913333Y-106532213D01*
X145977196Y-106458228D01*
X145977200Y-106458223D01*
X145979720Y-106455303D01*
X145981626Y-106451947D01*
X145981630Y-106451942D01*
X146075695Y-106286356D01*
X146077604Y-106282996D01*
X146106792Y-106195255D01*
X146138935Y-106098630D01*
X146138936Y-106098625D01*
X146140156Y-106094958D01*
X146141026Y-106088076D01*
X146146698Y-106043171D01*
X146164993Y-105898351D01*
X146165389Y-105870000D01*
X146146051Y-105672777D01*
X146088774Y-105483065D01*
X146086963Y-105479660D01*
X146086961Y-105479654D01*
X146002542Y-105320886D01*
X145995739Y-105308092D01*
X145968787Y-105275045D01*
X145872930Y-105157514D01*
X145870490Y-105154522D01*
X145864454Y-105149528D01*
X145720773Y-105030665D01*
X145720772Y-105030664D01*
X145717798Y-105028204D01*
X145543479Y-104933950D01*
X145354172Y-104875350D01*
X145157089Y-104854636D01*
X145153243Y-104854986D01*
X145153242Y-104854986D01*
X145105487Y-104859332D01*
X144959735Y-104872596D01*
X144956028Y-104873687D01*
X144773338Y-104927456D01*
X144773335Y-104927457D01*
X144769629Y-104928548D01*
X144722552Y-104953159D01*
X144709502Y-104958556D01*
X144692778Y-104963776D01*
X144542067Y-105045898D01*
X144535473Y-105049691D01*
X144535082Y-105049928D01*
X144534931Y-105050019D01*
X144534901Y-105050038D01*
X144534554Y-105050248D01*
X144528146Y-105054336D01*
X144397096Y-105142237D01*
X144392129Y-105145701D01*
X144391485Y-105146168D01*
X144387013Y-105149528D01*
X144274682Y-105236927D01*
X144272605Y-105238570D01*
X144272309Y-105238808D01*
X144272267Y-105238842D01*
X144272229Y-105238873D01*
X144270196Y-105240536D01*
X144171795Y-105322365D01*
X144170513Y-105323431D01*
X144169374Y-105324360D01*
X144166382Y-105326753D01*
X144164996Y-105327862D01*
X144113797Y-105345150D01*
X144063464Y-105325484D01*
X144037547Y-105278065D01*
X144046957Y-105227151D01*
X144089613Y-105152063D01*
X144097604Y-105137996D01*
X144109027Y-105103658D01*
X144158935Y-104953630D01*
X144158936Y-104953625D01*
X144160156Y-104949958D01*
X144162323Y-104932809D01*
X144172147Y-104855040D01*
X144184993Y-104753351D01*
X144185389Y-104725000D01*
X144166051Y-104527777D01*
X144156578Y-104496399D01*
X144128645Y-104403883D01*
X144108774Y-104338065D01*
X144106962Y-104334657D01*
X144106961Y-104334654D01*
X144046921Y-104221736D01*
X144039400Y-104168223D01*
X144068037Y-104122395D01*
X144119431Y-104105696D01*
X144166029Y-104122963D01*
X144169356Y-104125625D01*
X144170491Y-104126550D01*
X144218532Y-104166500D01*
X144270166Y-104209438D01*
X144270196Y-104209463D01*
X144272229Y-104211126D01*
X144272267Y-104211157D01*
X144272309Y-104211191D01*
X144272605Y-104211429D01*
X144274682Y-104213072D01*
X144387013Y-104300471D01*
X144391485Y-104303831D01*
X144392129Y-104304298D01*
X144397096Y-104307762D01*
X144528146Y-104395663D01*
X144534554Y-104399751D01*
X144534901Y-104399961D01*
X144534931Y-104399980D01*
X144535014Y-104400030D01*
X144535473Y-104400308D01*
X144542067Y-104404100D01*
X144542433Y-104404300D01*
X144542459Y-104404314D01*
X144545115Y-104405761D01*
X144692778Y-104486223D01*
X144713527Y-104494489D01*
X144722824Y-104498916D01*
X144743490Y-104510465D01*
X144747152Y-104511655D01*
X144747157Y-104511657D01*
X144869241Y-104551324D01*
X144931960Y-104571702D01*
X144935797Y-104572160D01*
X144935799Y-104572160D01*
X145124892Y-104594708D01*
X145124895Y-104594708D01*
X145128735Y-104595166D01*
X145326320Y-104579963D01*
X145341965Y-104575595D01*
X145377468Y-104565682D01*
X145517190Y-104526671D01*
X145611858Y-104478851D01*
X145690619Y-104439066D01*
X145690621Y-104439065D01*
X145694073Y-104437321D01*
X145833126Y-104328681D01*
X145847190Y-104317693D01*
X145847192Y-104317691D01*
X145850232Y-104315316D01*
X145878470Y-104282602D01*
X145977196Y-104168228D01*
X145977200Y-104168223D01*
X145979720Y-104165303D01*
X145981626Y-104161947D01*
X145981630Y-104161942D01*
X146075695Y-103996356D01*
X146077604Y-103992996D01*
X146081945Y-103979946D01*
X146138935Y-103808630D01*
X146138936Y-103808625D01*
X146140156Y-103804958D01*
X146141026Y-103798076D01*
X146146698Y-103753171D01*
X146164993Y-103608351D01*
X146165389Y-103580000D01*
X146146051Y-103382777D01*
X146088774Y-103193065D01*
X146086963Y-103189660D01*
X146086961Y-103189654D01*
X145997551Y-103021500D01*
X145995739Y-103018092D01*
X145968787Y-102985045D01*
X145872930Y-102867514D01*
X145870490Y-102864522D01*
X145864454Y-102859528D01*
X145720773Y-102740665D01*
X145720772Y-102740664D01*
X145717798Y-102738204D01*
X145543479Y-102643950D01*
X145354172Y-102585350D01*
X145157089Y-102564636D01*
X145153243Y-102564986D01*
X145153242Y-102564986D01*
X145105487Y-102569332D01*
X144959735Y-102582596D01*
X144956028Y-102583687D01*
X144773338Y-102637456D01*
X144773335Y-102637457D01*
X144769629Y-102638548D01*
X144722552Y-102663159D01*
X144709502Y-102668556D01*
X144692778Y-102673776D01*
X144542067Y-102755898D01*
X144535473Y-102759691D01*
X144535082Y-102759928D01*
X144534931Y-102760019D01*
X144534901Y-102760038D01*
X144534554Y-102760248D01*
X144528146Y-102764336D01*
X144397096Y-102852237D01*
X144392129Y-102855701D01*
X144391485Y-102856168D01*
X144387013Y-102859528D01*
X144274682Y-102946927D01*
X144272605Y-102948570D01*
X144272309Y-102948808D01*
X144272267Y-102948842D01*
X144272229Y-102948873D01*
X144270196Y-102950536D01*
X144186300Y-103020303D01*
X144170513Y-103033431D01*
X144169374Y-103034360D01*
X144166382Y-103036753D01*
X144164996Y-103037862D01*
X144113797Y-103055150D01*
X144063464Y-103035484D01*
X144037547Y-102988065D01*
X144046957Y-102937151D01*
X144089613Y-102862063D01*
X144097604Y-102847996D01*
X144108059Y-102816568D01*
X144158935Y-102663630D01*
X144158936Y-102663625D01*
X144160156Y-102659958D01*
X144162323Y-102642809D01*
X144172147Y-102565040D01*
X144184993Y-102463351D01*
X144185389Y-102435000D01*
X144183999Y-102420823D01*
X146114710Y-102420823D01*
X146131292Y-102618297D01*
X146170446Y-102754843D01*
X146182925Y-102798361D01*
X146185915Y-102808790D01*
X146276498Y-102985045D01*
X146399590Y-103140348D01*
X146550504Y-103268786D01*
X146553878Y-103270672D01*
X146553880Y-103270673D01*
X146631462Y-103314032D01*
X146723490Y-103365465D01*
X146727152Y-103366655D01*
X146727157Y-103366657D01*
X146849241Y-103406324D01*
X146911960Y-103426702D01*
X146915797Y-103427160D01*
X146915799Y-103427160D01*
X147104892Y-103449708D01*
X147104895Y-103449708D01*
X147108735Y-103450166D01*
X147306320Y-103434963D01*
X147497190Y-103381671D01*
X147591858Y-103333851D01*
X147670619Y-103294066D01*
X147670621Y-103294065D01*
X147674073Y-103292321D01*
X147830232Y-103170316D01*
X147929641Y-103055150D01*
X147957196Y-103023228D01*
X147957200Y-103023223D01*
X147959720Y-103020303D01*
X147961626Y-103016947D01*
X147961630Y-103016942D01*
X148049613Y-102862063D01*
X148057604Y-102847996D01*
X148068059Y-102816568D01*
X148118935Y-102663630D01*
X148118936Y-102663625D01*
X148120156Y-102659958D01*
X148122323Y-102642809D01*
X148132147Y-102565040D01*
X148144993Y-102463351D01*
X148145389Y-102435000D01*
X148126051Y-102237777D01*
X148122245Y-102225169D01*
X148069891Y-102051765D01*
X148068774Y-102048065D01*
X148066963Y-102044660D01*
X148066961Y-102044654D01*
X147977551Y-101876500D01*
X147975739Y-101873092D01*
X147970949Y-101867218D01*
X147852930Y-101722514D01*
X147850490Y-101719522D01*
X147838415Y-101709532D01*
X147700773Y-101595665D01*
X147700772Y-101595664D01*
X147697798Y-101593204D01*
X147679979Y-101583569D01*
X147607359Y-101544304D01*
X147523479Y-101498950D01*
X147334172Y-101440350D01*
X147137089Y-101419636D01*
X147133243Y-101419986D01*
X147133242Y-101419986D01*
X147085487Y-101424332D01*
X146939735Y-101437596D01*
X146936028Y-101438687D01*
X146753338Y-101492456D01*
X146753335Y-101492457D01*
X146749629Y-101493548D01*
X146574010Y-101585359D01*
X146571003Y-101587777D01*
X146571001Y-101587778D01*
X146561192Y-101595665D01*
X146419570Y-101709532D01*
X146391917Y-101742488D01*
X146305641Y-101845308D01*
X146292189Y-101861339D01*
X146290327Y-101864727D01*
X146290325Y-101864729D01*
X146283854Y-101876500D01*
X146196720Y-102034996D01*
X146136800Y-102223889D01*
X146114710Y-102420823D01*
X144183999Y-102420823D01*
X144166051Y-102237777D01*
X144162245Y-102225169D01*
X144573878Y-102225169D01*
X144574823Y-102228698D01*
X144574934Y-102228807D01*
X144619863Y-102258827D01*
X144626204Y-102262270D01*
X144805297Y-102339214D01*
X144812161Y-102341444D01*
X145002274Y-102384463D01*
X145009425Y-102385404D01*
X145204191Y-102393057D01*
X145211408Y-102392678D01*
X145404304Y-102364710D01*
X145411321Y-102363025D01*
X145595896Y-102300371D01*
X145602488Y-102297436D01*
X145719432Y-102231944D01*
X145726844Y-102223342D01*
X145726870Y-102221364D01*
X145725282Y-102218835D01*
X145159851Y-101653404D01*
X145149557Y-101648604D01*
X145143263Y-101650290D01*
X144578678Y-102214875D01*
X144573878Y-102225169D01*
X144162245Y-102225169D01*
X144109891Y-102051765D01*
X144108774Y-102048065D01*
X144106963Y-102044660D01*
X144106961Y-102044654D01*
X144017551Y-101876500D01*
X144015739Y-101873092D01*
X144010949Y-101867218D01*
X143892930Y-101722514D01*
X143890490Y-101719522D01*
X143878415Y-101709532D01*
X143740773Y-101595665D01*
X143740772Y-101595664D01*
X143737798Y-101593204D01*
X143719979Y-101583569D01*
X143647359Y-101544304D01*
X143563479Y-101498950D01*
X143374172Y-101440350D01*
X143177089Y-101419636D01*
X143173243Y-101419986D01*
X143173242Y-101419986D01*
X143125487Y-101424332D01*
X142979735Y-101437596D01*
X142976028Y-101438687D01*
X142793338Y-101492456D01*
X142793335Y-101492457D01*
X142789629Y-101493548D01*
X142614010Y-101585359D01*
X142611003Y-101587777D01*
X142611001Y-101587778D01*
X142601192Y-101595665D01*
X142459570Y-101709532D01*
X142431917Y-101742488D01*
X142345641Y-101845308D01*
X142332189Y-101861339D01*
X142330327Y-101864727D01*
X142330325Y-101864729D01*
X142323854Y-101876500D01*
X142236720Y-102034996D01*
X142176800Y-102223889D01*
X142154710Y-102420823D01*
X142171292Y-102618297D01*
X142210446Y-102754843D01*
X142222925Y-102798361D01*
X142225915Y-102808790D01*
X142316498Y-102985045D01*
X142439590Y-103140348D01*
X142451258Y-103150279D01*
X142457204Y-103155339D01*
X142483896Y-103202326D01*
X142474140Y-103255477D01*
X142432502Y-103289923D01*
X142406002Y-103294500D01*
X142230980Y-103294500D01*
X142180200Y-103276018D01*
X142175119Y-103271361D01*
X141808282Y-102904524D01*
X141805178Y-102900929D01*
X141803174Y-102896829D01*
X141768505Y-102864669D01*
X141766370Y-102862612D01*
X141753104Y-102849346D01*
X141750098Y-102847284D01*
X141748541Y-102845990D01*
X141745305Y-102843148D01*
X141730549Y-102829460D01*
X141725200Y-102824498D01*
X141713487Y-102819825D01*
X141698075Y-102811596D01*
X141687672Y-102804459D01*
X141661973Y-102798361D01*
X141650942Y-102794872D01*
X141626414Y-102785086D01*
X141620437Y-102784500D01*
X141612807Y-102784500D01*
X141594568Y-102782365D01*
X141584188Y-102779902D01*
X141576958Y-102780886D01*
X141576957Y-102780886D01*
X141555709Y-102783778D01*
X141545055Y-102784500D01*
X141189499Y-102784500D01*
X141138719Y-102766018D01*
X141111699Y-102719218D01*
X141110499Y-102705500D01*
X141110499Y-102646932D01*
X141103186Y-102586494D01*
X141100423Y-102563658D01*
X141100422Y-102563655D01*
X141099813Y-102558620D01*
X141045198Y-102420676D01*
X140955498Y-102302502D01*
X140837324Y-102212802D01*
X140780142Y-102190162D01*
X140704092Y-102160052D01*
X140704088Y-102160051D01*
X140699380Y-102158187D01*
X140694350Y-102157578D01*
X140694349Y-102157578D01*
X140663829Y-102153885D01*
X140611069Y-102147500D01*
X139450244Y-102147500D01*
X138288932Y-102147501D01*
X138274144Y-102149290D01*
X138205658Y-102157577D01*
X138205655Y-102157578D01*
X138200620Y-102158187D01*
X138195905Y-102160054D01*
X138195896Y-102160056D01*
X138078581Y-102206504D01*
X138024563Y-102208013D01*
X137982213Y-102174447D01*
X137970500Y-102133052D01*
X137970500Y-101080169D01*
X142593878Y-101080169D01*
X142594823Y-101083698D01*
X142594934Y-101083807D01*
X142639863Y-101113827D01*
X142646204Y-101117270D01*
X142825297Y-101194214D01*
X142832161Y-101196444D01*
X143022274Y-101239463D01*
X143029425Y-101240404D01*
X143224191Y-101248057D01*
X143231408Y-101247678D01*
X143424304Y-101219710D01*
X143431321Y-101218025D01*
X143615896Y-101155371D01*
X143622488Y-101152436D01*
X143739432Y-101086944D01*
X143746844Y-101078342D01*
X143746870Y-101076364D01*
X143745282Y-101073835D01*
X143179851Y-100508404D01*
X143169557Y-100503604D01*
X143163263Y-100505290D01*
X142598678Y-101069875D01*
X142593878Y-101080169D01*
X137970500Y-101080169D01*
X137970500Y-100379500D01*
X137988982Y-100328720D01*
X138035782Y-100301700D01*
X138049500Y-100300500D01*
X139964802Y-100300500D01*
X139971215Y-100300904D01*
X139979282Y-100304000D01*
X140005003Y-100301024D01*
X140014083Y-100300500D01*
X140019554Y-100300500D01*
X140024184Y-100299363D01*
X140024762Y-100299293D01*
X140033415Y-100297737D01*
X140048124Y-100296035D01*
X140048125Y-100296035D01*
X140057620Y-100294936D01*
X140065272Y-100289735D01*
X140066496Y-100289359D01*
X140067599Y-100288699D01*
X140076584Y-100286492D01*
X140094854Y-100270385D01*
X140102691Y-100264306D01*
X140114935Y-100255985D01*
X140114937Y-100255983D01*
X140122844Y-100250609D01*
X140127216Y-100242454D01*
X140128126Y-100241554D01*
X140128796Y-100240461D01*
X140135738Y-100234341D01*
X140140355Y-100222315D01*
X140144467Y-100211601D01*
X140148598Y-100202580D01*
X140156679Y-100187509D01*
X140156680Y-100187506D01*
X140160110Y-100181109D01*
X140160500Y-100178022D01*
X140160500Y-100175198D01*
X140160904Y-100168785D01*
X140164000Y-100160718D01*
X140161024Y-100134997D01*
X140160500Y-100125917D01*
X140160500Y-100119698D01*
X142065903Y-100119698D01*
X142078651Y-100314201D01*
X142079780Y-100321328D01*
X142127759Y-100510243D01*
X142130172Y-100517057D01*
X142211774Y-100694068D01*
X142215377Y-100700308D01*
X142226287Y-100715746D01*
X142235617Y-100722218D01*
X142239595Y-100721852D01*
X142806596Y-100154851D01*
X142810983Y-100145443D01*
X143528604Y-100145443D01*
X143530290Y-100151737D01*
X144095287Y-100716734D01*
X144111130Y-100724122D01*
X144149341Y-100762333D01*
X144154051Y-100816167D01*
X144147657Y-100832504D01*
X144131063Y-100864043D01*
X144128304Y-100870703D01*
X144070502Y-101056857D01*
X144069002Y-101063919D01*
X144046092Y-101257481D01*
X144045903Y-101264698D01*
X144058651Y-101459201D01*
X144059780Y-101466328D01*
X144107759Y-101655243D01*
X144110172Y-101662057D01*
X144191774Y-101839068D01*
X144195377Y-101845308D01*
X144206287Y-101860746D01*
X144215617Y-101867218D01*
X144219595Y-101866852D01*
X144786596Y-101299851D01*
X144790983Y-101290443D01*
X145508604Y-101290443D01*
X145510290Y-101296737D01*
X146075287Y-101861734D01*
X146085581Y-101866534D01*
X146087491Y-101866023D01*
X146089493Y-101863808D01*
X146157436Y-101742488D01*
X146160371Y-101735896D01*
X146223025Y-101551321D01*
X146224710Y-101544304D01*
X146252864Y-101350127D01*
X146253260Y-101345486D01*
X146254652Y-101292327D01*
X146254500Y-101287685D01*
X146236545Y-101092288D01*
X146235230Y-101085195D01*
X146182321Y-100897592D01*
X146179736Y-100890858D01*
X146093698Y-100716389D01*
X146085990Y-100711336D01*
X146081710Y-100711843D01*
X145513404Y-101280149D01*
X145508604Y-101290443D01*
X144790983Y-101290443D01*
X144791396Y-101289557D01*
X144789710Y-101283263D01*
X144223454Y-100717007D01*
X144211007Y-100711203D01*
X144172795Y-100672991D01*
X144168086Y-100619158D01*
X144175465Y-100601006D01*
X144177439Y-100597481D01*
X144180371Y-100590896D01*
X144243025Y-100406321D01*
X144244710Y-100399304D01*
X144250811Y-100357223D01*
X144573890Y-100357223D01*
X144573923Y-100359759D01*
X144575040Y-100361487D01*
X145140149Y-100926596D01*
X145150443Y-100931396D01*
X145156737Y-100929710D01*
X145720911Y-100365536D01*
X145725711Y-100355242D01*
X145724909Y-100352250D01*
X145724111Y-100351488D01*
X145654590Y-100307625D01*
X145648167Y-100304353D01*
X145467121Y-100232122D01*
X145460200Y-100230072D01*
X145269024Y-100192045D01*
X145261854Y-100191292D01*
X145066952Y-100188739D01*
X145059752Y-100189306D01*
X144867653Y-100222315D01*
X144860675Y-100224185D01*
X144677805Y-100291649D01*
X144671298Y-100294753D01*
X144581076Y-100348429D01*
X144573890Y-100357223D01*
X144250811Y-100357223D01*
X144272864Y-100205127D01*
X144273260Y-100200486D01*
X144274652Y-100147327D01*
X144274500Y-100142685D01*
X144273410Y-100130823D01*
X146114710Y-100130823D01*
X146115073Y-100135149D01*
X146128857Y-100299293D01*
X146131292Y-100328297D01*
X146185915Y-100518790D01*
X146276498Y-100695045D01*
X146399590Y-100850348D01*
X146550504Y-100978786D01*
X146723490Y-101075465D01*
X146727152Y-101076655D01*
X146727157Y-101076657D01*
X146841557Y-101113827D01*
X146911960Y-101136702D01*
X146915797Y-101137160D01*
X146915799Y-101137160D01*
X147104892Y-101159708D01*
X147104895Y-101159708D01*
X147108735Y-101160166D01*
X147306320Y-101144963D01*
X147497190Y-101091671D01*
X147591858Y-101043851D01*
X147670619Y-101004066D01*
X147670621Y-101004065D01*
X147674073Y-101002321D01*
X147830232Y-100880316D01*
X147885604Y-100816167D01*
X147957196Y-100733228D01*
X147957200Y-100733223D01*
X147959720Y-100730303D01*
X147961626Y-100726947D01*
X147961630Y-100726942D01*
X148055695Y-100561356D01*
X148057604Y-100557996D01*
X148058824Y-100554329D01*
X148118935Y-100373630D01*
X148118936Y-100373625D01*
X148120156Y-100369958D01*
X148121445Y-100359759D01*
X148128864Y-100301024D01*
X148144993Y-100173351D01*
X148145389Y-100145000D01*
X148129376Y-99981692D01*
X148126428Y-99951621D01*
X148126428Y-99951620D01*
X148126051Y-99947777D01*
X148068774Y-99758065D01*
X148066963Y-99754660D01*
X148066961Y-99754654D01*
X147977551Y-99586500D01*
X147975739Y-99583092D01*
X147968919Y-99574729D01*
X147852930Y-99432514D01*
X147850490Y-99429522D01*
X147838415Y-99419532D01*
X147700773Y-99305665D01*
X147700772Y-99305664D01*
X147697798Y-99303204D01*
X147679979Y-99293569D01*
X147660059Y-99282799D01*
X147523479Y-99208950D01*
X147334172Y-99150350D01*
X147137089Y-99129636D01*
X147133243Y-99129986D01*
X147133242Y-99129986D01*
X147085487Y-99134332D01*
X146939735Y-99147596D01*
X146936028Y-99148687D01*
X146753338Y-99202456D01*
X146753335Y-99202457D01*
X146749629Y-99203548D01*
X146746202Y-99205340D01*
X146746201Y-99205340D01*
X146735784Y-99210786D01*
X146574010Y-99295359D01*
X146571003Y-99297777D01*
X146571001Y-99297778D01*
X146561192Y-99305665D01*
X146419570Y-99419532D01*
X146408677Y-99432514D01*
X146295962Y-99566843D01*
X146292189Y-99571339D01*
X146290327Y-99574727D01*
X146290325Y-99574729D01*
X146283854Y-99586500D01*
X146196720Y-99744996D01*
X146136800Y-99933889D01*
X146114710Y-100130823D01*
X144273410Y-100130823D01*
X144256545Y-99947288D01*
X144255230Y-99940195D01*
X144202321Y-99752592D01*
X144199736Y-99745858D01*
X144113698Y-99571389D01*
X144105990Y-99566336D01*
X144101710Y-99566843D01*
X143533404Y-100135149D01*
X143528604Y-100145443D01*
X142810983Y-100145443D01*
X142811396Y-100144557D01*
X142809710Y-100138263D01*
X142243455Y-99572008D01*
X142233161Y-99567208D01*
X142231797Y-99567573D01*
X142229208Y-99570512D01*
X142151066Y-99719037D01*
X142148304Y-99725703D01*
X142090502Y-99911857D01*
X142089002Y-99918919D01*
X142066092Y-100112481D01*
X142065903Y-100119698D01*
X140160500Y-100119698D01*
X140160500Y-99212223D01*
X142593890Y-99212223D01*
X142593923Y-99214759D01*
X142595040Y-99216487D01*
X143160149Y-99781596D01*
X143170443Y-99786396D01*
X143176737Y-99784710D01*
X143740911Y-99220536D01*
X143745711Y-99210242D01*
X143744909Y-99207250D01*
X143744111Y-99206488D01*
X143674590Y-99162625D01*
X143668167Y-99159353D01*
X143487121Y-99087122D01*
X143480200Y-99085072D01*
X143289024Y-99047045D01*
X143281854Y-99046292D01*
X143086952Y-99043739D01*
X143079752Y-99044306D01*
X142887653Y-99077315D01*
X142880675Y-99079185D01*
X142697805Y-99146649D01*
X142691298Y-99149753D01*
X142601076Y-99203429D01*
X142593890Y-99212223D01*
X140160500Y-99212223D01*
X140160500Y-94013422D01*
X143725626Y-94013422D01*
X143727022Y-94018633D01*
X143755270Y-94043406D01*
X143759368Y-94046551D01*
X144003898Y-94209941D01*
X144008370Y-94212523D01*
X144272136Y-94342597D01*
X144276915Y-94344577D01*
X144555388Y-94439106D01*
X144560394Y-94440447D01*
X144848832Y-94497821D01*
X144853949Y-94498495D01*
X145147422Y-94517730D01*
X145152578Y-94517730D01*
X145446051Y-94498495D01*
X145451168Y-94497821D01*
X145739606Y-94440447D01*
X145744612Y-94439106D01*
X146023085Y-94344577D01*
X146027864Y-94342597D01*
X146291630Y-94212523D01*
X146296102Y-94209941D01*
X146540632Y-94046551D01*
X146544730Y-94043406D01*
X146568952Y-94022164D01*
X146574414Y-94012207D01*
X146573361Y-94006915D01*
X145159851Y-92593404D01*
X145149557Y-92588604D01*
X145143263Y-92590290D01*
X143730426Y-94003128D01*
X143725626Y-94013422D01*
X140160500Y-94013422D01*
X140160500Y-92232578D01*
X142862270Y-92232578D01*
X142881505Y-92526051D01*
X142882179Y-92531168D01*
X142939553Y-92819606D01*
X142940894Y-92824612D01*
X143035423Y-93103085D01*
X143037403Y-93107864D01*
X143167477Y-93371629D01*
X143170059Y-93376102D01*
X143333449Y-93620632D01*
X143336594Y-93624730D01*
X143357836Y-93648952D01*
X143367793Y-93654414D01*
X143373085Y-93653361D01*
X144786596Y-92239851D01*
X144790983Y-92230443D01*
X145508604Y-92230443D01*
X145510290Y-92236737D01*
X146923128Y-93649574D01*
X146933422Y-93654374D01*
X146938633Y-93652978D01*
X146963406Y-93624730D01*
X146966551Y-93620632D01*
X147129941Y-93376102D01*
X147132523Y-93371629D01*
X147262597Y-93107864D01*
X147264577Y-93103085D01*
X147359106Y-92824612D01*
X147360447Y-92819606D01*
X147417821Y-92531168D01*
X147418495Y-92526051D01*
X147437730Y-92232578D01*
X147437730Y-92227422D01*
X147418495Y-91933949D01*
X147417821Y-91928832D01*
X147360447Y-91640394D01*
X147359106Y-91635388D01*
X147264577Y-91356915D01*
X147262597Y-91352136D01*
X147132523Y-91088371D01*
X147129941Y-91083898D01*
X146966551Y-90839368D01*
X146963406Y-90835270D01*
X146942164Y-90811048D01*
X146932207Y-90805586D01*
X146926915Y-90806639D01*
X145513404Y-92220149D01*
X145508604Y-92230443D01*
X144790983Y-92230443D01*
X144791396Y-92229557D01*
X144789710Y-92223263D01*
X143376872Y-90810426D01*
X143366578Y-90805626D01*
X143361367Y-90807022D01*
X143336594Y-90835270D01*
X143333449Y-90839368D01*
X143170059Y-91083898D01*
X143167477Y-91088371D01*
X143037403Y-91352136D01*
X143035423Y-91356915D01*
X142940894Y-91635388D01*
X142939553Y-91640394D01*
X142882179Y-91928832D01*
X142881505Y-91933949D01*
X142862270Y-92227422D01*
X142862270Y-92232578D01*
X140160500Y-92232578D01*
X140160500Y-90349496D01*
X140178982Y-90298716D01*
X140225782Y-90271696D01*
X140239499Y-90270496D01*
X143712998Y-90270452D01*
X143763778Y-90288934D01*
X143790799Y-90335733D01*
X143781416Y-90388951D01*
X143761090Y-90412128D01*
X143755270Y-90416594D01*
X143731048Y-90437836D01*
X143725586Y-90447793D01*
X143726639Y-90453085D01*
X145140149Y-91866596D01*
X145150443Y-91871396D01*
X145156737Y-91869710D01*
X146569574Y-90456872D01*
X146574374Y-90446578D01*
X146572978Y-90441367D01*
X146544731Y-90416595D01*
X146538866Y-90412095D01*
X146509827Y-90366521D01*
X146516876Y-90312943D01*
X146556715Y-90276432D01*
X146586952Y-90270416D01*
X147960006Y-90270398D01*
X148173461Y-90270395D01*
X148190742Y-90272308D01*
G37*
G04 #@! TD.AperFunction*
G04 #@! TA.AperFunction,Conductor*
G36*
X144785674Y-102820943D02*
G01*
X145456570Y-103466111D01*
X145566231Y-103571567D01*
X145569819Y-103579771D01*
X145566231Y-103588433D01*
X145052513Y-104082451D01*
X144785674Y-104339057D01*
X144777335Y-104342322D01*
X144771966Y-104340898D01*
X144621255Y-104258775D01*
X144620336Y-104258218D01*
X144590926Y-104238492D01*
X144489286Y-104170317D01*
X144488642Y-104169850D01*
X144376311Y-104082451D01*
X144376015Y-104082213D01*
X144274582Y-103997864D01*
X144274544Y-103997832D01*
X144176258Y-103919195D01*
X144073451Y-103849021D01*
X143958273Y-103789914D01*
X143887153Y-103766046D01*
X143823278Y-103744609D01*
X143823275Y-103744608D01*
X143822872Y-103744473D01*
X143713834Y-103725016D01*
X143659758Y-103715366D01*
X143659754Y-103715366D01*
X143659398Y-103715302D01*
X143650763Y-103714856D01*
X143471096Y-103705573D01*
X143463011Y-103701724D01*
X143460000Y-103693889D01*
X143460000Y-103466111D01*
X143463427Y-103457838D01*
X143471096Y-103454427D01*
X143659030Y-103444716D01*
X143659398Y-103444697D01*
X143659754Y-103444633D01*
X143659758Y-103444633D01*
X143713834Y-103434983D01*
X143822872Y-103415526D01*
X143823275Y-103415391D01*
X143823278Y-103415390D01*
X143887153Y-103393953D01*
X143958273Y-103370085D01*
X144073451Y-103310978D01*
X144176258Y-103240804D01*
X144274544Y-103162167D01*
X144376015Y-103077786D01*
X144376311Y-103077548D01*
X144408926Y-103052172D01*
X144488642Y-102990149D01*
X144489286Y-102989682D01*
X144620336Y-102901781D01*
X144621255Y-102901224D01*
X144771966Y-102819102D01*
X144780870Y-102818153D01*
X144785674Y-102820943D01*
G37*
G04 #@! TD.AperFunction*
G04 #@! TA.AperFunction,Conductor*
G36*
X147383235Y-106724256D02*
G01*
X147923163Y-106732529D01*
X147931383Y-106736083D01*
X147934194Y-106740878D01*
X147983286Y-106905146D01*
X147983548Y-106906197D01*
X148014512Y-107060719D01*
X148014646Y-107061542D01*
X148032577Y-107202515D01*
X148032617Y-107202878D01*
X148044883Y-107334152D01*
X148058849Y-107459130D01*
X148081912Y-107581350D01*
X148121486Y-107704509D01*
X148121683Y-107704905D01*
X148121684Y-107704908D01*
X148184790Y-107831920D01*
X148184983Y-107832308D01*
X148185231Y-107832664D01*
X148251352Y-107927583D01*
X148279816Y-107968445D01*
X148310808Y-108002823D01*
X148405959Y-108108370D01*
X148408953Y-108116809D01*
X148405542Y-108124477D01*
X148244476Y-108285543D01*
X148236203Y-108288970D01*
X148228370Y-108285961D01*
X148089126Y-108160468D01*
X148088849Y-108160218D01*
X148037473Y-108124477D01*
X147953411Y-108065997D01*
X147953406Y-108065994D01*
X147953058Y-108065752D01*
X147952671Y-108065561D01*
X147952667Y-108065558D01*
X147825948Y-108002823D01*
X147825550Y-108002626D01*
X147702629Y-107963471D01*
X147580599Y-107940914D01*
X147580376Y-107940890D01*
X147580368Y-107940889D01*
X147515091Y-107933918D01*
X147455764Y-107927583D01*
X147324606Y-107916124D01*
X147324256Y-107916087D01*
X147229514Y-107904713D01*
X147183302Y-107899165D01*
X147182488Y-107899038D01*
X147095361Y-107882288D01*
X147027994Y-107869336D01*
X147026948Y-107869085D01*
X146862683Y-107821483D01*
X146855692Y-107815888D01*
X146854244Y-107810523D01*
X146836425Y-107061120D01*
X146828502Y-106727915D01*
X146831732Y-106719564D01*
X146840377Y-106715939D01*
X147383235Y-106724256D01*
G37*
G04 #@! TD.AperFunction*
G04 #@! TA.AperFunction,Conductor*
G36*
X144785674Y-107400943D02*
G01*
X145456570Y-108046111D01*
X145566231Y-108151567D01*
X145569819Y-108159771D01*
X145566231Y-108168433D01*
X145052513Y-108662451D01*
X144785674Y-108919057D01*
X144777335Y-108922322D01*
X144771966Y-108920898D01*
X144621255Y-108838775D01*
X144620336Y-108838218D01*
X144590926Y-108818491D01*
X144489286Y-108750317D01*
X144488642Y-108749850D01*
X144376311Y-108662451D01*
X144376015Y-108662213D01*
X144274582Y-108577864D01*
X144274544Y-108577832D01*
X144184891Y-108506102D01*
X144180571Y-108498257D01*
X144180500Y-108496966D01*
X144180500Y-108439194D01*
X144171187Y-108392376D01*
X144135714Y-108339286D01*
X144082624Y-108303813D01*
X144081495Y-108303588D01*
X144081494Y-108303588D01*
X144036375Y-108294613D01*
X144036373Y-108294613D01*
X144035806Y-108294500D01*
X143644169Y-108294500D01*
X143643565Y-108294484D01*
X143471096Y-108285573D01*
X143463011Y-108281724D01*
X143460000Y-108273889D01*
X143460000Y-108046111D01*
X143463427Y-108037838D01*
X143471096Y-108034427D01*
X143659030Y-108024716D01*
X143659398Y-108024697D01*
X143659754Y-108024633D01*
X143659758Y-108024633D01*
X143713834Y-108014983D01*
X143822872Y-107995526D01*
X143823275Y-107995391D01*
X143823278Y-107995390D01*
X143887153Y-107973953D01*
X143958273Y-107950085D01*
X144073451Y-107890978D01*
X144176258Y-107820804D01*
X144274544Y-107742167D01*
X144376015Y-107657786D01*
X144376311Y-107657548D01*
X144408926Y-107632172D01*
X144488642Y-107570149D01*
X144489286Y-107569682D01*
X144620336Y-107481781D01*
X144621255Y-107481224D01*
X144771966Y-107399102D01*
X144780870Y-107398153D01*
X144785674Y-107400943D01*
G37*
G04 #@! TD.AperFunction*
G04 #@! TA.AperFunction,Conductor*
G36*
X144587070Y-109823816D02*
G01*
X145017716Y-110048629D01*
X145547102Y-110324989D01*
X145552851Y-110331855D01*
X145551840Y-110341176D01*
X145422030Y-110567782D01*
X145063224Y-111194139D01*
X145013566Y-111280825D01*
X145006480Y-111286300D01*
X145000914Y-111286439D01*
X144819349Y-111246728D01*
X144818188Y-111246411D01*
X144660023Y-111194309D01*
X144658999Y-111193917D01*
X144523292Y-111134617D01*
X144522604Y-111134289D01*
X144400570Y-111071202D01*
X144400370Y-111071096D01*
X144376932Y-111058398D01*
X144283496Y-111007775D01*
X144163409Y-110947907D01*
X144163196Y-110947822D01*
X144163190Y-110947819D01*
X144092077Y-110919337D01*
X144031615Y-110895121D01*
X144031301Y-110895034D01*
X144031298Y-110895033D01*
X143879852Y-110853085D01*
X143879847Y-110853084D01*
X143879515Y-110852992D01*
X143698509Y-110825093D01*
X143666333Y-110823607D01*
X143491160Y-110815515D01*
X143483054Y-110811710D01*
X143480000Y-110803827D01*
X143480000Y-110576055D01*
X143483427Y-110567782D01*
X143491037Y-110564374D01*
X143616005Y-110557281D01*
X143660430Y-110554759D01*
X143660827Y-110554680D01*
X143660831Y-110554679D01*
X143730922Y-110540643D01*
X143807646Y-110525279D01*
X143821238Y-110519997D01*
X143927722Y-110478615D01*
X143927727Y-110478612D01*
X143928230Y-110478417D01*
X144028763Y-110416032D01*
X144029118Y-110415722D01*
X144029122Y-110415719D01*
X144115584Y-110340198D01*
X144115828Y-110339985D01*
X144196008Y-110252134D01*
X144275885Y-110154338D01*
X144361903Y-110048628D01*
X144362208Y-110048269D01*
X144460793Y-109936653D01*
X144461336Y-109936079D01*
X144573453Y-109825845D01*
X144581755Y-109822488D01*
X144587070Y-109823816D01*
G37*
G04 #@! TD.AperFunction*
G04 #@! TA.AperFunction,Conductor*
G36*
X142469994Y-111638818D02*
G01*
X142522352Y-111665711D01*
X142522723Y-111665911D01*
X142555192Y-111684262D01*
X142574183Y-111694995D01*
X142574387Y-111695114D01*
X142620267Y-111722282D01*
X142620306Y-111722305D01*
X142663231Y-111747201D01*
X142705628Y-111769341D01*
X142729586Y-111779578D01*
X142749810Y-111788220D01*
X142749819Y-111788223D01*
X142750078Y-111788334D01*
X142750352Y-111788420D01*
X142750354Y-111788421D01*
X142798880Y-111803700D01*
X142798883Y-111803701D01*
X142799160Y-111803788D01*
X142799448Y-111803847D01*
X142799452Y-111803848D01*
X142816338Y-111807304D01*
X142855454Y-111815311D01*
X142855725Y-111815341D01*
X142855728Y-111815341D01*
X142921316Y-111822488D01*
X142921326Y-111822489D01*
X142921540Y-111822512D01*
X142941449Y-111823143D01*
X142988671Y-111824641D01*
X142996831Y-111828328D01*
X143000000Y-111836335D01*
X143000000Y-112063665D01*
X142996573Y-112071938D01*
X142988671Y-112075359D01*
X142954767Y-112076434D01*
X142921540Y-112077487D01*
X142921326Y-112077510D01*
X142921316Y-112077511D01*
X142855728Y-112084658D01*
X142855725Y-112084658D01*
X142855454Y-112084688D01*
X142816338Y-112092695D01*
X142799452Y-112096151D01*
X142799448Y-112096152D01*
X142799160Y-112096211D01*
X142798883Y-112096298D01*
X142798880Y-112096299D01*
X142750354Y-112111578D01*
X142750078Y-112111665D01*
X142749819Y-112111776D01*
X142749810Y-112111779D01*
X142729586Y-112120421D01*
X142705628Y-112130658D01*
X142663231Y-112152798D01*
X142663116Y-112152865D01*
X142663110Y-112152868D01*
X142620306Y-112177694D01*
X142620267Y-112177717D01*
X142574387Y-112204885D01*
X142574183Y-112205004D01*
X142555192Y-112215737D01*
X142522723Y-112234088D01*
X142522352Y-112234288D01*
X142473837Y-112259208D01*
X142469994Y-112261182D01*
X142461069Y-112261914D01*
X142456538Y-112259208D01*
X142371797Y-112177717D01*
X142143769Y-111958433D01*
X142140181Y-111950229D01*
X142143769Y-111941567D01*
X142253198Y-111836335D01*
X142456538Y-111640792D01*
X142464877Y-111637527D01*
X142469994Y-111638818D01*
G37*
G04 #@! TD.AperFunction*
G04 #@! TA.AperFunction,Conductor*
G36*
X147383235Y-104434256D02*
G01*
X147923163Y-104442529D01*
X147931383Y-104446083D01*
X147934194Y-104450878D01*
X147983286Y-104615146D01*
X147983548Y-104616197D01*
X148014512Y-104770719D01*
X148014646Y-104771542D01*
X148032577Y-104912515D01*
X148032617Y-104912878D01*
X148044883Y-105044152D01*
X148058849Y-105169130D01*
X148081912Y-105291350D01*
X148121486Y-105414509D01*
X148121683Y-105414905D01*
X148121684Y-105414908D01*
X148184790Y-105541920D01*
X148184983Y-105542308D01*
X148185231Y-105542664D01*
X148251352Y-105637583D01*
X148279816Y-105678445D01*
X148310808Y-105712823D01*
X148405959Y-105818370D01*
X148408953Y-105826809D01*
X148405542Y-105834477D01*
X148244476Y-105995543D01*
X148236203Y-105998970D01*
X148228370Y-105995961D01*
X148089126Y-105870468D01*
X148088849Y-105870218D01*
X148037473Y-105834477D01*
X147953411Y-105775997D01*
X147953406Y-105775994D01*
X147953058Y-105775752D01*
X147952671Y-105775561D01*
X147952667Y-105775558D01*
X147825948Y-105712823D01*
X147825550Y-105712626D01*
X147702629Y-105673471D01*
X147580599Y-105650914D01*
X147580376Y-105650890D01*
X147580368Y-105650889D01*
X147515091Y-105643918D01*
X147455764Y-105637583D01*
X147324606Y-105626124D01*
X147324256Y-105626087D01*
X147229514Y-105614713D01*
X147183302Y-105609165D01*
X147182488Y-105609038D01*
X147095361Y-105592288D01*
X147027994Y-105579336D01*
X147026948Y-105579085D01*
X146862683Y-105531483D01*
X146855692Y-105525888D01*
X146854244Y-105520523D01*
X146836425Y-104771120D01*
X146828502Y-104437915D01*
X146831732Y-104429564D01*
X146840377Y-104425939D01*
X147383235Y-104434256D01*
G37*
G04 #@! TD.AperFunction*
G04 #@! TA.AperFunction,Conductor*
G36*
X144785674Y-105110943D02*
G01*
X145456570Y-105756111D01*
X145566231Y-105861567D01*
X145569819Y-105869771D01*
X145566231Y-105878433D01*
X145052513Y-106372451D01*
X144785674Y-106629057D01*
X144777335Y-106632322D01*
X144771966Y-106630898D01*
X144621255Y-106548775D01*
X144620336Y-106548218D01*
X144590926Y-106528491D01*
X144489286Y-106460317D01*
X144488642Y-106459850D01*
X144376311Y-106372451D01*
X144376015Y-106372213D01*
X144274582Y-106287864D01*
X144274544Y-106287832D01*
X144176258Y-106209195D01*
X144073451Y-106139021D01*
X143958273Y-106079914D01*
X143887153Y-106056046D01*
X143823278Y-106034609D01*
X143823275Y-106034608D01*
X143822872Y-106034473D01*
X143713834Y-106015016D01*
X143659758Y-106005366D01*
X143659754Y-106005366D01*
X143659398Y-106005302D01*
X143650763Y-106004856D01*
X143471096Y-105995573D01*
X143463011Y-105991724D01*
X143460000Y-105983889D01*
X143460000Y-105756111D01*
X143463427Y-105747838D01*
X143471096Y-105744427D01*
X143659030Y-105734716D01*
X143659398Y-105734697D01*
X143659754Y-105734633D01*
X143659758Y-105734633D01*
X143713834Y-105724983D01*
X143822872Y-105705526D01*
X143823275Y-105705391D01*
X143823278Y-105705390D01*
X143887153Y-105683953D01*
X143958273Y-105660085D01*
X144073451Y-105600978D01*
X144176258Y-105530804D01*
X144274544Y-105452167D01*
X144376015Y-105367786D01*
X144376311Y-105367548D01*
X144408926Y-105342172D01*
X144488642Y-105280149D01*
X144489286Y-105279682D01*
X144620336Y-105191781D01*
X144621255Y-105191224D01*
X144771966Y-105109102D01*
X144780870Y-105108153D01*
X144785674Y-105110943D01*
G37*
G04 #@! TD.AperFunction*
M02*
