G04 #@! TF.GenerationSoftware,KiCad,Pcbnew,(6.0.6-0)*
G04 #@! TF.CreationDate,2023-01-05T22:25:42-05:00*
G04 #@! TF.ProjectId,10DIN2VGA VGA Board,31304449-4e32-4564-9741-205647412042,1*
G04 #@! TF.SameCoordinates,Original*
G04 #@! TF.FileFunction,Copper,L1,Top*
G04 #@! TF.FilePolarity,Positive*
%FSLAX46Y46*%
G04 Gerber Fmt 4.6, Leading zero omitted, Abs format (unit mm)*
G04 Created by KiCad (PCBNEW (6.0.6-0)) date 2023-01-05 22:25:42*
%MOMM*%
%LPD*%
G01*
G04 APERTURE LIST*
G04 Aperture macros list*
%AMRoundRect*
0 Rectangle with rounded corners*
0 $1 Rounding radius*
0 $2 $3 $4 $5 $6 $7 $8 $9 X,Y pos of 4 corners*
0 Add a 4 corners polygon primitive as box body*
4,1,4,$2,$3,$4,$5,$6,$7,$8,$9,$2,$3,0*
0 Add four circle primitives for the rounded corners*
1,1,$1+$1,$2,$3*
1,1,$1+$1,$4,$5*
1,1,$1+$1,$6,$7*
1,1,$1+$1,$8,$9*
0 Add four rect primitives between the rounded corners*
20,1,$1+$1,$2,$3,$4,$5,0*
20,1,$1+$1,$4,$5,$6,$7,0*
20,1,$1+$1,$6,$7,$8,$9,0*
20,1,$1+$1,$8,$9,$2,$3,0*%
%AMFreePoly0*
4,1,22,0.500000,-0.750000,0.000000,-0.750000,0.000000,-0.745033,-0.079941,-0.743568,-0.215256,-0.701293,-0.333266,-0.622738,-0.424486,-0.514219,-0.481581,-0.384460,-0.499164,-0.250000,-0.500000,-0.250000,-0.500000,0.250000,-0.499164,0.250000,-0.499963,0.256109,-0.478152,0.396186,-0.417904,0.524511,-0.324060,0.630769,-0.204165,0.706417,-0.067858,0.745374,0.000000,0.744959,0.000000,0.750000,
0.500000,0.750000,0.500000,-0.750000,0.500000,-0.750000,$1*%
%AMFreePoly1*
4,1,20,0.000000,0.744959,0.073905,0.744508,0.209726,0.703889,0.328688,0.626782,0.421226,0.519385,0.479903,0.390333,0.500000,0.250000,0.500000,-0.250000,0.499851,-0.262216,0.476331,-0.402017,0.414519,-0.529596,0.319384,-0.634700,0.198574,-0.708877,0.061801,-0.746166,0.000000,-0.745033,0.000000,-0.750000,-0.500000,-0.750000,-0.500000,0.750000,0.000000,0.750000,0.000000,0.744959,
0.000000,0.744959,$1*%
G04 Aperture macros list end*
G04 #@! TA.AperFunction,SMDPad,CuDef*
%ADD10RoundRect,0.381000X-1.119000X-0.381000X1.119000X-0.381000X1.119000X0.381000X-1.119000X0.381000X0*%
G04 #@! TD*
G04 #@! TA.AperFunction,SMDPad,CuDef*
%ADD11FreePoly0,90.000000*%
G04 #@! TD*
G04 #@! TA.AperFunction,SMDPad,CuDef*
%ADD12FreePoly1,90.000000*%
G04 #@! TD*
G04 #@! TA.AperFunction,ComponentPad*
%ADD13R,1.700000X1.700000*%
G04 #@! TD*
G04 #@! TA.AperFunction,ComponentPad*
%ADD14C,1.700000*%
G04 #@! TD*
G04 #@! TA.AperFunction,ComponentPad*
%ADD15C,4.066000*%
G04 #@! TD*
G04 #@! TA.AperFunction,ViaPad*
%ADD16C,0.700000*%
G04 #@! TD*
G04 #@! TA.AperFunction,Conductor*
%ADD17C,0.250000*%
G04 #@! TD*
G04 APERTURE END LIST*
D10*
X139450000Y-111955000D03*
X139450000Y-114495000D03*
X139450000Y-109415000D03*
X139450000Y-106875000D03*
X139450000Y-104335000D03*
X139450000Y-101795000D03*
D11*
X147520000Y-112960000D03*
D12*
X147520000Y-111660000D03*
D13*
X143170000Y-109305000D03*
D14*
X143170000Y-107015000D03*
X143170000Y-104725000D03*
X143170000Y-102435000D03*
X143170000Y-100145000D03*
X145150000Y-110450000D03*
X145150000Y-108160000D03*
X145150000Y-105870000D03*
X145150000Y-103580000D03*
X145150000Y-101290000D03*
X147130000Y-109305000D03*
X147130000Y-107015000D03*
X147130000Y-104725000D03*
X147130000Y-102435000D03*
X147130000Y-100145000D03*
D15*
X145150000Y-92230000D03*
X145150000Y-117220000D03*
D16*
X142310000Y-111950000D03*
D17*
X142310000Y-111950000D02*
X139450000Y-111950000D01*
X143740000Y-112960000D02*
X142200000Y-114500000D01*
X142200000Y-114500000D02*
X139470000Y-114500000D01*
X147520000Y-112960000D02*
X148200000Y-112960000D01*
X147520000Y-112960000D02*
X143740000Y-112960000D01*
X148970000Y-112190000D02*
X148970000Y-101980000D01*
X148970000Y-101980000D02*
X147130000Y-100140000D01*
X148200000Y-112960000D02*
X148970000Y-112190000D01*
X139565000Y-109305000D02*
X139460000Y-109410000D01*
X143170000Y-109305000D02*
X139565000Y-109305000D01*
X143170000Y-107015000D02*
X139595000Y-107015000D01*
X139595000Y-107015000D02*
X139450000Y-106870000D01*
X139845000Y-104725000D02*
X139450000Y-104330000D01*
X143170000Y-104725000D02*
X139845000Y-104725000D01*
X147520000Y-111660000D02*
X147520000Y-109700000D01*
X147520000Y-109700000D02*
X147130000Y-109310000D01*
G04 #@! TA.AperFunction,Conductor*
G36*
X147383235Y-99854256D02*
G01*
X147923163Y-99862529D01*
X147931383Y-99866083D01*
X147934194Y-99870878D01*
X147983286Y-100035146D01*
X147983548Y-100036197D01*
X148014512Y-100190719D01*
X148014646Y-100191542D01*
X148032577Y-100332515D01*
X148032617Y-100332878D01*
X148044883Y-100464152D01*
X148058849Y-100589130D01*
X148081912Y-100711350D01*
X148121486Y-100834509D01*
X148121683Y-100834905D01*
X148121684Y-100834908D01*
X148184790Y-100961920D01*
X148184983Y-100962308D01*
X148185231Y-100962664D01*
X148251352Y-101057583D01*
X148279816Y-101098445D01*
X148310808Y-101132823D01*
X148405959Y-101238370D01*
X148408953Y-101246809D01*
X148405542Y-101254477D01*
X148244476Y-101415543D01*
X148236203Y-101418970D01*
X148228370Y-101415961D01*
X148089126Y-101290468D01*
X148088849Y-101290218D01*
X148037473Y-101254477D01*
X147953411Y-101195997D01*
X147953406Y-101195994D01*
X147953058Y-101195752D01*
X147952671Y-101195561D01*
X147952667Y-101195558D01*
X147825948Y-101132823D01*
X147825550Y-101132626D01*
X147702629Y-101093471D01*
X147580599Y-101070914D01*
X147580376Y-101070890D01*
X147580368Y-101070889D01*
X147515091Y-101063918D01*
X147455764Y-101057583D01*
X147324606Y-101046124D01*
X147324256Y-101046087D01*
X147229514Y-101034713D01*
X147183302Y-101029165D01*
X147182488Y-101029038D01*
X147095361Y-101012288D01*
X147027994Y-100999336D01*
X147026948Y-100999085D01*
X146862683Y-100951483D01*
X146855692Y-100945888D01*
X146854244Y-100940523D01*
X146836425Y-100191120D01*
X146828502Y-99857915D01*
X146831732Y-99849564D01*
X146840377Y-99845939D01*
X147383235Y-99854256D01*
G37*
G04 #@! TD.AperFunction*
G04 #@! TA.AperFunction,Conductor*
G36*
X142805674Y-106255943D02*
G01*
X143476570Y-106901111D01*
X143586231Y-107006567D01*
X143589819Y-107014771D01*
X143586231Y-107023433D01*
X143072513Y-107517451D01*
X142805674Y-107774057D01*
X142797335Y-107777322D01*
X142791966Y-107775898D01*
X142641255Y-107693775D01*
X142640336Y-107693218D01*
X142610926Y-107673492D01*
X142509286Y-107605317D01*
X142508642Y-107604850D01*
X142396311Y-107517451D01*
X142396015Y-107517213D01*
X142294582Y-107432864D01*
X142294544Y-107432832D01*
X142196258Y-107354195D01*
X142093451Y-107284021D01*
X141978273Y-107224914D01*
X141907153Y-107201046D01*
X141843278Y-107179609D01*
X141843275Y-107179608D01*
X141842872Y-107179473D01*
X141733834Y-107160016D01*
X141679758Y-107150366D01*
X141679754Y-107150366D01*
X141679398Y-107150302D01*
X141670763Y-107149856D01*
X141491096Y-107140573D01*
X141483011Y-107136724D01*
X141480000Y-107128889D01*
X141480000Y-106901111D01*
X141483427Y-106892838D01*
X141491096Y-106889427D01*
X141679030Y-106879716D01*
X141679398Y-106879697D01*
X141679754Y-106879633D01*
X141679758Y-106879633D01*
X141733834Y-106869983D01*
X141842872Y-106850526D01*
X141843275Y-106850391D01*
X141843278Y-106850390D01*
X141907153Y-106828953D01*
X141978273Y-106805085D01*
X142093451Y-106745978D01*
X142196258Y-106675804D01*
X142294544Y-106597167D01*
X142396015Y-106512786D01*
X142396311Y-106512548D01*
X142428926Y-106487172D01*
X142508642Y-106425149D01*
X142509286Y-106424682D01*
X142640336Y-106336781D01*
X142641255Y-106336224D01*
X142791966Y-106254102D01*
X142800870Y-106253153D01*
X142805674Y-106255943D01*
G37*
G04 #@! TD.AperFunction*
G04 #@! TA.AperFunction,Conductor*
G36*
X142805674Y-108545943D02*
G01*
X143476570Y-109191111D01*
X143586231Y-109296567D01*
X143589819Y-109304771D01*
X143586231Y-109313433D01*
X143072513Y-109807451D01*
X142805674Y-110064057D01*
X142797335Y-110067322D01*
X142791966Y-110065898D01*
X142641255Y-109983775D01*
X142640336Y-109983218D01*
X142610926Y-109963491D01*
X142509286Y-109895317D01*
X142508642Y-109894850D01*
X142396311Y-109807451D01*
X142396015Y-109807213D01*
X142294582Y-109722864D01*
X142294544Y-109722832D01*
X142196258Y-109644195D01*
X142093451Y-109574021D01*
X141978273Y-109514914D01*
X141907153Y-109491046D01*
X141843278Y-109469609D01*
X141843275Y-109469608D01*
X141842872Y-109469473D01*
X141733834Y-109450016D01*
X141679758Y-109440366D01*
X141679754Y-109440366D01*
X141679398Y-109440302D01*
X141670763Y-109439856D01*
X141491096Y-109430573D01*
X141483011Y-109426724D01*
X141480000Y-109418889D01*
X141480000Y-109191111D01*
X141483427Y-109182838D01*
X141491096Y-109179427D01*
X141679030Y-109169716D01*
X141679398Y-109169697D01*
X141679754Y-109169633D01*
X141679758Y-109169633D01*
X141733834Y-109159983D01*
X141842872Y-109140526D01*
X141843275Y-109140391D01*
X141843278Y-109140390D01*
X141907153Y-109118953D01*
X141978273Y-109095085D01*
X142093451Y-109035978D01*
X142196258Y-108965804D01*
X142294544Y-108887167D01*
X142396015Y-108802786D01*
X142396311Y-108802548D01*
X142428926Y-108777172D01*
X142508642Y-108715149D01*
X142509286Y-108714682D01*
X142640336Y-108626781D01*
X142641255Y-108626224D01*
X142791966Y-108544102D01*
X142800870Y-108543153D01*
X142805674Y-108545943D01*
G37*
G04 #@! TD.AperFunction*
G04 #@! TA.AperFunction,Conductor*
G36*
X142805674Y-103965943D02*
G01*
X143476570Y-104611111D01*
X143586231Y-104716567D01*
X143589819Y-104724771D01*
X143586231Y-104733433D01*
X143072513Y-105227451D01*
X142805674Y-105484057D01*
X142797335Y-105487322D01*
X142791966Y-105485898D01*
X142641255Y-105403775D01*
X142640336Y-105403218D01*
X142610926Y-105383492D01*
X142509286Y-105315317D01*
X142508642Y-105314850D01*
X142396311Y-105227451D01*
X142396015Y-105227213D01*
X142294582Y-105142864D01*
X142294544Y-105142832D01*
X142196258Y-105064195D01*
X142093451Y-104994021D01*
X141978273Y-104934914D01*
X141907153Y-104911046D01*
X141843278Y-104889609D01*
X141843275Y-104889608D01*
X141842872Y-104889473D01*
X141733834Y-104870016D01*
X141679758Y-104860366D01*
X141679754Y-104860366D01*
X141679398Y-104860302D01*
X141670763Y-104859856D01*
X141491096Y-104850573D01*
X141483011Y-104846724D01*
X141480000Y-104838889D01*
X141480000Y-104611111D01*
X141483427Y-104602838D01*
X141491096Y-104599427D01*
X141679030Y-104589716D01*
X141679398Y-104589697D01*
X141679754Y-104589633D01*
X141679758Y-104589633D01*
X141733834Y-104579983D01*
X141842872Y-104560526D01*
X141843275Y-104560391D01*
X141843278Y-104560390D01*
X141907153Y-104538953D01*
X141978273Y-104515085D01*
X142093451Y-104455978D01*
X142196258Y-104385804D01*
X142294544Y-104307167D01*
X142396015Y-104222786D01*
X142396311Y-104222548D01*
X142428926Y-104197172D01*
X142508642Y-104135149D01*
X142509286Y-104134682D01*
X142640336Y-104046781D01*
X142641255Y-104046224D01*
X142791966Y-103964102D01*
X142800870Y-103963153D01*
X142805674Y-103965943D01*
G37*
G04 #@! TD.AperFunction*
G04 #@! TA.AperFunction,Conductor*
G36*
X142163462Y-111640792D02*
G01*
X142366803Y-111836335D01*
X142476231Y-111941567D01*
X142479819Y-111949771D01*
X142476231Y-111958433D01*
X142248203Y-112177717D01*
X142163462Y-112259208D01*
X142155123Y-112262473D01*
X142150006Y-112261182D01*
X142146163Y-112259208D01*
X142097647Y-112234288D01*
X142097276Y-112234088D01*
X142064807Y-112215737D01*
X142045816Y-112205004D01*
X142045612Y-112204885D01*
X141999732Y-112177717D01*
X141999640Y-112177663D01*
X141956889Y-112152868D01*
X141956883Y-112152865D01*
X141956768Y-112152798D01*
X141914371Y-112130658D01*
X141890413Y-112120421D01*
X141870189Y-112111779D01*
X141870180Y-112111776D01*
X141869921Y-112111665D01*
X141869645Y-112111578D01*
X141821119Y-112096299D01*
X141821116Y-112096298D01*
X141820839Y-112096211D01*
X141820551Y-112096152D01*
X141820547Y-112096151D01*
X141803661Y-112092695D01*
X141764545Y-112084688D01*
X141764274Y-112084658D01*
X141764271Y-112084658D01*
X141698683Y-112077511D01*
X141698673Y-112077510D01*
X141698459Y-112077487D01*
X141665944Y-112076456D01*
X141631329Y-112075359D01*
X141623169Y-112071672D01*
X141620000Y-112063665D01*
X141620000Y-111836335D01*
X141623427Y-111828062D01*
X141631329Y-111824641D01*
X141678792Y-111823136D01*
X141698459Y-111822512D01*
X141698673Y-111822489D01*
X141698683Y-111822488D01*
X141764271Y-111815341D01*
X141764274Y-111815341D01*
X141764545Y-111815311D01*
X141803661Y-111807304D01*
X141820547Y-111803848D01*
X141820551Y-111803847D01*
X141820839Y-111803788D01*
X141821116Y-111803701D01*
X141821119Y-111803700D01*
X141869645Y-111788421D01*
X141869647Y-111788420D01*
X141869921Y-111788334D01*
X141870180Y-111788223D01*
X141870189Y-111788220D01*
X141890413Y-111779578D01*
X141914371Y-111769341D01*
X141956768Y-111747201D01*
X141999693Y-111722305D01*
X141999732Y-111722282D01*
X142045612Y-111695114D01*
X142045816Y-111694995D01*
X142097257Y-111665922D01*
X142097668Y-111665701D01*
X142150006Y-111638818D01*
X142158931Y-111638086D01*
X142163462Y-111640792D01*
G37*
G04 #@! TD.AperFunction*
G04 #@! TA.AperFunction,Conductor*
G36*
X148190742Y-90272308D02*
G01*
X148200614Y-90274522D01*
X148209277Y-90272512D01*
X148218178Y-90272479D01*
X148218178Y-90272600D01*
X148226237Y-90271922D01*
X148437989Y-90284690D01*
X148448269Y-90285991D01*
X148513861Y-90298716D01*
X148676358Y-90330241D01*
X148686389Y-90332881D01*
X148786884Y-90366521D01*
X148906710Y-90406632D01*
X148916299Y-90410559D01*
X148990032Y-90446578D01*
X149125064Y-90512543D01*
X149134065Y-90517698D01*
X149327658Y-90646149D01*
X149335906Y-90652439D01*
X149511009Y-90805154D01*
X149518359Y-90812467D01*
X149654099Y-90966552D01*
X149671943Y-90986807D01*
X149678273Y-90995023D01*
X149807688Y-91187977D01*
X149812888Y-91196953D01*
X149915906Y-91405199D01*
X149919882Y-91414768D01*
X149994734Y-91634736D01*
X149997421Y-91644746D01*
X150042806Y-91872615D01*
X150044158Y-91882885D01*
X150057946Y-92094057D01*
X150057299Y-92102065D01*
X150057495Y-92102065D01*
X150057475Y-92110960D01*
X150055477Y-92119631D01*
X150057437Y-92128311D01*
X150057665Y-92129322D01*
X150059605Y-92146720D01*
X150059501Y-119890500D01*
X150041018Y-119941280D01*
X149994219Y-119968300D01*
X149980501Y-119969500D01*
X140239500Y-119969500D01*
X140188720Y-119951018D01*
X140161700Y-119904218D01*
X140160500Y-119890500D01*
X140160500Y-119003422D01*
X143725626Y-119003422D01*
X143727022Y-119008633D01*
X143755270Y-119033406D01*
X143759368Y-119036551D01*
X144003898Y-119199941D01*
X144008370Y-119202523D01*
X144272136Y-119332597D01*
X144276915Y-119334577D01*
X144555388Y-119429106D01*
X144560394Y-119430447D01*
X144848832Y-119487821D01*
X144853949Y-119488495D01*
X145147422Y-119507730D01*
X145152578Y-119507730D01*
X145446051Y-119488495D01*
X145451168Y-119487821D01*
X145739606Y-119430447D01*
X145744612Y-119429106D01*
X146023085Y-119334577D01*
X146027864Y-119332597D01*
X146291630Y-119202523D01*
X146296102Y-119199941D01*
X146540632Y-119036551D01*
X146544730Y-119033406D01*
X146568952Y-119012164D01*
X146574414Y-119002207D01*
X146573361Y-118996915D01*
X145159851Y-117583404D01*
X145149557Y-117578604D01*
X145143263Y-117580290D01*
X143730426Y-118993128D01*
X143725626Y-119003422D01*
X140160500Y-119003422D01*
X140160500Y-117222578D01*
X142862270Y-117222578D01*
X142881505Y-117516051D01*
X142882179Y-117521168D01*
X142939553Y-117809606D01*
X142940894Y-117814612D01*
X143035423Y-118093085D01*
X143037403Y-118097864D01*
X143167477Y-118361629D01*
X143170059Y-118366102D01*
X143333449Y-118610632D01*
X143336594Y-118614730D01*
X143357836Y-118638952D01*
X143367793Y-118644414D01*
X143373085Y-118643361D01*
X144786596Y-117229851D01*
X144790983Y-117220443D01*
X145508604Y-117220443D01*
X145510290Y-117226737D01*
X146923128Y-118639574D01*
X146933422Y-118644374D01*
X146938633Y-118642978D01*
X146963406Y-118614730D01*
X146966551Y-118610632D01*
X147129941Y-118366102D01*
X147132523Y-118361629D01*
X147262597Y-118097864D01*
X147264577Y-118093085D01*
X147359106Y-117814612D01*
X147360447Y-117809606D01*
X147417821Y-117521168D01*
X147418495Y-117516051D01*
X147437730Y-117222578D01*
X147437730Y-117217422D01*
X147418495Y-116923949D01*
X147417821Y-116918832D01*
X147360447Y-116630394D01*
X147359106Y-116625388D01*
X147264577Y-116346915D01*
X147262597Y-116342136D01*
X147132523Y-116078371D01*
X147129941Y-116073898D01*
X146966551Y-115829368D01*
X146963406Y-115825270D01*
X146942164Y-115801048D01*
X146932207Y-115795586D01*
X146926915Y-115796639D01*
X145513404Y-117210149D01*
X145508604Y-117220443D01*
X144790983Y-117220443D01*
X144791396Y-117219557D01*
X144789710Y-117213263D01*
X143376872Y-115800426D01*
X143366578Y-115795626D01*
X143361367Y-115797022D01*
X143336594Y-115825270D01*
X143333449Y-115829368D01*
X143170059Y-116073898D01*
X143167477Y-116078371D01*
X143037403Y-116342136D01*
X143035423Y-116346915D01*
X142940894Y-116625388D01*
X142939553Y-116630394D01*
X142882179Y-116918832D01*
X142881505Y-116923949D01*
X142862270Y-117217422D01*
X142862270Y-117222578D01*
X140160500Y-117222578D01*
X140160500Y-116225198D01*
X140160904Y-116218785D01*
X140164000Y-116210718D01*
X140161024Y-116184997D01*
X140160500Y-116175917D01*
X140160500Y-116170446D01*
X140159363Y-116165816D01*
X140159293Y-116165238D01*
X140157737Y-116156585D01*
X140156035Y-116141876D01*
X140156035Y-116141875D01*
X140154936Y-116132380D01*
X140149735Y-116124728D01*
X140149359Y-116123504D01*
X140148699Y-116122401D01*
X140146492Y-116113416D01*
X140130385Y-116095146D01*
X140124306Y-116087309D01*
X140115985Y-116075065D01*
X140115983Y-116075063D01*
X140110609Y-116067156D01*
X140102454Y-116062784D01*
X140101554Y-116061874D01*
X140100461Y-116061204D01*
X140094341Y-116054262D01*
X140085415Y-116050836D01*
X140085414Y-116050835D01*
X140071601Y-116045533D01*
X140062580Y-116041402D01*
X140047509Y-116033321D01*
X140047506Y-116033320D01*
X140041109Y-116029890D01*
X140038022Y-116029500D01*
X140035198Y-116029500D01*
X140028785Y-116029096D01*
X140020718Y-116026000D01*
X139995853Y-116028877D01*
X139994997Y-116028976D01*
X139985917Y-116029500D01*
X138049500Y-116029500D01*
X137998720Y-116011018D01*
X137971700Y-115964218D01*
X137970500Y-115950500D01*
X137970500Y-115437793D01*
X143725586Y-115437793D01*
X143726639Y-115443085D01*
X145140149Y-116856596D01*
X145150443Y-116861396D01*
X145156737Y-116859710D01*
X146569574Y-115446872D01*
X146574374Y-115436578D01*
X146572978Y-115431367D01*
X146544730Y-115406594D01*
X146540632Y-115403449D01*
X146296102Y-115240059D01*
X146291630Y-115237477D01*
X146027864Y-115107403D01*
X146023085Y-115105423D01*
X145744612Y-115010894D01*
X145739606Y-115009553D01*
X145451168Y-114952179D01*
X145446051Y-114951505D01*
X145152578Y-114932270D01*
X145147422Y-114932270D01*
X144853949Y-114951505D01*
X144848832Y-114952179D01*
X144560394Y-115009553D01*
X144555388Y-115010894D01*
X144276915Y-115105423D01*
X144272136Y-115107403D01*
X144008371Y-115237477D01*
X144003898Y-115240059D01*
X143759368Y-115403449D01*
X143755270Y-115406594D01*
X143731048Y-115427836D01*
X143725586Y-115437793D01*
X137970500Y-115437793D01*
X137970500Y-115431948D01*
X137988982Y-115381168D01*
X138035782Y-115354148D01*
X138078581Y-115358496D01*
X138195901Y-115404946D01*
X138195911Y-115404948D01*
X138200620Y-115406813D01*
X138205650Y-115407422D01*
X138205651Y-115407422D01*
X138236171Y-115411115D01*
X138288931Y-115417500D01*
X139449756Y-115417500D01*
X140611068Y-115417499D01*
X140625856Y-115415710D01*
X140694342Y-115407423D01*
X140694345Y-115407422D01*
X140699380Y-115406813D01*
X140837324Y-115352198D01*
X140955498Y-115262498D01*
X141045198Y-115144324D01*
X141067838Y-115087142D01*
X141097948Y-115011092D01*
X141097949Y-115011088D01*
X141099813Y-115006380D01*
X141110500Y-114918069D01*
X141110500Y-114864500D01*
X141128982Y-114813720D01*
X141175782Y-114786700D01*
X141189500Y-114785500D01*
X142148526Y-114785500D01*
X142153255Y-114785847D01*
X142157571Y-114787329D01*
X142204799Y-114785556D01*
X142207762Y-114785500D01*
X142226552Y-114785500D01*
X142230129Y-114784834D01*
X142232172Y-114784645D01*
X142236469Y-114784367D01*
X142256563Y-114783613D01*
X142256565Y-114783613D01*
X142263853Y-114783339D01*
X142275442Y-114778360D01*
X142292155Y-114773283D01*
X142297384Y-114772309D01*
X142297388Y-114772308D01*
X142304559Y-114770972D01*
X142327045Y-114757112D01*
X142337310Y-114751780D01*
X142339094Y-114751014D01*
X142361574Y-114741355D01*
X142366215Y-114737543D01*
X142371606Y-114732152D01*
X142386014Y-114720763D01*
X142388886Y-114718993D01*
X142388889Y-114718990D01*
X142395098Y-114715163D01*
X142412500Y-114692278D01*
X142419523Y-114684235D01*
X143835119Y-113268639D01*
X143884095Y-113245801D01*
X143890980Y-113245500D01*
X146621822Y-113245500D01*
X146672602Y-113263982D01*
X146688635Y-113282345D01*
X146746917Y-113374716D01*
X146776989Y-113410050D01*
X146884340Y-113504858D01*
X146923118Y-113530331D01*
X147052763Y-113591200D01*
X147097135Y-113604766D01*
X147099908Y-113605198D01*
X147099909Y-113605198D01*
X147235883Y-113626369D01*
X147235887Y-113626369D01*
X147238653Y-113626800D01*
X147259994Y-113627061D01*
X147282235Y-113627333D01*
X147282240Y-113627333D01*
X147285047Y-113627367D01*
X147308418Y-113624311D01*
X147318661Y-113623644D01*
X147712267Y-113623644D01*
X147724420Y-113624584D01*
X147735882Y-113626369D01*
X147735890Y-113626370D01*
X147738654Y-113626800D01*
X147760395Y-113627066D01*
X147782235Y-113627333D01*
X147782240Y-113627333D01*
X147785047Y-113627367D01*
X147927061Y-113608797D01*
X147971751Y-113596319D01*
X148037297Y-113567478D01*
X148100263Y-113539772D01*
X148100267Y-113539770D01*
X148102844Y-113538636D01*
X148142233Y-113514118D01*
X148251868Y-113421961D01*
X148264430Y-113407911D01*
X148280925Y-113389463D01*
X148280929Y-113389458D01*
X148282794Y-113387372D01*
X148284344Y-113385043D01*
X148284349Y-113385037D01*
X148360603Y-113270481D01*
X148362157Y-113268147D01*
X148372959Y-113245500D01*
X148380924Y-113228803D01*
X148380927Y-113228795D01*
X148382132Y-113226269D01*
X148396059Y-113181691D01*
X148408580Y-113157433D01*
X148412499Y-113152279D01*
X148419523Y-113144235D01*
X149135476Y-112428282D01*
X149139071Y-112425178D01*
X149143171Y-112423174D01*
X149175331Y-112388505D01*
X149177388Y-112386370D01*
X149190654Y-112373104D01*
X149192716Y-112370098D01*
X149194010Y-112368541D01*
X149196852Y-112365305D01*
X149210540Y-112350549D01*
X149215502Y-112345200D01*
X149220177Y-112333483D01*
X149228405Y-112318074D01*
X149231412Y-112313690D01*
X149231413Y-112313689D01*
X149235540Y-112307672D01*
X149237672Y-112298691D01*
X149241638Y-112281977D01*
X149245127Y-112270946D01*
X149252846Y-112251598D01*
X149252846Y-112251597D01*
X149254914Y-112246414D01*
X149255500Y-112240437D01*
X149255500Y-112232808D01*
X149257635Y-112214567D01*
X149258413Y-112211288D01*
X149260098Y-112204188D01*
X149256222Y-112175709D01*
X149255500Y-112165055D01*
X149255500Y-102031474D01*
X149255847Y-102026745D01*
X149257329Y-102022429D01*
X149255556Y-101975201D01*
X149255500Y-101972238D01*
X149255500Y-101953448D01*
X149254834Y-101949871D01*
X149254645Y-101947828D01*
X149254367Y-101943531D01*
X149253613Y-101923437D01*
X149253613Y-101923435D01*
X149253339Y-101916147D01*
X149248360Y-101904558D01*
X149243283Y-101887845D01*
X149242309Y-101882616D01*
X149242308Y-101882612D01*
X149240972Y-101875441D01*
X149227112Y-101852955D01*
X149221780Y-101842690D01*
X149213555Y-101823547D01*
X149211355Y-101818426D01*
X149207543Y-101813785D01*
X149202152Y-101808394D01*
X149190763Y-101793986D01*
X149188993Y-101791114D01*
X149188990Y-101791111D01*
X149185163Y-101784902D01*
X149162279Y-101767500D01*
X149154235Y-101760477D01*
X148547006Y-101153248D01*
X148534998Y-101137820D01*
X148530865Y-101130882D01*
X148530863Y-101130880D01*
X148528882Y-101127554D01*
X148513457Y-101110443D01*
X148413001Y-100999012D01*
X148406854Y-100991271D01*
X148331094Y-100882514D01*
X148325172Y-100872516D01*
X148277888Y-100777349D01*
X148273425Y-100766365D01*
X148244135Y-100675212D01*
X148241717Y-100665693D01*
X148232936Y-100619158D01*
X148223181Y-100567464D01*
X148222302Y-100561600D01*
X148209598Y-100447916D01*
X148209457Y-100446539D01*
X148205700Y-100406321D01*
X148197399Y-100317481D01*
X148197121Y-100314751D01*
X148197081Y-100314388D01*
X148196754Y-100311633D01*
X148178823Y-100170660D01*
X148177995Y-100164946D01*
X148177861Y-100164123D01*
X148176786Y-100158202D01*
X148145822Y-100003680D01*
X148144134Y-99996165D01*
X148143872Y-99995114D01*
X148141856Y-99987757D01*
X148140044Y-99981692D01*
X148093443Y-99825761D01*
X148092764Y-99823489D01*
X148091820Y-99821318D01*
X148091816Y-99821308D01*
X148080760Y-99795891D01*
X148077575Y-99787214D01*
X148069890Y-99761761D01*
X148069890Y-99761760D01*
X148068774Y-99758065D01*
X147975739Y-99583092D01*
X147968919Y-99574729D01*
X147852930Y-99432514D01*
X147850490Y-99429522D01*
X147838415Y-99419532D01*
X147700773Y-99305665D01*
X147700772Y-99305664D01*
X147697798Y-99303204D01*
X147679979Y-99293569D01*
X147660059Y-99282799D01*
X147523479Y-99208950D01*
X147334172Y-99150350D01*
X147137089Y-99129636D01*
X147133243Y-99129986D01*
X147133242Y-99129986D01*
X147085487Y-99134332D01*
X146939735Y-99147596D01*
X146936028Y-99148687D01*
X146753338Y-99202456D01*
X146753335Y-99202457D01*
X146749629Y-99203548D01*
X146746202Y-99205340D01*
X146746201Y-99205340D01*
X146735784Y-99210786D01*
X146574010Y-99295359D01*
X146571003Y-99297777D01*
X146571001Y-99297778D01*
X146561192Y-99305665D01*
X146419570Y-99419532D01*
X146408677Y-99432514D01*
X146295962Y-99566843D01*
X146292189Y-99571339D01*
X146290327Y-99574727D01*
X146290325Y-99574729D01*
X146283854Y-99586500D01*
X146196720Y-99744996D01*
X146136800Y-99933889D01*
X146114710Y-100130823D01*
X146118436Y-100175198D01*
X146130155Y-100314751D01*
X146131292Y-100328297D01*
X146185915Y-100518790D01*
X146276498Y-100695045D01*
X146399590Y-100850348D01*
X146550504Y-100978786D01*
X146723490Y-101075465D01*
X146727152Y-101076655D01*
X146727157Y-101076657D01*
X146786082Y-101095802D01*
X146798040Y-101100806D01*
X146816618Y-101110443D01*
X146820353Y-101111525D01*
X146820352Y-101111525D01*
X146971656Y-101155371D01*
X146980883Y-101158045D01*
X146981360Y-101158171D01*
X146981370Y-101158174D01*
X146987907Y-101159904D01*
X146987924Y-101159908D01*
X146988331Y-101160016D01*
X146988716Y-101160108D01*
X146988758Y-101160119D01*
X146988934Y-101160161D01*
X146988958Y-101160167D01*
X146989377Y-101160267D01*
X146996748Y-101161860D01*
X146997196Y-101161946D01*
X146997210Y-101161949D01*
X147051743Y-101172433D01*
X147151242Y-101191562D01*
X147151508Y-101191608D01*
X147151528Y-101191612D01*
X147156692Y-101192511D01*
X147156718Y-101192515D01*
X147156975Y-101192560D01*
X147157789Y-101192687D01*
X147158169Y-101192739D01*
X147158173Y-101192740D01*
X147163238Y-101193439D01*
X147163288Y-101193445D01*
X147163575Y-101193485D01*
X147263165Y-101205441D01*
X147304345Y-101210385D01*
X147304367Y-101210388D01*
X147304529Y-101210407D01*
X147305458Y-101210512D01*
X147306811Y-101210665D01*
X147306831Y-101210667D01*
X147306857Y-101210670D01*
X147307090Y-101210695D01*
X147307121Y-101210698D01*
X147307134Y-101210699D01*
X147307207Y-101210707D01*
X147308981Y-101210878D01*
X147310012Y-101210978D01*
X147310053Y-101210982D01*
X147310201Y-101210996D01*
X147439082Y-101222256D01*
X147440506Y-101222394D01*
X147531187Y-101232078D01*
X147553725Y-101234485D01*
X147559696Y-101235354D01*
X147657427Y-101253420D01*
X147667043Y-101255830D01*
X147757661Y-101284694D01*
X147768736Y-101289170D01*
X147863368Y-101336021D01*
X147873432Y-101341968D01*
X147981707Y-101417292D01*
X147989480Y-101423459D01*
X148114879Y-101536474D01*
X148114886Y-101536479D01*
X148117572Y-101538900D01*
X148120654Y-101540790D01*
X148120659Y-101540794D01*
X148129192Y-101546027D01*
X148143752Y-101557510D01*
X148661361Y-102075119D01*
X148684199Y-102124095D01*
X148684500Y-102130980D01*
X148684500Y-112039020D01*
X148666018Y-112089800D01*
X148661361Y-112094881D01*
X148568505Y-112187737D01*
X148519529Y-112210575D01*
X148467331Y-112196589D01*
X148436336Y-112152323D01*
X148433644Y-112131876D01*
X148433644Y-111669055D01*
X148433657Y-111667607D01*
X148433950Y-111651623D01*
X148434886Y-111600563D01*
X148432260Y-111579485D01*
X148429498Y-111557311D01*
X148429497Y-111557307D01*
X148429150Y-111554520D01*
X148391477Y-111416340D01*
X148384939Y-111401230D01*
X148374169Y-111376342D01*
X148374167Y-111376339D01*
X148373051Y-111373759D01*
X148298111Y-111251707D01*
X148296315Y-111249544D01*
X148296311Y-111249538D01*
X148270274Y-111218176D01*
X148270273Y-111218175D01*
X148268474Y-111216008D01*
X148162290Y-111119894D01*
X148123823Y-111093948D01*
X147994931Y-111031501D01*
X147992245Y-111030644D01*
X147992243Y-111030643D01*
X147953409Y-111018250D01*
X147953410Y-111018250D01*
X147950730Y-111017395D01*
X147919289Y-111012105D01*
X147875536Y-111004744D01*
X147828526Y-110978093D01*
X147809645Y-110927459D01*
X147810276Y-110917909D01*
X147810824Y-110915649D01*
X147819269Y-110712201D01*
X147819909Y-110704924D01*
X147823517Y-110678176D01*
X147842285Y-110539011D01*
X147843658Y-110531554D01*
X147876146Y-110392851D01*
X147877934Y-110386443D01*
X147909887Y-110288153D01*
X147918297Y-110262283D01*
X147919708Y-110258309D01*
X147920359Y-110256621D01*
X147966586Y-110136645D01*
X147966807Y-110136078D01*
X148015887Y-110011572D01*
X148015914Y-110011503D01*
X148015963Y-110011378D01*
X148017183Y-110008187D01*
X148017349Y-110007739D01*
X148018533Y-110004437D01*
X148063859Y-109873668D01*
X148065968Y-109867150D01*
X148066243Y-109866236D01*
X148068031Y-109859830D01*
X148069264Y-109855045D01*
X148105153Y-109715693D01*
X148105156Y-109715679D01*
X148105279Y-109715203D01*
X148107160Y-109707049D01*
X148107399Y-109705879D01*
X148108890Y-109697484D01*
X148134172Y-109530178D01*
X148135234Y-109521659D01*
X148135352Y-109520460D01*
X148135966Y-109512010D01*
X148139581Y-109434986D01*
X148143826Y-109344546D01*
X148144362Y-109338349D01*
X148144716Y-109335550D01*
X148144717Y-109335535D01*
X148144993Y-109333351D01*
X148145389Y-109305000D01*
X148126051Y-109107777D01*
X148068774Y-108918065D01*
X148066963Y-108914660D01*
X148066961Y-108914654D01*
X147977551Y-108746500D01*
X147975739Y-108743092D01*
X147968919Y-108734729D01*
X147852930Y-108592514D01*
X147850490Y-108589522D01*
X147838415Y-108579532D01*
X147700773Y-108465665D01*
X147700772Y-108465664D01*
X147697798Y-108463204D01*
X147679979Y-108453569D01*
X147646346Y-108435384D01*
X147523479Y-108368950D01*
X147334172Y-108310350D01*
X147137089Y-108289636D01*
X147133243Y-108289986D01*
X147133242Y-108289986D01*
X147085487Y-108294332D01*
X146939735Y-108307596D01*
X146936028Y-108308687D01*
X146753338Y-108362456D01*
X146753335Y-108362457D01*
X146749629Y-108363548D01*
X146574010Y-108455359D01*
X146571003Y-108457777D01*
X146571001Y-108457778D01*
X146527816Y-108492500D01*
X146419570Y-108579532D01*
X146292189Y-108731339D01*
X146290327Y-108734727D01*
X146290325Y-108734729D01*
X146218517Y-108865348D01*
X146196720Y-108904996D01*
X146136800Y-109093889D01*
X146114710Y-109290823D01*
X146131292Y-109488297D01*
X146185915Y-109678790D01*
X146276498Y-109855045D01*
X146278894Y-109858068D01*
X146397191Y-110007322D01*
X146397194Y-110007326D01*
X146399590Y-110010348D01*
X146402531Y-110012851D01*
X146402532Y-110012852D01*
X146511228Y-110105360D01*
X146517241Y-110111047D01*
X146528353Y-110122718D01*
X146531528Y-110124954D01*
X146544357Y-110133990D01*
X146545174Y-110134622D01*
X146547561Y-110136281D01*
X146550504Y-110138786D01*
X146553411Y-110140410D01*
X146553625Y-110140714D01*
X146553718Y-110140582D01*
X146647147Y-110206383D01*
X146647285Y-110206477D01*
X146647319Y-110206501D01*
X146649619Y-110208073D01*
X146650947Y-110208981D01*
X146651143Y-110209111D01*
X146651308Y-110209221D01*
X146651467Y-110209326D01*
X146655035Y-110211628D01*
X146655223Y-110211746D01*
X146655231Y-110211751D01*
X146714750Y-110249077D01*
X146774408Y-110286490D01*
X146777291Y-110288257D01*
X146777397Y-110288321D01*
X146777500Y-110288383D01*
X146886516Y-110353685D01*
X146887977Y-110354582D01*
X146979869Y-110412483D01*
X146984729Y-110415807D01*
X147054919Y-110467808D01*
X147062971Y-110474655D01*
X147112874Y-110523199D01*
X147122338Y-110534281D01*
X147158059Y-110584907D01*
X147166036Y-110599131D01*
X147193960Y-110663790D01*
X147198594Y-110678163D01*
X147219076Y-110771489D01*
X147220761Y-110783549D01*
X147229136Y-110919218D01*
X147227906Y-110919294D01*
X147218223Y-110967840D01*
X147176062Y-111001643D01*
X147161905Y-111005025D01*
X147128880Y-111009755D01*
X147105024Y-111013171D01*
X147102334Y-111013958D01*
X147102332Y-111013958D01*
X147063192Y-111025403D01*
X147063190Y-111025404D01*
X147060491Y-111026193D01*
X147057933Y-111027356D01*
X147057925Y-111027359D01*
X146987353Y-111059447D01*
X146930112Y-111085473D01*
X146891024Y-111110471D01*
X146888899Y-111112302D01*
X146888895Y-111112305D01*
X146842447Y-111152327D01*
X146782523Y-111203961D01*
X146752022Y-111238925D01*
X146750501Y-111241272D01*
X146750500Y-111241273D01*
X146722945Y-111283786D01*
X146674122Y-111359110D01*
X146672946Y-111361656D01*
X146672945Y-111361657D01*
X146655834Y-111398688D01*
X146655831Y-111398695D01*
X146654660Y-111401230D01*
X146653859Y-111403910D01*
X146653857Y-111403914D01*
X146635676Y-111464708D01*
X146613624Y-111538448D01*
X146613208Y-111541232D01*
X146613207Y-111541236D01*
X146610201Y-111561350D01*
X146606766Y-111584335D01*
X146605891Y-111727556D01*
X146606217Y-111729939D01*
X146606356Y-111734202D01*
X146606356Y-112160000D01*
X146618813Y-112222624D01*
X146638173Y-112251598D01*
X146647869Y-112266110D01*
X146660713Y-112318601D01*
X146647869Y-112353890D01*
X146618813Y-112397376D01*
X146617296Y-112405005D01*
X146617295Y-112405006D01*
X146616446Y-112409275D01*
X146606356Y-112460000D01*
X146606356Y-112595500D01*
X146587874Y-112646280D01*
X146541074Y-112673300D01*
X146527356Y-112674500D01*
X143791474Y-112674500D01*
X143786745Y-112674153D01*
X143782429Y-112672671D01*
X143735202Y-112674444D01*
X143732238Y-112674500D01*
X143713448Y-112674500D01*
X143709871Y-112675166D01*
X143707828Y-112675355D01*
X143703531Y-112675633D01*
X143683437Y-112676387D01*
X143683435Y-112676387D01*
X143676147Y-112676661D01*
X143664558Y-112681640D01*
X143647845Y-112686717D01*
X143642616Y-112687691D01*
X143642612Y-112687692D01*
X143635441Y-112689028D01*
X143616354Y-112700793D01*
X143612955Y-112702888D01*
X143602690Y-112708220D01*
X143578426Y-112718645D01*
X143573785Y-112722457D01*
X143568394Y-112727848D01*
X143553986Y-112739237D01*
X143551114Y-112741007D01*
X143551111Y-112741010D01*
X143544902Y-112744837D01*
X143540486Y-112750645D01*
X143527500Y-112767722D01*
X143520477Y-112775765D01*
X142104881Y-114191361D01*
X142055905Y-114214199D01*
X142049020Y-114214500D01*
X141189499Y-114214500D01*
X141138719Y-114196018D01*
X141111699Y-114149218D01*
X141110499Y-114135500D01*
X141110499Y-114071932D01*
X141099813Y-113983620D01*
X141045198Y-113845676D01*
X140955498Y-113727502D01*
X140837324Y-113637802D01*
X140780142Y-113615162D01*
X140704092Y-113585052D01*
X140704088Y-113585051D01*
X140699380Y-113583187D01*
X140694350Y-113582578D01*
X140694349Y-113582578D01*
X140663829Y-113578885D01*
X140611069Y-113572500D01*
X139450244Y-113572500D01*
X138288932Y-113572501D01*
X138274144Y-113574290D01*
X138205658Y-113582577D01*
X138205655Y-113582578D01*
X138200620Y-113583187D01*
X138195905Y-113585054D01*
X138195896Y-113585056D01*
X138078581Y-113631504D01*
X138024563Y-113633013D01*
X137982213Y-113599447D01*
X137970500Y-113558052D01*
X137970500Y-112891948D01*
X137988982Y-112841168D01*
X138035782Y-112814148D01*
X138078581Y-112818496D01*
X138195901Y-112864946D01*
X138195911Y-112864948D01*
X138200620Y-112866813D01*
X138205650Y-112867422D01*
X138205651Y-112867422D01*
X138236171Y-112871115D01*
X138288931Y-112877500D01*
X139449756Y-112877500D01*
X140611068Y-112877499D01*
X140625856Y-112875710D01*
X140694342Y-112867423D01*
X140694345Y-112867422D01*
X140699380Y-112866813D01*
X140837324Y-112812198D01*
X140955498Y-112722498D01*
X141045198Y-112604324D01*
X141067838Y-112547142D01*
X141097948Y-112471092D01*
X141097949Y-112471088D01*
X141099813Y-112466380D01*
X141110500Y-112378069D01*
X141110500Y-112314500D01*
X141128982Y-112263720D01*
X141175782Y-112236700D01*
X141189500Y-112235500D01*
X141594304Y-112235500D01*
X141612162Y-112237545D01*
X141626085Y-112240776D01*
X141639331Y-112241196D01*
X141683824Y-112242607D01*
X141689875Y-112243032D01*
X141725083Y-112246867D01*
X141735262Y-112247976D01*
X141742538Y-112249115D01*
X141775296Y-112255820D01*
X141783149Y-112257853D01*
X141808700Y-112265898D01*
X141816002Y-112268601D01*
X141821491Y-112270946D01*
X141840632Y-112279125D01*
X141846154Y-112281742D01*
X141875377Y-112297004D01*
X141878440Y-112298691D01*
X141915540Y-112320208D01*
X141916155Y-112320568D01*
X141961260Y-112347275D01*
X141961416Y-112347366D01*
X141961495Y-112347413D01*
X141961588Y-112347467D01*
X141961667Y-112347513D01*
X141963207Y-112348404D01*
X141964385Y-112349085D01*
X142015845Y-112378169D01*
X142016013Y-112378261D01*
X142016076Y-112378297D01*
X142018602Y-112379691D01*
X142018742Y-112379768D01*
X142019113Y-112379968D01*
X142019313Y-112380073D01*
X142019350Y-112380093D01*
X142019991Y-112380430D01*
X142022030Y-112381503D01*
X142022107Y-112381543D01*
X142022150Y-112381565D01*
X142067787Y-112405006D01*
X142074389Y-112408397D01*
X142076477Y-112409185D01*
X142076680Y-112409275D01*
X142078637Y-112410176D01*
X142083282Y-112412391D01*
X142087964Y-112415508D01*
X142227541Y-112459116D01*
X142275785Y-112460000D01*
X142368120Y-112461692D01*
X142368121Y-112461692D01*
X142373747Y-112461795D01*
X142514829Y-112423332D01*
X142627927Y-112353890D01*
X142634652Y-112349761D01*
X142639445Y-112346818D01*
X142643218Y-112342650D01*
X142643220Y-112342648D01*
X142733799Y-112242577D01*
X142733800Y-112242576D01*
X142737576Y-112238404D01*
X142754154Y-112204188D01*
X142798881Y-112111870D01*
X142801335Y-112106805D01*
X142825596Y-111962601D01*
X142825750Y-111950000D01*
X142805020Y-111805246D01*
X142772718Y-111734202D01*
X142746827Y-111677257D01*
X142746826Y-111677255D01*
X142744495Y-111672129D01*
X142740820Y-111667864D01*
X142740818Y-111667861D01*
X142652716Y-111565615D01*
X142649041Y-111561350D01*
X142583052Y-111518578D01*
X142531054Y-111484874D01*
X142531051Y-111484872D01*
X142526332Y-111481814D01*
X142420821Y-111450259D01*
X142391621Y-111441526D01*
X142391619Y-111441526D01*
X142386233Y-111439915D01*
X142313711Y-111439472D01*
X142245630Y-111439056D01*
X142245628Y-111439056D01*
X142240005Y-111439022D01*
X142099404Y-111479206D01*
X142094645Y-111482209D01*
X142094642Y-111482210D01*
X142093268Y-111483077D01*
X142080142Y-111489738D01*
X142078122Y-111490536D01*
X142074390Y-111491602D01*
X142022052Y-111518485D01*
X142019289Y-111519938D01*
X142018878Y-111520159D01*
X142015827Y-111521841D01*
X141964386Y-111550914D01*
X141961494Y-111552587D01*
X141916386Y-111579296D01*
X141915856Y-111579606D01*
X141878418Y-111601320D01*
X141875352Y-111603009D01*
X141846154Y-111618257D01*
X141840624Y-111620877D01*
X141816003Y-111631397D01*
X141808700Y-111634101D01*
X141783149Y-111642146D01*
X141775296Y-111644179D01*
X141742538Y-111650884D01*
X141735262Y-111652023D01*
X141725083Y-111653132D01*
X141689875Y-111656967D01*
X141683825Y-111657392D01*
X141647442Y-111658546D01*
X141626083Y-111659224D01*
X141622449Y-111660037D01*
X141622450Y-111660037D01*
X141611022Y-111662594D01*
X141593772Y-111664500D01*
X141189499Y-111664500D01*
X141138719Y-111646018D01*
X141111699Y-111599218D01*
X141110499Y-111585500D01*
X141110499Y-111531932D01*
X141108710Y-111517144D01*
X141100423Y-111448658D01*
X141100422Y-111448655D01*
X141099813Y-111443620D01*
X141045198Y-111305676D01*
X140955498Y-111187502D01*
X140837324Y-111097802D01*
X140780142Y-111075162D01*
X140704092Y-111045052D01*
X140704088Y-111045051D01*
X140699380Y-111043187D01*
X140694350Y-111042578D01*
X140694349Y-111042578D01*
X140658402Y-111038228D01*
X140611069Y-111032500D01*
X139450244Y-111032500D01*
X138288932Y-111032501D01*
X138274144Y-111034290D01*
X138205658Y-111042577D01*
X138205655Y-111042578D01*
X138200620Y-111043187D01*
X138195905Y-111045054D01*
X138195896Y-111045056D01*
X138078581Y-111091504D01*
X138024563Y-111093013D01*
X137982213Y-111059447D01*
X137970500Y-111018052D01*
X137970500Y-110351948D01*
X137988982Y-110301168D01*
X138035782Y-110274148D01*
X138078581Y-110278496D01*
X138195901Y-110324946D01*
X138195911Y-110324948D01*
X138200620Y-110326813D01*
X138205650Y-110327422D01*
X138205651Y-110327422D01*
X138236171Y-110331115D01*
X138288931Y-110337500D01*
X139449756Y-110337500D01*
X140611068Y-110337499D01*
X140625856Y-110335710D01*
X140694342Y-110327423D01*
X140694345Y-110327422D01*
X140699380Y-110326813D01*
X140837324Y-110272198D01*
X140955498Y-110182498D01*
X141045198Y-110064324D01*
X141068991Y-110004229D01*
X141097948Y-109931092D01*
X141097949Y-109931088D01*
X141099813Y-109926380D01*
X141110500Y-109838069D01*
X141110500Y-109669500D01*
X141128982Y-109618720D01*
X141175782Y-109591700D01*
X141189500Y-109590500D01*
X141451568Y-109590500D01*
X141470958Y-109592917D01*
X141478795Y-109594901D01*
X141478800Y-109594902D01*
X141482557Y-109595853D01*
X141486425Y-109596053D01*
X141486426Y-109596053D01*
X141535125Y-109598569D01*
X141655598Y-109604793D01*
X141665393Y-109605917D01*
X141737141Y-109618720D01*
X141796043Y-109629231D01*
X141807299Y-109632107D01*
X141908165Y-109665957D01*
X141919097Y-109670566D01*
X141927894Y-109675080D01*
X142004291Y-109714286D01*
X142012760Y-109719322D01*
X142095288Y-109775654D01*
X142100103Y-109779216D01*
X142129853Y-109803018D01*
X142157958Y-109849174D01*
X142159500Y-109864705D01*
X142159500Y-110170806D01*
X142160258Y-110174616D01*
X142167185Y-110209438D01*
X142168813Y-110217624D01*
X142204286Y-110270714D01*
X142257376Y-110306187D01*
X142265005Y-110307705D01*
X142265006Y-110307705D01*
X142288941Y-110312466D01*
X142304194Y-110315500D01*
X144035806Y-110315500D01*
X144039613Y-110314743D01*
X144039620Y-110314742D01*
X144044806Y-110313710D01*
X144098216Y-110321928D01*
X144133848Y-110362555D01*
X144138729Y-110399996D01*
X144134710Y-110435823D01*
X144151292Y-110633297D01*
X144205915Y-110823790D01*
X144296498Y-111000045D01*
X144419590Y-111155348D01*
X144570504Y-111283786D01*
X144743490Y-111380465D01*
X144747152Y-111381655D01*
X144747157Y-111381657D01*
X144815659Y-111403914D01*
X144931960Y-111441702D01*
X144935797Y-111442160D01*
X144935799Y-111442160D01*
X145124892Y-111464708D01*
X145124895Y-111464708D01*
X145128735Y-111465166D01*
X145326320Y-111449963D01*
X145517190Y-111396671D01*
X145611858Y-111348851D01*
X145690619Y-111309066D01*
X145690621Y-111309065D01*
X145694073Y-111307321D01*
X145826368Y-111203961D01*
X145847190Y-111187693D01*
X145847192Y-111187691D01*
X145850232Y-111185316D01*
X145878707Y-111152327D01*
X145977196Y-111038228D01*
X145977200Y-111038223D01*
X145979720Y-111035303D01*
X145981626Y-111031947D01*
X145981630Y-111031942D01*
X146075695Y-110866356D01*
X146077604Y-110862996D01*
X146078824Y-110859329D01*
X146138935Y-110678630D01*
X146138936Y-110678625D01*
X146140156Y-110674958D01*
X146164993Y-110478351D01*
X146165389Y-110450000D01*
X146148149Y-110274178D01*
X146146428Y-110256621D01*
X146146428Y-110256620D01*
X146146051Y-110252777D01*
X146133628Y-110211628D01*
X146110989Y-110136646D01*
X146088774Y-110063065D01*
X146086963Y-110059660D01*
X146086961Y-110059654D01*
X145997551Y-109891500D01*
X145995739Y-109888092D01*
X145986154Y-109876339D01*
X145905412Y-109777340D01*
X145870490Y-109734522D01*
X145858415Y-109724532D01*
X145720773Y-109610665D01*
X145720772Y-109610664D01*
X145717798Y-109608204D01*
X145711490Y-109604793D01*
X145680059Y-109587799D01*
X145543479Y-109513950D01*
X145354172Y-109455350D01*
X145157089Y-109434636D01*
X145153243Y-109434986D01*
X145153242Y-109434986D01*
X145105487Y-109439332D01*
X144959735Y-109452596D01*
X144956028Y-109453687D01*
X144773338Y-109507456D01*
X144773335Y-109507457D01*
X144769629Y-109508548D01*
X144594010Y-109600359D01*
X144591003Y-109602777D01*
X144591001Y-109602778D01*
X144558100Y-109629231D01*
X144439570Y-109724532D01*
X144320300Y-109866673D01*
X144320018Y-109867009D01*
X144273218Y-109894029D01*
X144220000Y-109884645D01*
X144185264Y-109843249D01*
X144180500Y-109816229D01*
X144180500Y-108790550D01*
X144198982Y-108739770D01*
X144245782Y-108712750D01*
X144299000Y-108722134D01*
X144321412Y-108741479D01*
X144337195Y-108761392D01*
X144419590Y-108865348D01*
X144570504Y-108993786D01*
X144573878Y-108995672D01*
X144573880Y-108995673D01*
X144651462Y-109039032D01*
X144743490Y-109090465D01*
X144747152Y-109091655D01*
X144747157Y-109091657D01*
X144869241Y-109131324D01*
X144931960Y-109151702D01*
X144935797Y-109152160D01*
X144935799Y-109152160D01*
X145124892Y-109174708D01*
X145124895Y-109174708D01*
X145128735Y-109175166D01*
X145326320Y-109159963D01*
X145517190Y-109106671D01*
X145611858Y-109058851D01*
X145690619Y-109019066D01*
X145690621Y-109019065D01*
X145694073Y-109017321D01*
X145833155Y-108908658D01*
X145847190Y-108897693D01*
X145847192Y-108897691D01*
X145850232Y-108895316D01*
X145904316Y-108832659D01*
X145977196Y-108748228D01*
X145977200Y-108748223D01*
X145979720Y-108745303D01*
X145981626Y-108741947D01*
X145981630Y-108741942D01*
X146075695Y-108576356D01*
X146077604Y-108572996D01*
X146081577Y-108561054D01*
X146138935Y-108388630D01*
X146138936Y-108388625D01*
X146140156Y-108384958D01*
X146142323Y-108367809D01*
X146152147Y-108290040D01*
X146164993Y-108188351D01*
X146165389Y-108160000D01*
X146146051Y-107962777D01*
X146136578Y-107931399D01*
X146089891Y-107776765D01*
X146088774Y-107773065D01*
X146086963Y-107769660D01*
X146086961Y-107769654D01*
X145997551Y-107601500D01*
X145995739Y-107598092D01*
X145988919Y-107589729D01*
X145905412Y-107487340D01*
X145870490Y-107444522D01*
X145858415Y-107434532D01*
X145720773Y-107320665D01*
X145720772Y-107320664D01*
X145717798Y-107318204D01*
X145711490Y-107314793D01*
X145573085Y-107239958D01*
X145543479Y-107223950D01*
X145354172Y-107165350D01*
X145157089Y-107144636D01*
X145153243Y-107144986D01*
X145153242Y-107144986D01*
X145105487Y-107149332D01*
X144959735Y-107162596D01*
X144956028Y-107163687D01*
X144773338Y-107217456D01*
X144773335Y-107217457D01*
X144769629Y-107218548D01*
X144594010Y-107310359D01*
X144591003Y-107312777D01*
X144591001Y-107312778D01*
X144581192Y-107320665D01*
X144439570Y-107434532D01*
X144312189Y-107586339D01*
X144310327Y-107589727D01*
X144310325Y-107589729D01*
X144228099Y-107739298D01*
X144216720Y-107759996D01*
X144156800Y-107948889D01*
X144134710Y-108145823D01*
X144135033Y-108149669D01*
X144140306Y-108212470D01*
X144126137Y-108264619D01*
X144081763Y-108295459D01*
X144046167Y-108296561D01*
X144039618Y-108295258D01*
X144039615Y-108295258D01*
X144035806Y-108294500D01*
X142304194Y-108294500D01*
X142299373Y-108295459D01*
X142265006Y-108302295D01*
X142265005Y-108302295D01*
X142257376Y-108303813D01*
X142250906Y-108308136D01*
X142245880Y-108311494D01*
X142204286Y-108339286D01*
X142168813Y-108392376D01*
X142159500Y-108439194D01*
X142159500Y-108745294D01*
X142141018Y-108796074D01*
X142129853Y-108806981D01*
X142100103Y-108830783D01*
X142095288Y-108834345D01*
X142012760Y-108890677D01*
X142004291Y-108895713D01*
X141960736Y-108918065D01*
X141919097Y-108939433D01*
X141908165Y-108944042D01*
X141807299Y-108977892D01*
X141796043Y-108980768D01*
X141754738Y-108988139D01*
X141665385Y-109004083D01*
X141655591Y-109005207D01*
X141482556Y-109014148D01*
X141479034Y-109014991D01*
X141479030Y-109014992D01*
X141469276Y-109017328D01*
X141450878Y-109019500D01*
X141183852Y-109019500D01*
X141133072Y-109001018D01*
X141105424Y-108949990D01*
X141100423Y-108908658D01*
X141100422Y-108908655D01*
X141099813Y-108903620D01*
X141045198Y-108765676D01*
X140955498Y-108647502D01*
X140837324Y-108557802D01*
X140776676Y-108533790D01*
X140704092Y-108505052D01*
X140704088Y-108505051D01*
X140699380Y-108503187D01*
X140694350Y-108502578D01*
X140694349Y-108502578D01*
X140663829Y-108498885D01*
X140611069Y-108492500D01*
X139450244Y-108492500D01*
X138288932Y-108492501D01*
X138274144Y-108494290D01*
X138205658Y-108502577D01*
X138205655Y-108502578D01*
X138200620Y-108503187D01*
X138195905Y-108505054D01*
X138195896Y-108505056D01*
X138078581Y-108551504D01*
X138024563Y-108553013D01*
X137982213Y-108519447D01*
X137970500Y-108478052D01*
X137970500Y-107811948D01*
X137988982Y-107761168D01*
X138035782Y-107734148D01*
X138078581Y-107738496D01*
X138195901Y-107784946D01*
X138195911Y-107784948D01*
X138200620Y-107786813D01*
X138205650Y-107787422D01*
X138205651Y-107787422D01*
X138236171Y-107791115D01*
X138288931Y-107797500D01*
X139449756Y-107797500D01*
X140611068Y-107797499D01*
X140625856Y-107795710D01*
X140694342Y-107787423D01*
X140694345Y-107787422D01*
X140699380Y-107786813D01*
X140837324Y-107732198D01*
X140955498Y-107642498D01*
X141045198Y-107524324D01*
X141075609Y-107447514D01*
X141097948Y-107391092D01*
X141097949Y-107391088D01*
X141099813Y-107386380D01*
X141100517Y-107380567D01*
X141101794Y-107370010D01*
X141126243Y-107321818D01*
X141180222Y-107300500D01*
X141451568Y-107300500D01*
X141470958Y-107302917D01*
X141478795Y-107304901D01*
X141478800Y-107304902D01*
X141482557Y-107305853D01*
X141486425Y-107306053D01*
X141486426Y-107306053D01*
X141535125Y-107308569D01*
X141655598Y-107314793D01*
X141665393Y-107315917D01*
X141751892Y-107331352D01*
X141796043Y-107339231D01*
X141807299Y-107342107D01*
X141908165Y-107375957D01*
X141919097Y-107380566D01*
X141927894Y-107385080D01*
X142004291Y-107424286D01*
X142012760Y-107429322D01*
X142095288Y-107485654D01*
X142100088Y-107489204D01*
X142189440Y-107560692D01*
X142190490Y-107561549D01*
X142238532Y-107601500D01*
X142290166Y-107644438D01*
X142290196Y-107644463D01*
X142292229Y-107646126D01*
X142292267Y-107646157D01*
X142292309Y-107646191D01*
X142292605Y-107646429D01*
X142294682Y-107648072D01*
X142407013Y-107735471D01*
X142411485Y-107738831D01*
X142412129Y-107739298D01*
X142417096Y-107742762D01*
X142548146Y-107830663D01*
X142554554Y-107834751D01*
X142554901Y-107834961D01*
X142554931Y-107834980D01*
X142555014Y-107835030D01*
X142555473Y-107835308D01*
X142562067Y-107839100D01*
X142562433Y-107839300D01*
X142562459Y-107839314D01*
X142618664Y-107869940D01*
X142712778Y-107921223D01*
X142733527Y-107929489D01*
X142742824Y-107933916D01*
X142763490Y-107945465D01*
X142767152Y-107946655D01*
X142767157Y-107946657D01*
X142889241Y-107986324D01*
X142951960Y-108006702D01*
X142955797Y-108007160D01*
X142955799Y-108007160D01*
X143144892Y-108029708D01*
X143144895Y-108029708D01*
X143148735Y-108030166D01*
X143346320Y-108014963D01*
X143537190Y-107961671D01*
X143631858Y-107913851D01*
X143710619Y-107874066D01*
X143710621Y-107874065D01*
X143714073Y-107872321D01*
X143856342Y-107761168D01*
X143867190Y-107752693D01*
X143867192Y-107752691D01*
X143870232Y-107750316D01*
X143898707Y-107717327D01*
X143997196Y-107603228D01*
X143997200Y-107603223D01*
X143999720Y-107600303D01*
X144001626Y-107596947D01*
X144001630Y-107596942D01*
X144095695Y-107431356D01*
X144097604Y-107427996D01*
X144098838Y-107424286D01*
X144158935Y-107243630D01*
X144158936Y-107243625D01*
X144160156Y-107239958D01*
X144162323Y-107222809D01*
X144172147Y-107145040D01*
X144184993Y-107043351D01*
X144185389Y-107015000D01*
X144183999Y-107000823D01*
X146114710Y-107000823D01*
X146131292Y-107198297D01*
X146185915Y-107388790D01*
X146276498Y-107565045D01*
X146399590Y-107720348D01*
X146550504Y-107848786D01*
X146723490Y-107945465D01*
X146727152Y-107946655D01*
X146727157Y-107946657D01*
X146849241Y-107986324D01*
X146911960Y-108006702D01*
X146915797Y-108007160D01*
X146915799Y-108007160D01*
X147104892Y-108029708D01*
X147104895Y-108029708D01*
X147108735Y-108030166D01*
X147306320Y-108014963D01*
X147497190Y-107961671D01*
X147591858Y-107913851D01*
X147670619Y-107874066D01*
X147670621Y-107874065D01*
X147674073Y-107872321D01*
X147816342Y-107761168D01*
X147827190Y-107752693D01*
X147827192Y-107752691D01*
X147830232Y-107750316D01*
X147858707Y-107717327D01*
X147957196Y-107603228D01*
X147957200Y-107603223D01*
X147959720Y-107600303D01*
X147961626Y-107596947D01*
X147961630Y-107596942D01*
X148055695Y-107431356D01*
X148057604Y-107427996D01*
X148058838Y-107424286D01*
X148118935Y-107243630D01*
X148118936Y-107243625D01*
X148120156Y-107239958D01*
X148122323Y-107222809D01*
X148132147Y-107145040D01*
X148144993Y-107043351D01*
X148145389Y-107015000D01*
X148126051Y-106817777D01*
X148068774Y-106628065D01*
X148066963Y-106624660D01*
X148066961Y-106624654D01*
X147977551Y-106456500D01*
X147975739Y-106453092D01*
X147968919Y-106444729D01*
X147852930Y-106302514D01*
X147850490Y-106299522D01*
X147844454Y-106294528D01*
X147700773Y-106175665D01*
X147700772Y-106175664D01*
X147697798Y-106173204D01*
X147679979Y-106163569D01*
X147578641Y-106108776D01*
X147523479Y-106078950D01*
X147334172Y-106020350D01*
X147137089Y-105999636D01*
X147133243Y-105999986D01*
X147133242Y-105999986D01*
X147085487Y-106004332D01*
X146939735Y-106017596D01*
X146936028Y-106018687D01*
X146753338Y-106072456D01*
X146753335Y-106072457D01*
X146749629Y-106073548D01*
X146574010Y-106165359D01*
X146571003Y-106167777D01*
X146571001Y-106167778D01*
X146531751Y-106199336D01*
X146419570Y-106289532D01*
X146292189Y-106441339D01*
X146290327Y-106444727D01*
X146290325Y-106444729D01*
X146218517Y-106575348D01*
X146196720Y-106614996D01*
X146136800Y-106803889D01*
X146114710Y-107000823D01*
X144183999Y-107000823D01*
X144166051Y-106817777D01*
X144108774Y-106628065D01*
X144106963Y-106624660D01*
X144106961Y-106624654D01*
X144017551Y-106456500D01*
X144015739Y-106453092D01*
X144008919Y-106444729D01*
X143892930Y-106302514D01*
X143890490Y-106299522D01*
X143884454Y-106294528D01*
X143740773Y-106175665D01*
X143740772Y-106175664D01*
X143737798Y-106173204D01*
X143719979Y-106163569D01*
X143618641Y-106108776D01*
X143563479Y-106078950D01*
X143374172Y-106020350D01*
X143177089Y-105999636D01*
X143173243Y-105999986D01*
X143173242Y-105999986D01*
X143125487Y-106004332D01*
X142979735Y-106017596D01*
X142976028Y-106018687D01*
X142793338Y-106072456D01*
X142793335Y-106072457D01*
X142789629Y-106073548D01*
X142742552Y-106098159D01*
X142729502Y-106103556D01*
X142712778Y-106108776D01*
X142562067Y-106190898D01*
X142555473Y-106194691D01*
X142555082Y-106194928D01*
X142554931Y-106195019D01*
X142554901Y-106195038D01*
X142554554Y-106195248D01*
X142548146Y-106199336D01*
X142417096Y-106287237D01*
X142412129Y-106290701D01*
X142411485Y-106291168D01*
X142407013Y-106294528D01*
X142294682Y-106381927D01*
X142292605Y-106383570D01*
X142292309Y-106383808D01*
X142292267Y-106383842D01*
X142292229Y-106383873D01*
X142290196Y-106385536D01*
X142206300Y-106455303D01*
X142190513Y-106468431D01*
X142189440Y-106469307D01*
X142100088Y-106540795D01*
X142095288Y-106544345D01*
X142012760Y-106600677D01*
X142004291Y-106605713D01*
X141960736Y-106628065D01*
X141919097Y-106649433D01*
X141908165Y-106654042D01*
X141807299Y-106687892D01*
X141796043Y-106690768D01*
X141754738Y-106698139D01*
X141665385Y-106714083D01*
X141655591Y-106715207D01*
X141482556Y-106724148D01*
X141479034Y-106724991D01*
X141479030Y-106724992D01*
X141469276Y-106727328D01*
X141450878Y-106729500D01*
X141189499Y-106729500D01*
X141138719Y-106711018D01*
X141111699Y-106664218D01*
X141110499Y-106650500D01*
X141110499Y-106451932D01*
X141106641Y-106420045D01*
X141100423Y-106368658D01*
X141100422Y-106368655D01*
X141099813Y-106363620D01*
X141045198Y-106225676D01*
X140955498Y-106107502D01*
X140837324Y-106017802D01*
X140780142Y-105995162D01*
X140704092Y-105965052D01*
X140704088Y-105965051D01*
X140699380Y-105963187D01*
X140694350Y-105962578D01*
X140694349Y-105962578D01*
X140663829Y-105958885D01*
X140611069Y-105952500D01*
X139450244Y-105952500D01*
X138288932Y-105952501D01*
X138274144Y-105954290D01*
X138205658Y-105962577D01*
X138205655Y-105962578D01*
X138200620Y-105963187D01*
X138195905Y-105965054D01*
X138195896Y-105965056D01*
X138078581Y-106011504D01*
X138024563Y-106013013D01*
X137982213Y-105979447D01*
X137970500Y-105938052D01*
X137970500Y-105855823D01*
X144134710Y-105855823D01*
X144151292Y-106053297D01*
X144205915Y-106243790D01*
X144296498Y-106420045D01*
X144419590Y-106575348D01*
X144570504Y-106703786D01*
X144573878Y-106705672D01*
X144573880Y-106705673D01*
X144651462Y-106749032D01*
X144743490Y-106800465D01*
X144747152Y-106801655D01*
X144747157Y-106801657D01*
X144869241Y-106841324D01*
X144931960Y-106861702D01*
X144935797Y-106862160D01*
X144935799Y-106862160D01*
X145124892Y-106884708D01*
X145124895Y-106884708D01*
X145128735Y-106885166D01*
X145326320Y-106869963D01*
X145517190Y-106816671D01*
X145611858Y-106768851D01*
X145690619Y-106729066D01*
X145690621Y-106729065D01*
X145694073Y-106727321D01*
X145833126Y-106618681D01*
X145847190Y-106607693D01*
X145847192Y-106607691D01*
X145850232Y-106605316D01*
X145904316Y-106542659D01*
X145977196Y-106458228D01*
X145977200Y-106458223D01*
X145979720Y-106455303D01*
X145981626Y-106451947D01*
X145981630Y-106451942D01*
X146069613Y-106297063D01*
X146077604Y-106282996D01*
X146078824Y-106279329D01*
X146138935Y-106098630D01*
X146138936Y-106098625D01*
X146140156Y-106094958D01*
X146142323Y-106077809D01*
X146150508Y-106013013D01*
X146164993Y-105898351D01*
X146165389Y-105870000D01*
X146146051Y-105672777D01*
X146136578Y-105641399D01*
X146089891Y-105486765D01*
X146088774Y-105483065D01*
X146086963Y-105479660D01*
X146086961Y-105479654D01*
X145997551Y-105311500D01*
X145995739Y-105308092D01*
X145988919Y-105299729D01*
X145905412Y-105197340D01*
X145870490Y-105154522D01*
X145858415Y-105144532D01*
X145720773Y-105030665D01*
X145720772Y-105030664D01*
X145717798Y-105028204D01*
X145711490Y-105024793D01*
X145573085Y-104949958D01*
X145543479Y-104933950D01*
X145354172Y-104875350D01*
X145157089Y-104854636D01*
X145153243Y-104854986D01*
X145153242Y-104854986D01*
X145105487Y-104859332D01*
X144959735Y-104872596D01*
X144956028Y-104873687D01*
X144773338Y-104927456D01*
X144773335Y-104927457D01*
X144769629Y-104928548D01*
X144594010Y-105020359D01*
X144591003Y-105022777D01*
X144591001Y-105022778D01*
X144581192Y-105030665D01*
X144439570Y-105144532D01*
X144312189Y-105296339D01*
X144310327Y-105299727D01*
X144310325Y-105299729D01*
X144228099Y-105449298D01*
X144216720Y-105469996D01*
X144156800Y-105658889D01*
X144134710Y-105855823D01*
X137970500Y-105855823D01*
X137970500Y-105271948D01*
X137988982Y-105221168D01*
X138035782Y-105194148D01*
X138078581Y-105198496D01*
X138195901Y-105244946D01*
X138195911Y-105244948D01*
X138200620Y-105246813D01*
X138205650Y-105247422D01*
X138205651Y-105247422D01*
X138236171Y-105251115D01*
X138288931Y-105257500D01*
X139449756Y-105257500D01*
X140611068Y-105257499D01*
X140625856Y-105255710D01*
X140694342Y-105247423D01*
X140694345Y-105247422D01*
X140699380Y-105246813D01*
X140837324Y-105192198D01*
X140955498Y-105102498D01*
X140958749Y-105098215D01*
X140958752Y-105098212D01*
X141001619Y-105041737D01*
X141047043Y-105012463D01*
X141064545Y-105010500D01*
X141451568Y-105010500D01*
X141470958Y-105012917D01*
X141478795Y-105014901D01*
X141478800Y-105014902D01*
X141482557Y-105015853D01*
X141486425Y-105016053D01*
X141486426Y-105016053D01*
X141535125Y-105018569D01*
X141655598Y-105024793D01*
X141665393Y-105025917D01*
X141751892Y-105041352D01*
X141796043Y-105049231D01*
X141807299Y-105052107D01*
X141908165Y-105085957D01*
X141919097Y-105090566D01*
X141927894Y-105095080D01*
X142004291Y-105134286D01*
X142012760Y-105139322D01*
X142095288Y-105195654D01*
X142100088Y-105199204D01*
X142189440Y-105270692D01*
X142190490Y-105271549D01*
X142238532Y-105311500D01*
X142290166Y-105354438D01*
X142290196Y-105354463D01*
X142292229Y-105356126D01*
X142292267Y-105356157D01*
X142292309Y-105356191D01*
X142292605Y-105356429D01*
X142294682Y-105358072D01*
X142407013Y-105445471D01*
X142411485Y-105448831D01*
X142412129Y-105449298D01*
X142417096Y-105452762D01*
X142548146Y-105540663D01*
X142554554Y-105544751D01*
X142554901Y-105544961D01*
X142554931Y-105544980D01*
X142555013Y-105545029D01*
X142555473Y-105545308D01*
X142562067Y-105549100D01*
X142562433Y-105549300D01*
X142562459Y-105549314D01*
X142618664Y-105579940D01*
X142712778Y-105631223D01*
X142733527Y-105639489D01*
X142742824Y-105643916D01*
X142763490Y-105655465D01*
X142767152Y-105656655D01*
X142767157Y-105656657D01*
X142889241Y-105696324D01*
X142951960Y-105716702D01*
X142955797Y-105717160D01*
X142955799Y-105717160D01*
X143144892Y-105739708D01*
X143144895Y-105739708D01*
X143148735Y-105740166D01*
X143346320Y-105724963D01*
X143537190Y-105671671D01*
X143631858Y-105623851D01*
X143710619Y-105584066D01*
X143710621Y-105584065D01*
X143714073Y-105582321D01*
X143853126Y-105473681D01*
X143867190Y-105462693D01*
X143867192Y-105462691D01*
X143870232Y-105460316D01*
X143898707Y-105427327D01*
X143997196Y-105313228D01*
X143997200Y-105313223D01*
X143999720Y-105310303D01*
X144001626Y-105306947D01*
X144001630Y-105306942D01*
X144095695Y-105141356D01*
X144097604Y-105137996D01*
X144109413Y-105102498D01*
X144158935Y-104953630D01*
X144158936Y-104953625D01*
X144160156Y-104949958D01*
X144162323Y-104932809D01*
X144172147Y-104855040D01*
X144184993Y-104753351D01*
X144185389Y-104725000D01*
X144183999Y-104710823D01*
X146114710Y-104710823D01*
X146131292Y-104908297D01*
X146185915Y-105098790D01*
X146276498Y-105275045D01*
X146399590Y-105430348D01*
X146550504Y-105558786D01*
X146723490Y-105655465D01*
X146727152Y-105656655D01*
X146727157Y-105656657D01*
X146849241Y-105696324D01*
X146911960Y-105716702D01*
X146915797Y-105717160D01*
X146915799Y-105717160D01*
X147104892Y-105739708D01*
X147104895Y-105739708D01*
X147108735Y-105740166D01*
X147306320Y-105724963D01*
X147497190Y-105671671D01*
X147591858Y-105623851D01*
X147670619Y-105584066D01*
X147670621Y-105584065D01*
X147674073Y-105582321D01*
X147813126Y-105473681D01*
X147827190Y-105462693D01*
X147827192Y-105462691D01*
X147830232Y-105460316D01*
X147858707Y-105427327D01*
X147957196Y-105313228D01*
X147957200Y-105313223D01*
X147959720Y-105310303D01*
X147961626Y-105306947D01*
X147961630Y-105306942D01*
X148055695Y-105141356D01*
X148057604Y-105137996D01*
X148069413Y-105102498D01*
X148118935Y-104953630D01*
X148118936Y-104953625D01*
X148120156Y-104949958D01*
X148122323Y-104932809D01*
X148132147Y-104855040D01*
X148144993Y-104753351D01*
X148145389Y-104725000D01*
X148126051Y-104527777D01*
X148068774Y-104338065D01*
X148066963Y-104334660D01*
X148066961Y-104334654D01*
X147977551Y-104166500D01*
X147975739Y-104163092D01*
X147968919Y-104154729D01*
X147852930Y-104012514D01*
X147850490Y-104009522D01*
X147844454Y-104004528D01*
X147700773Y-103885665D01*
X147700772Y-103885664D01*
X147697798Y-103883204D01*
X147679979Y-103873569D01*
X147596917Y-103828658D01*
X147523479Y-103788950D01*
X147334172Y-103730350D01*
X147137089Y-103709636D01*
X147133243Y-103709986D01*
X147133242Y-103709986D01*
X147085487Y-103714332D01*
X146939735Y-103727596D01*
X146936028Y-103728687D01*
X146753338Y-103782456D01*
X146753335Y-103782457D01*
X146749629Y-103783548D01*
X146574010Y-103875359D01*
X146571003Y-103877777D01*
X146571001Y-103877778D01*
X146531751Y-103909336D01*
X146419570Y-103999532D01*
X146292189Y-104151339D01*
X146290327Y-104154727D01*
X146290325Y-104154729D01*
X146218517Y-104285348D01*
X146196720Y-104324996D01*
X146136800Y-104513889D01*
X146114710Y-104710823D01*
X144183999Y-104710823D01*
X144166051Y-104527777D01*
X144108774Y-104338065D01*
X144106963Y-104334660D01*
X144106961Y-104334654D01*
X144017551Y-104166500D01*
X144015739Y-104163092D01*
X144008919Y-104154729D01*
X143892930Y-104012514D01*
X143890490Y-104009522D01*
X143884454Y-104004528D01*
X143740773Y-103885665D01*
X143740772Y-103885664D01*
X143737798Y-103883204D01*
X143719979Y-103873569D01*
X143636917Y-103828658D01*
X143563479Y-103788950D01*
X143374172Y-103730350D01*
X143177089Y-103709636D01*
X143173243Y-103709986D01*
X143173242Y-103709986D01*
X143125487Y-103714332D01*
X142979735Y-103727596D01*
X142976028Y-103728687D01*
X142793338Y-103782456D01*
X142793335Y-103782457D01*
X142789629Y-103783548D01*
X142742552Y-103808159D01*
X142729502Y-103813556D01*
X142712778Y-103818776D01*
X142562067Y-103900898D01*
X142555473Y-103904691D01*
X142555082Y-103904928D01*
X142554931Y-103905019D01*
X142554901Y-103905038D01*
X142554554Y-103905248D01*
X142548146Y-103909336D01*
X142417096Y-103997237D01*
X142412129Y-104000701D01*
X142411485Y-104001168D01*
X142407013Y-104004528D01*
X142294682Y-104091927D01*
X142292605Y-104093570D01*
X142292309Y-104093808D01*
X142292267Y-104093842D01*
X142292229Y-104093873D01*
X142290196Y-104095536D01*
X142206300Y-104165303D01*
X142190513Y-104178431D01*
X142189440Y-104179307D01*
X142100088Y-104250795D01*
X142095288Y-104254345D01*
X142012760Y-104310677D01*
X142004291Y-104315713D01*
X141960736Y-104338065D01*
X141919097Y-104359433D01*
X141908165Y-104364042D01*
X141807299Y-104397892D01*
X141796043Y-104400768D01*
X141754738Y-104408139D01*
X141665385Y-104424083D01*
X141655591Y-104425207D01*
X141482556Y-104434148D01*
X141479034Y-104434991D01*
X141479030Y-104434992D01*
X141469276Y-104437328D01*
X141450878Y-104439500D01*
X141189500Y-104439500D01*
X141138720Y-104421018D01*
X141111700Y-104374218D01*
X141110500Y-104360500D01*
X141110499Y-103914313D01*
X141110499Y-103911932D01*
X141099813Y-103823620D01*
X141045198Y-103685676D01*
X140955498Y-103567502D01*
X140953286Y-103565823D01*
X144134710Y-103565823D01*
X144151292Y-103763297D01*
X144205915Y-103953790D01*
X144296498Y-104130045D01*
X144419590Y-104285348D01*
X144570504Y-104413786D01*
X144573878Y-104415672D01*
X144573880Y-104415673D01*
X144651462Y-104459032D01*
X144743490Y-104510465D01*
X144747152Y-104511655D01*
X144747157Y-104511657D01*
X144869241Y-104551324D01*
X144931960Y-104571702D01*
X144935797Y-104572160D01*
X144935799Y-104572160D01*
X145124892Y-104594708D01*
X145124895Y-104594708D01*
X145128735Y-104595166D01*
X145326320Y-104579963D01*
X145517190Y-104526671D01*
X145611858Y-104478851D01*
X145690619Y-104439066D01*
X145690621Y-104439065D01*
X145694073Y-104437321D01*
X145833126Y-104328681D01*
X145847190Y-104317693D01*
X145847192Y-104317691D01*
X145850232Y-104315316D01*
X145904316Y-104252659D01*
X145977196Y-104168228D01*
X145977200Y-104168223D01*
X145979720Y-104165303D01*
X145981626Y-104161947D01*
X145981630Y-104161942D01*
X146069613Y-104007063D01*
X146077604Y-103992996D01*
X146078824Y-103989329D01*
X146138935Y-103808630D01*
X146138936Y-103808625D01*
X146140156Y-103804958D01*
X146142323Y-103787809D01*
X146152147Y-103710040D01*
X146164993Y-103608351D01*
X146165389Y-103580000D01*
X146148993Y-103412786D01*
X146146428Y-103386621D01*
X146146428Y-103386620D01*
X146146051Y-103382777D01*
X146088774Y-103193065D01*
X146086963Y-103189660D01*
X146086961Y-103189654D01*
X145997551Y-103021500D01*
X145995739Y-103018092D01*
X145988919Y-103009729D01*
X145872930Y-102867514D01*
X145870490Y-102864522D01*
X145858415Y-102854532D01*
X145720773Y-102740665D01*
X145720772Y-102740664D01*
X145717798Y-102738204D01*
X145699979Y-102728569D01*
X145612149Y-102681080D01*
X145543479Y-102643950D01*
X145354172Y-102585350D01*
X145157089Y-102564636D01*
X145153243Y-102564986D01*
X145153242Y-102564986D01*
X145105487Y-102569332D01*
X144959735Y-102582596D01*
X144956028Y-102583687D01*
X144773338Y-102637456D01*
X144773335Y-102637457D01*
X144769629Y-102638548D01*
X144594010Y-102730359D01*
X144591003Y-102732777D01*
X144591001Y-102732778D01*
X144555783Y-102761094D01*
X144439570Y-102854532D01*
X144312189Y-103006339D01*
X144310327Y-103009727D01*
X144310325Y-103009729D01*
X144238517Y-103140348D01*
X144216720Y-103179996D01*
X144156800Y-103368889D01*
X144134710Y-103565823D01*
X140953286Y-103565823D01*
X140837324Y-103477802D01*
X140780142Y-103455162D01*
X140704092Y-103425052D01*
X140704088Y-103425051D01*
X140699380Y-103423187D01*
X140694350Y-103422578D01*
X140694349Y-103422578D01*
X140663829Y-103418885D01*
X140611069Y-103412500D01*
X139450244Y-103412500D01*
X138288932Y-103412501D01*
X138274144Y-103414290D01*
X138205658Y-103422577D01*
X138205655Y-103422578D01*
X138200620Y-103423187D01*
X138195905Y-103425054D01*
X138195896Y-103425056D01*
X138078581Y-103471504D01*
X138024563Y-103473013D01*
X137982213Y-103439447D01*
X137970500Y-103398052D01*
X137970500Y-102832597D01*
X137988982Y-102781817D01*
X138035782Y-102754797D01*
X138078380Y-102759801D01*
X138078408Y-102759706D01*
X138078976Y-102759871D01*
X138080874Y-102760094D01*
X138083184Y-102761093D01*
X138227624Y-102803057D01*
X138235535Y-102804502D01*
X138265715Y-102806877D01*
X138268833Y-102807000D01*
X139186070Y-102807000D01*
X139196741Y-102803116D01*
X139200000Y-102797472D01*
X139200000Y-102793069D01*
X139700000Y-102793069D01*
X139703884Y-102803740D01*
X139709528Y-102806999D01*
X140631183Y-102806999D01*
X140634256Y-102806879D01*
X140664475Y-102804501D01*
X140672371Y-102803059D01*
X140816813Y-102761094D01*
X140825875Y-102757173D01*
X140954540Y-102681080D01*
X140962334Y-102675034D01*
X141068034Y-102569334D01*
X141074080Y-102561540D01*
X141150173Y-102432875D01*
X141154094Y-102423813D01*
X141154963Y-102420823D01*
X142154710Y-102420823D01*
X142171292Y-102618297D01*
X142210433Y-102754797D01*
X142224272Y-102803059D01*
X142225915Y-102808790D01*
X142316498Y-102985045D01*
X142439590Y-103140348D01*
X142590504Y-103268786D01*
X142763490Y-103365465D01*
X142767152Y-103366655D01*
X142767157Y-103366657D01*
X142863783Y-103398052D01*
X142951960Y-103426702D01*
X142955797Y-103427160D01*
X142955799Y-103427160D01*
X143144892Y-103449708D01*
X143144895Y-103449708D01*
X143148735Y-103450166D01*
X143346320Y-103434963D01*
X143537190Y-103381671D01*
X143631858Y-103333851D01*
X143710619Y-103294066D01*
X143710621Y-103294065D01*
X143714073Y-103292321D01*
X143853126Y-103183681D01*
X143867190Y-103172693D01*
X143867192Y-103172691D01*
X143870232Y-103170316D01*
X143898707Y-103137327D01*
X143997196Y-103023228D01*
X143997200Y-103023223D01*
X143999720Y-103020303D01*
X144001626Y-103016947D01*
X144001630Y-103016942D01*
X144095695Y-102851356D01*
X144097604Y-102847996D01*
X144102727Y-102832597D01*
X144158935Y-102663630D01*
X144158936Y-102663625D01*
X144160156Y-102659958D01*
X144162323Y-102642809D01*
X144172147Y-102565040D01*
X144184993Y-102463351D01*
X144185389Y-102435000D01*
X144183999Y-102420823D01*
X146114710Y-102420823D01*
X146131292Y-102618297D01*
X146170433Y-102754797D01*
X146184272Y-102803059D01*
X146185915Y-102808790D01*
X146276498Y-102985045D01*
X146399590Y-103140348D01*
X146550504Y-103268786D01*
X146723490Y-103365465D01*
X146727152Y-103366655D01*
X146727157Y-103366657D01*
X146823783Y-103398052D01*
X146911960Y-103426702D01*
X146915797Y-103427160D01*
X146915799Y-103427160D01*
X147104892Y-103449708D01*
X147104895Y-103449708D01*
X147108735Y-103450166D01*
X147306320Y-103434963D01*
X147497190Y-103381671D01*
X147591858Y-103333851D01*
X147670619Y-103294066D01*
X147670621Y-103294065D01*
X147674073Y-103292321D01*
X147813126Y-103183681D01*
X147827190Y-103172693D01*
X147827192Y-103172691D01*
X147830232Y-103170316D01*
X147858707Y-103137327D01*
X147957196Y-103023228D01*
X147957200Y-103023223D01*
X147959720Y-103020303D01*
X147961626Y-103016947D01*
X147961630Y-103016942D01*
X148055695Y-102851356D01*
X148057604Y-102847996D01*
X148062727Y-102832597D01*
X148118935Y-102663630D01*
X148118936Y-102663625D01*
X148120156Y-102659958D01*
X148122323Y-102642809D01*
X148132147Y-102565040D01*
X148144993Y-102463351D01*
X148145389Y-102435000D01*
X148126051Y-102237777D01*
X148122245Y-102225169D01*
X148069891Y-102051765D01*
X148068774Y-102048065D01*
X148066963Y-102044660D01*
X148066961Y-102044654D01*
X147977551Y-101876500D01*
X147975739Y-101873092D01*
X147970949Y-101867218D01*
X147852930Y-101722514D01*
X147850490Y-101719522D01*
X147838415Y-101709532D01*
X147700773Y-101595665D01*
X147700772Y-101595664D01*
X147697798Y-101593204D01*
X147679979Y-101583569D01*
X147620337Y-101551321D01*
X147523479Y-101498950D01*
X147334172Y-101440350D01*
X147137089Y-101419636D01*
X147133243Y-101419986D01*
X147133242Y-101419986D01*
X147095080Y-101423459D01*
X146939735Y-101437596D01*
X146936028Y-101438687D01*
X146753338Y-101492456D01*
X146753335Y-101492457D01*
X146749629Y-101493548D01*
X146574010Y-101585359D01*
X146571003Y-101587777D01*
X146571001Y-101587778D01*
X146561192Y-101595665D01*
X146419570Y-101709532D01*
X146331532Y-101814452D01*
X146305641Y-101845308D01*
X146292189Y-101861339D01*
X146290327Y-101864727D01*
X146290325Y-101864729D01*
X146230412Y-101973710D01*
X146196720Y-102034996D01*
X146136800Y-102223889D01*
X146114710Y-102420823D01*
X144183999Y-102420823D01*
X144166051Y-102237777D01*
X144162245Y-102225169D01*
X144573878Y-102225169D01*
X144574823Y-102228698D01*
X144574934Y-102228807D01*
X144619863Y-102258827D01*
X144626204Y-102262270D01*
X144805297Y-102339214D01*
X144812161Y-102341444D01*
X145002274Y-102384463D01*
X145009425Y-102385404D01*
X145204191Y-102393057D01*
X145211408Y-102392678D01*
X145404304Y-102364710D01*
X145411321Y-102363025D01*
X145595896Y-102300371D01*
X145602488Y-102297436D01*
X145719432Y-102231944D01*
X145726844Y-102223342D01*
X145726870Y-102221364D01*
X145725282Y-102218835D01*
X145159851Y-101653404D01*
X145149557Y-101648604D01*
X145143263Y-101650290D01*
X144578678Y-102214875D01*
X144573878Y-102225169D01*
X144162245Y-102225169D01*
X144109891Y-102051765D01*
X144108774Y-102048065D01*
X144106963Y-102044660D01*
X144106961Y-102044654D01*
X144017551Y-101876500D01*
X144015739Y-101873092D01*
X144010949Y-101867218D01*
X143892930Y-101722514D01*
X143890490Y-101719522D01*
X143878415Y-101709532D01*
X143740773Y-101595665D01*
X143740772Y-101595664D01*
X143737798Y-101593204D01*
X143719979Y-101583569D01*
X143660337Y-101551321D01*
X143563479Y-101498950D01*
X143374172Y-101440350D01*
X143177089Y-101419636D01*
X143173243Y-101419986D01*
X143173242Y-101419986D01*
X143135080Y-101423459D01*
X142979735Y-101437596D01*
X142976028Y-101438687D01*
X142793338Y-101492456D01*
X142793335Y-101492457D01*
X142789629Y-101493548D01*
X142614010Y-101585359D01*
X142611003Y-101587777D01*
X142611001Y-101587778D01*
X142601192Y-101595665D01*
X142459570Y-101709532D01*
X142371532Y-101814452D01*
X142345641Y-101845308D01*
X142332189Y-101861339D01*
X142330327Y-101864727D01*
X142330325Y-101864729D01*
X142270412Y-101973710D01*
X142236720Y-102034996D01*
X142176800Y-102223889D01*
X142154710Y-102420823D01*
X141154963Y-102420823D01*
X141196057Y-102279376D01*
X141197502Y-102271465D01*
X141199877Y-102241285D01*
X141200000Y-102238167D01*
X141200000Y-102058930D01*
X141196116Y-102048259D01*
X141190472Y-102045000D01*
X139713930Y-102045000D01*
X139703259Y-102048884D01*
X139700000Y-102054528D01*
X139700000Y-102793069D01*
X139200000Y-102793069D01*
X139200000Y-101531070D01*
X139700000Y-101531070D01*
X139703884Y-101541741D01*
X139709528Y-101545000D01*
X141186069Y-101545000D01*
X141196740Y-101541116D01*
X141199999Y-101535472D01*
X141199999Y-101351817D01*
X141199879Y-101348744D01*
X141197501Y-101318525D01*
X141196059Y-101310629D01*
X141154094Y-101166187D01*
X141150173Y-101157125D01*
X141104661Y-101080169D01*
X142593878Y-101080169D01*
X142594823Y-101083698D01*
X142594934Y-101083807D01*
X142639863Y-101113827D01*
X142646204Y-101117270D01*
X142825297Y-101194214D01*
X142832161Y-101196444D01*
X143022274Y-101239463D01*
X143029425Y-101240404D01*
X143224191Y-101248057D01*
X143231408Y-101247678D01*
X143424304Y-101219710D01*
X143431321Y-101218025D01*
X143615896Y-101155371D01*
X143622488Y-101152436D01*
X143739432Y-101086944D01*
X143746844Y-101078342D01*
X143746870Y-101076364D01*
X143745282Y-101073835D01*
X143179851Y-100508404D01*
X143169557Y-100503604D01*
X143163263Y-100505290D01*
X142598678Y-101069875D01*
X142593878Y-101080169D01*
X141104661Y-101080169D01*
X141074080Y-101028460D01*
X141068034Y-101020666D01*
X140962334Y-100914966D01*
X140954540Y-100908920D01*
X140825875Y-100832827D01*
X140816813Y-100828906D01*
X140672376Y-100786943D01*
X140664465Y-100785498D01*
X140634285Y-100783123D01*
X140631166Y-100783000D01*
X139713930Y-100783000D01*
X139703259Y-100786884D01*
X139700000Y-100792528D01*
X139700000Y-101531070D01*
X139200000Y-101531070D01*
X139200000Y-100796931D01*
X139196116Y-100786260D01*
X139190472Y-100783001D01*
X138268817Y-100783001D01*
X138265744Y-100783121D01*
X138235525Y-100785499D01*
X138227629Y-100786941D01*
X138083184Y-100828907D01*
X138080874Y-100829906D01*
X138079453Y-100829990D01*
X138078408Y-100830294D01*
X138078339Y-100830057D01*
X138026930Y-100833110D01*
X137983547Y-100800891D01*
X137970500Y-100757403D01*
X137970500Y-100379500D01*
X137988982Y-100328720D01*
X138035782Y-100301700D01*
X138049500Y-100300500D01*
X139964802Y-100300500D01*
X139971215Y-100300904D01*
X139979282Y-100304000D01*
X140005003Y-100301024D01*
X140014083Y-100300500D01*
X140019554Y-100300500D01*
X140024184Y-100299363D01*
X140024762Y-100299293D01*
X140033415Y-100297737D01*
X140048124Y-100296035D01*
X140048125Y-100296035D01*
X140057620Y-100294936D01*
X140065272Y-100289735D01*
X140066496Y-100289359D01*
X140067599Y-100288699D01*
X140076584Y-100286492D01*
X140094854Y-100270385D01*
X140102691Y-100264306D01*
X140114935Y-100255985D01*
X140114937Y-100255983D01*
X140122844Y-100250609D01*
X140127216Y-100242454D01*
X140128126Y-100241554D01*
X140128796Y-100240461D01*
X140135738Y-100234341D01*
X140140355Y-100222315D01*
X140144467Y-100211601D01*
X140148598Y-100202580D01*
X140156679Y-100187509D01*
X140156680Y-100187506D01*
X140160110Y-100181109D01*
X140160500Y-100178022D01*
X140160500Y-100175198D01*
X140160904Y-100168785D01*
X140164000Y-100160718D01*
X140161024Y-100134997D01*
X140160500Y-100125917D01*
X140160500Y-100119698D01*
X142065903Y-100119698D01*
X142078651Y-100314201D01*
X142079780Y-100321328D01*
X142127759Y-100510243D01*
X142130172Y-100517057D01*
X142211774Y-100694068D01*
X142215377Y-100700308D01*
X142226287Y-100715746D01*
X142235617Y-100722218D01*
X142239595Y-100721852D01*
X142806596Y-100154851D01*
X142810983Y-100145443D01*
X143528604Y-100145443D01*
X143530290Y-100151737D01*
X144095287Y-100716734D01*
X144111130Y-100724122D01*
X144149341Y-100762333D01*
X144154051Y-100816167D01*
X144147657Y-100832504D01*
X144131063Y-100864043D01*
X144128304Y-100870703D01*
X144070502Y-101056857D01*
X144069002Y-101063919D01*
X144046092Y-101257481D01*
X144045903Y-101264698D01*
X144058651Y-101459201D01*
X144059780Y-101466328D01*
X144107759Y-101655243D01*
X144110172Y-101662057D01*
X144191774Y-101839068D01*
X144195377Y-101845308D01*
X144206287Y-101860746D01*
X144215617Y-101867218D01*
X144219595Y-101866852D01*
X144786596Y-101299851D01*
X144790983Y-101290443D01*
X145508604Y-101290443D01*
X145510290Y-101296737D01*
X146075287Y-101861734D01*
X146085581Y-101866534D01*
X146087491Y-101866023D01*
X146089493Y-101863808D01*
X146157436Y-101742488D01*
X146160371Y-101735896D01*
X146223025Y-101551321D01*
X146224710Y-101544304D01*
X146252864Y-101350127D01*
X146253260Y-101345486D01*
X146254652Y-101292327D01*
X146254500Y-101287685D01*
X146236545Y-101092288D01*
X146235230Y-101085195D01*
X146182321Y-100897592D01*
X146179736Y-100890858D01*
X146093698Y-100716389D01*
X146085990Y-100711336D01*
X146081710Y-100711843D01*
X145513404Y-101280149D01*
X145508604Y-101290443D01*
X144790983Y-101290443D01*
X144791396Y-101289557D01*
X144789710Y-101283263D01*
X144223454Y-100717007D01*
X144211007Y-100711203D01*
X144172795Y-100672991D01*
X144168086Y-100619158D01*
X144175465Y-100601006D01*
X144177439Y-100597481D01*
X144180371Y-100590896D01*
X144243025Y-100406321D01*
X144244710Y-100399304D01*
X144250811Y-100357223D01*
X144573890Y-100357223D01*
X144573923Y-100359759D01*
X144575040Y-100361487D01*
X145140149Y-100926596D01*
X145150443Y-100931396D01*
X145156737Y-100929710D01*
X145720911Y-100365536D01*
X145725711Y-100355242D01*
X145724909Y-100352250D01*
X145724111Y-100351488D01*
X145654590Y-100307625D01*
X145648167Y-100304353D01*
X145467121Y-100232122D01*
X145460200Y-100230072D01*
X145269024Y-100192045D01*
X145261854Y-100191292D01*
X145066952Y-100188739D01*
X145059752Y-100189306D01*
X144867653Y-100222315D01*
X144860675Y-100224185D01*
X144677805Y-100291649D01*
X144671298Y-100294753D01*
X144581076Y-100348429D01*
X144573890Y-100357223D01*
X144250811Y-100357223D01*
X144272864Y-100205127D01*
X144273260Y-100200486D01*
X144274652Y-100147327D01*
X144274500Y-100142680D01*
X144256545Y-99947288D01*
X144255230Y-99940195D01*
X144202321Y-99752592D01*
X144199736Y-99745858D01*
X144113698Y-99571389D01*
X144105990Y-99566336D01*
X144101710Y-99566843D01*
X143533404Y-100135149D01*
X143528604Y-100145443D01*
X142810983Y-100145443D01*
X142811396Y-100144557D01*
X142809710Y-100138263D01*
X142243455Y-99572008D01*
X142233161Y-99567208D01*
X142231797Y-99567573D01*
X142229208Y-99570512D01*
X142151066Y-99719037D01*
X142148304Y-99725703D01*
X142090502Y-99911857D01*
X142089002Y-99918919D01*
X142066092Y-100112481D01*
X142065903Y-100119698D01*
X140160500Y-100119698D01*
X140160500Y-99212223D01*
X142593890Y-99212223D01*
X142593923Y-99214759D01*
X142595040Y-99216487D01*
X143160149Y-99781596D01*
X143170443Y-99786396D01*
X143176737Y-99784710D01*
X143740911Y-99220536D01*
X143745711Y-99210242D01*
X143744909Y-99207250D01*
X143744111Y-99206488D01*
X143674590Y-99162625D01*
X143668167Y-99159353D01*
X143487121Y-99087122D01*
X143480200Y-99085072D01*
X143289024Y-99047045D01*
X143281854Y-99046292D01*
X143086952Y-99043739D01*
X143079752Y-99044306D01*
X142887653Y-99077315D01*
X142880675Y-99079185D01*
X142697805Y-99146649D01*
X142691298Y-99149753D01*
X142601076Y-99203429D01*
X142593890Y-99212223D01*
X140160500Y-99212223D01*
X140160500Y-94013422D01*
X143725626Y-94013422D01*
X143727022Y-94018633D01*
X143755270Y-94043406D01*
X143759368Y-94046551D01*
X144003898Y-94209941D01*
X144008370Y-94212523D01*
X144272136Y-94342597D01*
X144276915Y-94344577D01*
X144555388Y-94439106D01*
X144560394Y-94440447D01*
X144848832Y-94497821D01*
X144853949Y-94498495D01*
X145147422Y-94517730D01*
X145152578Y-94517730D01*
X145446051Y-94498495D01*
X145451168Y-94497821D01*
X145739606Y-94440447D01*
X145744612Y-94439106D01*
X146023085Y-94344577D01*
X146027864Y-94342597D01*
X146291630Y-94212523D01*
X146296102Y-94209941D01*
X146540632Y-94046551D01*
X146544730Y-94043406D01*
X146568952Y-94022164D01*
X146574414Y-94012207D01*
X146573361Y-94006915D01*
X145159851Y-92593404D01*
X145149557Y-92588604D01*
X145143263Y-92590290D01*
X143730426Y-94003128D01*
X143725626Y-94013422D01*
X140160500Y-94013422D01*
X140160500Y-92232578D01*
X142862270Y-92232578D01*
X142881505Y-92526051D01*
X142882179Y-92531168D01*
X142939553Y-92819606D01*
X142940894Y-92824612D01*
X143035423Y-93103085D01*
X143037403Y-93107864D01*
X143167477Y-93371629D01*
X143170059Y-93376102D01*
X143333449Y-93620632D01*
X143336594Y-93624730D01*
X143357836Y-93648952D01*
X143367793Y-93654414D01*
X143373085Y-93653361D01*
X144786596Y-92239851D01*
X144790983Y-92230443D01*
X145508604Y-92230443D01*
X145510290Y-92236737D01*
X146923128Y-93649574D01*
X146933422Y-93654374D01*
X146938633Y-93652978D01*
X146963406Y-93624730D01*
X146966551Y-93620632D01*
X147129941Y-93376102D01*
X147132523Y-93371629D01*
X147262597Y-93107864D01*
X147264577Y-93103085D01*
X147359106Y-92824612D01*
X147360447Y-92819606D01*
X147417821Y-92531168D01*
X147418495Y-92526051D01*
X147437730Y-92232578D01*
X147437730Y-92227422D01*
X147418495Y-91933949D01*
X147417821Y-91928832D01*
X147360447Y-91640394D01*
X147359106Y-91635388D01*
X147264577Y-91356915D01*
X147262597Y-91352136D01*
X147132523Y-91088371D01*
X147129941Y-91083898D01*
X146966551Y-90839368D01*
X146963406Y-90835270D01*
X146942164Y-90811048D01*
X146932207Y-90805586D01*
X146926915Y-90806639D01*
X145513404Y-92220149D01*
X145508604Y-92230443D01*
X144790983Y-92230443D01*
X144791396Y-92229557D01*
X144789710Y-92223263D01*
X143376872Y-90810426D01*
X143366578Y-90805626D01*
X143361367Y-90807022D01*
X143336594Y-90835270D01*
X143333449Y-90839368D01*
X143170059Y-91083898D01*
X143167477Y-91088371D01*
X143037403Y-91352136D01*
X143035423Y-91356915D01*
X142940894Y-91635388D01*
X142939553Y-91640394D01*
X142882179Y-91928832D01*
X142881505Y-91933949D01*
X142862270Y-92227422D01*
X142862270Y-92232578D01*
X140160500Y-92232578D01*
X140160500Y-90349496D01*
X140178982Y-90298716D01*
X140225782Y-90271696D01*
X140239499Y-90270496D01*
X143712998Y-90270452D01*
X143763778Y-90288934D01*
X143790799Y-90335733D01*
X143781416Y-90388951D01*
X143761090Y-90412128D01*
X143755270Y-90416594D01*
X143731048Y-90437836D01*
X143725586Y-90447793D01*
X143726639Y-90453085D01*
X145140149Y-91866596D01*
X145150443Y-91871396D01*
X145156737Y-91869710D01*
X146569574Y-90456872D01*
X146574374Y-90446578D01*
X146572978Y-90441367D01*
X146544731Y-90416595D01*
X146538866Y-90412095D01*
X146509827Y-90366521D01*
X146516876Y-90312943D01*
X146556715Y-90276432D01*
X146586952Y-90270416D01*
X147960006Y-90270398D01*
X148173461Y-90270395D01*
X148190742Y-90272308D01*
G37*
G04 #@! TD.AperFunction*
G04 #@! TA.AperFunction,Conductor*
G36*
X147971901Y-109302060D02*
G01*
X147978509Y-109308104D01*
X147979596Y-109313607D01*
X147970648Y-109504251D01*
X147970530Y-109505450D01*
X147945248Y-109672756D01*
X147945009Y-109673926D01*
X147907761Y-109818553D01*
X147907486Y-109819467D01*
X147862160Y-109950236D01*
X147861994Y-109950684D01*
X147812500Y-110076242D01*
X147762920Y-110204918D01*
X147762883Y-110205033D01*
X147762878Y-110205046D01*
X147739326Y-110277494D01*
X147717359Y-110345064D01*
X147679840Y-110505247D01*
X147679803Y-110505522D01*
X147664325Y-110620295D01*
X147654380Y-110694036D01*
X147651853Y-110754928D01*
X147645466Y-110908785D01*
X147641699Y-110916909D01*
X147633776Y-110920000D01*
X147406000Y-110920000D01*
X147397727Y-110916573D01*
X147394322Y-110909021D01*
X147394308Y-110908785D01*
X147384782Y-110754481D01*
X147355212Y-110619743D01*
X147307913Y-110510223D01*
X147244507Y-110420360D01*
X147166619Y-110344592D01*
X147166305Y-110344359D01*
X147166301Y-110344356D01*
X147122202Y-110311684D01*
X147075870Y-110277358D01*
X147075684Y-110277241D01*
X147075677Y-110277236D01*
X146973968Y-110213151D01*
X146973884Y-110213098D01*
X146862337Y-110146280D01*
X146862234Y-110146216D01*
X146742964Y-110071418D01*
X146742444Y-110071073D01*
X146623650Y-109987408D01*
X146618859Y-109979842D01*
X146619190Y-109974449D01*
X146933389Y-108938180D01*
X146939068Y-108931258D01*
X146948577Y-108930578D01*
X147971901Y-109302060D01*
G37*
G04 #@! TD.AperFunction*
M02*
