M48
; DRILL file {KiCad (6.0.6-0)} date Thursday, 05 January 2023 at 22:31:37
; FORMAT={-:-/ absolute / inch / decimal}
; #@! TF.CreationDate,2023-01-05T22:31:37-05:00
; #@! TF.GenerationSoftware,Kicad,Pcbnew,(6.0.6-0)
; #@! TF.FileFunction,MixedPlating,1,2
FMAT,2
INCH
; #@! TA.AperFunction,Plated,PTH,ViaDrill
T1C0.0118
; #@! TA.AperFunction,Plated,PTH,ComponentDrill
T2C0.0315
; #@! TA.AperFunction,Plated,PTH,ComponentDrill
T3C0.0394
%
G90
G05
T1
X4.9026Y-3.8553
X4.9272Y-3.7335
X4.9925Y-4.0803
X5.0205Y-3.8929
X5.0217Y-4.1843
X5.0492Y-3.9413
X5.0654Y-4.1598
X5.0719Y-3.622
X5.1555Y-3.9341
X5.1634Y-4.2988
X5.2291Y-4.1598
X5.2413Y-3.8929
X5.2551Y-4.2547
X5.2953Y-3.552
X5.3012Y-3.9457
X5.3248Y-3.6181
X5.3346Y-3.7343
X5.3646Y-3.6689
X5.373Y-3.5787
X5.4795Y-3.6035
X5.5522Y-4.2844
X5.5642Y-3.9201
X5.565Y-4.0327
X5.5685Y-4.4124
X5.5799Y-3.5961
X5.5957Y-3.6689
X5.6358Y-3.7343
X5.6362Y-3.9201
X5.6366Y-4.1063
X5.6368Y-4.2077
X5.6526Y-3.5817
T3
X5.0134Y-3.7445
X5.0331Y-3.6657
X5.0518Y-3.8232
X5.0921Y-3.7445
X5.1108Y-3.6657
X5.1305Y-3.8232
X5.1699Y-3.7445
X5.2093Y-3.8232
X5.2299Y-3.6657
X5.2496Y-3.7445
X5.4428Y-3.7215
X5.4428Y-3.8219
X5.4428Y-3.9222
X5.4428Y-4.0217
X5.4428Y-4.122
X5.4428Y-4.2224
X5.5127Y-3.7717
X5.5127Y-3.8711
X5.5127Y-4.0719
X5.5127Y-4.1713
X5.5136Y-3.9715
T2
G00X5.0843Y-3.5358
M15
G01X5.1787Y-3.5358
M16
G05
T3
G00X4.8598Y-4.2654
M15
G01X4.8598Y-4.3047
M16
G05
G00X4.9543Y-4.1866
M15
G01X4.9543Y-4.226
M16
G05
G00X5.1Y-4.2654
M15
G01X5.1Y-4.3047
M16
G05
G00X5.1709Y-4.1866
M15
G01X5.1709Y-4.226
M16
G05
G00X5.3165Y-4.2654
M15
G01X5.3165Y-4.3047
M16
G05
T0
M30
