G04 #@! TF.GenerationSoftware,KiCad,Pcbnew,(6.0.6-0)*
G04 #@! TF.CreationDate,2023-01-05T22:31:35-05:00*
G04 #@! TF.ProjectId,10DIN2VGA,31304449-4e32-4564-9741-2e6b69636164,1.0*
G04 #@! TF.SameCoordinates,Original*
G04 #@! TF.FileFunction,Legend,Top*
G04 #@! TF.FilePolarity,Positive*
%FSLAX46Y46*%
G04 Gerber Fmt 4.6, Leading zero omitted, Abs format (unit mm)*
G04 Created by KiCad (PCBNEW (6.0.6-0)) date 2023-01-05 22:31:35*
%MOMM*%
%LPD*%
G01*
G04 APERTURE LIST*
G04 Aperture macros list*
%AMRoundRect*
0 Rectangle with rounded corners*
0 $1 Rounding radius*
0 $2 $3 $4 $5 $6 $7 $8 $9 X,Y pos of 4 corners*
0 Add a 4 corners polygon primitive as box body*
4,1,4,$2,$3,$4,$5,$6,$7,$8,$9,$2,$3,0*
0 Add four circle primitives for the rounded corners*
1,1,$1+$1,$2,$3*
1,1,$1+$1,$4,$5*
1,1,$1+$1,$6,$7*
1,1,$1+$1,$8,$9*
0 Add four rect primitives between the rounded corners*
20,1,$1+$1,$2,$3,$4,$5,0*
20,1,$1+$1,$4,$5,$6,$7,0*
20,1,$1+$1,$6,$7,$8,$9,0*
20,1,$1+$1,$8,$9,$2,$3,0*%
G04 Aperture macros list end*
%ADD10C,0.127000*%
%ADD11C,0.120000*%
%ADD12C,0.150000*%
%ADD13C,0.350000*%
%ADD14RoundRect,0.288300X0.250000X0.237500X-0.250000X0.237500X-0.250000X-0.237500X0.250000X-0.237500X0*%
%ADD15C,1.601600*%
%ADD16RoundRect,0.050800X-2.000000X-0.750000X2.000000X-0.750000X2.000000X0.750000X-2.000000X0.750000X0*%
%ADD17RoundRect,0.300800X0.412500X0.650000X-0.412500X0.650000X-0.412500X-0.650000X0.412500X-0.650000X0*%
%ADD18O,1.609600X3.117600*%
G04 APERTURE END LIST*
D10*
X129240000Y-91600000D02*
X129680000Y-91600000D01*
X123325000Y-98395000D02*
X130565000Y-98395000D01*
X130565000Y-98395000D02*
X130565000Y-104250000D01*
X130565000Y-104250000D02*
X123325000Y-104250000D01*
X123325000Y-104250000D02*
X123325000Y-98395000D01*
X143140000Y-91090000D02*
X137030000Y-91090000D01*
X137030000Y-91090000D02*
X137030000Y-89380000D01*
X137030000Y-89380000D02*
X143140000Y-89380000D01*
X143140000Y-89380000D02*
X143140000Y-91090000D01*
X122390000Y-104570000D02*
X136140000Y-104570000D01*
X136140000Y-104570000D02*
X136140000Y-111830000D01*
X136140000Y-111830000D02*
X122360000Y-111830000D01*
D11*
X124273333Y-99450000D02*
X124240000Y-99483333D01*
X124140000Y-99516666D01*
X124073333Y-99516666D01*
X123973333Y-99483333D01*
X123906666Y-99416666D01*
X123873333Y-99350000D01*
X123840000Y-99216666D01*
X123840000Y-99116666D01*
X123873333Y-98983333D01*
X123906666Y-98916666D01*
X123973333Y-98850000D01*
X124073333Y-98816666D01*
X124140000Y-98816666D01*
X124240000Y-98850000D01*
X124273333Y-98883333D01*
X124540000Y-99483333D02*
X124640000Y-99516666D01*
X124806666Y-99516666D01*
X124873333Y-99483333D01*
X124906666Y-99450000D01*
X124940000Y-99383333D01*
X124940000Y-99316666D01*
X124906666Y-99250000D01*
X124873333Y-99216666D01*
X124806666Y-99183333D01*
X124673333Y-99150000D01*
X124606666Y-99116666D01*
X124573333Y-99083333D01*
X124540000Y-99016666D01*
X124540000Y-98950000D01*
X124573333Y-98883333D01*
X124606666Y-98850000D01*
X124673333Y-98816666D01*
X124840000Y-98816666D01*
X124940000Y-98850000D01*
X125373333Y-99183333D02*
X125373333Y-99516666D01*
X125140000Y-98816666D02*
X125373333Y-99183333D01*
X125606666Y-98816666D01*
X125840000Y-99516666D02*
X125840000Y-98816666D01*
X126240000Y-99516666D01*
X126240000Y-98816666D01*
X126973333Y-99450000D02*
X126940000Y-99483333D01*
X126840000Y-99516666D01*
X126773333Y-99516666D01*
X126673333Y-99483333D01*
X126606666Y-99416666D01*
X126573333Y-99350000D01*
X126540000Y-99216666D01*
X126540000Y-99116666D01*
X126573333Y-98983333D01*
X126606666Y-98916666D01*
X126673333Y-98850000D01*
X126773333Y-98816666D01*
X126840000Y-98816666D01*
X126940000Y-98850000D01*
X126973333Y-98883333D01*
X127806666Y-99516666D02*
X127806666Y-98816666D01*
X128206666Y-99516666D01*
X128206666Y-98816666D01*
X128440000Y-98816666D02*
X128840000Y-98816666D01*
X128640000Y-99516666D02*
X128640000Y-98816666D01*
X129040000Y-99483333D02*
X129140000Y-99516666D01*
X129306666Y-99516666D01*
X129373333Y-99483333D01*
X129406666Y-99450000D01*
X129440000Y-99383333D01*
X129440000Y-99316666D01*
X129406666Y-99250000D01*
X129373333Y-99216666D01*
X129306666Y-99183333D01*
X129173333Y-99150000D01*
X129106666Y-99116666D01*
X129073333Y-99083333D01*
X129040000Y-99016666D01*
X129040000Y-98950000D01*
X129073333Y-98883333D01*
X129106666Y-98850000D01*
X129173333Y-98816666D01*
X129340000Y-98816666D01*
X129440000Y-98850000D01*
X130140000Y-99450000D02*
X130106666Y-99483333D01*
X130006666Y-99516666D01*
X129940000Y-99516666D01*
X129840000Y-99483333D01*
X129773333Y-99416666D01*
X129740000Y-99350000D01*
X129706666Y-99216666D01*
X129706666Y-99116666D01*
X129740000Y-98983333D01*
X129773333Y-98916666D01*
X129840000Y-98850000D01*
X129940000Y-98816666D01*
X130006666Y-98816666D01*
X130106666Y-98850000D01*
X130140000Y-98883333D01*
D10*
X130514714Y-91555571D02*
X130623571Y-91591857D01*
X130659857Y-91628142D01*
X130696142Y-91700714D01*
X130696142Y-91809571D01*
X130659857Y-91882142D01*
X130623571Y-91918428D01*
X130551000Y-91954714D01*
X130260714Y-91954714D01*
X130260714Y-91192714D01*
X130514714Y-91192714D01*
X130587285Y-91229000D01*
X130623571Y-91265285D01*
X130659857Y-91337857D01*
X130659857Y-91410428D01*
X130623571Y-91483000D01*
X130587285Y-91519285D01*
X130514714Y-91555571D01*
X130260714Y-91555571D01*
X131349285Y-91954714D02*
X131349285Y-91555571D01*
X131313000Y-91483000D01*
X131240428Y-91446714D01*
X131095285Y-91446714D01*
X131022714Y-91483000D01*
X131349285Y-91918428D02*
X131276714Y-91954714D01*
X131095285Y-91954714D01*
X131022714Y-91918428D01*
X130986428Y-91845857D01*
X130986428Y-91773285D01*
X131022714Y-91700714D01*
X131095285Y-91664428D01*
X131276714Y-91664428D01*
X131349285Y-91628142D01*
X132038714Y-91918428D02*
X131966142Y-91954714D01*
X131821000Y-91954714D01*
X131748428Y-91918428D01*
X131712142Y-91882142D01*
X131675857Y-91809571D01*
X131675857Y-91591857D01*
X131712142Y-91519285D01*
X131748428Y-91483000D01*
X131821000Y-91446714D01*
X131966142Y-91446714D01*
X132038714Y-91483000D01*
X132365285Y-91954714D02*
X132365285Y-91192714D01*
X132437857Y-91664428D02*
X132655571Y-91954714D01*
X132655571Y-91446714D02*
X132365285Y-91737000D01*
X123136000Y-105892714D02*
X123136000Y-106437000D01*
X123099714Y-106545857D01*
X123027142Y-106618428D01*
X122918285Y-106654714D01*
X122845714Y-106654714D01*
X123462571Y-105965285D02*
X123498857Y-105929000D01*
X123571428Y-105892714D01*
X123752857Y-105892714D01*
X123825428Y-105929000D01*
X123861714Y-105965285D01*
X123898000Y-106037857D01*
X123898000Y-106110428D01*
X123861714Y-106219285D01*
X123426285Y-106654714D01*
X123898000Y-106654714D01*
D12*
X138028571Y-89777142D02*
X138200000Y-89777142D01*
X138285714Y-89820000D01*
X138371428Y-89905714D01*
X138414285Y-90077142D01*
X138414285Y-90377142D01*
X138371428Y-90548571D01*
X138285714Y-90634285D01*
X138200000Y-90677142D01*
X138028571Y-90677142D01*
X137942857Y-90634285D01*
X137857142Y-90548571D01*
X137814285Y-90377142D01*
X137814285Y-90077142D01*
X137857142Y-89905714D01*
X137942857Y-89820000D01*
X138028571Y-89777142D01*
X139185714Y-90077142D02*
X139185714Y-90677142D01*
X138800000Y-90077142D02*
X138800000Y-90548571D01*
X138842857Y-90634285D01*
X138928571Y-90677142D01*
X139057142Y-90677142D01*
X139142857Y-90634285D01*
X139185714Y-90591428D01*
X139485714Y-90077142D02*
X139828571Y-90077142D01*
X139614285Y-89777142D02*
X139614285Y-90548571D01*
X139657142Y-90634285D01*
X139742857Y-90677142D01*
X139828571Y-90677142D01*
X140085714Y-90634285D02*
X140171428Y-90677142D01*
X140342857Y-90677142D01*
X140428571Y-90634285D01*
X140471428Y-90548571D01*
X140471428Y-90505714D01*
X140428571Y-90420000D01*
X140342857Y-90377142D01*
X140214285Y-90377142D01*
X140128571Y-90334285D01*
X140085714Y-90248571D01*
X140085714Y-90205714D01*
X140128571Y-90120000D01*
X140214285Y-90077142D01*
X140342857Y-90077142D01*
X140428571Y-90120000D01*
X140857142Y-90677142D02*
X140857142Y-90077142D01*
X140857142Y-89777142D02*
X140814285Y-89820000D01*
X140857142Y-89862857D01*
X140900000Y-89820000D01*
X140857142Y-89777142D01*
X140857142Y-89862857D01*
X141671428Y-90677142D02*
X141671428Y-89777142D01*
X141671428Y-90634285D02*
X141585714Y-90677142D01*
X141414285Y-90677142D01*
X141328571Y-90634285D01*
X141285714Y-90591428D01*
X141242857Y-90505714D01*
X141242857Y-90248571D01*
X141285714Y-90162857D01*
X141328571Y-90120000D01*
X141414285Y-90077142D01*
X141585714Y-90077142D01*
X141671428Y-90120000D01*
X142442857Y-90634285D02*
X142357142Y-90677142D01*
X142185714Y-90677142D01*
X142100000Y-90634285D01*
X142057142Y-90548571D01*
X142057142Y-90205714D01*
X142100000Y-90120000D01*
X142185714Y-90077142D01*
X142357142Y-90077142D01*
X142442857Y-90120000D01*
X142485714Y-90205714D01*
X142485714Y-90291428D01*
X142057142Y-90377142D01*
X124812380Y-103316666D02*
X124336190Y-103650000D01*
X124812380Y-103888095D02*
X123812380Y-103888095D01*
X123812380Y-103507142D01*
X123860000Y-103411904D01*
X123907619Y-103364285D01*
X124002857Y-103316666D01*
X124145714Y-103316666D01*
X124240952Y-103364285D01*
X124288571Y-103411904D01*
X124336190Y-103507142D01*
X124336190Y-103888095D01*
X124812380Y-102364285D02*
X124812380Y-102935714D01*
X124812380Y-102650000D02*
X123812380Y-102650000D01*
X123955238Y-102745238D01*
X124050476Y-102840476D01*
X124098095Y-102935714D01*
X127556666Y-91062380D02*
X127556666Y-91776666D01*
X127509047Y-91919523D01*
X127413809Y-92014761D01*
X127270952Y-92062380D01*
X127175714Y-92062380D01*
X128556666Y-92062380D02*
X127985238Y-92062380D01*
X128270952Y-92062380D02*
X128270952Y-91062380D01*
X128175714Y-91205238D01*
X128080476Y-91300476D01*
X127985238Y-91348095D01*
X126523333Y-101267142D02*
X126475714Y-101314761D01*
X126332857Y-101362380D01*
X126237619Y-101362380D01*
X126094761Y-101314761D01*
X125999523Y-101219523D01*
X125951904Y-101124285D01*
X125904285Y-100933809D01*
X125904285Y-100790952D01*
X125951904Y-100600476D01*
X125999523Y-100505238D01*
X126094761Y-100410000D01*
X126237619Y-100362380D01*
X126332857Y-100362380D01*
X126475714Y-100410000D01*
X126523333Y-100457619D01*
X127475714Y-101362380D02*
X126904285Y-101362380D01*
X127190000Y-101362380D02*
X127190000Y-100362380D01*
X127094761Y-100505238D01*
X126999523Y-100600476D01*
X126904285Y-100648095D01*
D11*
X126984724Y-102567500D02*
X126475276Y-102567500D01*
X126984724Y-103612500D02*
X126475276Y-103612500D01*
X127401252Y-101820000D02*
X125978748Y-101820000D01*
X127401252Y-100000000D02*
X125978748Y-100000000D01*
D13*
X123020000Y-110770000D02*
G75*
G03*
X123020000Y-110770000I-150000J0D01*
G01*
%LPC*%
D14*
X127642500Y-103090000D03*
X125817500Y-103090000D03*
D15*
X140021496Y-105950007D03*
X138246496Y-104700007D03*
X138246496Y-107250007D03*
X140021496Y-95800007D03*
X138246496Y-102150007D03*
X138246496Y-99625007D03*
X138246496Y-97075007D03*
X140021496Y-103425007D03*
X140021496Y-98325007D03*
X140046496Y-100875007D03*
X138246496Y-94525007D03*
X132315000Y-97110000D03*
X130315000Y-97110000D03*
X128315000Y-97110000D03*
X133340000Y-95110000D03*
X131315000Y-95110000D03*
X129340000Y-95110000D03*
X127340000Y-95110000D03*
X132840000Y-93110000D03*
X129815000Y-93110000D03*
X127840000Y-93110000D03*
D16*
X130340000Y-89810000D03*
D17*
X128252500Y-100910000D03*
X125127500Y-100910000D03*
D18*
X123440000Y-108840000D03*
X125840000Y-106840000D03*
X131340000Y-106840000D03*
X135040000Y-108840000D03*
X129540000Y-108840000D03*
M02*
