G04 #@! TF.GenerationSoftware,KiCad,Pcbnew,(6.0.6-0)*
G04 #@! TF.CreationDate,2023-01-05T22:31:34-05:00*
G04 #@! TF.ProjectId,10DIN2VGA,31304449-4e32-4564-9741-2e6b69636164,1.0*
G04 #@! TF.SameCoordinates,Original*
G04 #@! TF.FileFunction,Copper,L1,Top*
G04 #@! TF.FilePolarity,Positive*
%FSLAX46Y46*%
G04 Gerber Fmt 4.6, Leading zero omitted, Abs format (unit mm)*
G04 Created by KiCad (PCBNEW (6.0.6-0)) date 2023-01-05 22:31:34*
%MOMM*%
%LPD*%
G01*
G04 APERTURE LIST*
G04 Aperture macros list*
%AMRoundRect*
0 Rectangle with rounded corners*
0 $1 Rounding radius*
0 $2 $3 $4 $5 $6 $7 $8 $9 X,Y pos of 4 corners*
0 Add a 4 corners polygon primitive as box body*
4,1,4,$2,$3,$4,$5,$6,$7,$8,$9,$2,$3,0*
0 Add four circle primitives for the rounded corners*
1,1,$1+$1,$2,$3*
1,1,$1+$1,$4,$5*
1,1,$1+$1,$6,$7*
1,1,$1+$1,$8,$9*
0 Add four rect primitives between the rounded corners*
20,1,$1+$1,$2,$3,$4,$5,0*
20,1,$1+$1,$4,$5,$6,$7,0*
20,1,$1+$1,$6,$7,$8,$9,0*
20,1,$1+$1,$8,$9,$2,$3,0*%
G04 Aperture macros list end*
G04 #@! TA.AperFunction,SMDPad,CuDef*
%ADD10RoundRect,0.237500X0.250000X0.237500X-0.250000X0.237500X-0.250000X-0.237500X0.250000X-0.237500X0*%
G04 #@! TD*
G04 #@! TA.AperFunction,ComponentPad*
%ADD11C,1.500000*%
G04 #@! TD*
G04 #@! TA.AperFunction,ComponentPad*
%ADD12R,4.000000X1.500000*%
G04 #@! TD*
G04 #@! TA.AperFunction,SMDPad,CuDef*
%ADD13RoundRect,0.250000X0.412500X0.650000X-0.412500X0.650000X-0.412500X-0.650000X0.412500X-0.650000X0*%
G04 #@! TD*
G04 #@! TA.AperFunction,ComponentPad*
%ADD14O,1.508000X3.016000*%
G04 #@! TD*
G04 #@! TA.AperFunction,ViaPad*
%ADD15C,0.700000*%
G04 #@! TD*
G04 #@! TA.AperFunction,Conductor*
%ADD16C,0.250000*%
G04 #@! TD*
G04 APERTURE END LIST*
D10*
X127642500Y-103090000D03*
X125817500Y-103090000D03*
D11*
X140021496Y-105950007D03*
X138246496Y-104700007D03*
X138246496Y-107250007D03*
X140021496Y-95800007D03*
X138246496Y-102150007D03*
X138246496Y-99625007D03*
X138246496Y-97075007D03*
X140021496Y-103425007D03*
X140021496Y-98325007D03*
X140046496Y-100875007D03*
X138246496Y-94525007D03*
X132315000Y-97110000D03*
X130315000Y-97110000D03*
X128315000Y-97110000D03*
X133340000Y-95110000D03*
X131315000Y-95110000D03*
X129340000Y-95110000D03*
X127340000Y-95110000D03*
X132840000Y-93110000D03*
X129815000Y-93110000D03*
X127840000Y-93110000D03*
D12*
X130340000Y-89810000D03*
D13*
X128252500Y-100910000D03*
X125127500Y-100910000D03*
D14*
X123440000Y-108840000D03*
X125840000Y-106840000D03*
X131340000Y-106840000D03*
X135040000Y-108840000D03*
X129540000Y-108840000D03*
D15*
X139180000Y-91530000D03*
X141350000Y-102430000D03*
X136260000Y-93190000D03*
X133480000Y-108070000D03*
X133130000Y-98880000D03*
X127520000Y-98880000D03*
X132820000Y-105660000D03*
X125150000Y-94830000D03*
X141330000Y-99570000D03*
X143575000Y-90975000D03*
X128825000Y-92000000D03*
X143175000Y-106875000D03*
X135500000Y-94850000D03*
X131150000Y-109190000D03*
X128660000Y-105660000D03*
X130950000Y-99925000D03*
X141025000Y-108825000D03*
X134500000Y-90220000D03*
X128250000Y-100110000D03*
X136475000Y-90900000D03*
X135250000Y-91900000D03*
X124525000Y-97925000D03*
X127550000Y-106280000D03*
X134650000Y-100220000D03*
X143170000Y-104300000D03*
X143150000Y-94850000D03*
X141730000Y-91340000D03*
X142130000Y-93190000D03*
X143160000Y-99570000D03*
X141440000Y-112075000D03*
X126810000Y-103640000D03*
D16*
X128250000Y-100110000D02*
X128250000Y-100910000D01*
X140700000Y-95070000D02*
X140171496Y-95598504D01*
X140700000Y-91825000D02*
X140700000Y-95070000D01*
X139740000Y-90865000D02*
X140700000Y-91825000D01*
X136475000Y-90900000D02*
X136510000Y-90865000D01*
X136510000Y-90865000D02*
X139740000Y-90865000D01*
X140171496Y-95598504D02*
X140171496Y-95800000D01*
X138121496Y-102021496D02*
X138121496Y-102150000D01*
X136290000Y-94440000D02*
X136290000Y-100190000D01*
X131315000Y-95110000D02*
X131550000Y-94875000D01*
X136290000Y-100190000D02*
X138121496Y-102021496D01*
X131550000Y-94875000D02*
X131550000Y-92175000D01*
X131550000Y-92175000D02*
X132179531Y-91545469D01*
X133395469Y-91545469D02*
X136290000Y-94440000D01*
X132179531Y-91545469D02*
X133395469Y-91545469D01*
X136900000Y-98270000D02*
X138121496Y-99491496D01*
X136190000Y-91900000D02*
X136900000Y-92610000D01*
X136900000Y-92610000D02*
X136900000Y-98270000D01*
X138121496Y-99491496D02*
X138121496Y-99620000D01*
X135250000Y-91900000D02*
X136190000Y-91900000D01*
X127340000Y-95110000D02*
X124525000Y-97925000D01*
X131875000Y-99250000D02*
X131875000Y-103545000D01*
X131875000Y-103545000D02*
X127620000Y-107800000D01*
X127620000Y-107800000D02*
X125970000Y-107800000D01*
X125970000Y-107800000D02*
X125840000Y-107670000D01*
X125840000Y-107670000D02*
X125840000Y-106840000D01*
X130315000Y-97690000D02*
X131875000Y-99250000D01*
X130315000Y-97110000D02*
X130315000Y-97690000D01*
X127550000Y-106280000D02*
X127550000Y-105090000D01*
X128315000Y-97825000D02*
X128315000Y-97110000D01*
X129825000Y-99335000D02*
X128315000Y-97825000D01*
X129825000Y-102815000D02*
X129825000Y-99335000D01*
X127550000Y-105090000D02*
X129825000Y-102815000D01*
X135270000Y-102228849D02*
X136710000Y-103668849D01*
X133780000Y-93110000D02*
X132840000Y-93110000D01*
X134650000Y-100220000D02*
X135270000Y-100840000D01*
X135270000Y-100840000D02*
X135270000Y-102228849D01*
X138174206Y-110900000D02*
X140700000Y-110900000D01*
X141950000Y-105520000D02*
X143170000Y-104300000D01*
X140700000Y-110900000D02*
X141950000Y-109650000D01*
X141950000Y-109650000D02*
X141950000Y-105520000D01*
X136710000Y-103668849D02*
X136710000Y-109435794D01*
X134650000Y-93980000D02*
X133780000Y-93110000D01*
X136710000Y-109435794D02*
X138174206Y-110900000D01*
X134650000Y-100220000D02*
X134650000Y-93980000D01*
X143640000Y-94360000D02*
X143150000Y-94850000D01*
X141730000Y-91340000D02*
X142530000Y-91340000D01*
X134825000Y-90950000D02*
X131975000Y-90950000D01*
X143640000Y-92450000D02*
X143640000Y-94360000D01*
X141730000Y-91340000D02*
X140180000Y-89790000D01*
X135985000Y-89790000D02*
X134825000Y-90950000D01*
X131975000Y-90950000D02*
X129815000Y-93110000D01*
X140180000Y-89790000D02*
X135985000Y-89790000D01*
X142530000Y-91340000D02*
X143640000Y-92450000D01*
X141925000Y-98335000D02*
X143160000Y-99570000D01*
X141925000Y-93395000D02*
X141925000Y-98335000D01*
X142130000Y-93190000D02*
X141925000Y-93395000D01*
X125127500Y-100910000D02*
X125127500Y-102407500D01*
X125127500Y-102407500D02*
X125810000Y-103090000D01*
X141440000Y-112075000D02*
X126235000Y-112075000D01*
X127360000Y-103090000D02*
X127640000Y-103090000D01*
X124640000Y-110480000D02*
X124640000Y-104990000D01*
X126810000Y-103640000D02*
X127360000Y-103090000D01*
X126060000Y-104390000D02*
X126810000Y-103640000D01*
X125240000Y-104390000D02*
X126060000Y-104390000D01*
X124640000Y-104990000D02*
X125240000Y-104390000D01*
X126235000Y-112075000D02*
X124640000Y-110480000D01*
G04 #@! TA.AperFunction,Conductor*
G36*
X142140644Y-88992451D02*
G01*
X142141479Y-88992640D01*
X142150257Y-88994628D01*
X142158927Y-88992636D01*
X142167824Y-88992622D01*
X142167824Y-88992640D01*
X142175931Y-88991955D01*
X142300540Y-88999091D01*
X142411595Y-89005451D01*
X142421071Y-89006571D01*
X142673719Y-89052080D01*
X142682988Y-89054335D01*
X142928297Y-89130011D01*
X142937235Y-89133373D01*
X143009814Y-89165806D01*
X143171598Y-89238102D01*
X143180066Y-89242518D01*
X143400084Y-89374780D01*
X143407953Y-89380184D01*
X143610398Y-89538039D01*
X143617551Y-89544349D01*
X143695421Y-89621890D01*
X143799451Y-89725481D01*
X143805799Y-89732617D01*
X143830043Y-89763439D01*
X143964506Y-89934385D01*
X143969947Y-89942237D01*
X144051010Y-90075801D01*
X144103134Y-90161685D01*
X144107588Y-90170138D01*
X144213310Y-90404063D01*
X144216711Y-90412991D01*
X144293418Y-90657954D01*
X144295717Y-90667227D01*
X144342294Y-90919674D01*
X144343456Y-90929157D01*
X144357921Y-91164302D01*
X144357265Y-91172298D01*
X144357365Y-91172298D01*
X144357358Y-91181195D01*
X144355372Y-91189866D01*
X144357343Y-91198539D01*
X144357343Y-91198541D01*
X144357536Y-91199389D01*
X144359500Y-91216895D01*
X144359500Y-110522506D01*
X144357448Y-110540393D01*
X144357387Y-110540657D01*
X144355373Y-110549323D01*
X144357316Y-110558004D01*
X144357279Y-110566898D01*
X144357271Y-110566898D01*
X144357912Y-110575015D01*
X144342973Y-110813968D01*
X144341814Y-110823381D01*
X144294590Y-111079175D01*
X144292312Y-111088379D01*
X144275768Y-111141355D01*
X144214776Y-111336660D01*
X144211411Y-111345528D01*
X144147093Y-111488469D01*
X144111970Y-111566526D01*
X144104674Y-111582740D01*
X144100272Y-111591137D01*
X144090811Y-111606814D01*
X143965877Y-111813845D01*
X143960498Y-111821657D01*
X143800379Y-112026659D01*
X143794102Y-112033769D01*
X143610586Y-112218088D01*
X143603503Y-112224396D01*
X143583100Y-112240476D01*
X143424972Y-112365099D01*
X143399205Y-112385406D01*
X143391419Y-112390818D01*
X143283200Y-112456769D01*
X143169301Y-112526182D01*
X143160921Y-112530622D01*
X142924177Y-112638393D01*
X142915324Y-112641797D01*
X142667383Y-112720416D01*
X142658187Y-112722735D01*
X142402601Y-112771076D01*
X142393192Y-112772276D01*
X142326404Y-112776744D01*
X142154693Y-112788231D01*
X142146757Y-112787624D01*
X142146757Y-112787724D01*
X142137863Y-112787768D01*
X142129179Y-112785833D01*
X142120442Y-112787872D01*
X142120360Y-112787891D01*
X142102403Y-112789959D01*
X132245862Y-112789722D01*
X123045777Y-112789501D01*
X123028989Y-112787696D01*
X123027034Y-112787271D01*
X123027032Y-112787271D01*
X123018339Y-112785380D01*
X123009686Y-112787446D01*
X123000790Y-112787536D01*
X123000781Y-112786668D01*
X122992849Y-112787251D01*
X122883404Y-112777457D01*
X122867756Y-112774442D01*
X122745909Y-112737895D01*
X122731179Y-112731798D01*
X122619143Y-112671527D01*
X122605936Y-112662595D01*
X122508287Y-112581059D01*
X122497143Y-112569658D01*
X122462491Y-112526182D01*
X122417852Y-112470174D01*
X122409225Y-112456769D01*
X122369637Y-112378982D01*
X122351525Y-112343394D01*
X122345765Y-112328530D01*
X122342190Y-112315540D01*
X122312004Y-112205877D01*
X122309345Y-112190157D01*
X122302069Y-112080832D01*
X122301947Y-112072711D01*
X122302255Y-112064257D01*
X122304548Y-112055659D01*
X122301919Y-112041831D01*
X122300529Y-112027076D01*
X122300528Y-111659170D01*
X122300521Y-109831626D01*
X122319003Y-109780847D01*
X122365803Y-109753827D01*
X122419021Y-109763211D01*
X122454906Y-109808003D01*
X122511232Y-109987738D01*
X122514370Y-109995059D01*
X122609376Y-110166456D01*
X122613917Y-110172989D01*
X122741443Y-110321775D01*
X122747216Y-110327273D01*
X122902053Y-110447377D01*
X122908811Y-110451600D01*
X123084635Y-110538116D01*
X123092104Y-110540893D01*
X123176521Y-110562882D01*
X123187825Y-110561813D01*
X123189516Y-110560098D01*
X123190000Y-110557880D01*
X123190000Y-110557690D01*
X123690000Y-110557690D01*
X123693884Y-110568361D01*
X123696043Y-110569607D01*
X123878635Y-110502426D01*
X123885802Y-110498931D01*
X124052343Y-110395671D01*
X124058651Y-110390813D01*
X124201039Y-110256164D01*
X124206240Y-110250139D01*
X124210788Y-110243643D01*
X124255054Y-110212648D01*
X124308888Y-110217358D01*
X124347099Y-110255570D01*
X124354500Y-110288956D01*
X124354500Y-110428526D01*
X124354153Y-110433255D01*
X124352671Y-110437571D01*
X124352945Y-110444862D01*
X124354444Y-110484798D01*
X124354500Y-110487762D01*
X124354500Y-110506552D01*
X124355166Y-110510129D01*
X124355355Y-110512172D01*
X124355633Y-110516469D01*
X124356220Y-110532094D01*
X124356661Y-110543853D01*
X124361640Y-110555442D01*
X124366717Y-110572155D01*
X124367691Y-110577384D01*
X124367692Y-110577388D01*
X124369028Y-110584559D01*
X124372855Y-110590767D01*
X124382888Y-110607045D01*
X124388220Y-110617310D01*
X124398645Y-110641574D01*
X124402457Y-110646215D01*
X124407848Y-110651606D01*
X124419237Y-110666014D01*
X124421007Y-110668886D01*
X124421010Y-110668889D01*
X124424837Y-110675098D01*
X124445782Y-110691025D01*
X124447722Y-110692500D01*
X124455765Y-110699523D01*
X125996718Y-112240476D01*
X125999822Y-112244071D01*
X126001826Y-112248171D01*
X126007173Y-112253131D01*
X126036495Y-112280331D01*
X126038630Y-112282388D01*
X126051896Y-112295654D01*
X126054902Y-112297716D01*
X126056459Y-112299010D01*
X126059694Y-112301851D01*
X126079800Y-112320502D01*
X126090746Y-112324869D01*
X126091513Y-112325175D01*
X126106925Y-112333404D01*
X126117328Y-112340541D01*
X126129359Y-112343396D01*
X126143024Y-112346639D01*
X126154052Y-112350126D01*
X126178586Y-112359914D01*
X126184563Y-112360500D01*
X126192188Y-112360500D01*
X126210429Y-112362635D01*
X126220812Y-112365099D01*
X126228042Y-112364115D01*
X126228043Y-112364115D01*
X126249298Y-112361222D01*
X126259952Y-112360500D01*
X140976239Y-112360500D01*
X141027019Y-112378982D01*
X141036712Y-112388667D01*
X141096236Y-112459479D01*
X141217964Y-112540508D01*
X141357541Y-112584116D01*
X141407056Y-112585023D01*
X141498120Y-112586692D01*
X141498121Y-112586692D01*
X141503747Y-112586795D01*
X141644829Y-112548332D01*
X141769445Y-112471818D01*
X141773218Y-112467650D01*
X141773220Y-112467648D01*
X141863799Y-112367577D01*
X141863800Y-112367576D01*
X141867576Y-112363404D01*
X141931335Y-112231805D01*
X141932582Y-112224396D01*
X141955090Y-112090610D01*
X141955090Y-112090607D01*
X141955596Y-112087601D01*
X141955750Y-112075000D01*
X141935020Y-111930246D01*
X141925861Y-111910102D01*
X141876827Y-111802257D01*
X141876826Y-111802255D01*
X141874495Y-111797129D01*
X141870820Y-111792864D01*
X141870818Y-111792861D01*
X141782716Y-111690615D01*
X141779041Y-111686350D01*
X141737107Y-111659170D01*
X141661054Y-111609874D01*
X141661051Y-111609872D01*
X141656332Y-111606814D01*
X141575835Y-111582740D01*
X141521621Y-111566526D01*
X141521619Y-111566526D01*
X141516233Y-111564915D01*
X141443711Y-111564472D01*
X141375630Y-111564056D01*
X141375628Y-111564056D01*
X141370005Y-111564022D01*
X141229404Y-111604206D01*
X141105732Y-111682237D01*
X141034584Y-111762797D01*
X140987117Y-111788622D01*
X140975372Y-111789500D01*
X126385980Y-111789500D01*
X126335200Y-111771018D01*
X126330119Y-111766361D01*
X124948639Y-110384881D01*
X124925801Y-110335905D01*
X124925500Y-110329020D01*
X124925500Y-109641924D01*
X128625500Y-109641924D01*
X128625717Y-109643985D01*
X128625717Y-109643992D01*
X128638906Y-109769474D01*
X128640557Y-109785182D01*
X128699961Y-109968009D01*
X128702030Y-109971592D01*
X128702031Y-109971595D01*
X128715578Y-109995059D01*
X128796079Y-110134490D01*
X128924710Y-110277349D01*
X129080231Y-110390342D01*
X129084020Y-110392029D01*
X129252064Y-110466848D01*
X129252067Y-110466849D01*
X129255847Y-110468532D01*
X129259893Y-110469392D01*
X129259896Y-110469393D01*
X129439838Y-110507641D01*
X129439843Y-110507642D01*
X129443882Y-110508500D01*
X129636118Y-110508500D01*
X129640157Y-110507642D01*
X129640162Y-110507641D01*
X129820108Y-110469392D01*
X129820110Y-110469391D01*
X129824153Y-110468532D01*
X129827935Y-110466848D01*
X129995989Y-110392025D01*
X129995992Y-110392023D01*
X129999768Y-110390342D01*
X130007285Y-110384881D01*
X130151937Y-110279785D01*
X130151936Y-110279785D01*
X130155290Y-110277349D01*
X130283921Y-110134490D01*
X130364422Y-109995059D01*
X130377969Y-109971595D01*
X130377970Y-109971592D01*
X130380039Y-109968009D01*
X130439443Y-109785182D01*
X130441094Y-109769474D01*
X130454283Y-109643992D01*
X130454283Y-109643985D01*
X130454500Y-109641924D01*
X134125500Y-109641924D01*
X134125717Y-109643985D01*
X134125717Y-109643992D01*
X134138906Y-109769474D01*
X134140557Y-109785182D01*
X134199961Y-109968009D01*
X134202030Y-109971592D01*
X134202031Y-109971595D01*
X134215578Y-109995059D01*
X134296079Y-110134490D01*
X134424710Y-110277349D01*
X134580231Y-110390342D01*
X134584020Y-110392029D01*
X134752064Y-110466848D01*
X134752067Y-110466849D01*
X134755847Y-110468532D01*
X134759893Y-110469392D01*
X134759896Y-110469393D01*
X134939838Y-110507641D01*
X134939843Y-110507642D01*
X134943882Y-110508500D01*
X135136118Y-110508500D01*
X135140157Y-110507642D01*
X135140162Y-110507641D01*
X135320108Y-110469392D01*
X135320110Y-110469391D01*
X135324153Y-110468532D01*
X135327935Y-110466848D01*
X135495989Y-110392025D01*
X135495992Y-110392023D01*
X135499768Y-110390342D01*
X135507285Y-110384881D01*
X135651937Y-110279785D01*
X135651936Y-110279785D01*
X135655290Y-110277349D01*
X135783921Y-110134490D01*
X135864422Y-109995059D01*
X135877969Y-109971595D01*
X135877970Y-109971592D01*
X135880039Y-109968009D01*
X135939443Y-109785182D01*
X135941094Y-109769474D01*
X135954283Y-109643992D01*
X135954283Y-109643985D01*
X135954500Y-109641924D01*
X135954500Y-108038076D01*
X135953878Y-108032152D01*
X135939876Y-107898936D01*
X135939876Y-107898934D01*
X135939443Y-107894818D01*
X135880039Y-107711991D01*
X135830373Y-107625966D01*
X135785992Y-107549097D01*
X135783921Y-107545510D01*
X135756000Y-107514500D01*
X135658064Y-107405732D01*
X135655290Y-107402651D01*
X135499769Y-107289658D01*
X135419966Y-107254127D01*
X135327936Y-107213152D01*
X135327933Y-107213151D01*
X135324153Y-107211468D01*
X135320107Y-107210608D01*
X135320104Y-107210607D01*
X135140162Y-107172359D01*
X135140157Y-107172358D01*
X135136118Y-107171500D01*
X134943882Y-107171500D01*
X134939843Y-107172358D01*
X134939838Y-107172359D01*
X134759892Y-107210608D01*
X134759890Y-107210609D01*
X134755847Y-107211468D01*
X134752070Y-107213150D01*
X134752069Y-107213150D01*
X134584011Y-107287975D01*
X134584008Y-107287977D01*
X134580232Y-107289658D01*
X134424710Y-107402651D01*
X134421936Y-107405732D01*
X134324001Y-107514500D01*
X134296079Y-107545510D01*
X134294008Y-107549097D01*
X134249628Y-107625966D01*
X134199961Y-107711991D01*
X134140557Y-107894818D01*
X134140124Y-107898934D01*
X134140124Y-107898936D01*
X134126123Y-108032152D01*
X134125500Y-108038076D01*
X134125500Y-109641924D01*
X130454500Y-109641924D01*
X130454500Y-108182023D01*
X130472982Y-108131243D01*
X130519782Y-108104223D01*
X130573000Y-108113607D01*
X130595956Y-108134277D01*
X130596079Y-108134490D01*
X130598850Y-108137567D01*
X130598851Y-108137569D01*
X130620910Y-108162068D01*
X130724710Y-108277349D01*
X130880231Y-108390342D01*
X130884020Y-108392029D01*
X131052064Y-108466848D01*
X131052067Y-108466849D01*
X131055847Y-108468532D01*
X131059893Y-108469392D01*
X131059896Y-108469393D01*
X131239838Y-108507641D01*
X131239843Y-108507642D01*
X131243882Y-108508500D01*
X131436118Y-108508500D01*
X131440157Y-108507642D01*
X131440162Y-108507641D01*
X131620108Y-108469392D01*
X131620110Y-108469391D01*
X131624153Y-108468532D01*
X131627935Y-108466848D01*
X131795989Y-108392025D01*
X131795992Y-108392023D01*
X131799768Y-108390342D01*
X131955290Y-108277349D01*
X132059090Y-108162068D01*
X132081148Y-108137570D01*
X132081149Y-108137569D01*
X132083921Y-108134490D01*
X132109455Y-108090264D01*
X132177969Y-107971595D01*
X132177970Y-107971592D01*
X132180039Y-107968009D01*
X132239443Y-107785182D01*
X132240284Y-107777182D01*
X132254283Y-107643992D01*
X132254283Y-107643985D01*
X132254500Y-107641924D01*
X132254500Y-106038076D01*
X132250274Y-105997861D01*
X132239876Y-105898936D01*
X132239876Y-105898934D01*
X132239443Y-105894818D01*
X132180039Y-105711991D01*
X132156362Y-105670980D01*
X132085992Y-105549097D01*
X132083921Y-105545510D01*
X132073820Y-105534291D01*
X131958064Y-105405732D01*
X131955290Y-105402651D01*
X131799769Y-105289658D01*
X131690961Y-105241213D01*
X131627936Y-105213152D01*
X131627933Y-105213151D01*
X131624153Y-105211468D01*
X131620107Y-105210608D01*
X131620104Y-105210607D01*
X131440162Y-105172359D01*
X131440157Y-105172358D01*
X131436118Y-105171500D01*
X131243882Y-105171500D01*
X131239843Y-105172358D01*
X131239838Y-105172359D01*
X131059892Y-105210608D01*
X131059890Y-105210609D01*
X131055847Y-105211468D01*
X131052070Y-105213150D01*
X131052069Y-105213150D01*
X130884011Y-105287975D01*
X130884008Y-105287977D01*
X130880232Y-105289658D01*
X130876884Y-105292090D01*
X130876883Y-105292091D01*
X130808934Y-105341459D01*
X130724710Y-105402651D01*
X130721936Y-105405732D01*
X130606181Y-105534291D01*
X130596079Y-105545510D01*
X130594008Y-105549097D01*
X130523639Y-105670980D01*
X130499961Y-105711991D01*
X130440557Y-105894818D01*
X130440124Y-105898934D01*
X130440124Y-105898936D01*
X130429727Y-105997861D01*
X130425500Y-106038076D01*
X130425500Y-107497977D01*
X130407018Y-107548757D01*
X130360218Y-107575777D01*
X130307000Y-107566393D01*
X130284044Y-107545723D01*
X130283921Y-107545510D01*
X130256000Y-107514500D01*
X130158064Y-107405732D01*
X130155290Y-107402651D01*
X129999769Y-107289658D01*
X129919966Y-107254127D01*
X129827936Y-107213152D01*
X129827933Y-107213151D01*
X129824153Y-107211468D01*
X129820107Y-107210608D01*
X129820104Y-107210607D01*
X129640162Y-107172359D01*
X129640157Y-107172358D01*
X129636118Y-107171500D01*
X129443882Y-107171500D01*
X129439843Y-107172358D01*
X129439838Y-107172359D01*
X129259892Y-107210608D01*
X129259890Y-107210609D01*
X129255847Y-107211468D01*
X129252070Y-107213150D01*
X129252069Y-107213150D01*
X129084011Y-107287975D01*
X129084008Y-107287977D01*
X129080232Y-107289658D01*
X128924710Y-107402651D01*
X128921936Y-107405732D01*
X128824001Y-107514500D01*
X128796079Y-107545510D01*
X128794008Y-107549097D01*
X128749628Y-107625966D01*
X128699961Y-107711991D01*
X128640557Y-107894818D01*
X128640124Y-107898934D01*
X128640124Y-107898936D01*
X128626123Y-108032152D01*
X128625500Y-108038076D01*
X128625500Y-109641924D01*
X124925500Y-109641924D01*
X124925500Y-108133871D01*
X124943982Y-108083091D01*
X124990782Y-108056071D01*
X125044000Y-108065455D01*
X125072916Y-108094371D01*
X125096079Y-108134490D01*
X125098851Y-108137569D01*
X125098852Y-108137570D01*
X125120910Y-108162068D01*
X125224710Y-108277349D01*
X125380231Y-108390342D01*
X125384020Y-108392029D01*
X125552064Y-108466848D01*
X125552067Y-108466849D01*
X125555847Y-108468532D01*
X125559893Y-108469392D01*
X125559896Y-108469393D01*
X125739838Y-108507641D01*
X125739843Y-108507642D01*
X125743882Y-108508500D01*
X125936118Y-108508500D01*
X125940157Y-108507642D01*
X125940162Y-108507641D01*
X126120108Y-108469392D01*
X126120110Y-108469391D01*
X126124153Y-108468532D01*
X126127935Y-108466848D01*
X126295989Y-108392025D01*
X126295992Y-108392023D01*
X126299768Y-108390342D01*
X126455290Y-108277349D01*
X126559090Y-108162068D01*
X126581148Y-108137570D01*
X126581149Y-108137569D01*
X126583921Y-108134490D01*
X126589400Y-108125000D01*
X126630796Y-108090264D01*
X126657816Y-108085500D01*
X127568526Y-108085500D01*
X127573255Y-108085847D01*
X127577571Y-108087329D01*
X127624799Y-108085556D01*
X127627762Y-108085500D01*
X127646552Y-108085500D01*
X127650129Y-108084834D01*
X127652172Y-108084645D01*
X127656469Y-108084367D01*
X127676563Y-108083613D01*
X127676565Y-108083613D01*
X127683853Y-108083339D01*
X127695442Y-108078360D01*
X127712155Y-108073283D01*
X127717384Y-108072309D01*
X127717388Y-108072308D01*
X127724559Y-108070972D01*
X127747045Y-108057112D01*
X127757310Y-108051780D01*
X127759094Y-108051014D01*
X127781574Y-108041355D01*
X127786215Y-108037543D01*
X127791606Y-108032152D01*
X127806014Y-108020763D01*
X127808886Y-108018993D01*
X127808889Y-108018990D01*
X127815098Y-108015163D01*
X127832500Y-107992278D01*
X127839523Y-107984235D01*
X132040476Y-103783282D01*
X132044071Y-103780178D01*
X132048171Y-103778174D01*
X132080331Y-103743505D01*
X132082388Y-103741370D01*
X132095654Y-103728104D01*
X132097716Y-103725098D01*
X132099010Y-103723541D01*
X132101852Y-103720305D01*
X132115540Y-103705549D01*
X132120502Y-103700200D01*
X132125175Y-103688487D01*
X132133404Y-103673075D01*
X132140541Y-103662672D01*
X132146639Y-103636976D01*
X132150126Y-103625948D01*
X132159914Y-103601414D01*
X132160500Y-103595437D01*
X132160500Y-103587812D01*
X132162635Y-103569571D01*
X132163414Y-103566288D01*
X132165099Y-103559188D01*
X132161222Y-103530702D01*
X132160500Y-103520048D01*
X132160500Y-102522927D01*
X132178982Y-102472147D01*
X132225782Y-102445127D01*
X132279000Y-102454511D01*
X132311098Y-102489540D01*
X132372486Y-102621186D01*
X132375512Y-102627676D01*
X132377491Y-102630503D01*
X132377492Y-102630504D01*
X132496671Y-102800709D01*
X132503023Y-102809781D01*
X132660219Y-102966977D01*
X132842323Y-103094488D01*
X133043804Y-103188440D01*
X133258537Y-103245978D01*
X133261973Y-103246279D01*
X133261975Y-103246279D01*
X133476559Y-103265052D01*
X133480000Y-103265353D01*
X133483441Y-103265052D01*
X133698025Y-103246279D01*
X133698027Y-103246279D01*
X133701463Y-103245978D01*
X133916196Y-103188440D01*
X134117677Y-103094488D01*
X134299781Y-102966977D01*
X134456977Y-102809781D01*
X134463330Y-102800709D01*
X134582508Y-102630504D01*
X134582509Y-102630503D01*
X134584488Y-102627676D01*
X134587515Y-102621186D01*
X134651982Y-102482935D01*
X134678440Y-102426196D01*
X134735978Y-102211463D01*
X134736950Y-102200360D01*
X134755052Y-101993441D01*
X134755353Y-101990000D01*
X134753647Y-101970499D01*
X134736279Y-101771975D01*
X134736279Y-101771973D01*
X134735978Y-101768537D01*
X134678440Y-101553804D01*
X134611171Y-101409546D01*
X134585947Y-101355452D01*
X134585945Y-101355449D01*
X134584488Y-101352324D01*
X134556835Y-101312831D01*
X134458959Y-101173049D01*
X134458956Y-101173046D01*
X134456977Y-101170219D01*
X134299781Y-101013023D01*
X134117677Y-100885512D01*
X133916196Y-100791560D01*
X133701463Y-100734022D01*
X133698027Y-100733721D01*
X133698025Y-100733721D01*
X133483441Y-100714948D01*
X133480000Y-100714647D01*
X133476559Y-100714948D01*
X133261975Y-100733721D01*
X133261973Y-100733721D01*
X133258537Y-100734022D01*
X133043804Y-100791560D01*
X132952440Y-100834164D01*
X132845452Y-100884053D01*
X132845449Y-100884055D01*
X132842324Y-100885512D01*
X132839501Y-100887489D01*
X132839496Y-100887492D01*
X132663049Y-101011041D01*
X132663046Y-101011044D01*
X132660219Y-101013023D01*
X132503023Y-101170219D01*
X132501044Y-101173046D01*
X132501041Y-101173049D01*
X132403165Y-101312831D01*
X132375512Y-101352324D01*
X132374055Y-101355449D01*
X132374053Y-101355452D01*
X132311098Y-101490460D01*
X132272887Y-101528671D01*
X132219053Y-101533381D01*
X132174787Y-101502385D01*
X132160500Y-101457073D01*
X132160500Y-99301473D01*
X132160847Y-99296744D01*
X132162329Y-99292428D01*
X132160556Y-99245200D01*
X132160500Y-99242237D01*
X132160500Y-99223448D01*
X132159834Y-99219871D01*
X132159645Y-99217828D01*
X132159367Y-99213531D01*
X132158613Y-99193437D01*
X132158613Y-99193435D01*
X132158339Y-99186147D01*
X132153360Y-99174558D01*
X132148283Y-99157845D01*
X132147309Y-99152616D01*
X132147308Y-99152612D01*
X132145972Y-99145441D01*
X132132112Y-99122955D01*
X132126780Y-99112690D01*
X132118555Y-99093547D01*
X132116355Y-99088426D01*
X132112543Y-99083785D01*
X132107152Y-99078394D01*
X132095763Y-99063986D01*
X132093993Y-99061114D01*
X132093990Y-99061111D01*
X132090163Y-99054902D01*
X132067279Y-99037500D01*
X132059235Y-99030477D01*
X130929075Y-97900317D01*
X130906237Y-97851341D01*
X130920223Y-97799143D01*
X130927818Y-97790557D01*
X130927599Y-97790360D01*
X131052894Y-97651206D01*
X131052895Y-97651205D01*
X131055667Y-97648126D01*
X131122576Y-97532237D01*
X131149295Y-97485959D01*
X131149296Y-97485956D01*
X131151365Y-97482373D01*
X131210509Y-97300346D01*
X131230515Y-97110000D01*
X131399485Y-97110000D01*
X131419491Y-97300346D01*
X131478635Y-97482373D01*
X131480704Y-97485956D01*
X131480705Y-97485959D01*
X131507424Y-97532237D01*
X131574333Y-97648126D01*
X131702401Y-97790360D01*
X131857242Y-97902859D01*
X131861031Y-97904546D01*
X132028307Y-97979023D01*
X132028310Y-97979024D01*
X132032090Y-97980707D01*
X132036133Y-97981566D01*
X132036138Y-97981568D01*
X132215259Y-98019641D01*
X132215264Y-98019642D01*
X132219303Y-98020500D01*
X132410697Y-98020500D01*
X132414736Y-98019642D01*
X132414741Y-98019641D01*
X132593862Y-97981568D01*
X132593867Y-97981566D01*
X132597910Y-97980707D01*
X132601690Y-97979024D01*
X132601693Y-97979023D01*
X132768969Y-97904546D01*
X132772758Y-97902859D01*
X132927599Y-97790360D01*
X133055667Y-97648126D01*
X133122576Y-97532237D01*
X133149295Y-97485959D01*
X133149296Y-97485956D01*
X133151365Y-97482373D01*
X133210509Y-97300346D01*
X133230515Y-97110000D01*
X133222166Y-97030565D01*
X133210942Y-96923772D01*
X133210942Y-96923770D01*
X133210509Y-96919654D01*
X133151365Y-96737627D01*
X133129092Y-96699048D01*
X133057738Y-96575461D01*
X133055667Y-96571874D01*
X132927599Y-96429640D01*
X132772758Y-96317141D01*
X132690383Y-96280465D01*
X132601693Y-96240977D01*
X132601690Y-96240976D01*
X132597910Y-96239293D01*
X132593867Y-96238434D01*
X132593862Y-96238432D01*
X132414741Y-96200359D01*
X132414736Y-96200358D01*
X132410697Y-96199500D01*
X132219303Y-96199500D01*
X132215264Y-96200358D01*
X132215259Y-96200359D01*
X132036135Y-96238433D01*
X132036133Y-96238434D01*
X132032090Y-96239293D01*
X132028313Y-96240975D01*
X132028312Y-96240975D01*
X131861022Y-96315458D01*
X131861019Y-96315460D01*
X131857243Y-96317141D01*
X131853895Y-96319573D01*
X131853894Y-96319574D01*
X131754560Y-96391744D01*
X131702401Y-96429640D01*
X131574333Y-96571874D01*
X131572262Y-96575461D01*
X131500909Y-96699048D01*
X131478635Y-96737627D01*
X131419491Y-96919654D01*
X131419058Y-96923770D01*
X131419058Y-96923772D01*
X131407834Y-97030565D01*
X131399485Y-97110000D01*
X131230515Y-97110000D01*
X131222166Y-97030565D01*
X131210942Y-96923772D01*
X131210942Y-96923770D01*
X131210509Y-96919654D01*
X131151365Y-96737627D01*
X131129092Y-96699048D01*
X131057738Y-96575461D01*
X131055667Y-96571874D01*
X130927599Y-96429640D01*
X130772758Y-96317141D01*
X130690383Y-96280465D01*
X130601693Y-96240977D01*
X130601690Y-96240976D01*
X130597910Y-96239293D01*
X130593867Y-96238434D01*
X130593862Y-96238432D01*
X130414741Y-96200359D01*
X130414736Y-96200358D01*
X130410697Y-96199500D01*
X130219303Y-96199500D01*
X130215264Y-96200358D01*
X130215259Y-96200359D01*
X130036135Y-96238433D01*
X130036133Y-96238434D01*
X130032090Y-96239293D01*
X130028313Y-96240975D01*
X130028312Y-96240975D01*
X129861022Y-96315458D01*
X129861019Y-96315460D01*
X129857243Y-96317141D01*
X129853895Y-96319573D01*
X129853894Y-96319574D01*
X129754560Y-96391744D01*
X129702401Y-96429640D01*
X129574333Y-96571874D01*
X129572262Y-96575461D01*
X129500909Y-96699048D01*
X129478635Y-96737627D01*
X129419491Y-96919654D01*
X129419058Y-96923770D01*
X129419058Y-96923772D01*
X129407834Y-97030565D01*
X129399485Y-97110000D01*
X129419491Y-97300346D01*
X129478635Y-97482373D01*
X129480704Y-97485956D01*
X129480705Y-97485959D01*
X129507424Y-97532237D01*
X129574333Y-97648126D01*
X129702401Y-97790360D01*
X129857242Y-97902859D01*
X129861031Y-97904546D01*
X130028307Y-97979023D01*
X130028310Y-97979024D01*
X130032090Y-97980707D01*
X130036133Y-97981566D01*
X130036138Y-97981568D01*
X130215256Y-98019640D01*
X130215258Y-98019640D01*
X130216408Y-98019885D01*
X130216409Y-98019885D01*
X130219303Y-98020500D01*
X130219155Y-98021195D01*
X130263674Y-98042432D01*
X131566361Y-99345119D01*
X131589199Y-99394095D01*
X131589500Y-99400980D01*
X131589500Y-103394020D01*
X131571018Y-103444800D01*
X131566361Y-103449881D01*
X127524881Y-107491361D01*
X127475905Y-107514199D01*
X127469020Y-107514500D01*
X126833500Y-107514500D01*
X126782720Y-107496018D01*
X126755700Y-107449218D01*
X126754500Y-107435500D01*
X126754500Y-106273699D01*
X127034288Y-106273699D01*
X127053249Y-106418695D01*
X127112143Y-106552542D01*
X127115765Y-106556851D01*
X127202613Y-106660169D01*
X127206236Y-106664479D01*
X127327964Y-106745508D01*
X127467541Y-106789116D01*
X127517056Y-106790023D01*
X127608120Y-106791692D01*
X127608121Y-106791692D01*
X127613747Y-106791795D01*
X127754829Y-106753332D01*
X127879445Y-106676818D01*
X127883218Y-106672650D01*
X127883220Y-106672648D01*
X127973799Y-106572577D01*
X127973800Y-106572576D01*
X127977576Y-106568404D01*
X128041335Y-106436805D01*
X128045321Y-106413116D01*
X128065090Y-106295610D01*
X128065090Y-106295607D01*
X128065596Y-106292601D01*
X128065750Y-106280000D01*
X128057416Y-106221805D01*
X128045818Y-106140816D01*
X128045817Y-106140814D01*
X128045020Y-106135246D01*
X128001784Y-106040153D01*
X127986827Y-106007257D01*
X127986826Y-106007255D01*
X127984495Y-106002129D01*
X127980820Y-105997864D01*
X127980818Y-105997861D01*
X127892716Y-105895615D01*
X127889041Y-105891350D01*
X127878064Y-105884235D01*
X127871530Y-105879999D01*
X127838972Y-105836870D01*
X127835500Y-105813708D01*
X127835500Y-105240980D01*
X127853982Y-105190200D01*
X127858639Y-105185119D01*
X129990476Y-103053282D01*
X129994071Y-103050178D01*
X129998171Y-103048174D01*
X130030331Y-103013505D01*
X130032388Y-103011370D01*
X130045654Y-102998104D01*
X130047716Y-102995098D01*
X130049010Y-102993541D01*
X130051852Y-102990305D01*
X130065540Y-102975549D01*
X130070502Y-102970200D01*
X130075175Y-102958487D01*
X130083404Y-102943075D01*
X130090541Y-102932672D01*
X130096639Y-102906973D01*
X130100129Y-102895938D01*
X130109914Y-102871414D01*
X130110500Y-102865437D01*
X130110500Y-102857807D01*
X130112635Y-102839566D01*
X130113413Y-102836287D01*
X130115098Y-102829188D01*
X130113591Y-102818111D01*
X130111222Y-102800709D01*
X130110500Y-102790055D01*
X130110500Y-99386473D01*
X130110847Y-99381744D01*
X130112329Y-99377428D01*
X130110556Y-99330200D01*
X130110500Y-99327237D01*
X130110500Y-99308448D01*
X130109834Y-99304871D01*
X130109645Y-99302828D01*
X130109367Y-99298531D01*
X130108613Y-99278437D01*
X130108613Y-99278435D01*
X130108339Y-99271147D01*
X130103360Y-99259558D01*
X130098283Y-99242845D01*
X130097309Y-99237616D01*
X130097308Y-99237612D01*
X130095972Y-99230441D01*
X130084207Y-99211354D01*
X130082112Y-99207955D01*
X130076780Y-99197690D01*
X130074953Y-99193437D01*
X130066355Y-99173426D01*
X130062543Y-99168785D01*
X130057152Y-99163394D01*
X130045763Y-99148986D01*
X130043993Y-99146114D01*
X130043990Y-99146111D01*
X130040163Y-99139902D01*
X130017279Y-99122500D01*
X130009235Y-99115477D01*
X128851982Y-97958224D01*
X128829144Y-97909248D01*
X128843130Y-97857050D01*
X128861408Y-97838451D01*
X128924246Y-97792796D01*
X128927599Y-97790360D01*
X129055667Y-97648126D01*
X129122576Y-97532237D01*
X129149295Y-97485959D01*
X129149296Y-97485956D01*
X129151365Y-97482373D01*
X129210509Y-97300346D01*
X129230515Y-97110000D01*
X129222166Y-97030565D01*
X129210942Y-96923772D01*
X129210942Y-96923770D01*
X129210509Y-96919654D01*
X129151365Y-96737627D01*
X129129092Y-96699048D01*
X129057738Y-96575461D01*
X129055667Y-96571874D01*
X128927599Y-96429640D01*
X128772758Y-96317141D01*
X128690383Y-96280465D01*
X128601693Y-96240977D01*
X128601690Y-96240976D01*
X128597910Y-96239293D01*
X128593867Y-96238434D01*
X128593862Y-96238432D01*
X128414741Y-96200359D01*
X128414736Y-96200358D01*
X128410697Y-96199500D01*
X128219303Y-96199500D01*
X128215264Y-96200358D01*
X128215259Y-96200359D01*
X128036135Y-96238433D01*
X128036133Y-96238434D01*
X128032090Y-96239293D01*
X128028313Y-96240975D01*
X128028312Y-96240975D01*
X127861022Y-96315458D01*
X127861019Y-96315460D01*
X127857243Y-96317141D01*
X127853895Y-96319573D01*
X127853894Y-96319574D01*
X127754560Y-96391744D01*
X127702401Y-96429640D01*
X127574333Y-96571874D01*
X127572262Y-96575461D01*
X127500909Y-96699048D01*
X127478635Y-96737627D01*
X127419491Y-96919654D01*
X127419058Y-96923770D01*
X127419058Y-96923772D01*
X127407834Y-97030565D01*
X127399485Y-97110000D01*
X127419491Y-97300346D01*
X127478635Y-97482373D01*
X127480704Y-97485956D01*
X127480705Y-97485959D01*
X127507424Y-97532237D01*
X127574333Y-97648126D01*
X127702401Y-97790360D01*
X127857242Y-97902859D01*
X127861031Y-97904546D01*
X128028307Y-97979023D01*
X128028310Y-97979024D01*
X128032090Y-97980707D01*
X128036133Y-97981566D01*
X128036138Y-97981568D01*
X128049041Y-97984310D01*
X128091139Y-98008517D01*
X128096008Y-98013887D01*
X128099837Y-98020098D01*
X128120363Y-98035706D01*
X128122722Y-98037500D01*
X128130765Y-98044523D01*
X129516361Y-99430119D01*
X129539199Y-99479095D01*
X129539500Y-99485980D01*
X129539500Y-102664020D01*
X129521018Y-102714800D01*
X129516361Y-102719881D01*
X127384524Y-104851718D01*
X127380929Y-104854822D01*
X127376829Y-104856826D01*
X127371869Y-104862173D01*
X127344669Y-104891495D01*
X127342612Y-104893630D01*
X127329346Y-104906896D01*
X127327284Y-104909902D01*
X127325990Y-104911459D01*
X127323149Y-104914694D01*
X127304498Y-104934800D01*
X127301795Y-104941576D01*
X127299825Y-104946513D01*
X127291596Y-104961925D01*
X127284459Y-104972328D01*
X127279169Y-104994622D01*
X127278361Y-104998027D01*
X127274872Y-105009058D01*
X127265086Y-105033586D01*
X127264500Y-105039563D01*
X127264500Y-105047193D01*
X127262365Y-105065432D01*
X127259902Y-105075812D01*
X127260886Y-105083042D01*
X127260886Y-105083043D01*
X127263778Y-105104291D01*
X127264500Y-105114945D01*
X127264500Y-105812901D01*
X127246018Y-105863681D01*
X127227656Y-105879713D01*
X127220980Y-105883926D01*
X127215732Y-105887237D01*
X127212011Y-105891450D01*
X127212010Y-105891451D01*
X127160295Y-105950007D01*
X127118932Y-105996841D01*
X127056786Y-106129209D01*
X127034288Y-106273699D01*
X126754500Y-106273699D01*
X126754500Y-106038076D01*
X126750274Y-105997861D01*
X126739876Y-105898936D01*
X126739876Y-105898934D01*
X126739443Y-105894818D01*
X126680039Y-105711991D01*
X126656362Y-105670980D01*
X126585992Y-105549097D01*
X126583921Y-105545510D01*
X126573820Y-105534291D01*
X126458064Y-105405732D01*
X126455290Y-105402651D01*
X126299769Y-105289658D01*
X126190961Y-105241213D01*
X126127936Y-105213152D01*
X126127933Y-105213151D01*
X126124153Y-105211468D01*
X126120107Y-105210608D01*
X126120104Y-105210607D01*
X125940162Y-105172359D01*
X125940157Y-105172358D01*
X125936118Y-105171500D01*
X125743882Y-105171500D01*
X125739843Y-105172358D01*
X125739838Y-105172359D01*
X125559892Y-105210608D01*
X125559890Y-105210609D01*
X125555847Y-105211468D01*
X125552070Y-105213150D01*
X125552069Y-105213150D01*
X125384011Y-105287975D01*
X125384008Y-105287977D01*
X125380232Y-105289658D01*
X125376884Y-105292090D01*
X125376883Y-105292091D01*
X125308934Y-105341459D01*
X125224710Y-105402651D01*
X125221936Y-105405732D01*
X125106181Y-105534291D01*
X125096079Y-105545510D01*
X125094008Y-105549097D01*
X125072916Y-105585629D01*
X125031519Y-105620365D01*
X124977480Y-105620365D01*
X124936084Y-105585629D01*
X124925500Y-105546129D01*
X124925500Y-105140980D01*
X124943982Y-105090200D01*
X124948639Y-105085119D01*
X125335119Y-104698639D01*
X125384095Y-104675801D01*
X125390980Y-104675500D01*
X126008526Y-104675500D01*
X126013255Y-104675847D01*
X126017571Y-104677329D01*
X126064799Y-104675556D01*
X126067762Y-104675500D01*
X126086552Y-104675500D01*
X126090129Y-104674834D01*
X126092172Y-104674645D01*
X126096469Y-104674367D01*
X126116563Y-104673613D01*
X126116565Y-104673613D01*
X126123853Y-104673339D01*
X126135442Y-104668360D01*
X126152155Y-104663283D01*
X126157384Y-104662309D01*
X126157388Y-104662308D01*
X126164559Y-104660972D01*
X126187045Y-104647112D01*
X126197310Y-104641780D01*
X126199094Y-104641014D01*
X126221574Y-104631355D01*
X126226215Y-104627543D01*
X126231606Y-104622152D01*
X126246014Y-104610763D01*
X126248886Y-104608993D01*
X126248889Y-104608990D01*
X126255098Y-104605163D01*
X126272500Y-104582278D01*
X126279523Y-104574235D01*
X126681313Y-104172445D01*
X126730289Y-104149607D01*
X126738621Y-104149319D01*
X126762468Y-104149756D01*
X126868120Y-104151692D01*
X126868121Y-104151692D01*
X126873747Y-104151795D01*
X127014829Y-104113332D01*
X127139445Y-104036818D01*
X127143218Y-104032650D01*
X127143220Y-104032648D01*
X127233799Y-103932577D01*
X127233800Y-103932576D01*
X127237576Y-103928404D01*
X127301335Y-103796805D01*
X127302269Y-103791255D01*
X127303980Y-103785893D01*
X127305150Y-103786266D01*
X127328902Y-103744379D01*
X127380151Y-103725500D01*
X127844675Y-103725499D01*
X127923822Y-103725499D01*
X127926882Y-103725014D01*
X127926887Y-103725014D01*
X128010879Y-103711712D01*
X128010880Y-103711712D01*
X128017022Y-103710739D01*
X128060694Y-103688487D01*
X128123814Y-103656326D01*
X128123817Y-103656324D01*
X128129355Y-103653502D01*
X128218502Y-103564355D01*
X128221324Y-103558817D01*
X128221326Y-103558814D01*
X128272916Y-103457563D01*
X128272917Y-103457561D01*
X128275739Y-103452022D01*
X128290500Y-103358823D01*
X128290499Y-102821178D01*
X128290014Y-102818111D01*
X128276712Y-102734121D01*
X128276712Y-102734120D01*
X128275739Y-102727978D01*
X128253609Y-102684546D01*
X128221326Y-102621186D01*
X128221324Y-102621183D01*
X128218502Y-102615645D01*
X128129355Y-102526498D01*
X128123817Y-102523676D01*
X128123814Y-102523674D01*
X128022563Y-102472084D01*
X128022561Y-102472083D01*
X128017022Y-102469261D01*
X128010881Y-102468288D01*
X128010880Y-102468288D01*
X127981127Y-102463576D01*
X127923823Y-102454500D01*
X127642682Y-102454500D01*
X127361178Y-102454501D01*
X127358118Y-102454986D01*
X127358113Y-102454986D01*
X127274121Y-102468288D01*
X127274120Y-102468288D01*
X127267978Y-102469261D01*
X127262433Y-102472086D01*
X127262434Y-102472086D01*
X127161186Y-102523674D01*
X127161183Y-102523676D01*
X127155645Y-102526498D01*
X127066498Y-102615645D01*
X127063676Y-102621183D01*
X127063674Y-102621186D01*
X127012086Y-102722434D01*
X127009261Y-102727978D01*
X126994500Y-102821177D01*
X126994500Y-103019020D01*
X126976018Y-103069800D01*
X126971361Y-103074881D01*
X126939484Y-103106758D01*
X126890508Y-103129596D01*
X126883141Y-103129896D01*
X126745630Y-103129056D01*
X126745628Y-103129056D01*
X126740005Y-103129022D01*
X126599404Y-103169206D01*
X126594645Y-103172209D01*
X126586655Y-103177250D01*
X126533847Y-103188715D01*
X126486023Y-103163554D01*
X126465500Y-103110437D01*
X126465499Y-102824284D01*
X126465499Y-102821178D01*
X126465014Y-102818111D01*
X126451712Y-102734121D01*
X126451712Y-102734120D01*
X126450739Y-102727978D01*
X126428609Y-102684546D01*
X126396326Y-102621186D01*
X126396324Y-102621183D01*
X126393502Y-102615645D01*
X126304355Y-102526498D01*
X126298817Y-102523676D01*
X126298814Y-102523674D01*
X126197563Y-102472084D01*
X126197561Y-102472083D01*
X126192022Y-102469261D01*
X126185881Y-102468288D01*
X126185880Y-102468288D01*
X126156127Y-102463576D01*
X126098823Y-102454500D01*
X126053747Y-102454500D01*
X125610981Y-102454501D01*
X125560201Y-102436019D01*
X125555120Y-102431362D01*
X125436139Y-102312381D01*
X125413301Y-102263405D01*
X125413000Y-102256520D01*
X125413000Y-102049499D01*
X125431482Y-101998719D01*
X125478282Y-101971699D01*
X125492000Y-101970499D01*
X125572306Y-101970499D01*
X125575368Y-101970014D01*
X125575369Y-101970014D01*
X125662297Y-101956247D01*
X125662298Y-101956247D01*
X125668433Y-101955275D01*
X125784294Y-101896241D01*
X125876241Y-101804294D01*
X125882206Y-101792588D01*
X125910416Y-101737221D01*
X125935275Y-101688433D01*
X125938266Y-101669553D01*
X125950014Y-101595373D01*
X125950500Y-101592307D01*
X125950499Y-100227694D01*
X125950499Y-100227693D01*
X127429500Y-100227693D01*
X127429501Y-101592306D01*
X127429986Y-101595368D01*
X127429986Y-101595369D01*
X127441082Y-101665428D01*
X127444725Y-101688433D01*
X127469584Y-101737221D01*
X127497795Y-101792588D01*
X127503759Y-101804294D01*
X127595706Y-101896241D01*
X127711567Y-101955275D01*
X127717706Y-101956247D01*
X127717708Y-101956248D01*
X127759025Y-101962792D01*
X127807693Y-101970500D01*
X128252285Y-101970500D01*
X128697306Y-101970499D01*
X128700368Y-101970014D01*
X128700369Y-101970014D01*
X128787297Y-101956247D01*
X128787298Y-101956247D01*
X128793433Y-101955275D01*
X128909294Y-101896241D01*
X129001241Y-101804294D01*
X129007206Y-101792588D01*
X129035416Y-101737221D01*
X129060275Y-101688433D01*
X129063266Y-101669553D01*
X129075014Y-101595373D01*
X129075500Y-101592307D01*
X129075499Y-100227694D01*
X129074764Y-100223052D01*
X129061247Y-100137703D01*
X129061247Y-100137702D01*
X129060275Y-100131567D01*
X129011331Y-100035508D01*
X129004064Y-100021246D01*
X129004063Y-100021245D01*
X129001241Y-100015706D01*
X128909294Y-99923759D01*
X128890746Y-99914308D01*
X128798971Y-99867547D01*
X128798972Y-99867547D01*
X128793433Y-99864725D01*
X128787294Y-99863753D01*
X128787292Y-99863752D01*
X128728396Y-99854424D01*
X128680907Y-99827965D01*
X128679939Y-99826841D01*
X128589041Y-99721350D01*
X128548812Y-99695275D01*
X128471054Y-99644874D01*
X128471051Y-99644872D01*
X128466332Y-99641814D01*
X128396282Y-99620864D01*
X128331621Y-99601526D01*
X128331619Y-99601526D01*
X128326233Y-99599915D01*
X128253711Y-99599472D01*
X128185630Y-99599056D01*
X128185628Y-99599056D01*
X128180005Y-99599022D01*
X128039404Y-99639206D01*
X128034645Y-99642209D01*
X127921110Y-99713844D01*
X127915732Y-99717237D01*
X127912011Y-99721450D01*
X127912010Y-99721451D01*
X127863065Y-99776870D01*
X127818932Y-99826841D01*
X127817470Y-99825550D01*
X127780542Y-99853078D01*
X127770194Y-99855440D01*
X127717703Y-99863753D01*
X127717702Y-99863753D01*
X127711567Y-99864725D01*
X127706029Y-99867547D01*
X127614255Y-99914308D01*
X127595706Y-99923759D01*
X127503759Y-100015706D01*
X127500937Y-100021245D01*
X127500936Y-100021246D01*
X127493669Y-100035508D01*
X127444725Y-100131567D01*
X127443753Y-100137706D01*
X127443752Y-100137708D01*
X127437208Y-100179025D01*
X127429500Y-100227693D01*
X125950499Y-100227693D01*
X125949764Y-100223052D01*
X125936247Y-100137703D01*
X125936247Y-100137702D01*
X125935275Y-100131567D01*
X125886331Y-100035508D01*
X125879064Y-100021246D01*
X125879063Y-100021245D01*
X125876241Y-100015706D01*
X125784294Y-99923759D01*
X125765746Y-99914308D01*
X125673971Y-99867547D01*
X125673972Y-99867547D01*
X125668433Y-99864725D01*
X125662294Y-99863753D01*
X125662292Y-99863752D01*
X125609810Y-99855440D01*
X125572307Y-99849500D01*
X125127715Y-99849500D01*
X124682694Y-99849501D01*
X124679632Y-99849986D01*
X124679631Y-99849986D01*
X124592703Y-99863753D01*
X124592702Y-99863753D01*
X124586567Y-99864725D01*
X124581029Y-99867547D01*
X124489255Y-99914308D01*
X124470706Y-99923759D01*
X124378759Y-100015706D01*
X124375937Y-100021245D01*
X124375936Y-100021246D01*
X124368669Y-100035508D01*
X124319725Y-100131567D01*
X124318753Y-100137706D01*
X124318752Y-100137708D01*
X124312208Y-100179025D01*
X124304500Y-100227693D01*
X124304501Y-101592306D01*
X124304986Y-101595368D01*
X124304986Y-101595369D01*
X124316082Y-101665428D01*
X124319725Y-101688433D01*
X124344584Y-101737221D01*
X124372795Y-101792588D01*
X124378759Y-101804294D01*
X124470706Y-101896241D01*
X124586567Y-101955275D01*
X124592706Y-101956247D01*
X124592708Y-101956248D01*
X124634025Y-101962792D01*
X124682693Y-101970500D01*
X124763000Y-101970500D01*
X124813780Y-101988982D01*
X124840800Y-102035782D01*
X124842000Y-102049500D01*
X124842000Y-102356026D01*
X124841653Y-102360755D01*
X124840171Y-102365071D01*
X124840445Y-102372362D01*
X124841944Y-102412298D01*
X124842000Y-102415262D01*
X124842000Y-102434052D01*
X124842666Y-102437629D01*
X124842855Y-102439672D01*
X124843133Y-102443969D01*
X124843547Y-102454986D01*
X124844161Y-102471353D01*
X124849140Y-102482942D01*
X124854217Y-102499655D01*
X124855191Y-102504884D01*
X124855192Y-102504888D01*
X124856528Y-102512059D01*
X124865100Y-102525966D01*
X124870388Y-102534545D01*
X124875720Y-102544810D01*
X124886145Y-102569074D01*
X124889957Y-102573715D01*
X124895348Y-102579106D01*
X124906737Y-102593514D01*
X124908507Y-102596386D01*
X124908510Y-102596389D01*
X124912337Y-102602598D01*
X124929495Y-102615645D01*
X124935222Y-102620000D01*
X124943265Y-102627023D01*
X125146361Y-102830119D01*
X125169199Y-102879095D01*
X125169500Y-102885980D01*
X125169501Y-103129022D01*
X125169501Y-103358822D01*
X125169986Y-103361882D01*
X125169986Y-103361887D01*
X125180257Y-103426742D01*
X125184261Y-103452022D01*
X125195333Y-103473751D01*
X125238674Y-103558814D01*
X125238676Y-103558817D01*
X125241498Y-103564355D01*
X125330645Y-103653502D01*
X125336183Y-103656324D01*
X125336186Y-103656326D01*
X125437437Y-103707916D01*
X125437439Y-103707917D01*
X125442978Y-103710739D01*
X125449119Y-103711712D01*
X125449120Y-103711712D01*
X125478873Y-103716424D01*
X125536177Y-103725500D01*
X125817318Y-103725500D01*
X126098822Y-103725499D01*
X126111186Y-103723541D01*
X126122365Y-103721771D01*
X126175411Y-103732084D01*
X126209418Y-103774081D01*
X126208473Y-103828112D01*
X126190582Y-103855660D01*
X125964881Y-104081361D01*
X125915905Y-104104199D01*
X125909020Y-104104500D01*
X125291473Y-104104500D01*
X125286744Y-104104153D01*
X125282428Y-104102671D01*
X125235201Y-104104444D01*
X125232237Y-104104500D01*
X125213448Y-104104500D01*
X125209871Y-104105166D01*
X125207828Y-104105355D01*
X125203531Y-104105633D01*
X125183437Y-104106387D01*
X125183435Y-104106387D01*
X125176147Y-104106661D01*
X125164558Y-104111640D01*
X125147845Y-104116717D01*
X125142616Y-104117691D01*
X125142612Y-104117692D01*
X125135441Y-104119028D01*
X125116354Y-104130793D01*
X125112955Y-104132888D01*
X125102690Y-104138220D01*
X125078426Y-104148645D01*
X125073785Y-104152457D01*
X125068394Y-104157848D01*
X125053986Y-104169237D01*
X125051114Y-104171007D01*
X125051111Y-104171010D01*
X125044902Y-104174837D01*
X125040486Y-104180645D01*
X125027500Y-104197722D01*
X125020477Y-104205765D01*
X124474524Y-104751718D01*
X124470929Y-104754822D01*
X124466829Y-104756826D01*
X124461869Y-104762173D01*
X124434669Y-104791495D01*
X124432612Y-104793630D01*
X124419346Y-104806896D01*
X124417284Y-104809902D01*
X124415990Y-104811459D01*
X124413149Y-104814694D01*
X124394498Y-104834800D01*
X124391795Y-104841576D01*
X124389825Y-104846513D01*
X124381596Y-104861925D01*
X124374459Y-104872328D01*
X124372775Y-104879426D01*
X124368361Y-104898027D01*
X124364872Y-104909058D01*
X124355086Y-104933586D01*
X124354500Y-104939563D01*
X124354500Y-104947193D01*
X124352365Y-104965432D01*
X124349902Y-104975812D01*
X124350886Y-104983042D01*
X124350886Y-104983043D01*
X124353778Y-105004291D01*
X124354500Y-105014945D01*
X124354500Y-107396605D01*
X124336018Y-107447385D01*
X124289218Y-107474405D01*
X124236000Y-107465021D01*
X124215518Y-107448016D01*
X124138557Y-107358225D01*
X124132784Y-107352727D01*
X123977947Y-107232623D01*
X123971189Y-107228400D01*
X123795365Y-107141884D01*
X123787896Y-107139107D01*
X123703479Y-107117118D01*
X123692175Y-107118187D01*
X123690484Y-107119902D01*
X123690000Y-107122120D01*
X123690000Y-110557690D01*
X123190000Y-110557690D01*
X123190000Y-107122310D01*
X123186116Y-107111639D01*
X123183957Y-107110393D01*
X123001365Y-107177574D01*
X122994198Y-107181069D01*
X122827657Y-107284329D01*
X122821349Y-107289187D01*
X122678961Y-107423836D01*
X122673762Y-107429859D01*
X122561361Y-107590385D01*
X122557478Y-107597332D01*
X122479651Y-107777182D01*
X122477244Y-107784769D01*
X122456846Y-107882411D01*
X122428369Y-107928339D01*
X122377034Y-107945217D01*
X122326859Y-107925149D01*
X122301323Y-107877524D01*
X122300515Y-107866256D01*
X122300501Y-103785893D01*
X122300500Y-103644431D01*
X122302124Y-103628495D01*
X122302797Y-103625228D01*
X122302797Y-103625227D01*
X122304591Y-103616517D01*
X122302430Y-103607890D01*
X122302394Y-103606176D01*
X122300413Y-103590230D01*
X122300378Y-103569571D01*
X122299090Y-102821177D01*
X122298942Y-102735252D01*
X122299007Y-102731906D01*
X122314293Y-102356026D01*
X122334742Y-101853210D01*
X122334948Y-101849880D01*
X122336128Y-101835706D01*
X122407864Y-100973513D01*
X122408212Y-100970184D01*
X122418884Y-100885512D01*
X122518184Y-100097656D01*
X122518670Y-100094364D01*
X122520799Y-100081795D01*
X122617298Y-99511923D01*
X122665491Y-99227320D01*
X122666119Y-99224033D01*
X122849540Y-98363936D01*
X122850308Y-98360679D01*
X122964330Y-97918699D01*
X124009288Y-97918699D01*
X124010018Y-97924280D01*
X124025247Y-98040737D01*
X124028249Y-98063695D01*
X124087143Y-98197542D01*
X124090765Y-98201851D01*
X124167023Y-98292571D01*
X124181236Y-98309479D01*
X124302964Y-98390508D01*
X124442541Y-98434116D01*
X124492056Y-98435023D01*
X124583120Y-98436692D01*
X124583121Y-98436692D01*
X124588747Y-98436795D01*
X124729829Y-98398332D01*
X124854445Y-98321818D01*
X124858218Y-98317650D01*
X124858220Y-98317648D01*
X124948799Y-98217577D01*
X124948800Y-98217576D01*
X124952576Y-98213404D01*
X125016335Y-98081805D01*
X125020321Y-98058116D01*
X125040090Y-97940610D01*
X125040090Y-97940607D01*
X125040596Y-97937601D01*
X125040750Y-97925000D01*
X125032323Y-97866154D01*
X125043420Y-97813266D01*
X125054664Y-97799094D01*
X126891355Y-95962403D01*
X126940331Y-95939565D01*
X126979349Y-95946094D01*
X127057090Y-95980707D01*
X127061133Y-95981566D01*
X127061135Y-95981567D01*
X127240259Y-96019641D01*
X127240264Y-96019642D01*
X127244303Y-96020500D01*
X127435697Y-96020500D01*
X127439736Y-96019642D01*
X127439741Y-96019641D01*
X127618862Y-95981568D01*
X127618867Y-95981566D01*
X127622910Y-95980707D01*
X127626690Y-95979024D01*
X127626693Y-95979023D01*
X127793969Y-95904546D01*
X127797758Y-95902859D01*
X127952599Y-95790360D01*
X128080667Y-95648126D01*
X128119024Y-95581690D01*
X128174295Y-95485959D01*
X128174296Y-95485956D01*
X128176365Y-95482373D01*
X128235509Y-95300346D01*
X128244120Y-95218422D01*
X128255082Y-95114120D01*
X128255515Y-95110000D01*
X128424485Y-95110000D01*
X128424918Y-95114120D01*
X128435881Y-95218422D01*
X128444491Y-95300346D01*
X128503635Y-95482373D01*
X128505704Y-95485956D01*
X128505705Y-95485959D01*
X128560976Y-95581690D01*
X128599333Y-95648126D01*
X128727401Y-95790360D01*
X128882242Y-95902859D01*
X128886031Y-95904546D01*
X129053307Y-95979023D01*
X129053310Y-95979024D01*
X129057090Y-95980707D01*
X129061133Y-95981566D01*
X129061138Y-95981568D01*
X129240259Y-96019641D01*
X129240264Y-96019642D01*
X129244303Y-96020500D01*
X129435697Y-96020500D01*
X129439736Y-96019642D01*
X129439741Y-96019641D01*
X129618862Y-95981568D01*
X129618867Y-95981566D01*
X129622910Y-95980707D01*
X129626690Y-95979024D01*
X129626693Y-95979023D01*
X129793969Y-95904546D01*
X129797758Y-95902859D01*
X129952599Y-95790360D01*
X130080667Y-95648126D01*
X130119024Y-95581690D01*
X130174295Y-95485959D01*
X130174296Y-95485956D01*
X130176365Y-95482373D01*
X130235509Y-95300346D01*
X130244120Y-95218422D01*
X130248933Y-95172624D01*
X130272622Y-95124054D01*
X130304651Y-95109794D01*
X130281065Y-95103030D01*
X130250847Y-95058230D01*
X130248933Y-95047376D01*
X130235942Y-94923772D01*
X130235942Y-94923770D01*
X130235509Y-94919654D01*
X130176365Y-94737627D01*
X130157398Y-94704774D01*
X130082738Y-94575461D01*
X130080667Y-94571874D01*
X130076136Y-94566841D01*
X129955373Y-94432721D01*
X129952599Y-94429640D01*
X129797758Y-94317141D01*
X129777272Y-94308020D01*
X129626693Y-94240977D01*
X129626690Y-94240976D01*
X129622910Y-94239293D01*
X129618867Y-94238434D01*
X129618862Y-94238432D01*
X129439741Y-94200359D01*
X129439736Y-94200358D01*
X129435697Y-94199500D01*
X129244303Y-94199500D01*
X129240264Y-94200358D01*
X129240259Y-94200359D01*
X129061135Y-94238433D01*
X129061133Y-94238434D01*
X129057090Y-94239293D01*
X129053313Y-94240975D01*
X129053312Y-94240975D01*
X128886022Y-94315458D01*
X128886019Y-94315460D01*
X128882243Y-94317141D01*
X128878895Y-94319573D01*
X128878894Y-94319574D01*
X128796818Y-94379206D01*
X128727401Y-94429640D01*
X128724627Y-94432721D01*
X128603865Y-94566841D01*
X128599333Y-94571874D01*
X128597262Y-94575461D01*
X128522603Y-94704774D01*
X128503635Y-94737627D01*
X128444491Y-94919654D01*
X128444058Y-94923770D01*
X128444058Y-94923772D01*
X128425962Y-95095946D01*
X128424485Y-95110000D01*
X128255515Y-95110000D01*
X128254038Y-95095946D01*
X128235942Y-94923772D01*
X128235942Y-94923770D01*
X128235509Y-94919654D01*
X128176365Y-94737627D01*
X128157398Y-94704774D01*
X128082738Y-94575461D01*
X128080667Y-94571874D01*
X128076136Y-94566841D01*
X127955373Y-94432721D01*
X127952599Y-94429640D01*
X127797758Y-94317141D01*
X127777272Y-94308020D01*
X127626693Y-94240977D01*
X127626690Y-94240976D01*
X127622910Y-94239293D01*
X127618867Y-94238434D01*
X127618862Y-94238432D01*
X127439741Y-94200359D01*
X127439736Y-94200358D01*
X127435697Y-94199500D01*
X127244303Y-94199500D01*
X127240264Y-94200358D01*
X127240259Y-94200359D01*
X127061135Y-94238433D01*
X127061133Y-94238434D01*
X127057090Y-94239293D01*
X127053313Y-94240975D01*
X127053312Y-94240975D01*
X126886022Y-94315458D01*
X126886019Y-94315460D01*
X126882243Y-94317141D01*
X126878895Y-94319573D01*
X126878894Y-94319574D01*
X126796818Y-94379206D01*
X126727401Y-94429640D01*
X126724627Y-94432721D01*
X126603865Y-94566841D01*
X126599333Y-94571874D01*
X126597262Y-94575461D01*
X126522603Y-94704774D01*
X126503635Y-94737627D01*
X126444491Y-94919654D01*
X126444058Y-94923770D01*
X126444058Y-94923772D01*
X126425962Y-95095946D01*
X126424485Y-95110000D01*
X126424918Y-95114120D01*
X126435881Y-95218422D01*
X126444491Y-95300346D01*
X126503447Y-95481794D01*
X126501562Y-95535800D01*
X126484175Y-95562067D01*
X124654484Y-97391758D01*
X124605508Y-97414596D01*
X124598141Y-97414896D01*
X124460630Y-97414056D01*
X124460628Y-97414056D01*
X124455005Y-97414022D01*
X124314404Y-97454206D01*
X124190732Y-97532237D01*
X124093932Y-97641841D01*
X124091540Y-97646936D01*
X124039489Y-97757803D01*
X124031786Y-97774209D01*
X124022163Y-97836010D01*
X124010760Y-97909248D01*
X124009288Y-97918699D01*
X122964330Y-97918699D01*
X123069976Y-97509186D01*
X123070880Y-97505964D01*
X123326425Y-96664501D01*
X123327465Y-96661320D01*
X123519246Y-96114308D01*
X123618421Y-95831433D01*
X123619593Y-95828304D01*
X123633758Y-95792796D01*
X123945438Y-95011481D01*
X123946739Y-95008410D01*
X123947460Y-95006805D01*
X124137214Y-94584095D01*
X124306873Y-94206150D01*
X124308307Y-94203127D01*
X124531450Y-93757573D01*
X124702119Y-93416794D01*
X124703676Y-93413844D01*
X124717996Y-93388043D01*
X124872308Y-93110000D01*
X126924485Y-93110000D01*
X126944491Y-93300346D01*
X127003635Y-93482373D01*
X127005704Y-93485956D01*
X127005705Y-93485959D01*
X127065636Y-93589761D01*
X127099333Y-93648126D01*
X127102105Y-93651205D01*
X127102106Y-93651206D01*
X127143545Y-93697228D01*
X127227401Y-93790360D01*
X127382242Y-93902859D01*
X127386031Y-93904546D01*
X127553307Y-93979023D01*
X127553310Y-93979024D01*
X127557090Y-93980707D01*
X127561133Y-93981566D01*
X127561138Y-93981568D01*
X127740259Y-94019641D01*
X127740264Y-94019642D01*
X127744303Y-94020500D01*
X127935697Y-94020500D01*
X127939736Y-94019642D01*
X127939741Y-94019641D01*
X128118862Y-93981568D01*
X128118867Y-93981566D01*
X128122910Y-93980707D01*
X128126690Y-93979024D01*
X128126693Y-93979023D01*
X128293969Y-93904546D01*
X128297758Y-93902859D01*
X128452599Y-93790360D01*
X128536455Y-93697228D01*
X128577894Y-93651206D01*
X128577895Y-93651205D01*
X128580667Y-93648126D01*
X128614364Y-93589761D01*
X128674295Y-93485959D01*
X128674296Y-93485956D01*
X128676365Y-93482373D01*
X128735509Y-93300346D01*
X128748933Y-93172624D01*
X128772622Y-93124054D01*
X128803726Y-93110206D01*
X128850349Y-93110206D01*
X128873935Y-93116970D01*
X128904153Y-93161770D01*
X128906067Y-93172624D01*
X128919491Y-93300346D01*
X128978635Y-93482373D01*
X128980704Y-93485956D01*
X128980705Y-93485959D01*
X129040636Y-93589761D01*
X129074333Y-93648126D01*
X129077105Y-93651205D01*
X129077106Y-93651206D01*
X129118545Y-93697228D01*
X129202401Y-93790360D01*
X129357242Y-93902859D01*
X129361031Y-93904546D01*
X129528307Y-93979023D01*
X129528310Y-93979024D01*
X129532090Y-93980707D01*
X129536133Y-93981566D01*
X129536138Y-93981568D01*
X129715259Y-94019641D01*
X129715264Y-94019642D01*
X129719303Y-94020500D01*
X129910697Y-94020500D01*
X129914736Y-94019642D01*
X129914741Y-94019641D01*
X130093862Y-93981568D01*
X130093867Y-93981566D01*
X130097910Y-93980707D01*
X130101690Y-93979024D01*
X130101693Y-93979023D01*
X130268969Y-93904546D01*
X130272758Y-93902859D01*
X130427599Y-93790360D01*
X130511455Y-93697228D01*
X130552894Y-93651206D01*
X130552895Y-93651205D01*
X130555667Y-93648126D01*
X130589364Y-93589761D01*
X130649295Y-93485959D01*
X130649296Y-93485956D01*
X130651365Y-93482373D01*
X130710509Y-93300346D01*
X130730515Y-93110000D01*
X130710509Y-92919654D01*
X130651553Y-92738206D01*
X130653438Y-92684200D01*
X130670825Y-92657933D01*
X131129639Y-92199119D01*
X131178615Y-92176281D01*
X131230813Y-92190267D01*
X131261808Y-92234533D01*
X131264500Y-92254980D01*
X131264500Y-94125920D01*
X131246018Y-94176700D01*
X131201926Y-94203194D01*
X131174515Y-94209020D01*
X131036135Y-94238433D01*
X131036133Y-94238434D01*
X131032090Y-94239293D01*
X131028313Y-94240975D01*
X131028312Y-94240975D01*
X130861022Y-94315458D01*
X130861019Y-94315460D01*
X130857243Y-94317141D01*
X130853895Y-94319573D01*
X130853894Y-94319574D01*
X130771818Y-94379206D01*
X130702401Y-94429640D01*
X130699627Y-94432721D01*
X130578865Y-94566841D01*
X130574333Y-94571874D01*
X130572262Y-94575461D01*
X130497603Y-94704774D01*
X130478635Y-94737627D01*
X130419491Y-94919654D01*
X130419058Y-94923770D01*
X130419058Y-94923772D01*
X130406067Y-95047376D01*
X130382378Y-95095946D01*
X130350349Y-95110206D01*
X130373935Y-95116970D01*
X130404153Y-95161770D01*
X130406067Y-95172624D01*
X130410881Y-95218422D01*
X130419491Y-95300346D01*
X130478635Y-95482373D01*
X130480704Y-95485956D01*
X130480705Y-95485959D01*
X130535976Y-95581690D01*
X130574333Y-95648126D01*
X130702401Y-95790360D01*
X130857242Y-95902859D01*
X130861031Y-95904546D01*
X131028307Y-95979023D01*
X131028310Y-95979024D01*
X131032090Y-95980707D01*
X131036133Y-95981566D01*
X131036138Y-95981568D01*
X131215259Y-96019641D01*
X131215264Y-96019642D01*
X131219303Y-96020500D01*
X131410697Y-96020500D01*
X131414736Y-96019642D01*
X131414741Y-96019641D01*
X131593862Y-95981568D01*
X131593867Y-95981566D01*
X131597910Y-95980707D01*
X131601690Y-95979024D01*
X131601693Y-95979023D01*
X131768969Y-95904546D01*
X131772758Y-95902859D01*
X131927599Y-95790360D01*
X132055667Y-95648126D01*
X132094024Y-95581690D01*
X132149295Y-95485959D01*
X132149296Y-95485956D01*
X132151365Y-95482373D01*
X132210509Y-95300346D01*
X132219120Y-95218422D01*
X132230082Y-95114120D01*
X132230515Y-95110000D01*
X132229038Y-95095946D01*
X132210942Y-94923772D01*
X132210942Y-94923770D01*
X132210509Y-94919654D01*
X132151365Y-94737627D01*
X132132398Y-94704774D01*
X132057738Y-94575461D01*
X132055667Y-94571874D01*
X132051136Y-94566841D01*
X131930373Y-94432721D01*
X131927599Y-94429640D01*
X131868065Y-94386386D01*
X131837847Y-94341586D01*
X131835500Y-94322474D01*
X131835500Y-93463691D01*
X131853982Y-93412911D01*
X131900782Y-93385891D01*
X131954000Y-93395275D01*
X131989632Y-93439277D01*
X132003635Y-93482373D01*
X132005704Y-93485956D01*
X132005705Y-93485959D01*
X132065636Y-93589761D01*
X132099333Y-93648126D01*
X132102105Y-93651205D01*
X132102106Y-93651206D01*
X132143545Y-93697228D01*
X132227401Y-93790360D01*
X132382242Y-93902859D01*
X132386031Y-93904546D01*
X132553307Y-93979023D01*
X132553310Y-93979024D01*
X132557090Y-93980707D01*
X132561133Y-93981566D01*
X132561138Y-93981568D01*
X132740259Y-94019641D01*
X132740264Y-94019642D01*
X132744303Y-94020500D01*
X132935697Y-94020500D01*
X132939736Y-94019642D01*
X132939741Y-94019641D01*
X133118862Y-93981568D01*
X133118867Y-93981566D01*
X133122910Y-93980707D01*
X133126690Y-93979024D01*
X133126693Y-93979023D01*
X133293969Y-93904546D01*
X133297758Y-93902859D01*
X133452599Y-93790360D01*
X133536455Y-93697228D01*
X133577894Y-93651206D01*
X133577895Y-93651205D01*
X133580667Y-93648126D01*
X133651334Y-93525729D01*
X133692729Y-93490993D01*
X133746769Y-93490993D01*
X133775610Y-93509368D01*
X134341361Y-94075119D01*
X134364199Y-94124095D01*
X134364500Y-94130980D01*
X134364500Y-94817863D01*
X134346018Y-94868643D01*
X134299218Y-94895663D01*
X134246000Y-94886279D01*
X134210368Y-94842277D01*
X134176365Y-94737627D01*
X134157398Y-94704774D01*
X134082738Y-94575461D01*
X134080667Y-94571874D01*
X134076136Y-94566841D01*
X133955373Y-94432721D01*
X133952599Y-94429640D01*
X133797758Y-94317141D01*
X133777272Y-94308020D01*
X133626693Y-94240977D01*
X133626690Y-94240976D01*
X133622910Y-94239293D01*
X133618867Y-94238434D01*
X133618862Y-94238432D01*
X133439741Y-94200359D01*
X133439736Y-94200358D01*
X133435697Y-94199500D01*
X133244303Y-94199500D01*
X133240264Y-94200358D01*
X133240259Y-94200359D01*
X133061135Y-94238433D01*
X133061133Y-94238434D01*
X133057090Y-94239293D01*
X133053313Y-94240975D01*
X133053312Y-94240975D01*
X132886022Y-94315458D01*
X132886019Y-94315460D01*
X132882243Y-94317141D01*
X132878895Y-94319573D01*
X132878894Y-94319574D01*
X132796818Y-94379206D01*
X132727401Y-94429640D01*
X132724627Y-94432721D01*
X132603865Y-94566841D01*
X132599333Y-94571874D01*
X132597262Y-94575461D01*
X132522603Y-94704774D01*
X132503635Y-94737627D01*
X132444491Y-94919654D01*
X132444058Y-94923770D01*
X132444058Y-94923772D01*
X132425962Y-95095946D01*
X132424485Y-95110000D01*
X132424918Y-95114120D01*
X132435881Y-95218422D01*
X132444491Y-95300346D01*
X132503635Y-95482373D01*
X132505704Y-95485956D01*
X132505705Y-95485959D01*
X132560976Y-95581690D01*
X132599333Y-95648126D01*
X132727401Y-95790360D01*
X132882242Y-95902859D01*
X132886031Y-95904546D01*
X133053307Y-95979023D01*
X133053310Y-95979024D01*
X133057090Y-95980707D01*
X133061133Y-95981566D01*
X133061138Y-95981568D01*
X133240259Y-96019641D01*
X133240264Y-96019642D01*
X133244303Y-96020500D01*
X133435697Y-96020500D01*
X133439736Y-96019642D01*
X133439741Y-96019641D01*
X133618862Y-95981568D01*
X133618867Y-95981566D01*
X133622910Y-95980707D01*
X133626690Y-95979024D01*
X133626693Y-95979023D01*
X133793969Y-95904546D01*
X133797758Y-95902859D01*
X133952599Y-95790360D01*
X134080667Y-95648126D01*
X134119024Y-95581690D01*
X134174295Y-95485959D01*
X134174296Y-95485956D01*
X134176365Y-95482373D01*
X134210368Y-95377723D01*
X134243636Y-95335141D01*
X134296495Y-95323906D01*
X134344208Y-95349276D01*
X134364500Y-95402137D01*
X134364500Y-99752901D01*
X134346018Y-99803681D01*
X134327656Y-99819713D01*
X134320980Y-99823926D01*
X134315732Y-99827237D01*
X134312011Y-99831450D01*
X134312010Y-99831451D01*
X134222658Y-99932622D01*
X134218932Y-99936841D01*
X134156786Y-100069209D01*
X134146121Y-100137703D01*
X134137255Y-100194647D01*
X134134288Y-100213699D01*
X134135018Y-100219280D01*
X134152318Y-100351574D01*
X134153249Y-100358695D01*
X134212143Y-100492542D01*
X134306236Y-100604479D01*
X134427964Y-100685508D01*
X134567541Y-100729116D01*
X134655369Y-100730725D01*
X134708124Y-100731692D01*
X134713747Y-100731795D01*
X134715596Y-100731291D01*
X134766773Y-100743012D01*
X134779723Y-100753481D01*
X134961361Y-100935119D01*
X134984199Y-100984095D01*
X134984500Y-100990980D01*
X134984500Y-102177375D01*
X134984153Y-102182104D01*
X134982671Y-102186420D01*
X134983482Y-102208025D01*
X134984444Y-102233647D01*
X134984500Y-102236611D01*
X134984500Y-102255401D01*
X134985166Y-102258978D01*
X134985355Y-102261021D01*
X134985633Y-102265318D01*
X134986661Y-102292702D01*
X134991640Y-102304291D01*
X134996717Y-102321004D01*
X134997691Y-102326233D01*
X134997692Y-102326237D01*
X134999028Y-102333408D01*
X135002855Y-102339616D01*
X135012888Y-102355894D01*
X135018220Y-102366159D01*
X135028645Y-102390423D01*
X135032457Y-102395064D01*
X135037848Y-102400455D01*
X135049237Y-102414863D01*
X135051007Y-102417735D01*
X135051010Y-102417738D01*
X135054837Y-102423947D01*
X135068126Y-102434052D01*
X135077722Y-102441349D01*
X135085765Y-102448372D01*
X136401361Y-103763968D01*
X136424199Y-103812944D01*
X136424500Y-103819829D01*
X136424500Y-109384320D01*
X136424153Y-109389049D01*
X136422671Y-109393365D01*
X136422945Y-109400656D01*
X136424444Y-109440592D01*
X136424500Y-109443556D01*
X136424500Y-109462346D01*
X136425166Y-109465923D01*
X136425355Y-109467966D01*
X136425633Y-109472263D01*
X136426661Y-109499647D01*
X136431640Y-109511236D01*
X136436717Y-109527949D01*
X136437691Y-109533178D01*
X136437692Y-109533182D01*
X136439028Y-109540353D01*
X136442855Y-109546561D01*
X136452888Y-109562839D01*
X136458220Y-109573104D01*
X136468645Y-109597368D01*
X136472457Y-109602009D01*
X136477848Y-109607400D01*
X136489237Y-109621808D01*
X136491007Y-109624680D01*
X136491010Y-109624683D01*
X136494837Y-109630892D01*
X136505618Y-109639090D01*
X136517722Y-109648294D01*
X136525765Y-109655317D01*
X137935924Y-111065476D01*
X137939028Y-111069071D01*
X137941032Y-111073171D01*
X137946379Y-111078131D01*
X137975701Y-111105331D01*
X137977836Y-111107388D01*
X137991102Y-111120654D01*
X137994108Y-111122716D01*
X137995665Y-111124010D01*
X137998900Y-111126851D01*
X138019006Y-111145502D01*
X138029952Y-111149869D01*
X138030719Y-111150175D01*
X138046131Y-111158404D01*
X138056534Y-111165541D01*
X138079422Y-111170972D01*
X138082233Y-111171639D01*
X138093264Y-111175128D01*
X138117792Y-111184914D01*
X138123769Y-111185500D01*
X138131399Y-111185500D01*
X138149638Y-111187635D01*
X138160018Y-111190098D01*
X138167248Y-111189114D01*
X138167249Y-111189114D01*
X138188497Y-111186222D01*
X138199151Y-111185500D01*
X140648526Y-111185500D01*
X140653255Y-111185847D01*
X140657571Y-111187329D01*
X140704799Y-111185556D01*
X140707762Y-111185500D01*
X140726552Y-111185500D01*
X140730129Y-111184834D01*
X140732172Y-111184645D01*
X140736469Y-111184367D01*
X140756563Y-111183613D01*
X140756565Y-111183613D01*
X140763853Y-111183339D01*
X140775442Y-111178360D01*
X140792155Y-111173283D01*
X140797384Y-111172309D01*
X140797388Y-111172308D01*
X140804559Y-111170972D01*
X140827045Y-111157112D01*
X140837310Y-111151780D01*
X140851922Y-111145502D01*
X140861574Y-111141355D01*
X140866215Y-111137543D01*
X140871606Y-111132152D01*
X140886014Y-111120763D01*
X140888886Y-111118993D01*
X140888889Y-111118990D01*
X140895098Y-111115163D01*
X140912500Y-111092278D01*
X140919523Y-111084235D01*
X142115476Y-109888282D01*
X142119071Y-109885178D01*
X142123171Y-109883174D01*
X142155331Y-109848505D01*
X142157388Y-109846370D01*
X142170654Y-109833104D01*
X142172716Y-109830098D01*
X142174010Y-109828541D01*
X142176852Y-109825305D01*
X142190540Y-109810549D01*
X142195502Y-109805200D01*
X142200175Y-109793487D01*
X142208404Y-109778075D01*
X142215541Y-109767672D01*
X142221639Y-109741973D01*
X142225129Y-109730938D01*
X142234914Y-109706414D01*
X142235500Y-109700437D01*
X142235500Y-109692807D01*
X142237635Y-109674566D01*
X142240098Y-109664188D01*
X142236222Y-109635709D01*
X142235500Y-109625055D01*
X142235500Y-105670980D01*
X142253982Y-105620200D01*
X142258639Y-105615119D01*
X143041313Y-104832445D01*
X143090289Y-104809607D01*
X143098621Y-104809319D01*
X143122468Y-104809756D01*
X143228120Y-104811692D01*
X143228121Y-104811692D01*
X143233747Y-104811795D01*
X143374829Y-104773332D01*
X143499445Y-104696818D01*
X143503218Y-104692650D01*
X143503220Y-104692648D01*
X143593799Y-104592577D01*
X143593800Y-104592576D01*
X143597576Y-104588404D01*
X143661335Y-104456805D01*
X143685596Y-104312601D01*
X143685750Y-104300000D01*
X143671103Y-104197722D01*
X143665818Y-104160816D01*
X143665817Y-104160814D01*
X143665020Y-104155246D01*
X143662019Y-104148645D01*
X143606827Y-104027257D01*
X143606826Y-104027255D01*
X143604495Y-104022129D01*
X143600820Y-104017864D01*
X143600818Y-104017861D01*
X143512716Y-103915615D01*
X143509041Y-103911350D01*
X143423122Y-103855660D01*
X143391054Y-103834874D01*
X143391051Y-103834872D01*
X143386332Y-103831814D01*
X143316282Y-103810864D01*
X143251621Y-103791526D01*
X143251619Y-103791526D01*
X143246233Y-103789915D01*
X143173711Y-103789472D01*
X143105630Y-103789056D01*
X143105628Y-103789056D01*
X143100005Y-103789022D01*
X142959404Y-103829206D01*
X142835732Y-103907237D01*
X142832011Y-103911450D01*
X142832010Y-103911451D01*
X142742658Y-104012622D01*
X142738932Y-104016841D01*
X142736540Y-104021936D01*
X142691584Y-104117691D01*
X142676786Y-104149209D01*
X142654288Y-104293699D01*
X142659241Y-104331575D01*
X142662918Y-104359691D01*
X142651176Y-104412439D01*
X142640446Y-104425796D01*
X141784524Y-105281718D01*
X141780929Y-105284822D01*
X141776829Y-105286826D01*
X141771869Y-105292173D01*
X141744669Y-105321495D01*
X141742612Y-105323630D01*
X141729346Y-105336896D01*
X141727284Y-105339902D01*
X141725990Y-105341459D01*
X141723149Y-105344694D01*
X141704498Y-105364800D01*
X141701795Y-105371576D01*
X141699825Y-105376513D01*
X141691596Y-105391925D01*
X141684459Y-105402328D01*
X141682775Y-105409426D01*
X141678361Y-105428027D01*
X141674872Y-105439058D01*
X141665086Y-105463586D01*
X141664500Y-105469563D01*
X141664500Y-105477193D01*
X141662365Y-105495432D01*
X141659902Y-105505812D01*
X141660886Y-105513042D01*
X141660886Y-105513043D01*
X141663778Y-105534291D01*
X141664500Y-105544945D01*
X141664500Y-109499020D01*
X141646018Y-109549800D01*
X141641361Y-109554881D01*
X140604881Y-110591361D01*
X140555905Y-110614199D01*
X140549020Y-110614500D01*
X138325186Y-110614500D01*
X138274406Y-110596018D01*
X138269325Y-110591361D01*
X137018639Y-109340675D01*
X136995801Y-109291699D01*
X136995500Y-109284814D01*
X136995500Y-103720330D01*
X136995848Y-103715596D01*
X136997330Y-103711278D01*
X136995556Y-103664035D01*
X136995500Y-103661071D01*
X136995500Y-103642297D01*
X136994834Y-103638723D01*
X136994647Y-103636692D01*
X136994368Y-103632394D01*
X136993613Y-103612283D01*
X136993613Y-103612281D01*
X136993339Y-103604996D01*
X136988359Y-103593403D01*
X136983282Y-103576695D01*
X136980972Y-103564290D01*
X136967117Y-103541813D01*
X136961782Y-103531543D01*
X136961421Y-103530702D01*
X136951356Y-103507275D01*
X136947544Y-103502635D01*
X136942152Y-103497243D01*
X136930763Y-103482835D01*
X136928993Y-103479963D01*
X136928990Y-103479960D01*
X136925163Y-103473751D01*
X136902279Y-103456349D01*
X136894235Y-103449326D01*
X135578639Y-102133730D01*
X135555801Y-102084754D01*
X135555500Y-102077869D01*
X135555500Y-100891473D01*
X135555847Y-100886744D01*
X135557329Y-100882428D01*
X135555556Y-100835200D01*
X135555500Y-100832237D01*
X135555500Y-100813448D01*
X135554834Y-100809871D01*
X135554645Y-100807828D01*
X135554367Y-100803531D01*
X135553613Y-100783437D01*
X135553613Y-100783435D01*
X135553339Y-100776147D01*
X135548360Y-100764558D01*
X135543283Y-100747845D01*
X135542309Y-100742616D01*
X135542308Y-100742612D01*
X135540972Y-100735441D01*
X135527112Y-100712955D01*
X135521780Y-100702690D01*
X135513555Y-100683547D01*
X135511355Y-100678426D01*
X135507543Y-100673785D01*
X135502152Y-100668394D01*
X135490763Y-100653986D01*
X135488993Y-100651114D01*
X135488990Y-100651111D01*
X135485163Y-100644902D01*
X135462279Y-100627500D01*
X135454235Y-100620477D01*
X135180106Y-100346348D01*
X135157268Y-100297372D01*
X135158062Y-100277384D01*
X135165596Y-100232601D01*
X135165713Y-100223052D01*
X135165713Y-100223048D01*
X135165750Y-100220000D01*
X135146358Y-100084586D01*
X135145818Y-100080816D01*
X135145817Y-100080814D01*
X135145020Y-100075246D01*
X135139959Y-100064114D01*
X135086827Y-99947257D01*
X135086826Y-99947255D01*
X135084495Y-99942129D01*
X135080820Y-99937864D01*
X135080818Y-99937861D01*
X134992716Y-99835615D01*
X134989041Y-99831350D01*
X134978064Y-99824235D01*
X134971530Y-99819999D01*
X134938972Y-99776870D01*
X134935500Y-99753708D01*
X134935500Y-94031474D01*
X134935847Y-94026745D01*
X134937329Y-94022429D01*
X134935556Y-93975201D01*
X134935500Y-93972238D01*
X134935500Y-93953448D01*
X134934834Y-93949871D01*
X134934645Y-93947828D01*
X134934367Y-93943531D01*
X134933613Y-93923437D01*
X134933613Y-93923435D01*
X134933339Y-93916147D01*
X134928360Y-93904558D01*
X134923283Y-93887845D01*
X134922309Y-93882616D01*
X134922308Y-93882612D01*
X134920972Y-93875441D01*
X134907112Y-93852955D01*
X134901780Y-93842690D01*
X134893556Y-93823549D01*
X134891355Y-93818426D01*
X134887543Y-93813786D01*
X134886180Y-93812422D01*
X134882153Y-93808395D01*
X134870764Y-93793988D01*
X134868991Y-93791111D01*
X134868990Y-93791110D01*
X134865163Y-93784902D01*
X134842274Y-93767497D01*
X134834231Y-93760474D01*
X134018282Y-92944524D01*
X134015178Y-92940929D01*
X134013174Y-92936829D01*
X133978505Y-92904669D01*
X133976370Y-92902612D01*
X133963104Y-92889346D01*
X133960098Y-92887284D01*
X133958541Y-92885990D01*
X133955305Y-92883148D01*
X133940549Y-92869460D01*
X133935200Y-92864498D01*
X133923487Y-92859825D01*
X133908075Y-92851596D01*
X133897672Y-92844459D01*
X133871973Y-92838361D01*
X133860942Y-92834872D01*
X133836414Y-92825086D01*
X133830437Y-92824500D01*
X133822807Y-92824500D01*
X133804568Y-92822365D01*
X133794188Y-92819902D01*
X133786957Y-92820886D01*
X133786956Y-92820886D01*
X133772348Y-92822874D01*
X133719539Y-92811408D01*
X133686562Y-92769009D01*
X133681716Y-92754095D01*
X133676365Y-92737627D01*
X133580667Y-92571874D01*
X133547069Y-92534559D01*
X133455373Y-92432721D01*
X133452599Y-92429640D01*
X133297758Y-92317141D01*
X133252112Y-92296818D01*
X133126693Y-92240977D01*
X133126690Y-92240976D01*
X133122910Y-92239293D01*
X133118867Y-92238434D01*
X133118862Y-92238432D01*
X132939741Y-92200359D01*
X132939736Y-92200358D01*
X132935697Y-92199500D01*
X132744303Y-92199500D01*
X132740264Y-92200358D01*
X132740259Y-92200359D01*
X132561135Y-92238433D01*
X132561133Y-92238434D01*
X132557090Y-92239293D01*
X132553313Y-92240975D01*
X132553312Y-92240975D01*
X132386022Y-92315458D01*
X132386019Y-92315460D01*
X132382243Y-92317141D01*
X132378895Y-92319573D01*
X132378894Y-92319574D01*
X132303205Y-92374565D01*
X132227401Y-92429640D01*
X132224627Y-92432721D01*
X132132932Y-92534559D01*
X132099333Y-92571874D01*
X132097262Y-92575461D01*
X132012537Y-92722209D01*
X132003635Y-92737627D01*
X131989632Y-92780723D01*
X131956364Y-92823305D01*
X131903505Y-92834540D01*
X131855792Y-92809170D01*
X131835500Y-92756309D01*
X131835500Y-92325980D01*
X131853982Y-92275200D01*
X131858639Y-92270119D01*
X132274650Y-91854108D01*
X132323626Y-91831270D01*
X132330511Y-91830969D01*
X133244489Y-91830969D01*
X133295269Y-91849451D01*
X133300350Y-91854108D01*
X135981361Y-94535119D01*
X136004199Y-94584095D01*
X136004500Y-94590980D01*
X136004500Y-100138526D01*
X136004153Y-100143255D01*
X136002671Y-100147571D01*
X136002945Y-100154862D01*
X136004444Y-100194798D01*
X136004500Y-100197762D01*
X136004500Y-100216552D01*
X136005166Y-100220129D01*
X136005355Y-100222172D01*
X136005633Y-100226469D01*
X136005796Y-100230799D01*
X136006661Y-100253853D01*
X136011640Y-100265442D01*
X136016717Y-100282155D01*
X136017691Y-100287384D01*
X136017692Y-100287388D01*
X136019028Y-100294559D01*
X136030793Y-100313646D01*
X136032888Y-100317045D01*
X136038220Y-100327310D01*
X136048645Y-100351574D01*
X136052457Y-100356215D01*
X136057848Y-100361606D01*
X136069237Y-100376014D01*
X136071007Y-100378886D01*
X136071010Y-100378889D01*
X136074837Y-100385098D01*
X136095782Y-100401025D01*
X136097722Y-100402500D01*
X136105765Y-100409523D01*
X137391704Y-101695462D01*
X137414542Y-101744438D01*
X137409050Y-101777283D01*
X137410131Y-101777634D01*
X137350987Y-101959661D01*
X137350554Y-101963777D01*
X137350554Y-101963779D01*
X137346882Y-101998719D01*
X137330981Y-102150007D01*
X137331414Y-102154127D01*
X137345213Y-102285412D01*
X137350987Y-102340353D01*
X137410131Y-102522380D01*
X137412200Y-102525963D01*
X137412201Y-102525966D01*
X137463978Y-102615645D01*
X137505829Y-102688133D01*
X137508601Y-102691212D01*
X137508602Y-102691213D01*
X137579255Y-102769681D01*
X137633897Y-102830367D01*
X137788738Y-102942866D01*
X137792527Y-102944553D01*
X137959803Y-103019030D01*
X137959806Y-103019031D01*
X137963586Y-103020714D01*
X138023422Y-103033432D01*
X138069249Y-103062068D01*
X138085996Y-103110706D01*
X138085996Y-103739308D01*
X138067514Y-103790088D01*
X138023422Y-103816582D01*
X138008144Y-103819829D01*
X137967631Y-103828440D01*
X137967629Y-103828441D01*
X137963586Y-103829300D01*
X137959809Y-103830982D01*
X137959808Y-103830982D01*
X137792518Y-103905465D01*
X137792515Y-103905467D01*
X137788739Y-103907148D01*
X137785391Y-103909580D01*
X137785390Y-103909581D01*
X137753739Y-103932577D01*
X137633897Y-104019647D01*
X137631123Y-104022728D01*
X137513075Y-104153834D01*
X137505829Y-104161881D01*
X137503758Y-104165468D01*
X137420572Y-104309550D01*
X137410131Y-104327634D01*
X137350987Y-104509661D01*
X137350554Y-104513777D01*
X137350554Y-104513779D01*
X137331754Y-104692648D01*
X137330981Y-104700007D01*
X137331414Y-104704127D01*
X137349839Y-104879426D01*
X137350987Y-104890353D01*
X137410131Y-105072380D01*
X137412200Y-105075963D01*
X137412201Y-105075966D01*
X137489937Y-105210607D01*
X137505829Y-105238133D01*
X137633897Y-105380367D01*
X137788738Y-105492866D01*
X137792527Y-105494553D01*
X137959803Y-105569030D01*
X137959806Y-105569031D01*
X137963586Y-105570714D01*
X138023422Y-105583432D01*
X138069249Y-105612068D01*
X138085996Y-105660706D01*
X138085996Y-106289308D01*
X138067514Y-106340088D01*
X138023422Y-106366582D01*
X137990712Y-106373534D01*
X137967631Y-106378440D01*
X137967629Y-106378441D01*
X137963586Y-106379300D01*
X137959809Y-106380982D01*
X137959808Y-106380982D01*
X137792518Y-106455465D01*
X137792515Y-106455467D01*
X137788739Y-106457148D01*
X137633897Y-106569647D01*
X137631123Y-106572728D01*
X137541155Y-106672648D01*
X137505829Y-106711881D01*
X137503758Y-106715468D01*
X137423423Y-106854612D01*
X137410131Y-106877634D01*
X137350987Y-107059661D01*
X137330981Y-107250007D01*
X137350987Y-107440353D01*
X137410131Y-107622380D01*
X137412200Y-107625963D01*
X137412201Y-107625966D01*
X137499506Y-107777182D01*
X137505829Y-107788133D01*
X137633897Y-107930367D01*
X137788738Y-108042866D01*
X137792527Y-108044553D01*
X137959803Y-108119030D01*
X137959806Y-108119031D01*
X137963586Y-108120714D01*
X138023422Y-108133432D01*
X138069249Y-108162068D01*
X138085996Y-108210706D01*
X138085996Y-109589809D01*
X138085592Y-109596222D01*
X138082496Y-109604289D01*
X138083595Y-109613786D01*
X138085472Y-109630010D01*
X138085996Y-109639090D01*
X138085996Y-109644561D01*
X138087133Y-109649191D01*
X138087203Y-109649769D01*
X138088759Y-109658422D01*
X138091560Y-109682627D01*
X138096761Y-109690279D01*
X138097137Y-109691503D01*
X138097797Y-109692606D01*
X138100004Y-109701591D01*
X138108819Y-109711590D01*
X138116110Y-109719860D01*
X138122190Y-109727698D01*
X138130511Y-109739942D01*
X138130513Y-109739944D01*
X138135887Y-109747851D01*
X138144042Y-109752223D01*
X138144942Y-109753133D01*
X138146035Y-109753803D01*
X138152155Y-109760745D01*
X138161081Y-109764171D01*
X138161082Y-109764172D01*
X138174895Y-109769474D01*
X138183916Y-109773605D01*
X138198987Y-109781686D01*
X138198990Y-109781687D01*
X138205387Y-109785117D01*
X138208474Y-109785507D01*
X138211298Y-109785507D01*
X138217711Y-109785911D01*
X138225778Y-109789007D01*
X138251499Y-109786031D01*
X138260579Y-109785507D01*
X140011298Y-109785507D01*
X140017711Y-109785911D01*
X140025778Y-109789007D01*
X140051499Y-109786031D01*
X140060579Y-109785507D01*
X140066050Y-109785507D01*
X140070680Y-109784370D01*
X140071258Y-109784300D01*
X140079911Y-109782744D01*
X140094620Y-109781042D01*
X140094621Y-109781042D01*
X140104116Y-109779943D01*
X140111768Y-109774742D01*
X140112992Y-109774366D01*
X140114095Y-109773706D01*
X140123080Y-109771499D01*
X140141350Y-109755392D01*
X140149187Y-109749313D01*
X140161431Y-109740992D01*
X140161433Y-109740990D01*
X140169340Y-109735616D01*
X140173712Y-109727461D01*
X140174622Y-109726561D01*
X140175292Y-109725468D01*
X140182234Y-109719348D01*
X140189184Y-109701244D01*
X140190963Y-109696608D01*
X140195094Y-109687587D01*
X140203175Y-109672516D01*
X140203176Y-109672513D01*
X140206606Y-109666116D01*
X140206996Y-109663029D01*
X140206996Y-109660205D01*
X140207400Y-109653792D01*
X140210496Y-109645725D01*
X140207520Y-109620004D01*
X140206996Y-109610924D01*
X140206996Y-106905392D01*
X140225478Y-106854612D01*
X140269572Y-106828118D01*
X140284736Y-106824895D01*
X140300356Y-106821575D01*
X140300357Y-106821575D01*
X140304406Y-106820714D01*
X140308186Y-106819031D01*
X140308189Y-106819030D01*
X140475465Y-106744553D01*
X140479254Y-106742866D01*
X140634095Y-106630367D01*
X140762163Y-106488133D01*
X140788873Y-106441870D01*
X140855791Y-106325966D01*
X140855792Y-106325963D01*
X140857861Y-106322380D01*
X140917005Y-106140353D01*
X140917592Y-106134774D01*
X140936578Y-105954127D01*
X140937011Y-105950007D01*
X140931294Y-105895615D01*
X140917438Y-105763779D01*
X140917438Y-105763777D01*
X140917005Y-105759661D01*
X140857861Y-105577634D01*
X140854363Y-105571574D01*
X140764234Y-105415468D01*
X140762163Y-105411881D01*
X140756627Y-105405732D01*
X140651771Y-105289278D01*
X140634095Y-105269647D01*
X140479254Y-105157148D01*
X140475465Y-105155461D01*
X140308189Y-105080984D01*
X140308186Y-105080983D01*
X140304406Y-105079300D01*
X140300357Y-105078439D01*
X140300356Y-105078439D01*
X140284736Y-105075119D01*
X140269572Y-105071896D01*
X140223744Y-105043260D01*
X140206996Y-104994622D01*
X140206996Y-104380392D01*
X140225478Y-104329612D01*
X140269572Y-104303118D01*
X140287629Y-104299280D01*
X140300356Y-104296575D01*
X140300357Y-104296575D01*
X140304406Y-104295714D01*
X140308186Y-104294031D01*
X140308189Y-104294030D01*
X140475465Y-104219553D01*
X140479254Y-104217866D01*
X140634095Y-104105367D01*
X140695817Y-104036818D01*
X140759390Y-103966213D01*
X140759391Y-103966212D01*
X140762163Y-103963133D01*
X140792060Y-103911350D01*
X140855791Y-103800966D01*
X140855792Y-103800963D01*
X140857861Y-103797380D01*
X140917005Y-103615353D01*
X140918798Y-103598300D01*
X140936578Y-103429127D01*
X140937011Y-103425007D01*
X140918226Y-103246279D01*
X140917438Y-103238779D01*
X140917438Y-103238777D01*
X140917005Y-103234661D01*
X140857861Y-103052634D01*
X140853871Y-103045722D01*
X140764234Y-102890468D01*
X140762163Y-102886881D01*
X140755153Y-102879095D01*
X140636869Y-102747728D01*
X140634095Y-102744647D01*
X140479254Y-102632148D01*
X140454633Y-102621186D01*
X140308189Y-102555984D01*
X140308186Y-102555983D01*
X140304406Y-102554300D01*
X140300357Y-102553439D01*
X140300356Y-102553439D01*
X140284736Y-102550119D01*
X140269572Y-102546896D01*
X140223744Y-102518260D01*
X140206996Y-102469622D01*
X140206996Y-101835706D01*
X140225478Y-101784926D01*
X140269570Y-101758432D01*
X140329406Y-101745714D01*
X140333186Y-101744031D01*
X140333189Y-101744030D01*
X140500465Y-101669553D01*
X140504254Y-101667866D01*
X140659095Y-101555367D01*
X140707337Y-101501789D01*
X140784390Y-101416213D01*
X140784391Y-101416212D01*
X140787163Y-101413133D01*
X140823904Y-101349496D01*
X140880791Y-101250966D01*
X140880792Y-101250963D01*
X140882861Y-101247380D01*
X140942005Y-101065353D01*
X140947714Y-101011041D01*
X140961578Y-100879127D01*
X140962011Y-100875007D01*
X140957827Y-100835201D01*
X140942438Y-100688779D01*
X140942438Y-100688777D01*
X140942005Y-100684661D01*
X140882861Y-100502634D01*
X140879523Y-100496851D01*
X140789234Y-100340468D01*
X140787163Y-100336881D01*
X140659095Y-100194647D01*
X140504254Y-100082148D01*
X140399500Y-100035508D01*
X140333189Y-100005984D01*
X140333186Y-100005983D01*
X140329406Y-100004300D01*
X140269570Y-99991582D01*
X140223743Y-99962946D01*
X140206996Y-99914308D01*
X140206996Y-99280392D01*
X140225478Y-99229612D01*
X140269572Y-99203118D01*
X140295110Y-99197690D01*
X140300356Y-99196575D01*
X140300357Y-99196575D01*
X140304406Y-99195714D01*
X140308186Y-99194031D01*
X140308189Y-99194030D01*
X140475465Y-99119553D01*
X140479254Y-99117866D01*
X140634095Y-99005367D01*
X140762163Y-98863133D01*
X140793778Y-98808375D01*
X140855791Y-98700966D01*
X140855792Y-98700963D01*
X140857861Y-98697380D01*
X140917005Y-98515353D01*
X140917925Y-98506606D01*
X140936578Y-98329127D01*
X140937011Y-98325007D01*
X140923073Y-98192391D01*
X140917438Y-98138779D01*
X140917438Y-98138777D01*
X140917005Y-98134661D01*
X140857861Y-97952634D01*
X140854363Y-97946574D01*
X140764234Y-97790468D01*
X140762163Y-97786881D01*
X140734468Y-97756122D01*
X140640001Y-97651206D01*
X140634095Y-97644647D01*
X140479254Y-97532148D01*
X140424020Y-97507556D01*
X140308189Y-97455984D01*
X140308186Y-97455983D01*
X140304406Y-97454300D01*
X140300357Y-97453439D01*
X140300356Y-97453439D01*
X140284736Y-97450119D01*
X140269572Y-97446896D01*
X140223744Y-97418260D01*
X140206996Y-97369622D01*
X140206996Y-96755392D01*
X140225478Y-96704612D01*
X140269572Y-96678118D01*
X140284736Y-96674895D01*
X140300356Y-96671575D01*
X140300357Y-96671575D01*
X140304406Y-96670714D01*
X140308186Y-96669031D01*
X140308189Y-96669030D01*
X140475465Y-96594553D01*
X140479254Y-96592866D01*
X140634095Y-96480367D01*
X140682337Y-96426789D01*
X140759390Y-96341213D01*
X140759391Y-96341212D01*
X140762163Y-96338133D01*
X140774283Y-96317141D01*
X140855791Y-96175966D01*
X140855792Y-96175963D01*
X140857861Y-96172380D01*
X140917005Y-95990353D01*
X140917929Y-95981568D01*
X140936578Y-95804127D01*
X140937011Y-95800007D01*
X140917005Y-95609661D01*
X140857861Y-95427634D01*
X140847272Y-95409293D01*
X140837887Y-95356077D01*
X140859826Y-95313932D01*
X140865476Y-95308282D01*
X140869071Y-95305178D01*
X140873171Y-95303174D01*
X140905331Y-95268505D01*
X140907388Y-95266370D01*
X140920654Y-95253104D01*
X140922716Y-95250098D01*
X140924010Y-95248541D01*
X140926852Y-95245305D01*
X140934001Y-95237598D01*
X140945502Y-95225200D01*
X140950174Y-95213490D01*
X140958406Y-95198073D01*
X140961415Y-95193687D01*
X140961417Y-95193683D01*
X140965541Y-95187671D01*
X140971640Y-95161972D01*
X140975129Y-95150941D01*
X140982846Y-95131598D01*
X140982846Y-95131597D01*
X140984914Y-95126414D01*
X140985500Y-95120437D01*
X140985500Y-95112813D01*
X140987635Y-95094572D01*
X140988414Y-95091289D01*
X140988414Y-95091288D01*
X140990099Y-95084188D01*
X140986222Y-95055702D01*
X140985500Y-95045048D01*
X140985500Y-93183699D01*
X141614288Y-93183699D01*
X141633249Y-93328695D01*
X141635517Y-93333849D01*
X141635725Y-93334595D01*
X141636348Y-93366402D01*
X141636943Y-93366431D01*
X141636587Y-93373712D01*
X141634902Y-93380812D01*
X141635886Y-93388042D01*
X141635886Y-93388043D01*
X141638778Y-93409291D01*
X141639500Y-93419945D01*
X141639500Y-98283526D01*
X141639153Y-98288255D01*
X141637671Y-98292571D01*
X141638889Y-98325007D01*
X141639444Y-98339798D01*
X141639500Y-98342762D01*
X141639500Y-98361552D01*
X141640166Y-98365129D01*
X141640355Y-98367172D01*
X141640633Y-98371469D01*
X141641348Y-98390508D01*
X141641661Y-98398853D01*
X141646640Y-98410442D01*
X141651717Y-98427155D01*
X141652691Y-98432384D01*
X141652692Y-98432388D01*
X141654028Y-98439559D01*
X141665793Y-98458646D01*
X141667888Y-98462045D01*
X141673220Y-98472310D01*
X141683645Y-98496574D01*
X141687457Y-98501215D01*
X141692848Y-98506606D01*
X141704237Y-98521014D01*
X141706007Y-98523886D01*
X141706010Y-98523889D01*
X141709837Y-98530098D01*
X141724536Y-98541275D01*
X141732722Y-98547500D01*
X141740765Y-98554523D01*
X142630151Y-99443909D01*
X142652989Y-99492885D01*
X142652350Y-99511919D01*
X142644288Y-99563699D01*
X142663249Y-99708695D01*
X142722143Y-99842542D01*
X142816236Y-99954479D01*
X142937964Y-100035508D01*
X143077541Y-100079116D01*
X143127056Y-100080023D01*
X143218120Y-100081692D01*
X143218121Y-100081692D01*
X143223747Y-100081795D01*
X143364829Y-100043332D01*
X143489445Y-99966818D01*
X143493218Y-99962650D01*
X143493220Y-99962648D01*
X143583799Y-99862577D01*
X143583800Y-99862576D01*
X143587576Y-99858404D01*
X143591655Y-99849986D01*
X143648881Y-99731870D01*
X143651335Y-99726805D01*
X143655321Y-99703116D01*
X143675090Y-99585610D01*
X143675090Y-99585607D01*
X143675596Y-99582601D01*
X143675750Y-99570000D01*
X143667416Y-99511805D01*
X143655818Y-99430816D01*
X143655817Y-99430814D01*
X143655020Y-99425246D01*
X143652691Y-99420123D01*
X143596827Y-99297257D01*
X143596826Y-99297255D01*
X143594495Y-99292129D01*
X143590820Y-99287864D01*
X143590818Y-99287861D01*
X143502716Y-99185615D01*
X143499041Y-99181350D01*
X143454710Y-99152616D01*
X143381054Y-99104874D01*
X143381051Y-99104872D01*
X143376332Y-99101814D01*
X143298022Y-99078394D01*
X143241621Y-99061526D01*
X143241619Y-99061526D01*
X143236233Y-99059915D01*
X143090005Y-99059022D01*
X143090015Y-99057418D01*
X143044016Y-99047479D01*
X143030243Y-99036485D01*
X142233639Y-98239881D01*
X142210801Y-98190905D01*
X142210500Y-98184020D01*
X142210500Y-93757573D01*
X142228982Y-93706793D01*
X142268721Y-93681355D01*
X142334829Y-93663332D01*
X142459445Y-93586818D01*
X142463218Y-93582650D01*
X142463220Y-93582648D01*
X142553799Y-93482577D01*
X142553800Y-93482576D01*
X142557576Y-93478404D01*
X142582074Y-93427841D01*
X142618881Y-93351870D01*
X142621335Y-93346805D01*
X142629152Y-93300346D01*
X142645090Y-93205610D01*
X142645090Y-93205607D01*
X142645596Y-93202601D01*
X142645750Y-93190000D01*
X142636306Y-93124054D01*
X142625818Y-93050816D01*
X142625817Y-93050814D01*
X142625020Y-93045246D01*
X142619959Y-93034114D01*
X142566827Y-92917257D01*
X142566826Y-92917255D01*
X142564495Y-92912129D01*
X142560820Y-92907864D01*
X142560818Y-92907861D01*
X142472716Y-92805615D01*
X142469041Y-92801350D01*
X142406758Y-92760980D01*
X142351054Y-92724874D01*
X142351051Y-92724872D01*
X142346332Y-92721814D01*
X142271519Y-92699440D01*
X142211621Y-92681526D01*
X142211619Y-92681526D01*
X142206233Y-92679915D01*
X142133711Y-92679472D01*
X142065630Y-92679056D01*
X142065628Y-92679056D01*
X142060005Y-92679022D01*
X141919404Y-92719206D01*
X141795732Y-92797237D01*
X141792011Y-92801450D01*
X141792010Y-92801451D01*
X141738716Y-92861795D01*
X141698932Y-92906841D01*
X141636786Y-93039209D01*
X141614288Y-93183699D01*
X140985500Y-93183699D01*
X140985500Y-91876474D01*
X140985847Y-91871745D01*
X140987329Y-91867429D01*
X140985556Y-91820201D01*
X140985500Y-91817238D01*
X140985500Y-91798448D01*
X140984834Y-91794871D01*
X140984645Y-91792828D01*
X140984367Y-91788531D01*
X140983613Y-91768437D01*
X140983613Y-91768435D01*
X140983339Y-91761147D01*
X140978360Y-91749558D01*
X140973283Y-91732845D01*
X140972309Y-91727616D01*
X140972308Y-91727612D01*
X140970972Y-91720441D01*
X140957112Y-91697955D01*
X140951780Y-91687690D01*
X140948195Y-91679346D01*
X140941355Y-91663426D01*
X140937543Y-91658785D01*
X140932152Y-91653394D01*
X140920763Y-91638986D01*
X140918993Y-91636114D01*
X140918990Y-91636111D01*
X140915163Y-91629902D01*
X140892279Y-91612500D01*
X140884235Y-91605477D01*
X139978282Y-90699524D01*
X139975178Y-90695929D01*
X139973174Y-90691829D01*
X139938505Y-90659669D01*
X139936370Y-90657612D01*
X139923104Y-90644346D01*
X139920098Y-90642284D01*
X139918541Y-90640990D01*
X139915305Y-90638148D01*
X139900549Y-90624460D01*
X139895200Y-90619498D01*
X139883487Y-90614825D01*
X139868075Y-90606596D01*
X139857672Y-90599459D01*
X139831973Y-90593361D01*
X139820942Y-90589872D01*
X139796414Y-90580086D01*
X139790437Y-90579500D01*
X139782807Y-90579500D01*
X139764568Y-90577365D01*
X139754188Y-90574902D01*
X139746958Y-90575886D01*
X139746957Y-90575886D01*
X139725709Y-90578778D01*
X139715055Y-90579500D01*
X136908974Y-90579500D01*
X136858194Y-90561018D01*
X136849126Y-90552068D01*
X136817714Y-90515613D01*
X136814041Y-90511350D01*
X136773812Y-90485275D01*
X136696054Y-90434874D01*
X136696051Y-90434872D01*
X136691332Y-90431814D01*
X136613109Y-90408420D01*
X136556621Y-90391526D01*
X136556619Y-90391526D01*
X136551233Y-90389915D01*
X136478711Y-90389472D01*
X136410630Y-90389056D01*
X136410628Y-90389056D01*
X136405005Y-90389022D01*
X136264404Y-90429206D01*
X136140732Y-90507237D01*
X136137011Y-90511450D01*
X136137010Y-90511451D01*
X136052983Y-90606593D01*
X136043932Y-90616841D01*
X135981786Y-90749209D01*
X135959288Y-90893699D01*
X135960018Y-90899280D01*
X135976729Y-91027068D01*
X135978249Y-91038695D01*
X136037143Y-91172542D01*
X136040765Y-91176851D01*
X136051689Y-91189847D01*
X136131236Y-91284479D01*
X136252964Y-91365508D01*
X136258338Y-91367187D01*
X136328335Y-91389056D01*
X136392541Y-91409116D01*
X136442056Y-91410023D01*
X136533120Y-91411692D01*
X136533121Y-91411692D01*
X136538747Y-91411795D01*
X136679829Y-91373332D01*
X136804445Y-91296818D01*
X136808218Y-91292650D01*
X136808220Y-91292648D01*
X136853810Y-91242280D01*
X136902576Y-91188404D01*
X136904272Y-91184903D01*
X136947408Y-91153561D01*
X136969185Y-91150500D01*
X139589020Y-91150500D01*
X139639800Y-91168982D01*
X139644881Y-91173639D01*
X140391361Y-91920119D01*
X140414199Y-91969095D01*
X140414500Y-91975980D01*
X140414500Y-94856793D01*
X140396018Y-94907573D01*
X140349218Y-94934593D01*
X140311084Y-94931925D01*
X140308187Y-94930984D01*
X140304406Y-94929300D01*
X140300363Y-94928441D01*
X140300358Y-94928439D01*
X140275830Y-94923226D01*
X140269572Y-94921896D01*
X140223744Y-94893260D01*
X140206996Y-94844622D01*
X140206996Y-92210205D01*
X140207400Y-92203792D01*
X140210496Y-92195725D01*
X140207520Y-92170004D01*
X140206996Y-92160924D01*
X140206996Y-92155453D01*
X140205859Y-92150823D01*
X140205789Y-92150245D01*
X140204233Y-92141592D01*
X140202531Y-92126883D01*
X140202531Y-92126882D01*
X140201432Y-92117387D01*
X140196231Y-92109735D01*
X140195855Y-92108511D01*
X140195195Y-92107408D01*
X140192988Y-92098423D01*
X140176881Y-92080153D01*
X140170802Y-92072316D01*
X140162481Y-92060072D01*
X140162479Y-92060070D01*
X140157105Y-92052163D01*
X140148950Y-92047791D01*
X140148050Y-92046881D01*
X140146957Y-92046211D01*
X140140837Y-92039269D01*
X140131911Y-92035843D01*
X140131910Y-92035842D01*
X140118097Y-92030540D01*
X140109076Y-92026409D01*
X140094005Y-92018328D01*
X140094002Y-92018327D01*
X140087605Y-92014897D01*
X140084518Y-92014507D01*
X140081694Y-92014507D01*
X140075281Y-92014103D01*
X140067214Y-92011007D01*
X140042349Y-92013884D01*
X140041493Y-92013983D01*
X140032413Y-92014507D01*
X138281694Y-92014507D01*
X138275281Y-92014103D01*
X138267214Y-92011007D01*
X138242349Y-92013884D01*
X138241493Y-92013983D01*
X138232413Y-92014507D01*
X138226942Y-92014507D01*
X138222312Y-92015644D01*
X138221734Y-92015714D01*
X138213081Y-92017270D01*
X138198372Y-92018972D01*
X138198371Y-92018972D01*
X138188876Y-92020071D01*
X138181224Y-92025272D01*
X138180000Y-92025648D01*
X138178897Y-92026308D01*
X138169912Y-92028515D01*
X138162739Y-92034838D01*
X138162740Y-92034838D01*
X138151643Y-92044621D01*
X138143805Y-92050701D01*
X138131561Y-92059022D01*
X138131559Y-92059024D01*
X138123652Y-92064398D01*
X138119280Y-92072553D01*
X138118370Y-92073453D01*
X138117700Y-92074546D01*
X138110758Y-92080666D01*
X138107332Y-92089592D01*
X138107331Y-92089593D01*
X138102029Y-92103406D01*
X138097898Y-92112427D01*
X138089817Y-92127498D01*
X138089816Y-92127501D01*
X138086386Y-92133898D01*
X138085996Y-92136985D01*
X138085996Y-92139809D01*
X138085592Y-92146222D01*
X138082496Y-92154289D01*
X138085472Y-92180010D01*
X138085996Y-92189090D01*
X138085996Y-93470688D01*
X138067514Y-93521468D01*
X138029301Y-93546474D01*
X137873786Y-93592245D01*
X137866649Y-93595129D01*
X137749967Y-93656128D01*
X137742312Y-93664512D01*
X137742255Y-93665870D01*
X137744337Y-93669294D01*
X138062857Y-93987814D01*
X138085695Y-94036790D01*
X138085996Y-94043675D01*
X138085996Y-95006339D01*
X138067514Y-95057119D01*
X138062857Y-95062200D01*
X137748243Y-95376814D01*
X137743443Y-95387108D01*
X137743950Y-95389001D01*
X137746185Y-95391020D01*
X137840843Y-95443922D01*
X137847877Y-95446996D01*
X138030722Y-95506405D01*
X138030072Y-95508406D01*
X138069598Y-95533504D01*
X138085996Y-95581690D01*
X138085996Y-96114308D01*
X138067514Y-96165088D01*
X138023422Y-96191582D01*
X137990712Y-96198534D01*
X137967631Y-96203440D01*
X137967629Y-96203441D01*
X137963586Y-96204300D01*
X137959809Y-96205982D01*
X137959808Y-96205982D01*
X137792518Y-96280465D01*
X137792515Y-96280467D01*
X137788739Y-96282148D01*
X137785391Y-96284580D01*
X137785390Y-96284581D01*
X137716619Y-96334546D01*
X137633897Y-96394647D01*
X137631123Y-96397728D01*
X137559489Y-96477286D01*
X137505829Y-96536881D01*
X137503758Y-96540468D01*
X137433984Y-96661320D01*
X137410131Y-96702634D01*
X137350987Y-96884661D01*
X137350554Y-96888777D01*
X137350554Y-96888779D01*
X137343067Y-96960015D01*
X137319378Y-97008585D01*
X137270011Y-97030565D01*
X137218065Y-97015669D01*
X137187847Y-96970869D01*
X137185500Y-96951757D01*
X137185500Y-94974890D01*
X137203982Y-94924110D01*
X137250782Y-94897090D01*
X137304000Y-94906474D01*
X137334764Y-94938779D01*
X137377418Y-95021774D01*
X137385750Y-95029490D01*
X137386957Y-95029549D01*
X137390594Y-95027355D01*
X137883092Y-94534858D01*
X137887892Y-94524565D01*
X137886205Y-94518269D01*
X137394552Y-94026617D01*
X137384258Y-94021817D01*
X137382512Y-94022285D01*
X137380331Y-94024715D01*
X137333728Y-94109486D01*
X137293068Y-94145082D01*
X137239041Y-94146213D01*
X137196926Y-94112352D01*
X137185500Y-94071428D01*
X137185500Y-92661481D01*
X137185848Y-92656747D01*
X137187330Y-92652429D01*
X137185556Y-92605186D01*
X137185500Y-92602222D01*
X137185500Y-92583448D01*
X137184834Y-92579874D01*
X137184647Y-92577843D01*
X137184368Y-92573545D01*
X137183613Y-92553434D01*
X137183613Y-92553432D01*
X137183339Y-92546147D01*
X137178359Y-92534554D01*
X137173282Y-92517846D01*
X137170972Y-92505441D01*
X137157117Y-92482964D01*
X137151782Y-92472694D01*
X137141356Y-92448426D01*
X137137544Y-92443786D01*
X137132152Y-92438394D01*
X137120763Y-92423986D01*
X137118993Y-92421114D01*
X137118990Y-92421111D01*
X137115163Y-92414902D01*
X137092279Y-92397500D01*
X137084235Y-92390477D01*
X136428282Y-91734524D01*
X136425178Y-91730929D01*
X136423174Y-91726829D01*
X136388505Y-91694669D01*
X136386370Y-91692612D01*
X136373104Y-91679346D01*
X136370098Y-91677284D01*
X136368541Y-91675990D01*
X136365305Y-91673148D01*
X136360345Y-91668547D01*
X136345200Y-91654498D01*
X136333487Y-91649825D01*
X136318075Y-91641596D01*
X136307672Y-91634459D01*
X136281973Y-91628361D01*
X136270942Y-91624872D01*
X136246414Y-91615086D01*
X136240437Y-91614500D01*
X136232807Y-91614500D01*
X136214568Y-91612365D01*
X136204188Y-91609902D01*
X136196958Y-91610886D01*
X136196957Y-91610886D01*
X136175709Y-91613778D01*
X136165055Y-91614500D01*
X135714132Y-91614500D01*
X135663352Y-91596018D01*
X135654284Y-91587068D01*
X135592714Y-91515613D01*
X135589041Y-91511350D01*
X135530053Y-91473116D01*
X135471054Y-91434874D01*
X135471051Y-91434872D01*
X135466332Y-91431814D01*
X135384825Y-91407438D01*
X135331621Y-91391526D01*
X135331619Y-91391526D01*
X135326233Y-91389915D01*
X135253711Y-91389472D01*
X135185630Y-91389056D01*
X135185628Y-91389056D01*
X135180005Y-91389022D01*
X135039404Y-91429206D01*
X134915732Y-91507237D01*
X134818932Y-91616841D01*
X134804975Y-91646568D01*
X134762604Y-91736818D01*
X134756786Y-91749209D01*
X134734288Y-91893699D01*
X134735018Y-91899280D01*
X134752183Y-92030540D01*
X134753249Y-92038695D01*
X134812143Y-92172542D01*
X134815765Y-92176851D01*
X134864025Y-92234263D01*
X134906236Y-92284479D01*
X135027964Y-92365508D01*
X135167541Y-92409116D01*
X135217056Y-92410023D01*
X135308120Y-92411692D01*
X135308121Y-92411692D01*
X135313747Y-92411795D01*
X135454829Y-92373332D01*
X135579445Y-92296818D01*
X135583218Y-92292650D01*
X135583220Y-92292648D01*
X135656684Y-92211485D01*
X135704464Y-92186240D01*
X135715254Y-92185500D01*
X136039020Y-92185500D01*
X136089800Y-92203982D01*
X136094881Y-92208639D01*
X136591361Y-92705119D01*
X136614199Y-92754095D01*
X136614500Y-92760980D01*
X136614500Y-94168725D01*
X136596018Y-94219505D01*
X136549218Y-94246525D01*
X136496000Y-94237141D01*
X136487684Y-94231611D01*
X136482276Y-94227499D01*
X136474235Y-94220477D01*
X133633751Y-91379993D01*
X133630647Y-91376398D01*
X133628643Y-91372298D01*
X133623293Y-91367335D01*
X133619037Y-91361605D01*
X133603597Y-91309818D01*
X133625056Y-91260223D01*
X133673375Y-91236024D01*
X133682458Y-91235500D01*
X134773526Y-91235500D01*
X134778255Y-91235847D01*
X134782571Y-91237329D01*
X134829799Y-91235556D01*
X134832762Y-91235500D01*
X134851552Y-91235500D01*
X134855129Y-91234834D01*
X134857172Y-91234645D01*
X134861469Y-91234367D01*
X134881563Y-91233613D01*
X134881565Y-91233613D01*
X134888853Y-91233339D01*
X134900442Y-91228360D01*
X134917155Y-91223283D01*
X134922384Y-91222309D01*
X134922388Y-91222308D01*
X134929559Y-91220972D01*
X134952045Y-91207112D01*
X134962310Y-91201780D01*
X134969849Y-91198541D01*
X134986574Y-91191355D01*
X134991215Y-91187543D01*
X134996606Y-91182152D01*
X135011014Y-91170763D01*
X135013886Y-91168993D01*
X135013889Y-91168990D01*
X135020098Y-91165163D01*
X135037500Y-91142278D01*
X135044523Y-91134235D01*
X136080119Y-90098639D01*
X136129095Y-90075801D01*
X136135980Y-90075500D01*
X140029020Y-90075500D01*
X140079800Y-90093982D01*
X140084881Y-90098639D01*
X141200151Y-91213909D01*
X141222989Y-91262885D01*
X141222350Y-91281919D01*
X141214288Y-91333699D01*
X141215018Y-91339280D01*
X141227519Y-91434874D01*
X141233249Y-91478695D01*
X141292143Y-91612542D01*
X141295765Y-91616851D01*
X141339220Y-91668547D01*
X141386236Y-91724479D01*
X141507964Y-91805508D01*
X141513338Y-91807187D01*
X141589458Y-91830969D01*
X141647541Y-91849116D01*
X141697056Y-91850023D01*
X141788120Y-91851692D01*
X141788121Y-91851692D01*
X141793747Y-91851795D01*
X141934829Y-91813332D01*
X142059445Y-91736818D01*
X142063218Y-91732650D01*
X142063220Y-91732648D01*
X142117076Y-91673148D01*
X142136684Y-91651485D01*
X142184464Y-91626240D01*
X142195254Y-91625500D01*
X142379020Y-91625500D01*
X142429800Y-91643982D01*
X142434881Y-91648639D01*
X143331361Y-92545119D01*
X143354199Y-92594095D01*
X143354500Y-92600980D01*
X143354500Y-94209020D01*
X143336018Y-94259800D01*
X143331361Y-94264881D01*
X143279484Y-94316758D01*
X143230508Y-94339596D01*
X143223141Y-94339896D01*
X143085630Y-94339056D01*
X143085628Y-94339056D01*
X143080005Y-94339022D01*
X142939404Y-94379206D01*
X142815732Y-94457237D01*
X142812011Y-94461450D01*
X142812010Y-94461451D01*
X142764540Y-94515200D01*
X142718932Y-94566841D01*
X142656786Y-94699209D01*
X142634288Y-94843699D01*
X142635018Y-94849280D01*
X142651444Y-94974890D01*
X142653249Y-94988695D01*
X142712143Y-95122542D01*
X142715765Y-95126851D01*
X142781726Y-95205321D01*
X142806236Y-95234479D01*
X142927964Y-95315508D01*
X143067541Y-95359116D01*
X143117056Y-95360023D01*
X143208120Y-95361692D01*
X143208121Y-95361692D01*
X143213747Y-95361795D01*
X143354829Y-95323332D01*
X143454912Y-95261881D01*
X143474652Y-95249761D01*
X143479445Y-95246818D01*
X143483218Y-95242650D01*
X143483220Y-95242648D01*
X143573799Y-95142577D01*
X143573800Y-95142576D01*
X143577576Y-95138404D01*
X143580874Y-95131598D01*
X143638881Y-95011870D01*
X143641335Y-95006805D01*
X143645321Y-94983116D01*
X143665090Y-94865610D01*
X143665090Y-94865607D01*
X143665596Y-94862601D01*
X143665750Y-94850000D01*
X143657323Y-94791154D01*
X143668420Y-94738266D01*
X143679664Y-94724094D01*
X143805476Y-94598282D01*
X143809071Y-94595178D01*
X143813171Y-94593174D01*
X143845331Y-94558505D01*
X143847388Y-94556370D01*
X143860654Y-94543104D01*
X143862716Y-94540098D01*
X143864010Y-94538541D01*
X143866852Y-94535305D01*
X143880540Y-94520549D01*
X143885502Y-94515200D01*
X143890175Y-94503487D01*
X143898404Y-94488075D01*
X143905541Y-94477672D01*
X143911639Y-94451976D01*
X143915126Y-94440948D01*
X143924914Y-94416414D01*
X143925500Y-94410437D01*
X143925500Y-94402812D01*
X143927635Y-94384571D01*
X143930099Y-94374188D01*
X143927690Y-94356484D01*
X143926222Y-94345702D01*
X143925500Y-94335048D01*
X143925500Y-92501473D01*
X143925847Y-92496744D01*
X143927329Y-92492428D01*
X143925556Y-92445200D01*
X143925500Y-92442237D01*
X143925500Y-92423448D01*
X143924834Y-92419871D01*
X143924645Y-92417828D01*
X143924367Y-92413531D01*
X143923613Y-92393437D01*
X143923613Y-92393435D01*
X143923339Y-92386147D01*
X143918360Y-92374558D01*
X143913283Y-92357845D01*
X143912309Y-92352616D01*
X143912308Y-92352612D01*
X143910972Y-92345441D01*
X143897112Y-92322955D01*
X143891780Y-92312690D01*
X143886225Y-92299761D01*
X143881355Y-92288426D01*
X143877543Y-92283785D01*
X143872152Y-92278394D01*
X143860763Y-92263986D01*
X143858993Y-92261114D01*
X143858990Y-92261111D01*
X143855163Y-92254902D01*
X143832279Y-92237500D01*
X143824235Y-92230477D01*
X142768282Y-91174524D01*
X142765178Y-91170929D01*
X142763174Y-91166829D01*
X142728505Y-91134669D01*
X142726370Y-91132612D01*
X142713104Y-91119346D01*
X142710098Y-91117284D01*
X142708541Y-91115990D01*
X142705305Y-91113148D01*
X142690549Y-91099460D01*
X142685200Y-91094498D01*
X142673487Y-91089825D01*
X142658075Y-91081596D01*
X142647672Y-91074459D01*
X142621973Y-91068361D01*
X142610942Y-91064872D01*
X142586414Y-91055086D01*
X142580437Y-91054500D01*
X142572807Y-91054500D01*
X142554568Y-91052365D01*
X142544188Y-91049902D01*
X142536958Y-91050886D01*
X142536957Y-91050886D01*
X142515709Y-91053778D01*
X142505055Y-91054500D01*
X142194132Y-91054500D01*
X142143352Y-91036018D01*
X142134284Y-91027068D01*
X142072714Y-90955613D01*
X142069041Y-90951350D01*
X141988707Y-90899280D01*
X141951054Y-90874874D01*
X141951051Y-90874872D01*
X141946332Y-90871814D01*
X141876282Y-90850864D01*
X141811621Y-90831526D01*
X141811619Y-90831526D01*
X141806233Y-90829915D01*
X141660005Y-90829022D01*
X141660015Y-90827418D01*
X141614016Y-90817479D01*
X141600243Y-90806485D01*
X140418282Y-89624524D01*
X140415178Y-89620929D01*
X140413174Y-89616829D01*
X140378505Y-89584669D01*
X140376370Y-89582612D01*
X140363104Y-89569346D01*
X140360098Y-89567284D01*
X140358541Y-89565990D01*
X140355305Y-89563148D01*
X140351911Y-89560000D01*
X140335200Y-89544498D01*
X140323487Y-89539825D01*
X140308075Y-89531596D01*
X140297672Y-89524459D01*
X140271973Y-89518361D01*
X140260942Y-89514872D01*
X140236414Y-89505086D01*
X140230437Y-89504500D01*
X140222807Y-89504500D01*
X140204568Y-89502365D01*
X140194188Y-89499902D01*
X140186958Y-89500886D01*
X140186957Y-89500886D01*
X140165709Y-89503778D01*
X140155055Y-89504500D01*
X136036474Y-89504500D01*
X136031745Y-89504153D01*
X136027429Y-89502671D01*
X135980202Y-89504444D01*
X135977238Y-89504500D01*
X135958448Y-89504500D01*
X135954871Y-89505166D01*
X135952828Y-89505355D01*
X135948531Y-89505633D01*
X135928439Y-89506387D01*
X135928437Y-89506387D01*
X135921147Y-89506661D01*
X135909554Y-89511641D01*
X135892846Y-89516718D01*
X135880441Y-89519028D01*
X135864935Y-89528586D01*
X135857964Y-89532883D01*
X135847695Y-89538217D01*
X135823426Y-89548644D01*
X135818786Y-89552456D01*
X135813394Y-89557848D01*
X135798986Y-89569237D01*
X135796114Y-89571007D01*
X135796111Y-89571010D01*
X135789902Y-89574837D01*
X135785486Y-89580645D01*
X135772500Y-89597722D01*
X135765477Y-89605765D01*
X134729881Y-90641361D01*
X134680905Y-90664199D01*
X134674020Y-90664500D01*
X132668914Y-90664500D01*
X132618134Y-90646018D01*
X132591114Y-90599218D01*
X132590554Y-90584624D01*
X132590000Y-90584624D01*
X132590000Y-90073930D01*
X132586116Y-90063259D01*
X132580472Y-90060000D01*
X130603930Y-90060000D01*
X130593259Y-90063884D01*
X130590000Y-90069528D01*
X130590000Y-90796070D01*
X130593884Y-90806741D01*
X130599528Y-90810000D01*
X131520520Y-90810000D01*
X131571300Y-90828482D01*
X131598320Y-90875282D01*
X131588936Y-90928500D01*
X131576381Y-90944861D01*
X130263645Y-92257597D01*
X130214669Y-92280435D01*
X130175651Y-92273906D01*
X130171045Y-92271855D01*
X130097910Y-92239293D01*
X130093867Y-92238434D01*
X130093865Y-92238433D01*
X129914741Y-92200359D01*
X129914736Y-92200358D01*
X129910697Y-92199500D01*
X129719303Y-92199500D01*
X129715264Y-92200358D01*
X129715259Y-92200359D01*
X129536135Y-92238433D01*
X129536133Y-92238434D01*
X129532090Y-92239293D01*
X129528313Y-92240975D01*
X129528312Y-92240975D01*
X129361022Y-92315458D01*
X129361019Y-92315460D01*
X129357243Y-92317141D01*
X129353895Y-92319573D01*
X129353894Y-92319574D01*
X129278205Y-92374565D01*
X129202401Y-92429640D01*
X129199627Y-92432721D01*
X129107932Y-92534559D01*
X129074333Y-92571874D01*
X129072262Y-92575461D01*
X128987537Y-92722209D01*
X128978635Y-92737627D01*
X128919491Y-92919654D01*
X128919058Y-92923770D01*
X128919058Y-92923772D01*
X128906067Y-93047376D01*
X128882378Y-93095946D01*
X128850349Y-93110206D01*
X128803726Y-93110206D01*
X128804651Y-93109794D01*
X128781065Y-93103030D01*
X128750847Y-93058230D01*
X128748933Y-93047376D01*
X128735942Y-92923772D01*
X128735942Y-92923770D01*
X128735509Y-92919654D01*
X128676365Y-92737627D01*
X128667464Y-92722209D01*
X128582738Y-92575461D01*
X128580667Y-92571874D01*
X128547069Y-92534559D01*
X128455373Y-92432721D01*
X128452599Y-92429640D01*
X128297758Y-92317141D01*
X128252112Y-92296818D01*
X128126693Y-92240977D01*
X128126690Y-92240976D01*
X128122910Y-92239293D01*
X128118867Y-92238434D01*
X128118862Y-92238432D01*
X127939741Y-92200359D01*
X127939736Y-92200358D01*
X127935697Y-92199500D01*
X127744303Y-92199500D01*
X127740264Y-92200358D01*
X127740259Y-92200359D01*
X127561135Y-92238433D01*
X127561133Y-92238434D01*
X127557090Y-92239293D01*
X127553313Y-92240975D01*
X127553312Y-92240975D01*
X127386022Y-92315458D01*
X127386019Y-92315460D01*
X127382243Y-92317141D01*
X127378895Y-92319573D01*
X127378894Y-92319574D01*
X127303205Y-92374565D01*
X127227401Y-92429640D01*
X127224627Y-92432721D01*
X127132932Y-92534559D01*
X127099333Y-92571874D01*
X127097262Y-92575461D01*
X127012537Y-92722209D01*
X127003635Y-92737627D01*
X126944491Y-92919654D01*
X126924485Y-93110000D01*
X124872308Y-93110000D01*
X125084173Y-92728258D01*
X125130424Y-92644923D01*
X125132110Y-92642032D01*
X125591024Y-91891902D01*
X125592830Y-91889085D01*
X126083140Y-91159009D01*
X126085065Y-91156270D01*
X126089306Y-91150500D01*
X126505169Y-90584624D01*
X126508025Y-90580738D01*
X128090000Y-90580738D01*
X128090758Y-90588435D01*
X128102987Y-90649915D01*
X128108827Y-90664013D01*
X128155439Y-90733773D01*
X128166227Y-90744561D01*
X128235987Y-90791173D01*
X128250085Y-90797013D01*
X128311565Y-90809242D01*
X128319262Y-90810000D01*
X130076070Y-90810000D01*
X130086741Y-90806116D01*
X130090000Y-90800472D01*
X130090000Y-90073930D01*
X130086116Y-90063259D01*
X130080472Y-90060000D01*
X128103930Y-90060000D01*
X128093259Y-90063884D01*
X128090000Y-90069528D01*
X128090000Y-90580738D01*
X126508025Y-90580738D01*
X126605822Y-90447663D01*
X126607860Y-90445009D01*
X126797422Y-90208732D01*
X127140919Y-89780585D01*
X127148029Y-89773830D01*
X127149221Y-89772475D01*
X127151309Y-89770536D01*
X127153374Y-89768079D01*
X127159805Y-89763439D01*
X127160706Y-89761779D01*
X127162212Y-89760640D01*
X127165834Y-89753592D01*
X127167953Y-89751184D01*
X127169560Y-89748825D01*
X127172000Y-89745922D01*
X127172440Y-89746292D01*
X127176643Y-89740489D01*
X127341260Y-89573699D01*
X127348185Y-89567467D01*
X127362403Y-89556116D01*
X127549634Y-89406632D01*
X127557257Y-89401251D01*
X127599902Y-89374777D01*
X127776273Y-89265287D01*
X127784466Y-89260849D01*
X127833113Y-89238102D01*
X127977539Y-89170572D01*
X128031367Y-89165806D01*
X128075666Y-89196755D01*
X128090000Y-89242135D01*
X128090000Y-89546070D01*
X128093884Y-89556741D01*
X128099528Y-89560000D01*
X132576070Y-89560000D01*
X132586741Y-89556116D01*
X132590000Y-89550472D01*
X132590000Y-89069500D01*
X132608482Y-89018720D01*
X132655282Y-88991700D01*
X132669000Y-88990500D01*
X142123195Y-88990500D01*
X142140644Y-88992451D01*
G37*
G04 #@! TD.AperFunction*
M02*
