G04 #@! TF.GenerationSoftware,KiCad,Pcbnew,(6.0.6-0)*
G04 #@! TF.CreationDate,2023-01-05T22:31:35-05:00*
G04 #@! TF.ProjectId,10DIN2VGA,31304449-4e32-4564-9741-2e6b69636164,1.0*
G04 #@! TF.SameCoordinates,Original*
G04 #@! TF.FileFunction,Legend,Bot*
G04 #@! TF.FilePolarity,Positive*
%FSLAX46Y46*%
G04 Gerber Fmt 4.6, Leading zero omitted, Abs format (unit mm)*
G04 Created by KiCad (PCBNEW (6.0.6-0)) date 2023-01-05 22:31:35*
%MOMM*%
%LPD*%
G01*
G04 APERTURE LIST*
G04 Aperture macros list*
%AMRoundRect*
0 Rectangle with rounded corners*
0 $1 Rounding radius*
0 $2 $3 $4 $5 $6 $7 $8 $9 X,Y pos of 4 corners*
0 Add a 4 corners polygon primitive as box body*
4,1,4,$2,$3,$4,$5,$6,$7,$8,$9,$2,$3,0*
0 Add four circle primitives for the rounded corners*
1,1,$1+$1,$2,$3*
1,1,$1+$1,$4,$5*
1,1,$1+$1,$6,$7*
1,1,$1+$1,$8,$9*
0 Add four rect primitives between the rounded corners*
20,1,$1+$1,$2,$3,$4,$5,0*
20,1,$1+$1,$4,$5,$6,$7,0*
20,1,$1+$1,$6,$7,$8,$9,0*
20,1,$1+$1,$8,$9,$2,$3,0*%
%AMFreePoly0*
4,1,87,-0.648869,2.754349,-0.511172,2.720633,-0.497808,2.715259,-0.375109,2.644249,-0.363792,2.635340,-0.265954,2.532748,-0.257592,2.521021,-0.192482,2.395093,-0.187747,2.381490,-0.160596,2.242348,-0.159870,2.227962,-0.161257,2.212898,-0.122695,1.847685,-0.047787,1.458701,0.059894,1.077478,0.199570,0.706771,0.370223,0.349286,0.570637,0.007567,0.799340,-0.315875,1.054694,-0.618725,
1.334850,-0.898791,1.637794,-1.154057,1.943417,-1.370010,1.962932,-1.379260,1.974942,-1.387212,2.080856,-1.481443,2.090150,-1.492445,2.165360,-1.612614,2.171194,-1.625783,2.209654,-1.762232,2.211557,-1.776510,2.210174,-1.918268,2.207993,-1.932505,2.166879,-2.068177,2.160790,-2.081229,2.083250,-2.199910,2.073742,-2.210730,1.966009,-2.302876,1.953846,-2.310592,1.824581,-2.368798,
1.810742,-2.372790,1.670336,-2.392374,1.655933,-2.392321,1.515673,-2.371713,1.501863,-2.367620,1.373027,-2.308473,1.366180,-2.304665,1.355993,-2.297921,1.351138,-2.294138,1.000952,-2.048550,0.997801,-2.046152,0.654692,-1.763225,0.651738,-1.760589,0.331705,-1.451800,0.328965,-1.448942,0.033952,-1.116167,0.031443,-1.113105,-0.236758,-0.758366,-0.239021,-0.755117,-0.478780,-0.380567,
-0.480783,-0.377152,-0.690645,0.014932,-0.692376,0.018493,-0.871065,0.425730,-0.872513,0.429415,-1.018944,0.849331,-1.020101,0.853118,-1.133384,1.283163,-1.134243,1.287028,-1.213691,1.724589,-1.214246,1.728509,-1.259376,2.170928,-1.259573,2.173518,-1.260190,2.185720,-1.259980,2.193559,-1.245262,2.334558,-1.241751,2.348527,-1.188052,2.479727,-1.180762,2.492148,-1.092397,2.603005,
-1.081913,2.612882,-0.965986,2.694480,-0.953152,2.701017,-0.818983,2.746800,-0.804829,2.749472,-0.663203,2.755757,-0.648869,2.754349,-0.648869,2.754349,$1*%
%AMFreePoly1*
4,1,87,0.918046,2.696989,0.932129,2.693972,1.065139,2.644925,1.077810,2.638076,1.191709,2.553669,1.201949,2.543539,1.287578,2.430557,1.294562,2.417962,1.345041,2.285488,1.348210,2.271436,1.359477,2.130120,1.359496,2.122283,1.358582,2.110100,1.357675,2.104183,1.314943,1.683460,1.314398,1.679583,1.236405,1.246815,1.235562,1.242992,1.124474,0.817514,1.123340,0.813767,
0.979815,0.398108,0.978396,0.394459,0.803289,-0.008913,0.801592,-0.012441,0.595940,-0.401130,0.593978,-0.404518,0.359006,-0.776216,0.356788,-0.779442,0.093888,-1.131941,0.091428,-1.134987,-0.197836,-1.466194,-0.200523,-1.469041,-0.514434,-1.776988,-0.517332,-1.779620,-0.854026,-2.062479,-0.857119,-2.064880,-1.214595,-2.320970,-1.216728,-2.322417,-1.227008,-2.329019,-1.233911,-2.332734,
-1.363562,-2.390076,-1.377428,-2.393976,-1.517960,-2.412624,-1.532362,-2.412475,-1.672481,-2.390931,-1.686263,-2.386746,-1.814703,-2.326741,-1.826756,-2.318856,-1.933192,-2.225215,-1.942549,-2.214264,-2.018424,-2.094513,-2.024330,-2.081377,-2.063547,-1.945144,-2.065529,-1.930877,-2.064931,-1.789113,-2.062829,-1.774864,-2.022468,-1.638965,-2.016451,-1.625878,-1.939570,-1.506771,-1.930122,-1.495900,
-1.822902,-1.403157,-1.810782,-1.395373,-1.797476,-1.389293,-1.502887,-1.176688,-1.205644,-0.921595,-0.930874,-0.642432,-0.680528,-0.341183,-0.456367,-0.019967,-0.259976,0.318945,-0.092747,0.673153,0.044138,1.040153,0.149714,1.417356,0.223234,1.802087,0.261950,2.170433,0.260536,2.191395,0.261614,2.205758,0.292156,2.344193,0.297221,2.357676,0.365389,2.481976,0.374036,2.493496,
0.474351,2.593667,0.485883,2.602297,0.610281,2.670287,0.623771,2.675333,0.762250,2.705676,0.776615,2.706733,0.918046,2.696989,0.918046,2.696989,$1*%
%AMFreePoly2*
4,1,37,0.585921,0.785921,0.600800,0.750000,0.600800,-0.750000,0.585921,-0.785921,0.550000,-0.800800,0.000000,-0.800800,-0.012526,-0.795612,-0.080872,-0.794359,-0.095090,-0.792057,-0.230405,-0.749782,-0.243405,-0.743581,-0.361415,-0.665026,-0.372153,-0.655426,-0.463373,-0.546907,-0.470984,-0.534678,-0.528079,-0.404919,-0.531952,-0.391047,-0.549535,-0.256587,-0.548147,-0.256405,-0.550800,-0.250000,
-0.550800,0.250000,-0.550314,0.251174,-0.550158,0.263925,-0.528347,0.404002,-0.524136,0.417775,-0.463888,0.546100,-0.455980,0.558139,-0.362136,0.664397,-0.351168,0.673732,-0.231273,0.749380,-0.218125,0.755261,-0.081818,0.794218,-0.067547,0.796173,-0.011991,0.795833,0.000000,0.800800,0.550000,0.800800,0.585921,0.785921,0.585921,0.785921,$1*%
%AMFreePoly3*
4,1,37,0.012350,0.795685,0.074215,0.795307,0.088460,0.793178,0.224281,0.752559,0.237356,0.746518,0.356318,0.669411,0.367173,0.659942,0.459711,0.552545,0.467470,0.540411,0.526147,0.411359,0.530190,0.397535,0.550287,0.257202,0.550800,0.250000,0.550800,-0.250000,0.550796,-0.250620,0.550647,-0.262836,0.549947,-0.270644,0.526427,-0.410445,0.522048,-0.424167,0.460236,-0.551746,
0.452182,-0.563686,0.357047,-0.668790,0.345965,-0.677991,0.225155,-0.752168,0.211936,-0.757888,0.075163,-0.795177,0.060870,-0.796957,0.011464,-0.796051,0.000000,-0.800800,-0.550000,-0.800800,-0.585921,-0.785921,-0.600800,-0.750000,-0.600800,0.750000,-0.585921,0.785921,-0.550000,0.800800,0.000000,0.800800,0.012350,0.795685,0.012350,0.795685,$1*%
%AMFreePoly4*
4,1,37,0.535921,0.785921,0.550800,0.750000,0.550800,-0.750000,0.535921,-0.785921,0.500000,-0.800800,0.000000,-0.800800,-0.012526,-0.795612,-0.080872,-0.794359,-0.095090,-0.792057,-0.230405,-0.749782,-0.243405,-0.743581,-0.361415,-0.665026,-0.372153,-0.655426,-0.463373,-0.546907,-0.470984,-0.534678,-0.528079,-0.404919,-0.531952,-0.391047,-0.549535,-0.256587,-0.548147,-0.256405,-0.550800,-0.250000,
-0.550800,0.250000,-0.550314,0.251174,-0.550158,0.263925,-0.528347,0.404002,-0.524136,0.417775,-0.463888,0.546100,-0.455980,0.558139,-0.362136,0.664397,-0.351168,0.673732,-0.231273,0.749380,-0.218125,0.755261,-0.081818,0.794218,-0.067547,0.796173,-0.011991,0.795833,0.000000,0.800800,0.500000,0.800800,0.535921,0.785921,0.535921,0.785921,$1*%
%AMFreePoly5*
4,1,37,0.012350,0.795685,0.074215,0.795307,0.088460,0.793178,0.224281,0.752559,0.237356,0.746518,0.356318,0.669411,0.367173,0.659942,0.459711,0.552545,0.467470,0.540411,0.526147,0.411359,0.530190,0.397535,0.550287,0.257202,0.550800,0.250000,0.550800,-0.250000,0.550796,-0.250620,0.550647,-0.262836,0.549947,-0.270644,0.526427,-0.410445,0.522048,-0.424167,0.460236,-0.551746,
0.452182,-0.563686,0.357047,-0.668790,0.345965,-0.677991,0.225155,-0.752168,0.211936,-0.757888,0.075163,-0.795177,0.060870,-0.796957,0.011464,-0.796051,0.000000,-0.800800,-0.500000,-0.800800,-0.535921,-0.785921,-0.550800,-0.750000,-0.550800,0.750000,-0.535921,0.785921,-0.500000,0.800800,0.000000,0.800800,0.012350,0.795685,0.012350,0.795685,$1*%
G04 Aperture macros list end*
%ADD10C,0.127000*%
%ADD11C,0.150000*%
%ADD12C,0.120000*%
%ADD13C,1.601600*%
%ADD14RoundRect,0.050800X-2.000000X-0.750000X2.000000X-0.750000X2.000000X0.750000X-2.000000X0.750000X0*%
%ADD15FreePoly0,0.000000*%
%ADD16FreePoly1,0.000000*%
%ADD17O,1.609600X3.117600*%
%ADD18FreePoly2,90.000000*%
%ADD19RoundRect,0.050800X0.750000X-0.500000X0.750000X0.500000X-0.750000X0.500000X-0.750000X-0.500000X0*%
%ADD20FreePoly3,90.000000*%
%ADD21RoundRect,0.288300X0.300000X0.237500X-0.300000X0.237500X-0.300000X-0.237500X0.300000X-0.237500X0*%
%ADD22FreePoly4,270.000000*%
%ADD23FreePoly5,270.000000*%
G04 APERTURE END LIST*
D10*
X144245000Y-108476250D02*
X143607500Y-108476250D01*
X126740000Y-103905000D02*
X126740000Y-104480000D01*
X126740000Y-102812500D02*
X126740000Y-103367500D01*
X122940000Y-100370000D02*
X130610000Y-100370000D01*
X130610000Y-100370000D02*
X130610000Y-104760000D01*
X130610000Y-104760000D02*
X122940000Y-104760000D01*
X122940000Y-104760000D02*
X122940000Y-100370000D01*
X126740000Y-101690000D02*
X126740000Y-102245000D01*
X143607500Y-108476250D02*
X143932500Y-108163750D01*
X143932500Y-108163750D02*
X144245000Y-108476250D01*
X143140000Y-89380000D02*
X134650000Y-89380000D01*
X134650000Y-89380000D02*
X134650000Y-91090000D01*
X134650000Y-91090000D02*
X143140000Y-91090000D01*
X143140000Y-91090000D02*
X143140000Y-89380000D01*
D11*
X142647857Y-90634285D02*
X142519285Y-90677142D01*
X142305000Y-90677142D01*
X142219285Y-90634285D01*
X142176428Y-90591428D01*
X142133571Y-90505714D01*
X142133571Y-90420000D01*
X142176428Y-90334285D01*
X142219285Y-90291428D01*
X142305000Y-90248571D01*
X142476428Y-90205714D01*
X142562142Y-90162857D01*
X142605000Y-90120000D01*
X142647857Y-90034285D01*
X142647857Y-89948571D01*
X142605000Y-89862857D01*
X142562142Y-89820000D01*
X142476428Y-89777142D01*
X142262142Y-89777142D01*
X142133571Y-89820000D01*
X141362142Y-90677142D02*
X141362142Y-90205714D01*
X141405000Y-90120000D01*
X141490714Y-90077142D01*
X141662142Y-90077142D01*
X141747857Y-90120000D01*
X141362142Y-90634285D02*
X141447857Y-90677142D01*
X141662142Y-90677142D01*
X141747857Y-90634285D01*
X141790714Y-90548571D01*
X141790714Y-90462857D01*
X141747857Y-90377142D01*
X141662142Y-90334285D01*
X141447857Y-90334285D01*
X141362142Y-90291428D01*
X141062142Y-90077142D02*
X140719285Y-90077142D01*
X140933571Y-89777142D02*
X140933571Y-90548571D01*
X140890714Y-90634285D01*
X140805000Y-90677142D01*
X140719285Y-90677142D01*
X140033571Y-90077142D02*
X140033571Y-90677142D01*
X140419285Y-90077142D02*
X140419285Y-90548571D01*
X140376428Y-90634285D01*
X140290714Y-90677142D01*
X140162142Y-90677142D01*
X140076428Y-90634285D01*
X140033571Y-90591428D01*
X139605000Y-90677142D02*
X139605000Y-90077142D01*
X139605000Y-90248571D02*
X139562142Y-90162857D01*
X139519285Y-90120000D01*
X139433571Y-90077142D01*
X139347857Y-90077142D01*
X139047857Y-90077142D02*
X139047857Y-90677142D01*
X139047857Y-90162857D02*
X139005000Y-90120000D01*
X138919285Y-90077142D01*
X138790714Y-90077142D01*
X138705000Y-90120000D01*
X138662142Y-90205714D01*
X138662142Y-90677142D01*
X137590714Y-90634285D02*
X137462142Y-90677142D01*
X137247857Y-90677142D01*
X137162142Y-90634285D01*
X137119285Y-90591428D01*
X137076428Y-90505714D01*
X137076428Y-90420000D01*
X137119285Y-90334285D01*
X137162142Y-90291428D01*
X137247857Y-90248571D01*
X137419285Y-90205714D01*
X137505000Y-90162857D01*
X137547857Y-90120000D01*
X137590714Y-90034285D01*
X137590714Y-89948571D01*
X137547857Y-89862857D01*
X137505000Y-89820000D01*
X137419285Y-89777142D01*
X137205000Y-89777142D01*
X137076428Y-89820000D01*
X136690714Y-90677142D02*
X136690714Y-90077142D01*
X136690714Y-89777142D02*
X136733571Y-89820000D01*
X136690714Y-89862857D01*
X136647857Y-89820000D01*
X136690714Y-89777142D01*
X136690714Y-89862857D01*
X135876428Y-90677142D02*
X135876428Y-89777142D01*
X135876428Y-90634285D02*
X135962142Y-90677142D01*
X136133571Y-90677142D01*
X136219285Y-90634285D01*
X136262142Y-90591428D01*
X136305000Y-90505714D01*
X136305000Y-90248571D01*
X136262142Y-90162857D01*
X136219285Y-90120000D01*
X136133571Y-90077142D01*
X135962142Y-90077142D01*
X135876428Y-90120000D01*
X135105000Y-90634285D02*
X135190714Y-90677142D01*
X135362142Y-90677142D01*
X135447857Y-90634285D01*
X135490714Y-90548571D01*
X135490714Y-90205714D01*
X135447857Y-90120000D01*
X135362142Y-90077142D01*
X135190714Y-90077142D01*
X135105000Y-90120000D01*
X135062142Y-90205714D01*
X135062142Y-90291428D01*
X135490714Y-90377142D01*
D10*
X129290000Y-101177000D02*
X128927142Y-101177000D01*
X129362571Y-101394714D02*
X129108571Y-100632714D01*
X128854571Y-101394714D01*
X128491714Y-101394714D02*
X128564285Y-101358428D01*
X128600571Y-101285857D01*
X128600571Y-100632714D01*
X128310285Y-100886714D02*
X128020000Y-100886714D01*
X128201428Y-100632714D02*
X128201428Y-101285857D01*
X128165142Y-101358428D01*
X128092571Y-101394714D01*
X128020000Y-101394714D01*
X127766000Y-101104428D02*
X127185428Y-101104428D01*
X126858857Y-101358428D02*
X126750000Y-101394714D01*
X126568571Y-101394714D01*
X126496000Y-101358428D01*
X126459714Y-101322142D01*
X126423428Y-101249571D01*
X126423428Y-101177000D01*
X126459714Y-101104428D01*
X126496000Y-101068142D01*
X126568571Y-101031857D01*
X126713714Y-100995571D01*
X126786285Y-100959285D01*
X126822571Y-100923000D01*
X126858857Y-100850428D01*
X126858857Y-100777857D01*
X126822571Y-100705285D01*
X126786285Y-100669000D01*
X126713714Y-100632714D01*
X126532285Y-100632714D01*
X126423428Y-100669000D01*
X125951714Y-101031857D02*
X125951714Y-101394714D01*
X126205714Y-100632714D02*
X125951714Y-101031857D01*
X125697714Y-100632714D01*
X125443714Y-101394714D02*
X125443714Y-100632714D01*
X125008285Y-101394714D01*
X125008285Y-100632714D01*
X124210000Y-101322142D02*
X124246285Y-101358428D01*
X124355142Y-101394714D01*
X124427714Y-101394714D01*
X124536571Y-101358428D01*
X124609142Y-101285857D01*
X124645428Y-101213285D01*
X124681714Y-101068142D01*
X124681714Y-100959285D01*
X124645428Y-100814142D01*
X124609142Y-100741571D01*
X124536571Y-100669000D01*
X124427714Y-100632714D01*
X124355142Y-100632714D01*
X124246285Y-100669000D01*
X124210000Y-100705285D01*
D12*
X130886666Y-111756666D02*
X130886666Y-112256666D01*
X130920000Y-112356666D01*
X130986666Y-112423333D01*
X131086666Y-112456666D01*
X131153333Y-112456666D01*
X130286666Y-112423333D02*
X130353333Y-112456666D01*
X130486666Y-112456666D01*
X130553333Y-112423333D01*
X130586666Y-112356666D01*
X130586666Y-112090000D01*
X130553333Y-112023333D01*
X130486666Y-111990000D01*
X130353333Y-111990000D01*
X130286666Y-112023333D01*
X130253333Y-112090000D01*
X130253333Y-112156666D01*
X130586666Y-112223333D01*
X130053333Y-111990000D02*
X129786666Y-111990000D01*
X129953333Y-112456666D02*
X129953333Y-111856666D01*
X129920000Y-111790000D01*
X129853333Y-111756666D01*
X129786666Y-111756666D01*
X129653333Y-111990000D02*
X129386666Y-111990000D01*
X129553333Y-112456666D02*
X129553333Y-111856666D01*
X129520000Y-111790000D01*
X129453333Y-111756666D01*
X129386666Y-111756666D01*
X128220000Y-112390000D02*
X128253333Y-112423333D01*
X128353333Y-112456666D01*
X128420000Y-112456666D01*
X128520000Y-112423333D01*
X128586666Y-112356666D01*
X128620000Y-112290000D01*
X128653333Y-112156666D01*
X128653333Y-112056666D01*
X128620000Y-111923333D01*
X128586666Y-111856666D01*
X128520000Y-111790000D01*
X128420000Y-111756666D01*
X128353333Y-111756666D01*
X128253333Y-111790000D01*
X128220000Y-111823333D01*
X127920000Y-112456666D02*
X127920000Y-111756666D01*
X127620000Y-112456666D02*
X127620000Y-112090000D01*
X127653333Y-112023333D01*
X127720000Y-111990000D01*
X127820000Y-111990000D01*
X127886666Y-112023333D01*
X127920000Y-112056666D01*
X127020000Y-112423333D02*
X127086666Y-112456666D01*
X127220000Y-112456666D01*
X127286666Y-112423333D01*
X127320000Y-112356666D01*
X127320000Y-112090000D01*
X127286666Y-112023333D01*
X127220000Y-111990000D01*
X127086666Y-111990000D01*
X127020000Y-112023333D01*
X126986666Y-112090000D01*
X126986666Y-112156666D01*
X127320000Y-112223333D01*
X126686666Y-111990000D02*
X126686666Y-112456666D01*
X126686666Y-112056666D02*
X126653333Y-112023333D01*
X126586666Y-111990000D01*
X126486666Y-111990000D01*
X126420000Y-112023333D01*
X126386666Y-112090000D01*
X126386666Y-112456666D01*
X126020000Y-112423333D02*
X126020000Y-112456666D01*
X126053333Y-112523333D01*
X126086666Y-112556666D01*
X125220000Y-111823333D02*
X125186666Y-111790000D01*
X125120000Y-111756666D01*
X124953333Y-111756666D01*
X124886666Y-111790000D01*
X124853333Y-111823333D01*
X124820000Y-111890000D01*
X124820000Y-111956666D01*
X124853333Y-112056666D01*
X125253333Y-112456666D01*
X124820000Y-112456666D01*
X124386666Y-111756666D02*
X124320000Y-111756666D01*
X124253333Y-111790000D01*
X124220000Y-111823333D01*
X124186666Y-111890000D01*
X124153333Y-112023333D01*
X124153333Y-112190000D01*
X124186666Y-112323333D01*
X124220000Y-112390000D01*
X124253333Y-112423333D01*
X124320000Y-112456666D01*
X124386666Y-112456666D01*
X124453333Y-112423333D01*
X124486666Y-112390000D01*
X124520000Y-112323333D01*
X124553333Y-112190000D01*
X124553333Y-112023333D01*
X124520000Y-111890000D01*
X124486666Y-111823333D01*
X124453333Y-111790000D01*
X124386666Y-111756666D01*
X123886666Y-111823333D02*
X123853333Y-111790000D01*
X123786666Y-111756666D01*
X123620000Y-111756666D01*
X123553333Y-111790000D01*
X123520000Y-111823333D01*
X123486666Y-111890000D01*
X123486666Y-111956666D01*
X123520000Y-112056666D01*
X123920000Y-112456666D01*
X123486666Y-112456666D01*
X123253333Y-111756666D02*
X122820000Y-111756666D01*
X123053333Y-112023333D01*
X122953333Y-112023333D01*
X122886666Y-112056666D01*
X122853333Y-112090000D01*
X122820000Y-112156666D01*
X122820000Y-112323333D01*
X122853333Y-112390000D01*
X122886666Y-112423333D01*
X122953333Y-112456666D01*
X123153333Y-112456666D01*
X123220000Y-112423333D01*
X123253333Y-112390000D01*
D10*
X142993714Y-110691304D02*
X143429142Y-110691304D01*
X143211428Y-110691304D02*
X143211428Y-109929304D01*
X143284000Y-110038161D01*
X143356571Y-110110732D01*
X143429142Y-110147018D01*
X142522000Y-109929304D02*
X142449428Y-109929304D01*
X142376857Y-109965590D01*
X142340571Y-110001875D01*
X142304285Y-110074447D01*
X142268000Y-110219590D01*
X142268000Y-110401018D01*
X142304285Y-110546161D01*
X142340571Y-110618732D01*
X142376857Y-110655018D01*
X142449428Y-110691304D01*
X142522000Y-110691304D01*
X142594571Y-110655018D01*
X142630857Y-110618732D01*
X142667142Y-110546161D01*
X142703428Y-110401018D01*
X142703428Y-110219590D01*
X142667142Y-110074447D01*
X142630857Y-110001875D01*
X142594571Y-109965590D01*
X142522000Y-109929304D01*
X141941428Y-110691304D02*
X141941428Y-109929304D01*
X141760000Y-109929304D01*
X141651142Y-109965590D01*
X141578571Y-110038161D01*
X141542285Y-110110732D01*
X141506000Y-110255875D01*
X141506000Y-110364732D01*
X141542285Y-110509875D01*
X141578571Y-110582447D01*
X141651142Y-110655018D01*
X141760000Y-110691304D01*
X141941428Y-110691304D01*
X141179428Y-110691304D02*
X141179428Y-109929304D01*
X140816571Y-110691304D02*
X140816571Y-109929304D01*
X140381142Y-110691304D01*
X140381142Y-109929304D01*
X140054571Y-110001875D02*
X140018285Y-109965590D01*
X139945714Y-109929304D01*
X139764285Y-109929304D01*
X139691714Y-109965590D01*
X139655428Y-110001875D01*
X139619142Y-110074447D01*
X139619142Y-110147018D01*
X139655428Y-110255875D01*
X140090857Y-110691304D01*
X139619142Y-110691304D01*
X139401428Y-109929304D02*
X139147428Y-110691304D01*
X138893428Y-109929304D01*
X138240285Y-109965590D02*
X138312857Y-109929304D01*
X138421714Y-109929304D01*
X138530571Y-109965590D01*
X138603142Y-110038161D01*
X138639428Y-110110732D01*
X138675714Y-110255875D01*
X138675714Y-110364732D01*
X138639428Y-110509875D01*
X138603142Y-110582447D01*
X138530571Y-110655018D01*
X138421714Y-110691304D01*
X138349142Y-110691304D01*
X138240285Y-110655018D01*
X138204000Y-110618732D01*
X138204000Y-110364732D01*
X138349142Y-110364732D01*
X137913714Y-110473590D02*
X137550857Y-110473590D01*
X137986285Y-110691304D02*
X137732285Y-109929304D01*
X137478285Y-110691304D01*
X143011857Y-111918124D02*
X143011857Y-111156124D01*
X142721571Y-111156124D01*
X142649000Y-111192410D01*
X142612714Y-111228695D01*
X142576428Y-111301267D01*
X142576428Y-111410124D01*
X142612714Y-111482695D01*
X142649000Y-111518981D01*
X142721571Y-111555267D01*
X143011857Y-111555267D01*
X142141000Y-111918124D02*
X142213571Y-111881838D01*
X142249857Y-111809267D01*
X142249857Y-111156124D01*
X141524142Y-111410124D02*
X141524142Y-111918124D01*
X141850714Y-111410124D02*
X141850714Y-111809267D01*
X141814428Y-111881838D01*
X141741857Y-111918124D01*
X141633000Y-111918124D01*
X141560428Y-111881838D01*
X141524142Y-111845552D01*
X140834714Y-111410124D02*
X140834714Y-112026981D01*
X140871000Y-112099552D01*
X140907285Y-112135838D01*
X140979857Y-112172124D01*
X141088714Y-112172124D01*
X141161285Y-112135838D01*
X140834714Y-111881838D02*
X140907285Y-111918124D01*
X141052428Y-111918124D01*
X141125000Y-111881838D01*
X141161285Y-111845552D01*
X141197571Y-111772981D01*
X141197571Y-111555267D01*
X141161285Y-111482695D01*
X141125000Y-111446410D01*
X141052428Y-111410124D01*
X140907285Y-111410124D01*
X140834714Y-111446410D01*
X139891285Y-111918124D02*
X139891285Y-111156124D01*
X139601000Y-111156124D01*
X139528428Y-111192410D01*
X139492142Y-111228695D01*
X139455857Y-111301267D01*
X139455857Y-111410124D01*
X139492142Y-111482695D01*
X139528428Y-111518981D01*
X139601000Y-111555267D01*
X139891285Y-111555267D01*
X138693857Y-111845552D02*
X138730142Y-111881838D01*
X138839000Y-111918124D01*
X138911571Y-111918124D01*
X139020428Y-111881838D01*
X139093000Y-111809267D01*
X139129285Y-111736695D01*
X139165571Y-111591552D01*
X139165571Y-111482695D01*
X139129285Y-111337552D01*
X139093000Y-111264981D01*
X139020428Y-111192410D01*
X138911571Y-111156124D01*
X138839000Y-111156124D01*
X138730142Y-111192410D01*
X138693857Y-111228695D01*
X138113285Y-111518981D02*
X138004428Y-111555267D01*
X137968142Y-111591552D01*
X137931857Y-111664124D01*
X137931857Y-111772981D01*
X137968142Y-111845552D01*
X138004428Y-111881838D01*
X138077000Y-111918124D01*
X138367285Y-111918124D01*
X138367285Y-111156124D01*
X138113285Y-111156124D01*
X138040714Y-111192410D01*
X138004428Y-111228695D01*
X137968142Y-111301267D01*
X137968142Y-111373838D01*
X138004428Y-111446410D01*
X138040714Y-111482695D01*
X138113285Y-111518981D01*
X138367285Y-111518981D01*
X129480285Y-104050285D02*
X129480285Y-104413142D01*
X130242285Y-104413142D01*
X130242285Y-103796285D02*
X129625428Y-103796285D01*
X129552857Y-103760000D01*
X129516571Y-103723714D01*
X129480285Y-103651142D01*
X129480285Y-103506000D01*
X129516571Y-103433428D01*
X129552857Y-103397142D01*
X129625428Y-103360857D01*
X130242285Y-103360857D01*
X129480285Y-102998000D02*
X130242285Y-102998000D01*
X129698000Y-102744000D01*
X130242285Y-102490000D01*
X129480285Y-102490000D01*
X129698000Y-102163428D02*
X129698000Y-101800571D01*
X129480285Y-102236000D02*
X130242285Y-101982000D01*
X129480285Y-101728000D01*
X123952142Y-102285428D02*
X123988428Y-102249142D01*
X124024714Y-102140285D01*
X124024714Y-102067714D01*
X123988428Y-101958857D01*
X123915857Y-101886285D01*
X123843285Y-101850000D01*
X123698142Y-101813714D01*
X123589285Y-101813714D01*
X123444142Y-101850000D01*
X123371571Y-101886285D01*
X123299000Y-101958857D01*
X123262714Y-102067714D01*
X123262714Y-102140285D01*
X123299000Y-102249142D01*
X123335285Y-102285428D01*
X123262714Y-102503142D02*
X124024714Y-102757142D01*
X123262714Y-103011142D01*
X123625571Y-103519142D02*
X123661857Y-103628000D01*
X123698142Y-103664285D01*
X123770714Y-103700571D01*
X123879571Y-103700571D01*
X123952142Y-103664285D01*
X123988428Y-103628000D01*
X124024714Y-103555428D01*
X124024714Y-103265142D01*
X123262714Y-103265142D01*
X123262714Y-103519142D01*
X123299000Y-103591714D01*
X123335285Y-103628000D01*
X123407857Y-103664285D01*
X123480428Y-103664285D01*
X123553000Y-103628000D01*
X123589285Y-103591714D01*
X123625571Y-103519142D01*
X123625571Y-103265142D01*
X123988428Y-103990857D02*
X124024714Y-104099714D01*
X124024714Y-104281142D01*
X123988428Y-104353714D01*
X123952142Y-104390000D01*
X123879571Y-104426285D01*
X123807000Y-104426285D01*
X123734428Y-104390000D01*
X123698142Y-104353714D01*
X123661857Y-104281142D01*
X123625571Y-104136000D01*
X123589285Y-104063428D01*
X123553000Y-104027142D01*
X123480428Y-103990857D01*
X123407857Y-103990857D01*
X123335285Y-104027142D01*
X123299000Y-104063428D01*
X123262714Y-104136000D01*
X123262714Y-104317428D01*
X123299000Y-104426285D01*
D12*
X143285476Y-108259285D02*
X142904523Y-108259285D01*
X142904523Y-108402142D02*
X143285476Y-108402142D01*
X142380714Y-108521190D02*
X142547380Y-108283095D01*
X142666428Y-108521190D02*
X142666428Y-108021190D01*
X142475952Y-108021190D01*
X142428333Y-108045000D01*
X142404523Y-108068809D01*
X142380714Y-108116428D01*
X142380714Y-108187857D01*
X142404523Y-108235476D01*
X142428333Y-108259285D01*
X142475952Y-108283095D01*
X142666428Y-108283095D01*
X141904523Y-108045000D02*
X141952142Y-108021190D01*
X142023571Y-108021190D01*
X142095000Y-108045000D01*
X142142619Y-108092619D01*
X142166428Y-108140238D01*
X142190238Y-108235476D01*
X142190238Y-108306904D01*
X142166428Y-108402142D01*
X142142619Y-108449761D01*
X142095000Y-108497380D01*
X142023571Y-108521190D01*
X141975952Y-108521190D01*
X141904523Y-108497380D01*
X141880714Y-108473571D01*
X141880714Y-108306904D01*
X141975952Y-108306904D01*
X141499761Y-108259285D02*
X141428333Y-108283095D01*
X141404523Y-108306904D01*
X141380714Y-108354523D01*
X141380714Y-108425952D01*
X141404523Y-108473571D01*
X141428333Y-108497380D01*
X141475952Y-108521190D01*
X141666428Y-108521190D01*
X141666428Y-108021190D01*
X141499761Y-108021190D01*
X141452142Y-108045000D01*
X141428333Y-108068809D01*
X141404523Y-108116428D01*
X141404523Y-108164047D01*
X141428333Y-108211666D01*
X141452142Y-108235476D01*
X141499761Y-108259285D01*
X141666428Y-108259285D01*
D11*
X127516666Y-109807142D02*
X127564285Y-109854761D01*
X127707142Y-109902380D01*
X127802380Y-109902380D01*
X127945238Y-109854761D01*
X128040476Y-109759523D01*
X128088095Y-109664285D01*
X128135714Y-109473809D01*
X128135714Y-109330952D01*
X128088095Y-109140476D01*
X128040476Y-109045238D01*
X127945238Y-108950000D01*
X127802380Y-108902380D01*
X127707142Y-108902380D01*
X127564285Y-108950000D01*
X127516666Y-108997619D01*
X127183333Y-108902380D02*
X126564285Y-108902380D01*
X126897619Y-109283333D01*
X126754761Y-109283333D01*
X126659523Y-109330952D01*
X126611904Y-109378571D01*
X126564285Y-109473809D01*
X126564285Y-109711904D01*
X126611904Y-109807142D01*
X126659523Y-109854761D01*
X126754761Y-109902380D01*
X127040476Y-109902380D01*
X127135714Y-109854761D01*
X127183333Y-109807142D01*
X133006666Y-109807142D02*
X133054285Y-109854761D01*
X133197142Y-109902380D01*
X133292380Y-109902380D01*
X133435238Y-109854761D01*
X133530476Y-109759523D01*
X133578095Y-109664285D01*
X133625714Y-109473809D01*
X133625714Y-109330952D01*
X133578095Y-109140476D01*
X133530476Y-109045238D01*
X133435238Y-108950000D01*
X133292380Y-108902380D01*
X133197142Y-108902380D01*
X133054285Y-108950000D01*
X133006666Y-108997619D01*
X132625714Y-108997619D02*
X132578095Y-108950000D01*
X132482857Y-108902380D01*
X132244761Y-108902380D01*
X132149523Y-108950000D01*
X132101904Y-108997619D01*
X132054285Y-109092857D01*
X132054285Y-109188095D01*
X132101904Y-109330952D01*
X132673333Y-109902380D01*
X132054285Y-109902380D01*
D12*
X127740000Y-98335000D02*
X132915000Y-98335000D01*
X134947072Y-94506088D02*
G75*
G03*
X134947072Y-94506088I-4621187J0D01*
G01*
X141660000Y-102370000D02*
X141660000Y-101770000D01*
X141960000Y-102070000D02*
X141660000Y-101770000D01*
X142160000Y-99470000D02*
X142160000Y-102270000D01*
X144160000Y-102270000D02*
X144160000Y-99470000D01*
X141960000Y-102070000D02*
X141660000Y-102370000D01*
X142860000Y-102920000D02*
X143460000Y-102920000D01*
X143460000Y-98820000D02*
X142860000Y-98820000D01*
X144160000Y-99520000D02*
G75*
G03*
X143460000Y-98820000I-700000J0D01*
G01*
X142860000Y-98820000D02*
G75*
G03*
X142160000Y-99520000I0J-700000D01*
G01*
X142160000Y-102220000D02*
G75*
G03*
X142860000Y-102920000I699999J-1D01*
G01*
X143460000Y-102920000D02*
G75*
G03*
X144160000Y-102220000I1J699999D01*
G01*
X142862500Y-98220000D02*
X143462500Y-98220000D01*
X143462500Y-94120000D02*
X142862500Y-94120000D01*
X141962500Y-97370000D02*
X141662500Y-97070000D01*
X142162500Y-94770000D02*
X142162500Y-97570000D01*
X141662500Y-97670000D02*
X141662500Y-97070000D01*
X141962500Y-97370000D02*
X141662500Y-97670000D01*
X144162500Y-97570000D02*
X144162500Y-94770000D01*
X144162500Y-94820000D02*
G75*
G03*
X143462500Y-94120000I-700000J0D01*
G01*
X143462500Y-98220000D02*
G75*
G03*
X144162500Y-97520000I1J699999D01*
G01*
X142862500Y-94120000D02*
G75*
G03*
X142162500Y-94820000I0J-700000D01*
G01*
X142162500Y-97520000D02*
G75*
G03*
X142862500Y-98220000I699999J-1D01*
G01*
X141670000Y-107080000D02*
X141670000Y-106480000D01*
X144170000Y-106980000D02*
X144170000Y-104180000D01*
X141970000Y-106780000D02*
X141670000Y-107080000D01*
X142170000Y-104180000D02*
X142170000Y-106980000D01*
X141970000Y-106780000D02*
X141670000Y-106480000D01*
X143470000Y-103530000D02*
X142870000Y-103530000D01*
X142870000Y-107630000D02*
X143470000Y-107630000D01*
X144170000Y-104230000D02*
G75*
G03*
X143470000Y-103530000I-700000J0D01*
G01*
X143470000Y-107630000D02*
G75*
G03*
X144170000Y-106930000I1J699999D01*
G01*
X142170000Y-106930000D02*
G75*
G03*
X142870000Y-107630000I699999J-1D01*
G01*
X142870000Y-103530000D02*
G75*
G03*
X142170000Y-104230000I0J-700000D01*
G01*
X127476267Y-111140000D02*
X127183733Y-111140000D01*
X127476267Y-110120000D02*
X127183733Y-110120000D01*
X126310000Y-103780000D02*
X126310000Y-102380000D01*
X125610000Y-101680000D02*
X125010000Y-101680000D01*
X124310000Y-102380000D02*
X124310000Y-103780000D01*
X125010000Y-104480000D02*
X125610000Y-104480000D01*
X126310000Y-102380000D02*
G75*
G03*
X125610000Y-101680000I-699999J1D01*
G01*
X125010000Y-101680000D02*
G75*
G03*
X124310000Y-102380000I-1J-699999D01*
G01*
X125610000Y-104480000D02*
G75*
G03*
X126310000Y-103780000I0J700000D01*
G01*
X124310000Y-103780000D02*
G75*
G03*
X125010000Y-104480000I700000J0D01*
G01*
X127180000Y-102380000D02*
X127180000Y-103780000D01*
X129180000Y-103780000D02*
X129180000Y-102380000D01*
X128480000Y-101680000D02*
X127880000Y-101680000D01*
X127880000Y-104480000D02*
X128480000Y-104480000D01*
X128480000Y-104480000D02*
G75*
G03*
X129180000Y-103780000I0J700000D01*
G01*
X127880000Y-101680000D02*
G75*
G03*
X127180000Y-102380000I-1J-699999D01*
G01*
X127180000Y-103780000D02*
G75*
G03*
X127880000Y-104480000I700000J0D01*
G01*
X129180000Y-102380000D02*
G75*
G03*
X128480000Y-101680000I-699999J1D01*
G01*
X132971267Y-110140000D02*
X132678733Y-110140000D01*
X132971267Y-111160000D02*
X132678733Y-111160000D01*
%LPC*%
D13*
X140021496Y-105950007D03*
X138246496Y-104700007D03*
X138246496Y-107250007D03*
X140021496Y-95800007D03*
X138246496Y-102150007D03*
X138246496Y-99625007D03*
X138246496Y-97075007D03*
X140021496Y-103425007D03*
X140021496Y-98325007D03*
X140046496Y-100875007D03*
X138246496Y-94525007D03*
X132315000Y-97110000D03*
X130315000Y-97110000D03*
X128315000Y-97110000D03*
X133340000Y-95110000D03*
X131315000Y-95110000D03*
X129340000Y-95110000D03*
X127340000Y-95110000D03*
X132840000Y-93110000D03*
X129815000Y-93110000D03*
X127840000Y-93110000D03*
D14*
X130340000Y-89810000D03*
D15*
X125865000Y-97035000D03*
D16*
X134690000Y-96985000D03*
D17*
X123440000Y-108840000D03*
X125840000Y-106840000D03*
X131340000Y-106840000D03*
X135040000Y-108840000D03*
X129540000Y-108840000D03*
D18*
X143160000Y-102170000D03*
D19*
X143160000Y-100870000D03*
D20*
X143160000Y-99570000D03*
D18*
X143162500Y-97470000D03*
D19*
X143162500Y-96170000D03*
D20*
X143162500Y-94870000D03*
D18*
X143170000Y-106880000D03*
D19*
X143170000Y-105580000D03*
D20*
X143170000Y-104280000D03*
D21*
X128192500Y-110630000D03*
X126467500Y-110630000D03*
D22*
X125310000Y-102430000D03*
D23*
X125310000Y-103730000D03*
D22*
X128180000Y-102430000D03*
D23*
X128180000Y-103730000D03*
D21*
X133687500Y-110650000D03*
X131962500Y-110650000D03*
M02*
